<svg width="100" height="100" viewBox="0 0 100 100" fill="none" xmlns="http://www.w3.org/2000/svg">
<path d="M47.5056 91.6415C49.1496 91.2929 50.849 91.2931 52.493 91.6415L59.7878 93.1856L57.7564 95.0174C53.3871 98.947 46.7554 98.9467 42.386 95.0174L40.3253 93.1621L47.5056 91.6415Z" fill="#E1E1E1"/>
<path d="M47.5056 91.6415C49.1496 91.2929 50.849 91.2931 52.493 91.6415L59.7878 93.1856L57.7564 95.0174C53.3871 98.947 46.7554 98.9467 42.386 95.0174L40.3253 93.1621L47.5056 91.6415Z" fill="url(#paint0_radial_619_1228)"/>
<path d="M47.5056 91.6415C49.1496 91.2929 50.849 91.2931 52.493 91.6415L59.7878 93.1856L57.7564 95.0174C53.3871 98.947 46.7554 98.9467 42.386 95.0174L40.3253 93.1621L47.5056 91.6415Z" fill="black" fill-opacity="0.7"/>
<path d="M65.5855 93.6465C65.8312 93.6986 66.0768 93.744 66.3223 93.7815L67.0591 93.8725C66.5693 93.827 66.0773 93.7507 65.5855 93.6465Z" fill="#E1E1E1"/>
<path d="M65.5855 93.6465C65.8312 93.6986 66.0768 93.744 66.3223 93.7815L67.0591 93.8725C66.5693 93.827 66.0773 93.7507 65.5855 93.6465Z" fill="url(#paint1_radial_619_1228)"/>
<path d="M32.5843 93.3676L32.0148 93.3911C32.2549 93.386 32.4955 93.37 32.7369 93.35C32.6859 93.3542 32.6353 93.3641 32.5843 93.3676Z" fill="#E1E1E1"/>
<path d="M32.5843 93.3676L32.0148 93.3911C32.2549 93.386 32.4955 93.37 32.7369 93.35C32.6859 93.3542 32.6353 93.3641 32.5843 93.3676Z" fill="url(#paint2_radial_619_1228)"/>
<path d="M26.8718 85.1922C28.47 85.7124 29.9432 86.5633 31.1928 87.6874L35.9866 91.9996L34.146 92.393C28.3975 93.6113 22.6557 90.2951 20.8363 84.7078L20.2932 83.0492L26.8718 85.1922Z" fill="#E1E1E1"/>
<path d="M26.8718 85.1922C28.47 85.7124 29.9432 86.5633 31.1928 87.6874L35.9866 91.9996L34.146 92.393C28.3975 93.6113 22.6557 90.2951 20.8363 84.7078L20.2932 83.0492L26.8718 85.1922Z" fill="url(#paint3_radial_619_1228)"/>
<path d="M26.8718 85.1922C28.47 85.7124 29.9432 86.5633 31.1928 87.6874L35.9866 91.9996L34.146 92.393C28.3975 93.6113 22.6557 90.2951 20.8363 84.7078L20.2932 83.0492L26.8718 85.1922Z" fill="black" fill-opacity="0.7"/>
<path d="M79.1652 84.7078C77.3459 90.2958 71.6015 93.6118 65.8526 92.393L64.1206 92.0261L68.9496 87.6874C70.1991 86.5634 71.6697 85.7125 73.2677 85.1922L79.6848 83.1021L79.1652 84.7078Z" fill="#E1E1E1"/>
<path d="M79.1652 84.7078C77.3459 90.2958 71.6015 93.6118 65.8526 92.393L64.1206 92.0261L68.9496 87.6874C70.1991 86.5634 71.6697 85.7125 73.2677 85.1922L79.6848 83.1021L79.1652 84.7078Z" fill="url(#paint4_radial_619_1228)"/>
<path d="M79.1652 84.7078C77.3459 90.2958 71.6015 93.6118 65.8526 92.393L64.1206 92.0261L68.9496 87.6874C70.1991 86.5634 71.6697 85.7125 73.2677 85.1922L79.6848 83.1021L79.1652 84.7078Z" fill="black" fill-opacity="0.7"/>
<path d="M44.5818 83.5541C44.205 83.5913 43.8279 83.6122 43.4516 83.6158C43.2625 83.6175 43.0736 83.6136 42.885 83.607C43.4489 83.6267 44.0156 83.61 44.5818 83.5541Z" fill="#E1E1E1"/>
<path d="M44.5818 83.5541C44.205 83.5913 43.8279 83.6122 43.4516 83.6158C43.2625 83.6175 43.0736 83.6136 42.885 83.607C43.4489 83.6267 44.0156 83.61 44.5818 83.5541Z" fill="url(#paint5_radial_619_1228)"/>
<path d="M46.8363 83.1226L46.2756 83.2694C46.4938 83.2175 46.7106 83.1573 46.9273 83.0933C46.8967 83.1023 46.8669 83.1138 46.8363 83.1226Z" fill="#E1E1E1"/>
<path d="M46.8363 83.1226L46.2756 83.2694C46.4938 83.2175 46.7106 83.1573 46.9273 83.0933C46.8967 83.1023 46.8669 83.1138 46.8363 83.1226Z" fill="url(#paint6_radial_619_1228)"/>
<path d="M38.2792 78.8221L38.2821 78.825L38.605 78.8426C40.1739 78.9669 41.7065 79.4018 43.1111 80.1166L46.5486 81.8691C42.3795 83.091 37.8436 81.8414 34.8887 78.643L38.2792 78.8221Z" fill="#E1E1E1"/>
<path d="M38.2792 78.8221L38.2821 78.825L38.605 78.8426C40.1739 78.9669 41.7065 79.4018 43.1111 80.1166L46.5486 81.8691C42.3795 83.091 37.8436 81.8414 34.8887 78.643L38.2792 78.8221Z" fill="url(#paint7_radial_619_1228)"/>
<path d="M38.2792 78.8221L38.2821 78.825L38.605 78.8426C40.1739 78.9669 41.7065 79.4018 43.1111 80.1166L46.5486 81.8691C42.3795 83.091 37.8436 81.8414 34.8887 78.643L38.2792 78.8221Z" fill="black" fill-opacity="0.7"/>
<path d="M62.374 78.8514C59.5383 81.6339 55.4471 82.7531 51.5948 81.8046L54.5508 80.3016C56.0484 79.5397 57.6902 79.1018 59.368 79.0129L62.374 78.8514Z" fill="#E1E1E1"/>
<path d="M62.374 78.8514C59.5383 81.6339 55.4471 82.7531 51.5948 81.8046L54.5508 80.3016C56.0484 79.5397 57.6902 79.1018 59.368 79.0129L62.374 78.8514Z" fill="url(#paint8_radial_619_1228)"/>
<path d="M62.374 78.8514C59.5383 81.6339 55.4471 82.7531 51.5948 81.8046L54.5508 80.3016C56.0484 79.5397 57.6902 79.1018 59.368 79.0129L62.374 78.8514Z" fill="black" fill-opacity="0.7"/>
<path d="M75.6015 67.5673C74.6668 72.0275 71.1597 75.5302 66.6951 76.4531L68.7911 73.2328C69.7072 71.8239 70.9105 70.6233 72.3196 69.7073L75.6015 67.5673Z" fill="#E1E1E1"/>
<path d="M75.6015 67.5673C74.6668 72.0275 71.1597 75.5302 66.6951 76.4531L68.7911 73.2328C69.7072 71.8239 70.9105 70.6233 72.3196 69.7073L75.6015 67.5673Z" fill="url(#paint9_radial_619_1228)"/>
<path d="M75.6015 67.5673C74.6668 72.0275 71.1597 75.5302 66.6951 76.4531L68.7911 73.2328C69.7072 71.8239 70.9105 70.6233 72.3196 69.7073L75.6015 67.5673Z" fill="black" fill-opacity="0.7"/>
<path d="M25.3394 69.8922L25.6007 70.0683C26.8968 70.9601 28.009 72.0998 28.8679 73.4207L30.6674 76.1918C26.4969 75.2122 23.2117 71.9756 22.1661 67.8315L25.3394 69.8922Z" fill="#E1E1E1"/>
<path d="M25.3394 69.8922L25.6007 70.0683C26.8968 70.9601 28.009 72.0998 28.8679 73.4207L30.6674 76.1918C26.4969 75.2122 23.2117 71.9756 22.1661 67.8315L25.3394 69.8922Z" fill="url(#paint10_radial_619_1228)"/>
<path d="M25.3394 69.8922L25.6007 70.0683C26.8968 70.9601 28.009 72.0998 28.8679 73.4207L30.6674 76.1918C26.4969 75.2122 23.2117 71.9756 22.1661 67.8315L25.3394 69.8922Z" fill="black" fill-opacity="0.7"/>
<path d="M18.1943 55.197L18.3411 55.4876C19.0178 56.9082 19.4084 58.4499 19.4918 60.023L19.668 63.4282C16.8758 60.5452 15.789 56.3852 16.8205 52.4992L18.1943 55.197Z" fill="#E1E1E1"/>
<path d="M18.1943 55.197L18.3411 55.4876C19.0178 56.9082 19.4084 58.4499 19.4918 60.023L19.668 63.4282C16.8758 60.5452 15.789 56.3852 16.8205 52.4992L18.1943 55.197Z" fill="url(#paint11_radial_619_1228)"/>
<path d="M18.1943 55.197L18.3411 55.4876C19.0178 56.9082 19.4084 58.4499 19.4918 60.023L19.668 63.4282C16.8758 60.5452 15.789 56.3852 16.8205 52.4992L18.1943 55.197Z" fill="black" fill-opacity="0.7"/>
<path d="M80.9001 52.5609C81.8196 56.3664 80.728 60.399 78.0086 63.2197L78.1671 60.2108C78.2503 58.641 78.6408 57.1024 79.3149 55.6843L79.4617 55.3936L80.9001 52.5609Z" fill="#E1E1E1"/>
<path d="M80.9001 52.5609C81.8196 56.3664 80.728 60.399 78.0086 63.2197L78.1671 60.2108C78.2503 58.641 78.6408 57.1024 79.3149 55.6843L79.4617 55.3936L80.9001 52.5609Z" fill="url(#paint12_radial_619_1228)"/>
<path d="M80.9001 52.5609C81.8196 56.3664 80.728 60.399 78.0086 63.2197L78.1671 60.2108C78.2503 58.641 78.6408 57.1024 79.3149 55.6843L79.4617 55.3936L80.9001 52.5609Z" fill="black" fill-opacity="0.7"/>
<path d="M81.8336 47.2916L81.681 47.817C81.7593 47.5669 81.828 47.3151 81.8894 47.0626C81.8709 47.1389 81.8537 47.2155 81.8336 47.2916Z" fill="#E1E1E1"/>
<path d="M81.8336 47.2916L81.681 47.817C81.7593 47.5669 81.828 47.3151 81.8894 47.0626C81.8709 47.1389 81.8537 47.2155 81.8336 47.2916Z" fill="url(#paint13_radial_619_1228)"/>
<path d="M19.7531 39.3833L19.7296 39.7179C19.6044 41.2834 19.1745 42.8107 18.4615 44.2122L16.7471 47.5705C15.3251 43.2596 16.5909 38.4878 19.9586 35.4497L19.7531 39.3833Z" fill="#E1E1E1"/>
<path d="M19.7531 39.3833L19.7296 39.7179C19.6044 41.2834 19.1745 42.8107 18.4615 44.2122L16.7471 47.5705C15.3251 43.2596 16.5909 38.4878 19.9586 35.4497L19.7531 39.3833Z" fill="url(#paint14_radial_619_1228)"/>
<path d="M19.7531 39.3833L19.7296 39.7179C19.6044 41.2834 19.1745 42.8107 18.4615 44.2122L16.7471 47.5705C15.3251 43.2596 16.5909 38.4878 19.9586 35.4497L19.7531 39.3833Z" fill="black" fill-opacity="0.7"/>
<path d="M77.718 35.661C81.0122 38.6471 82.2824 43.29 80.9794 47.5323L79.2004 44.0273C78.4861 42.6235 78.0539 41.0923 77.9294 39.5242H77.9235L77.9088 39.1954H77.9029L77.718 35.661Z" fill="#E1E1E1"/>
<path d="M77.718 35.661C81.0122 38.6471 82.2824 43.29 80.9794 47.5323L79.2004 44.0273C78.4861 42.6235 78.0539 41.0923 77.9294 39.5242H77.9235L77.9088 39.1954H77.9029L77.718 35.661Z" fill="url(#paint15_radial_619_1228)"/>
<path d="M77.718 35.661C81.0122 38.6471 82.2824 43.29 80.9794 47.5323L79.2004 44.0273C78.4861 42.6235 78.0539 41.0923 77.9294 39.5242H77.9235L77.9088 39.1954H77.9029L77.718 35.661Z" fill="black" fill-opacity="0.7"/>
<path d="M81.6545 40.4313L81.8043 40.9391C81.7391 40.7008 81.6639 40.4655 81.5841 40.2316C81.6069 40.2984 81.633 40.3641 81.6545 40.4313Z" fill="#E1E1E1"/>
<path d="M81.6545 40.4313L81.8043 40.9391C81.7391 40.7008 81.6639 40.4655 81.5841 40.2316C81.6069 40.2984 81.633 40.3641 81.6545 40.4313Z" fill="url(#paint16_radial_619_1228)"/>
<path d="M67.0562 23.1205C71.0874 24.1918 74.2306 27.3884 75.2375 31.4456L72.5779 29.7136C71.2567 28.8547 70.1147 27.743 69.2226 26.4464L69.0435 26.1763L67.0562 23.1205Z" fill="#E1E1E1"/>
<path d="M67.0562 23.1205C71.0874 24.1918 74.2306 27.3884 75.2375 31.4456L72.5779 29.7136C71.2567 28.8547 70.1147 27.743 69.2226 26.4464L69.0435 26.1763L67.0562 23.1205Z" fill="url(#paint17_radial_619_1228)"/>
<path d="M67.0562 23.1205C71.0874 24.1918 74.2306 27.3884 75.2375 31.4456L72.5779 29.7136C71.2567 28.8547 70.1147 27.743 69.2226 26.4464L69.0435 26.1763L67.0562 23.1205Z" fill="black" fill-opacity="0.7"/>
<path d="M28.6096 25.9973C27.6939 27.4058 26.4923 28.6068 25.084 29.5228L22.536 31.1785C23.6288 27.4369 26.5636 24.4917 30.3004 23.3876L28.6096 25.9973Z" fill="#E1E1E1"/>
<path d="M28.6096 25.9973C27.6939 27.4058 26.4923 28.6068 25.084 29.5228L22.536 31.1785C23.6288 27.4369 26.5636 24.4917 30.3004 23.3876L28.6096 25.9973Z" fill="url(#paint18_radial_619_1228)"/>
<path d="M28.6096 25.9973C27.6939 27.4058 26.4923 28.6068 25.084 29.5228L22.536 31.1785C23.6288 27.4369 26.5636 24.4917 30.3004 23.3876L28.6096 25.9973Z" fill="black" fill-opacity="0.7"/>
<path d="M29.7368 22.2163C29.8559 22.179 29.9744 22.1387 30.095 22.1048L30.6351 21.9668C30.331 22.0381 30.0321 22.1238 29.7368 22.2163Z" fill="#E1E1E1"/>
<path d="M29.7368 22.2163C29.8559 22.179 29.9744 22.1387 30.095 22.1048L30.6351 21.9668C30.331 22.0381 30.0321 22.1238 29.7368 22.2163Z" fill="url(#paint19_radial_619_1228)"/>
<path d="M34.601 20.8043C37.6324 17.5 42.3431 16.2633 46.6132 17.6545L43.3694 19.3043C41.8715 20.0664 40.2303 20.5071 38.5522 20.5959L34.601 20.8043Z" fill="#E1E1E1"/>
<path d="M34.601 20.8043C37.6324 17.5 42.3431 16.2633 46.6132 17.6545L43.3694 19.3043C41.8715 20.0664 40.2303 20.5071 38.5522 20.5959L34.601 20.8043Z" fill="url(#paint20_radial_619_1228)"/>
<path d="M34.601 20.8043C37.6324 17.5 42.3431 16.2633 46.6132 17.6545L43.3694 19.3043C41.8715 20.0664 40.2303 20.5071 38.5522 20.5959L34.601 20.8043Z" fill="black" fill-opacity="0.7"/>
<path d="M51.5126 17.7073C55.4768 16.5993 59.7435 17.7084 62.6646 20.5959L59.1068 20.408C57.7308 20.335 56.379 20.0241 55.1115 19.4951L54.5714 19.2544L54.2808 19.1135L51.5126 17.7073Z" fill="#E1E1E1"/>
<path d="M51.5126 17.7073C55.4768 16.5993 59.7435 17.7084 62.6646 20.5959L59.1068 20.408C57.7308 20.335 56.379 20.0241 55.1115 19.4951L54.5714 19.2544L54.2808 19.1135L51.5126 17.7073Z" fill="url(#paint21_radial_619_1228)"/>
<path d="M51.5126 17.7073C55.4768 16.5993 59.7435 17.7084 62.6646 20.5959L59.1068 20.408C57.7308 20.335 56.379 20.0241 55.1115 19.4951L54.5714 19.2544L54.2808 19.1135L51.5126 17.7073Z" fill="black" fill-opacity="0.7"/>
<path fill-rule="evenodd" clip-rule="evenodd" d="M67.5875 13.8266C69.0487 15.1408 70.7709 16.1363 72.6395 16.7445L80.7798 19.3923L83.2573 26.9953C83.8656 28.8636 84.8584 30.5865 86.1723 32.0474L91.9729 38.4997L90.1558 47.0832C89.7485 49.0052 89.7484 50.994 90.1558 52.916L91.8232 60.7921L86.1723 67.08C84.8582 68.541 83.8656 70.2635 83.2573 72.132L80.4627 80.7096L72.6395 83.2576C70.7706 83.866 69.0487 84.8583 67.5875 86.1726L61.6577 91.5006L52.9157 89.6483C50.9932 89.2407 49.0054 89.2406 47.0829 89.6483L38.4524 91.4771L32.5549 86.1726C31.0939 84.8584 29.3716 83.866 27.5029 83.2576L19.5153 80.6568L16.7442 72.132C16.136 70.2635 15.1403 68.541 13.8263 67.08L8.28693 60.9212L9.9866 52.916C10.394 50.9941 10.3939 49.0051 9.9866 47.0832L8.13722 38.3705L13.8263 32.0474C15.1404 30.5864 16.1358 28.8641 16.7442 26.9953L19.1983 19.4422L27.5029 16.7445C29.3715 16.1363 31.0938 15.1407 32.5549 13.8266L39.2362 7.81462L47.0829 9.47906C49.0054 9.88661 50.9935 9.88658 52.9157 9.47906L60.874 7.7882L67.5875 13.8266ZM49.0262 16.4451C42.9728 13.4696 35.6558 15.4107 31.8739 20.9863C25.7396 21.7541 20.8929 26.6049 20.1377 32.7431C14.4967 36.5214 12.5263 43.906 15.5465 49.9923C13.0061 55.7554 14.794 62.5173 19.8353 66.2756C20.4427 72.7876 25.6407 77.9445 32.1704 78.4904C35.911 83.9464 43.052 85.8846 49.035 83.0933C54.7809 85.5463 61.4801 83.7299 65.2009 78.7017C71.9422 78.2822 77.3331 72.9525 77.8472 66.2375V66.2287L77.856 66.0643C82.8178 62.343 84.6046 55.7072 82.1917 49.9981C85.0805 43.9601 83.1168 36.7095 77.5595 32.9603C76.9625 26.5344 71.9014 21.4275 65.4945 20.7662C61.7228 15.6227 54.8485 13.8094 49.0262 16.4451Z" fill="#E1E1E1"/>
<path fill-rule="evenodd" clip-rule="evenodd" d="M67.5875 13.8266C69.0487 15.1408 70.7709 16.1363 72.6395 16.7445L80.7798 19.3923L83.2573 26.9953C83.8656 28.8636 84.8584 30.5865 86.1723 32.0474L91.9729 38.4997L90.1558 47.0832C89.7485 49.0052 89.7484 50.994 90.1558 52.916L91.8232 60.7921L86.1723 67.08C84.8582 68.541 83.8656 70.2635 83.2573 72.132L80.4627 80.7096L72.6395 83.2576C70.7706 83.866 69.0487 84.8583 67.5875 86.1726L61.6577 91.5006L52.9157 89.6483C50.9932 89.2407 49.0054 89.2406 47.0829 89.6483L38.4524 91.4771L32.5549 86.1726C31.0939 84.8584 29.3716 83.866 27.5029 83.2576L19.5153 80.6568L16.7442 72.132C16.136 70.2635 15.1403 68.541 13.8263 67.08L8.28693 60.9212L9.9866 52.916C10.394 50.9941 10.3939 49.0051 9.9866 47.0832L8.13722 38.3705L13.8263 32.0474C15.1404 30.5864 16.1358 28.8641 16.7442 26.9953L19.1983 19.4422L27.5029 16.7445C29.3715 16.1363 31.0938 15.1407 32.5549 13.8266L39.2362 7.81462L47.0829 9.47906C49.0054 9.88661 50.9935 9.88658 52.9157 9.47906L60.874 7.7882L67.5875 13.8266ZM49.0262 16.4451C42.9728 13.4696 35.6558 15.4107 31.8739 20.9863C25.7396 21.7541 20.8929 26.6049 20.1377 32.7431C14.4967 36.5214 12.5263 43.906 15.5465 49.9923C13.0061 55.7554 14.794 62.5173 19.8353 66.2756C20.4427 72.7876 25.6407 77.9445 32.1704 78.4904C35.911 83.9464 43.052 85.8846 49.035 83.0933C54.7809 85.5463 61.4801 83.7299 65.2009 78.7017C71.9422 78.2822 77.3331 72.9525 77.8472 66.2375V66.2287L77.856 66.0643C82.8178 62.343 84.6046 55.7072 82.1917 49.9981C85.0805 43.9601 83.1168 36.7095 77.5595 32.9603C76.9625 26.5344 71.9014 21.4275 65.4945 20.7662C61.7228 15.6227 54.8485 13.8094 49.0262 16.4451Z" fill="black" fill-opacity="0.4"/>
<path d="M20.4165 87.0239C20.8684 87.8986 21.4169 88.7034 22.0399 89.434C21.6637 88.9931 21.3108 88.5284 20.9948 88.0337C20.8911 87.8714 20.7921 87.7055 20.6954 87.5376L20.4165 87.0239Z" fill="#E1E1E1"/>
<path d="M20.4165 87.0239C20.8684 87.8986 21.4169 88.7034 22.0399 89.434C21.6637 88.9931 21.3108 88.5284 20.9948 88.0337C20.8911 87.8714 20.7921 87.7055 20.6954 87.5376L20.4165 87.0239Z" fill="url(#paint22_radial_619_1228)"/>
<path d="M27.1037 84.4759C27.3158 84.5449 27.5271 84.6191 27.7348 84.699L28.3513 84.9573C27.9449 84.7764 27.5283 84.6141 27.1037 84.4759Z" fill="#E1E1E1"/>
<path d="M27.1037 84.4759C27.3158 84.5449 27.5271 84.6191 27.7348 84.699L28.3513 84.9573C27.9449 84.7764 27.5283 84.6141 27.1037 84.4759Z" fill="url(#paint23_radial_619_1228)"/>
<path d="M73.0358 84.4788L72.8538 84.5405C72.9147 84.5195 72.9746 84.4988 73.0358 84.4788Z" fill="#E1E1E1"/>
<path d="M73.0358 84.4788L72.8538 84.5405C72.9147 84.5195 72.9746 84.4988 73.0358 84.4788Z" fill="url(#paint24_radial_619_1228)"/>
<path d="M92.9006 65.8529C94.1188 71.6016 90.8031 77.3464 85.2153 79.1655L82.8581 79.9288L85.1919 72.7631C85.7121 71.1648 86.563 69.6918 87.687 68.442L92.3487 63.2579L92.9006 65.8529Z" fill="#E1E1E1"/>
<path d="M92.9006 65.8529C94.1188 71.6016 90.8031 77.3464 85.2153 79.1655L82.8581 79.9288L85.1919 72.7631C85.7121 71.1648 86.563 69.6918 87.687 68.442L92.3487 63.2579L92.9006 65.8529Z" fill="url(#paint25_radial_619_1228)"/>
<path d="M92.9006 65.8529C94.1188 71.6016 90.8031 77.3464 85.2153 79.1655L82.8581 79.9288L85.1919 72.7631C85.7121 71.1648 86.563 69.6918 87.687 68.442L92.3487 63.2579L92.9006 65.8529Z" fill="black" fill-opacity="0.7"/>
<path d="M12.3086 68.4332L12.5288 68.6886C13.5461 69.8836 14.3203 71.2686 14.8067 72.7631L17.1229 79.8789L14.9271 79.1655C9.33882 77.3467 6.02351 71.6019 7.24189 65.8529L7.76441 63.3841L12.3086 68.4332Z" fill="#E1E1E1"/>
<path d="M12.3086 68.4332L12.5288 68.6886C13.5461 69.8836 14.3203 71.2686 14.8067 72.7631L17.1229 79.8789L14.9271 79.1655C9.33882 77.3467 6.02351 71.6019 7.24189 65.8529L7.76441 63.3841L12.3086 68.4332Z" fill="url(#paint26_radial_619_1228)"/>
<path d="M12.3086 68.4332L12.5288 68.6886C13.5461 69.8836 14.3203 71.2686 14.8067 72.7631L17.1229 79.8789L14.9271 79.1655C9.33882 77.3467 6.02351 71.6019 7.24189 65.8529L7.76441 63.3841L12.3086 68.4332Z" fill="black" fill-opacity="0.7"/>
<path d="M13.0924 68.1896C13.5213 68.6923 13.9068 69.2287 14.2519 69.7894C14.2347 69.7614 14.2195 69.7322 14.202 69.7043C13.8704 69.1748 13.4993 68.6667 13.0924 68.1896Z" fill="#E1E1E1"/>
<path d="M13.0924 68.1896C13.5213 68.6923 13.9068 69.2287 14.2519 69.7894C14.2347 69.7614 14.2195 69.7322 14.202 69.7043C13.8704 69.1748 13.4993 68.6667 13.0924 68.1896Z" fill="url(#paint27_radial_619_1228)"/>
<path d="M7.99338 47.5059L8.05503 47.8112C8.34072 49.3581 8.31995 50.9525 7.99338 52.4933L6.60194 59.0484L4.98153 57.2489C1.0522 52.8796 1.05203 46.2478 4.98153 41.8785L6.45223 40.2434L7.99338 47.5059Z" fill="#E1E1E1"/>
<path d="M7.99338 47.5059L8.05503 47.8112C8.34072 49.3581 8.31995 50.9525 7.99338 52.4933L6.60194 59.0484L4.98153 57.2489C1.0522 52.8796 1.05203 46.2478 4.98153 41.8785L6.45223 40.2434L7.99338 47.5059Z" fill="url(#paint28_radial_619_1228)"/>
<path d="M7.99338 47.5059L8.05503 47.8112C8.34072 49.3581 8.31995 50.9525 7.99338 52.4933L6.60194 59.0484L4.98153 57.2489C1.0522 52.8796 1.05203 46.2478 4.98153 41.8785L6.45223 40.2434L7.99338 47.5059Z" fill="black" fill-opacity="0.7"/>
<path d="M95.0171 41.8785C98.9468 46.2479 98.947 52.8795 95.0171 57.2489L93.5082 58.9221L92.1461 52.4933C91.8196 50.9526 91.8017 49.3609 92.0874 47.8141L92.0845 47.8112L92.1491 47.4971L92.1461 47.4941L93.6579 40.3696L95.0171 41.8785Z" fill="#E1E1E1"/>
<path d="M95.0171 41.8785C98.9468 46.2479 98.947 52.8795 95.0171 57.2489L93.5082 58.9221L92.1461 52.4933C91.8196 50.9526 91.8017 49.3609 92.0874 47.8141L92.0845 47.8112L92.1491 47.4971L92.1461 47.4941L93.6579 40.3696L95.0171 41.8785Z" fill="url(#paint29_radial_619_1228)"/>
<path d="M95.0171 41.8785C98.9468 46.2479 98.947 52.8795 95.0171 57.2489L93.5082 58.9221L92.1461 52.4933C91.8196 50.9526 91.8017 49.3609 92.0874 47.8141L92.0845 47.8112L92.1491 47.4971L92.1461 47.4941L93.6579 40.3696L95.0171 41.8785Z" fill="black" fill-opacity="0.7"/>
<path d="M3.36993 57.3076C3.33437 57.261 3.29615 57.2166 3.26131 57.1696L2.91492 56.6794C3.05844 56.893 3.21213 57.101 3.36993 57.3076Z" fill="#E1E1E1"/>
<path d="M3.36993 57.3076C3.33437 57.261 3.29615 57.2166 3.26131 57.1696L2.91492 56.6794C3.05844 56.893 3.21213 57.101 3.36993 57.3076Z" fill="url(#paint30_radial_619_1228)"/>
<path d="M98.3782 52.4258C98.3557 52.5204 98.3268 52.6135 98.3019 52.7076C98.3385 52.5689 98.3758 52.4304 98.4076 52.2908L98.3782 52.4258Z" fill="#E1E1E1"/>
<path d="M98.3782 52.4258C98.3557 52.5204 98.3268 52.6135 98.3019 52.7076C98.3385 52.5689 98.3758 52.4304 98.4076 52.2908L98.3782 52.4258Z" fill="url(#paint31_radial_619_1228)"/>
<path d="M85.2153 20.8366C90.8025 22.6561 94.1186 28.398 92.9006 34.1463L92.4984 36.0338L87.687 30.6853C86.7654 29.6607 86.0283 28.4861 85.506 27.2155L85.2946 26.6636L85.1889 26.3554L83.1751 20.1702L85.2153 20.8366Z" fill="#E1E1E1"/>
<path d="M85.2153 20.8366C90.8025 22.6561 94.1186 28.398 92.9006 34.1463L92.4984 36.0338L87.687 30.6853C86.7654 29.6607 86.0283 28.4861 85.506 27.2155L85.2946 26.6636L85.1889 26.3554L83.1751 20.1702L85.2153 20.8366Z" fill="url(#paint32_radial_619_1228)"/>
<path d="M85.2153 20.8366C90.8025 22.6561 94.1186 28.398 92.9006 34.1463L92.4984 36.0338L87.687 30.6853C86.7654 29.6607 86.0283 28.4861 85.506 27.2155L85.2946 26.6636L85.1889 26.3554L83.1751 20.1702L85.2153 20.8366Z" fill="black" fill-opacity="0.7"/>
<path d="M14.8067 26.3671C14.2866 27.9643 13.4377 29.4363 12.3145 30.6853L7.6147 35.9076L7.24189 34.1463C6.02362 28.3975 9.33911 22.6556 14.9271 20.8366L16.8058 20.2231L14.8067 26.3671Z" fill="#E1E1E1"/>
<path d="M14.8067 26.3671C14.2866 27.9643 13.4377 29.4363 12.3145 30.6853L7.6147 35.9076L7.24189 34.1463C6.02362 28.3975 9.33911 22.6556 14.9271 20.8366L16.8058 20.2231L14.8067 26.3671Z" fill="url(#paint33_radial_619_1228)"/>
<path d="M14.8067 26.3671C14.2866 27.9643 13.4377 29.4363 12.3145 30.6853L7.6147 35.9076L7.24189 34.1463C6.02362 28.3975 9.33911 22.6556 14.9271 20.8366L16.8058 20.2231L14.8067 26.3671Z" fill="black" fill-opacity="0.7"/>
<path d="M5.84458 33.6062C5.82546 33.4757 5.80382 33.346 5.7888 33.2157L5.73596 32.6198C5.7583 32.9478 5.79627 33.2765 5.84458 33.6062Z" fill="#E1E1E1"/>
<path d="M5.84458 33.6062C5.82546 33.4757 5.80382 33.346 5.7888 33.2157L5.73596 32.6198C5.7583 32.9478 5.79627 33.2765 5.84458 33.6062Z" fill="url(#paint34_radial_619_1228)"/>
<path d="M84.5871 26.9161C84.7232 27.2995 84.8765 27.6759 85.048 28.0433C84.8759 27.6746 84.7206 27.2977 84.5842 26.9132L84.5871 26.9161Z" fill="#E1E1E1"/>
<path d="M84.5871 26.9161C84.7232 27.2995 84.8765 27.6759 85.048 28.0433C84.8759 27.6746 84.7206 27.2977 84.5842 26.9132L84.5871 26.9161Z" fill="url(#paint35_radial_619_1228)"/>
<path d="M85.4472 20.1203C86.2841 20.3928 87.0729 20.7481 87.8074 21.1742L87.0559 20.775C86.5423 20.5232 86.0055 20.3021 85.4472 20.1203Z" fill="#E1E1E1"/>
<path d="M85.4472 20.1203C86.2841 20.3928 87.0729 20.7481 87.8074 21.1742L87.0559 20.775C86.5423 20.5232 86.0055 20.3021 85.4472 20.1203Z" fill="url(#paint36_radial_619_1228)"/>
<path d="M20.8363 14.4225C22.6551 8.834 28.3968 5.51868 34.146 6.73728L36.7703 7.2921L31.1928 12.3148C29.9431 13.4387 28.47 14.2869 26.8718 14.807L19.9791 17.0498L20.8363 14.4225Z" fill="#E1E1E1"/>
<path d="M20.8363 14.4225C22.6551 8.834 28.3968 5.51868 34.146 6.73728L36.7703 7.2921L31.1928 12.3148C29.9431 13.4387 28.47 14.2869 26.8718 14.807L19.9791 17.0498L20.8363 14.4225Z" fill="url(#paint37_radial_619_1228)"/>
<path d="M20.8363 14.4225C22.6551 8.834 28.3968 5.51868 34.146 6.73728L36.7703 7.2921L31.1928 12.3148C29.9431 13.4387 28.47 14.2869 26.8718 14.807L19.9791 17.0498L20.8363 14.4225Z" fill="black" fill-opacity="0.7"/>
<path d="M65.8526 6.73728C71.6021 5.51813 77.3463 8.83377 79.1652 14.4225L80.0018 16.9999L73.2677 14.807C71.6705 14.2869 70.1987 13.438 68.9496 12.3148L63.3369 7.26861L65.8526 6.73728Z" fill="#E1E1E1"/>
<path d="M65.8526 6.73728C71.6021 5.51813 77.3463 8.83377 79.1652 14.4225L80.0018 16.9999L73.2677 14.807C71.6705 14.2869 70.1987 13.438 68.9496 12.3148L63.3369 7.26861L65.8526 6.73728Z" fill="url(#paint38_radial_619_1228)"/>
<path d="M65.8526 6.73728C71.6021 5.51813 77.3463 8.83377 79.1652 14.4225L80.0018 16.9999L73.2677 14.807C71.6705 14.2869 70.1987 13.438 68.9496 12.3148L63.3369 7.26861L65.8526 6.73728Z" fill="black" fill-opacity="0.7"/>
<path d="M47.2384 8.74225C48.1478 8.93505 49.0733 9.02992 49.9978 9.02993C49.7668 9.02991 49.5358 9.02729 49.305 9.01525C48.8427 8.99114 48.381 8.94384 47.9224 8.87141C47.6936 8.83529 47.4655 8.79038 47.2384 8.74225Z" fill="#E1E1E1"/>
<path d="M47.2384 8.74225C48.1478 8.93505 49.0733 9.02992 49.9978 9.02993C49.7668 9.02991 49.5358 9.02729 49.305 9.01525C48.8427 8.99114 48.381 8.94384 47.9224 8.87141C47.6936 8.83529 47.4655 8.79038 47.2384 8.74225Z" fill="url(#paint39_radial_619_1228)"/>
<path d="M42.386 4.98477C46.7557 1.05416 53.3868 1.05416 57.7564 4.98477L59.0011 6.10614L52.493 7.48878C50.8491 7.83716 49.1494 7.83727 47.5056 7.48878L41.1091 6.12963L42.386 4.98477Z" fill="#E1E1E1"/>
<path d="M42.386 4.98477C46.7557 1.05416 53.3868 1.05416 57.7564 4.98477L59.0011 6.10614L52.493 7.48878C50.8491 7.83716 49.1494 7.83727 47.5056 7.48878L41.1091 6.12963L42.386 4.98477Z" fill="url(#paint40_radial_619_1228)"/>
<path d="M42.386 4.98477C46.7557 1.05416 53.3868 1.05416 57.7564 4.98477L59.0011 6.10614L52.493 7.48878C50.8491 7.83716 49.1494 7.83727 47.5056 7.48878L41.1091 6.12963L42.386 4.98477Z" fill="black" fill-opacity="0.7"/>
<path d="M30.6879 5.7803C30.7534 5.77448 30.8189 5.7674 30.8846 5.76269L31.4482 5.73627C31.1935 5.74274 30.94 5.75808 30.6879 5.7803Z" fill="#E1E1E1"/>
<path d="M30.6879 5.7803C30.7534 5.77448 30.8189 5.7674 30.8846 5.76269L31.4482 5.73627C31.1935 5.74274 30.94 5.75808 30.6879 5.7803Z" fill="url(#paint41_radial_619_1228)"/>
<path d="M42.888 2.95926C42.5811 3.16833 42.2816 3.39282 41.9897 3.63149L41.5259 4.02779C41.9615 3.63597 42.4155 3.28093 42.888 2.95926Z" fill="#E1E1E1"/>
<path d="M42.888 2.95926C42.5811 3.16833 42.2816 3.39282 41.9897 3.63149L41.5259 4.02779C41.9615 3.63597 42.4155 3.28093 42.888 2.95926Z" fill="url(#paint42_radial_619_1228)"/>
<path d="M48.3451 0.866228H48.3393C48.4946 0.84507 48.6501 0.825884 48.806 0.810453L48.3451 0.866228Z" fill="#E1E1E1"/>
<path d="M48.3451 0.866228H48.3393C48.4946 0.84507 48.6501 0.825884 48.806 0.810453L48.3451 0.866228Z" fill="url(#paint43_radial_619_1228)"/>
<path d="M47.8734 40.2216L57.7636 33.709L52.9733 41.66L58.5482 40.2216L52.9733 46.5145L58.5482 45.6755L51.7964 51.8285L55.6369 52.3479L49.6078 57.0626H52.4159L41.4519 67.2911L46.3867 56.3035L42.794 57.0626L46.3867 52.3479L41.4519 53.7863L47.8734 46.5145L44.1981 47.2737L51.177 39.4625L47.8734 40.2216Z" stroke="#878787" stroke-linejoin="bevel"/>
<defs>
<radialGradient id="paint0_radial_619_1228" cx="0" cy="0" r="1" gradientTransform="matrix(-48.75 -83.7492 80.1733 -46.6676 68.75 94.9991)" gradientUnits="userSpaceOnUse">
<stop stop-color="#C3C3C3"/>
<stop offset="1" stop-color="#F8F8F8"/>
</radialGradient>
<radialGradient id="paint1_radial_619_1228" cx="0" cy="0" r="1" gradientUnits="userSpaceOnUse" gradientTransform="translate(71.6415 103.947) rotate(-120.203) scale(116.518 111.542)">
<stop stop-color="#C3C3C3"/>
<stop offset="1" stop-color="#F8F8F8"/>
</radialGradient>
<radialGradient id="paint2_radial_619_1228" cx="0" cy="0" r="1" gradientUnits="userSpaceOnUse" gradientTransform="translate(71.6415 103.947) rotate(-120.203) scale(116.518 111.542)">
<stop stop-color="#C3C3C3"/>
<stop offset="1" stop-color="#F8F8F8"/>
</radialGradient>
<radialGradient id="paint3_radial_619_1228" cx="0" cy="0" r="1" gradientTransform="matrix(-48.75 -83.7492 80.1733 -46.6676 68.75 94.9991)" gradientUnits="userSpaceOnUse">
<stop stop-color="#C3C3C3"/>
<stop offset="1" stop-color="#F8F8F8"/>
</radialGradient>
<radialGradient id="paint4_radial_619_1228" cx="0" cy="0" r="1" gradientTransform="matrix(-48.75 -83.7492 80.1733 -46.6676 68.75 94.9991)" gradientUnits="userSpaceOnUse">
<stop stop-color="#C3C3C3"/>
<stop offset="1" stop-color="#F8F8F8"/>
</radialGradient>
<radialGradient id="paint5_radial_619_1228" cx="0" cy="0" r="1" gradientUnits="userSpaceOnUse" gradientTransform="translate(71.6415 103.947) rotate(-120.203) scale(116.518 111.542)">
<stop stop-color="#C3C3C3"/>
<stop offset="1" stop-color="#F8F8F8"/>
</radialGradient>
<radialGradient id="paint6_radial_619_1228" cx="0" cy="0" r="1" gradientUnits="userSpaceOnUse" gradientTransform="translate(71.6415 103.947) rotate(-120.203) scale(116.518 111.542)">
<stop stop-color="#C3C3C3"/>
<stop offset="1" stop-color="#F8F8F8"/>
</radialGradient>
<radialGradient id="paint7_radial_619_1228" cx="0" cy="0" r="1" gradientTransform="matrix(-48.75 -83.7492 80.1733 -46.6676 68.75 94.9991)" gradientUnits="userSpaceOnUse">
<stop stop-color="#C3C3C3"/>
<stop offset="1" stop-color="#F8F8F8"/>
</radialGradient>
<radialGradient id="paint8_radial_619_1228" cx="0" cy="0" r="1" gradientTransform="matrix(-48.75 -83.7492 80.1733 -46.6676 68.75 94.9991)" gradientUnits="userSpaceOnUse">
<stop stop-color="#C3C3C3"/>
<stop offset="1" stop-color="#F8F8F8"/>
</radialGradient>
<radialGradient id="paint9_radial_619_1228" cx="0" cy="0" r="1" gradientTransform="matrix(-48.75 -83.7492 80.1733 -46.6676 68.75 94.9991)" gradientUnits="userSpaceOnUse">
<stop stop-color="#C3C3C3"/>
<stop offset="1" stop-color="#F8F8F8"/>
</radialGradient>
<radialGradient id="paint10_radial_619_1228" cx="0" cy="0" r="1" gradientTransform="matrix(-48.75 -83.7492 80.1733 -46.6676 68.75 94.9991)" gradientUnits="userSpaceOnUse">
<stop stop-color="#C3C3C3"/>
<stop offset="1" stop-color="#F8F8F8"/>
</radialGradient>
<radialGradient id="paint11_radial_619_1228" cx="0" cy="0" r="1" gradientTransform="matrix(-48.75 -83.7492 80.1733 -46.6676 68.75 94.9991)" gradientUnits="userSpaceOnUse">
<stop stop-color="#C3C3C3"/>
<stop offset="1" stop-color="#F8F8F8"/>
</radialGradient>
<radialGradient id="paint12_radial_619_1228" cx="0" cy="0" r="1" gradientTransform="matrix(-48.75 -83.7492 80.1733 -46.6676 68.75 94.9991)" gradientUnits="userSpaceOnUse">
<stop stop-color="#C3C3C3"/>
<stop offset="1" stop-color="#F8F8F8"/>
</radialGradient>
<radialGradient id="paint13_radial_619_1228" cx="0" cy="0" r="1" gradientUnits="userSpaceOnUse" gradientTransform="translate(71.6415 103.947) rotate(-120.203) scale(116.518 111.542)">
<stop stop-color="#C3C3C3"/>
<stop offset="1" stop-color="#F8F8F8"/>
</radialGradient>
<radialGradient id="paint14_radial_619_1228" cx="0" cy="0" r="1" gradientTransform="matrix(-48.75 -83.7492 80.1733 -46.6676 68.75 94.9991)" gradientUnits="userSpaceOnUse">
<stop stop-color="#C3C3C3"/>
<stop offset="1" stop-color="#F8F8F8"/>
</radialGradient>
<radialGradient id="paint15_radial_619_1228" cx="0" cy="0" r="1" gradientTransform="matrix(-48.75 -83.7492 80.1733 -46.6676 68.75 94.9991)" gradientUnits="userSpaceOnUse">
<stop stop-color="#C3C3C3"/>
<stop offset="1" stop-color="#F8F8F8"/>
</radialGradient>
<radialGradient id="paint16_radial_619_1228" cx="0" cy="0" r="1" gradientUnits="userSpaceOnUse" gradientTransform="translate(71.6415 103.947) rotate(-120.203) scale(116.518 111.542)">
<stop stop-color="#C3C3C3"/>
<stop offset="1" stop-color="#F8F8F8"/>
</radialGradient>
<radialGradient id="paint17_radial_619_1228" cx="0" cy="0" r="1" gradientTransform="matrix(-48.75 -83.7492 80.1733 -46.6676 68.75 94.9991)" gradientUnits="userSpaceOnUse">
<stop stop-color="#C3C3C3"/>
<stop offset="1" stop-color="#F8F8F8"/>
</radialGradient>
<radialGradient id="paint18_radial_619_1228" cx="0" cy="0" r="1" gradientTransform="matrix(-48.75 -83.7492 80.1733 -46.6676 68.75 94.9991)" gradientUnits="userSpaceOnUse">
<stop stop-color="#C3C3C3"/>
<stop offset="1" stop-color="#F8F8F8"/>
</radialGradient>
<radialGradient id="paint19_radial_619_1228" cx="0" cy="0" r="1" gradientUnits="userSpaceOnUse" gradientTransform="translate(71.6415 103.947) rotate(-120.203) scale(116.518 111.542)">
<stop stop-color="#C3C3C3"/>
<stop offset="1" stop-color="#F8F8F8"/>
</radialGradient>
<radialGradient id="paint20_radial_619_1228" cx="0" cy="0" r="1" gradientTransform="matrix(-48.75 -83.7492 80.1733 -46.6676 68.75 94.9991)" gradientUnits="userSpaceOnUse">
<stop stop-color="#C3C3C3"/>
<stop offset="1" stop-color="#F8F8F8"/>
</radialGradient>
<radialGradient id="paint21_radial_619_1228" cx="0" cy="0" r="1" gradientTransform="matrix(-48.75 -83.7492 80.1733 -46.6676 68.75 94.9991)" gradientUnits="userSpaceOnUse">
<stop stop-color="#C3C3C3"/>
<stop offset="1" stop-color="#F8F8F8"/>
</radialGradient>
<radialGradient id="paint22_radial_619_1228" cx="0" cy="0" r="1" gradientUnits="userSpaceOnUse" gradientTransform="translate(71.6415 103.947) rotate(-120.203) scale(116.518 111.542)">
<stop stop-color="#C3C3C3"/>
<stop offset="1" stop-color="#F8F8F8"/>
</radialGradient>
<radialGradient id="paint23_radial_619_1228" cx="0" cy="0" r="1" gradientUnits="userSpaceOnUse" gradientTransform="translate(71.6415 103.947) rotate(-120.203) scale(116.518 111.542)">
<stop stop-color="#C3C3C3"/>
<stop offset="1" stop-color="#F8F8F8"/>
</radialGradient>
<radialGradient id="paint24_radial_619_1228" cx="0" cy="0" r="1" gradientUnits="userSpaceOnUse" gradientTransform="translate(71.6415 103.947) rotate(-120.203) scale(116.518 111.542)">
<stop stop-color="#C3C3C3"/>
<stop offset="1" stop-color="#F8F8F8"/>
</radialGradient>
<radialGradient id="paint25_radial_619_1228" cx="0" cy="0" r="1" gradientTransform="matrix(-48.75 -83.7492 80.1733 -46.6676 68.75 94.9991)" gradientUnits="userSpaceOnUse">
<stop stop-color="#C3C3C3"/>
<stop offset="1" stop-color="#F8F8F8"/>
</radialGradient>
<radialGradient id="paint26_radial_619_1228" cx="0" cy="0" r="1" gradientTransform="matrix(-48.75 -83.7492 80.1733 -46.6676 68.75 94.9991)" gradientUnits="userSpaceOnUse">
<stop stop-color="#C3C3C3"/>
<stop offset="1" stop-color="#F8F8F8"/>
</radialGradient>
<radialGradient id="paint27_radial_619_1228" cx="0" cy="0" r="1" gradientUnits="userSpaceOnUse" gradientTransform="translate(71.6415 103.947) rotate(-120.203) scale(116.518 111.542)">
<stop stop-color="#C3C3C3"/>
<stop offset="1" stop-color="#F8F8F8"/>
</radialGradient>
<radialGradient id="paint28_radial_619_1228" cx="0" cy="0" r="1" gradientTransform="matrix(-48.75 -83.7492 80.1733 -46.6676 68.75 94.9991)" gradientUnits="userSpaceOnUse">
<stop stop-color="#C3C3C3"/>
<stop offset="1" stop-color="#F8F8F8"/>
</radialGradient>
<radialGradient id="paint29_radial_619_1228" cx="0" cy="0" r="1" gradientTransform="matrix(-48.75 -83.7492 80.1733 -46.6676 68.75 94.9991)" gradientUnits="userSpaceOnUse">
<stop stop-color="#C3C3C3"/>
<stop offset="1" stop-color="#F8F8F8"/>
</radialGradient>
<radialGradient id="paint30_radial_619_1228" cx="0" cy="0" r="1" gradientUnits="userSpaceOnUse" gradientTransform="translate(71.6415 103.947) rotate(-120.203) scale(116.518 111.542)">
<stop stop-color="#C3C3C3"/>
<stop offset="1" stop-color="#F8F8F8"/>
</radialGradient>
<radialGradient id="paint31_radial_619_1228" cx="0" cy="0" r="1" gradientUnits="userSpaceOnUse" gradientTransform="translate(71.6415 103.947) rotate(-120.203) scale(116.518 111.542)">
<stop stop-color="#C3C3C3"/>
<stop offset="1" stop-color="#F8F8F8"/>
</radialGradient>
<radialGradient id="paint32_radial_619_1228" cx="0" cy="0" r="1" gradientTransform="matrix(-48.75 -83.7492 80.1733 -46.6676 68.75 94.9991)" gradientUnits="userSpaceOnUse">
<stop stop-color="#C3C3C3"/>
<stop offset="1" stop-color="#F8F8F8"/>
</radialGradient>
<radialGradient id="paint33_radial_619_1228" cx="0" cy="0" r="1" gradientTransform="matrix(-48.75 -83.7492 80.1733 -46.6676 68.75 94.9991)" gradientUnits="userSpaceOnUse">
<stop stop-color="#C3C3C3"/>
<stop offset="1" stop-color="#F8F8F8"/>
</radialGradient>
<radialGradient id="paint34_radial_619_1228" cx="0" cy="0" r="1" gradientUnits="userSpaceOnUse" gradientTransform="translate(71.6415 103.947) rotate(-120.203) scale(116.518 111.542)">
<stop stop-color="#C3C3C3"/>
<stop offset="1" stop-color="#F8F8F8"/>
</radialGradient>
<radialGradient id="paint35_radial_619_1228" cx="0" cy="0" r="1" gradientUnits="userSpaceOnUse" gradientTransform="translate(71.6415 103.947) rotate(-120.203) scale(116.518 111.542)">
<stop stop-color="#C3C3C3"/>
<stop offset="1" stop-color="#F8F8F8"/>
</radialGradient>
<radialGradient id="paint36_radial_619_1228" cx="0" cy="0" r="1" gradientUnits="userSpaceOnUse" gradientTransform="translate(71.6415 103.947) rotate(-120.203) scale(116.518 111.542)">
<stop stop-color="#C3C3C3"/>
<stop offset="1" stop-color="#F8F8F8"/>
</radialGradient>
<radialGradient id="paint37_radial_619_1228" cx="0" cy="0" r="1" gradientTransform="matrix(-48.75 -83.7492 80.1733 -46.6676 68.75 94.9991)" gradientUnits="userSpaceOnUse">
<stop stop-color="#C3C3C3"/>
<stop offset="1" stop-color="#F8F8F8"/>
</radialGradient>
<radialGradient id="paint38_radial_619_1228" cx="0" cy="0" r="1" gradientTransform="matrix(-48.75 -83.7492 80.1733 -46.6676 68.75 94.9991)" gradientUnits="userSpaceOnUse">
<stop stop-color="#C3C3C3"/>
<stop offset="1" stop-color="#F8F8F8"/>
</radialGradient>
<radialGradient id="paint39_radial_619_1228" cx="0" cy="0" r="1" gradientUnits="userSpaceOnUse" gradientTransform="translate(71.6415 103.947) rotate(-120.203) scale(116.518 111.542)">
<stop stop-color="#C3C3C3"/>
<stop offset="1" stop-color="#F8F8F8"/>
</radialGradient>
<radialGradient id="paint40_radial_619_1228" cx="0" cy="0" r="1" gradientTransform="matrix(-48.75 -83.7492 80.1733 -46.6676 68.75 94.9991)" gradientUnits="userSpaceOnUse">
<stop stop-color="#C3C3C3"/>
<stop offset="1" stop-color="#F8F8F8"/>
</radialGradient>
<radialGradient id="paint41_radial_619_1228" cx="0" cy="0" r="1" gradientUnits="userSpaceOnUse" gradientTransform="translate(71.6415 103.947) rotate(-120.203) scale(116.518 111.542)">
<stop stop-color="#C3C3C3"/>
<stop offset="1" stop-color="#F8F8F8"/>
</radialGradient>
<radialGradient id="paint42_radial_619_1228" cx="0" cy="0" r="1" gradientUnits="userSpaceOnUse" gradientTransform="translate(71.6415 103.947) rotate(-120.203) scale(116.518 111.542)">
<stop stop-color="#C3C3C3"/>
<stop offset="1" stop-color="#F8F8F8"/>
</radialGradient>
<radialGradient id="paint43_radial_619_1228" cx="0" cy="0" r="1" gradientUnits="userSpaceOnUse" gradientTransform="translate(71.6415 103.947) rotate(-120.203) scale(116.518 111.542)">
<stop stop-color="#C3C3C3"/>
<stop offset="1" stop-color="#F8F8F8"/>
</radialGradient>
</defs>
</svg>
