<svg width="48" height="48" viewBox="0 0 48 48" fill="none" xmlns="http://www.w3.org/2000/svg">
<path d="M24 43L18.3673 37.4513H10.5487V29.6327L5 24L10.5487 18.3673V10.5487H18.3673L24 5L29.6327 10.5487H37.4513V18.3673L43 24L37.4513 29.6327V37.4513H29.6327L24 43ZM24 38.292L28.2035 34.0885H34.0885V28.2035L38.292 24L34.0885 19.7965V13.9115H28.2035L24 9.70796L19.7965 13.9115H13.9115V19.7965L9.70796 24L13.9115 28.2035V34.0885H19.7965L24 38.292ZM19.0819 31.146L24 28.1615L28.9181 31.146L27.615 25.5553L31.9867 21.7721L26.2279 21.3097L24 16.0133L21.7721 21.3097L16.0133 21.7721L20.385 25.5553L19.0819 31.146Z" fill="white"/>
</svg>
