<svg width="48" height="48" viewBox="0 0 48 48" fill="none" xmlns="http://www.w3.org/2000/svg">
<path d="M43 43H5V5H43V43ZM35.5518 22.4609C34.8962 22.29 33.329 22.2332 32.6641 22.3662C30.6122 22.7462 29.1772 24.0758 28.7686 25.9756C28.6356 26.5171 28.6837 27.867 28.8262 28.418C29.0162 29.0544 29.4247 29.8235 29.8711 30.3174C30.6501 31.1344 31.4857 31.667 33.4521 32.5029C35.1619 33.2628 35.7702 33.6045 36.0742 34.0225C36.2927 34.3549 36.3593 34.5545 36.3594 34.9912C36.3594 35.4662 36.207 35.8088 35.8555 36.1318C35.0384 36.8725 33.3861 36.9576 32.1514 36.3213C31.7429 36.0933 31.0391 35.4286 30.7256 34.9346L30.4785 34.6025L29.4053 35.2295L27.9805 36.0557L27.6191 36.2832C27.5812 36.3497 28.2559 37.3659 28.6074 37.7461C29.5004 38.7245 30.9537 39.4855 32.4736 39.7705C33.186 39.894 34.7059 39.9128 35.3711 39.7988C37.4896 39.4473 38.9721 38.3736 39.5801 36.7871C40.1216 35.3336 39.9413 33.3952 39.1338 32.1602C38.4213 31.0583 37.2431 30.2885 34.5264 29.1201C33.0541 28.4742 32.5788 28.161 32.3223 27.6387C32.2083 27.3918 32.1514 27.2207 32.1514 26.917C32.1514 25.9195 32.9109 25.3206 34.0508 25.3965C34.8393 25.4535 35.3429 25.7579 35.8369 26.4609C35.9885 26.7072 36.1403 26.8683 36.1787 26.8408C37.1756 26.2237 38.8182 25.113 38.8203 25.0547C38.7823 24.8837 38.2597 24.2189 37.9082 23.8389C37.2433 23.1454 36.502 22.7085 35.5332 22.4805L35.5518 22.4609ZM13.3604 22.5176V24.0762L13.3311 24.0664V25.6152H18.2715V39.6748H21.7773V25.6152H26.7168V24.0947C26.7168 23.2399 26.7167 22.5463 26.6787 22.5273C26.6571 22.4991 23.6541 22.4893 20.0098 22.4893L13.3604 22.5176Z" fill="white"/>
</svg>
