<svg width="48" height="48" viewBox="0 0 48 48" fill="none" xmlns="http://www.w3.org/2000/svg">
<path d="M17.5766 21.9604L19.5266 22.7854C19.7599 22.3187 20.0016 21.8687 20.2516 21.4354C20.5016 21.0021 20.7766 20.5687 21.0766 20.1354L19.6766 19.8604L17.5766 21.9604ZM21.1266 24.0354L23.9766 26.8604C24.6766 26.5937 25.4266 26.1854 26.2266 25.6354C27.0266 25.0854 27.7766 24.4604 28.4766 23.7604C29.6432 22.5937 30.5559 21.2981 31.2146 19.8734C31.8726 18.4481 32.1599 17.1354 32.0766 15.9354C30.8766 15.8521 29.5599 16.1394 28.1266 16.7974C26.6932 17.4561 25.3932 18.3687 24.2266 19.5354C23.5266 20.2354 22.9016 20.9854 22.3516 21.7854C21.8016 22.5854 21.3932 23.3354 21.1266 24.0354ZM25.5766 22.4104C25.1932 22.0271 25.0016 21.5561 25.0016 20.9974C25.0016 20.4394 25.1932 19.9687 25.5766 19.5854C25.9599 19.2021 26.4349 19.0104 27.0016 19.0104C27.5682 19.0104 28.0432 19.2021 28.4266 19.5854C28.8099 19.9687 29.0016 20.4394 29.0016 20.9974C29.0016 21.5561 28.8099 22.0271 28.4266 22.4104C28.0432 22.7937 27.5682 22.9854 27.0016 22.9854C26.4349 22.9854 25.9599 22.7937 25.5766 22.4104ZM26.0516 30.4354L28.1516 28.3354L27.8766 26.9354C27.4432 27.2354 27.0099 27.5061 26.5766 27.7474C26.1432 27.9894 25.6932 28.2271 25.2266 28.4604L26.0516 30.4354ZM33.8766 14.1104C34.1932 16.1271 33.9976 18.0894 33.2896 19.9974C32.5809 21.9061 31.3599 23.7271 29.6266 25.4604L30.1266 27.9354C30.1932 28.2687 30.1766 28.5937 30.0766 28.9104C29.9766 29.2271 29.8099 29.5021 29.5766 29.7354L25.3766 33.9354L23.2766 29.0104L19.0016 24.7354L14.0766 22.6354L18.2516 18.4354C18.4849 18.2021 18.7642 18.0354 19.0896 17.9354C19.4142 17.8354 19.7432 17.8187 20.0766 17.8854L22.5516 18.3854C24.2849 16.6521 26.1016 15.4271 28.0016 14.7104C29.9016 13.9937 31.8599 13.7937 33.8766 14.1104ZM15.8516 27.9104C16.4349 27.3271 17.1472 27.0311 17.9886 27.0224C18.8306 27.0144 19.5432 27.3021 20.1266 27.8854C20.7099 28.4687 20.9972 29.1811 20.9886 30.0224C20.9806 30.8644 20.6849 31.5771 20.1016 32.1604C19.6849 32.5771 18.9892 32.9354 18.0146 33.2354C17.0392 33.5354 15.6932 33.8021 13.9766 34.0354C14.2099 32.3187 14.4766 30.9727 14.7766 29.9974C15.0766 29.0227 15.4349 28.3271 15.8516 27.9104ZM17.2766 29.3104C17.1099 29.4771 16.9432 29.7814 16.7766 30.2234C16.6099 30.6647 16.4932 31.1104 16.4266 31.5604C16.8766 31.4937 17.3226 31.3814 17.7646 31.2234C18.2059 31.0647 18.5099 30.9021 18.6766 30.7354C18.8766 30.5354 18.9849 30.2937 19.0016 30.0104C19.0182 29.7271 18.9266 29.4854 18.7266 29.2854C18.5266 29.0854 18.2849 28.9894 18.0016 28.9974C17.7182 29.0061 17.4766 29.1104 17.2766 29.3104Z" fill="white"/>
</svg>
