<svg width="48" height="48" viewBox="0 0 48 48" fill="none" xmlns="http://www.w3.org/2000/svg">
<path d="M10.5101 43C8.8001 43 7.53343 42.6517 6.7101 41.955C5.88676 41.2583 5.4751 40.2133 5.4751 38.82C5.4751 36.9833 6.25093 35.8117 7.8026 35.305C9.35426 34.7983 11.1909 34.545 13.3126 34.545H14.3101V31.885C14.3101 30.8083 14.2943 29.9296 14.2626 29.2487C14.2309 28.5679 14.1359 28.0058 13.9776 27.5625C13.8193 27.1192 13.6372 26.8104 13.4313 26.6362C13.2255 26.4621 12.9484 26.375 12.6001 26.375C12.3151 26.375 12.0538 26.4225 11.8163 26.5175C11.5788 26.6125 11.3809 26.7392 11.2226 26.8975C11.0959 27.0558 11.0168 27.2221 10.9851 27.3962C10.9534 27.5704 10.9693 27.7525 11.0326 27.9425C11.2226 28.2908 11.4443 28.6313 11.6976 28.9637C11.9509 29.2962 12.0776 29.6842 12.0776 30.1275C12.0776 30.9192 11.8005 31.5921 11.2463 32.1462C10.6922 32.7004 10.0193 32.9775 9.2276 32.9775C8.43593 32.9775 7.76301 32.7004 7.20885 32.1462C6.65468 31.5921 6.3776 30.9192 6.3776 30.1275C6.3776 29.2725 6.5676 28.5758 6.9476 28.0375C7.3276 27.4992 7.84218 27.0717 8.49135 26.755C9.14051 26.4383 9.8926 26.2167 10.7476 26.09C11.6026 25.9633 12.5209 25.9 13.5026 25.9C16.1943 25.9 18.0626 26.3829 19.1076 27.3487C20.1526 28.3146 20.6751 30.0167 20.6751 32.455V39.4375C20.6751 40.0392 20.7463 40.4825 20.8888 40.7675C21.0313 41.0525 21.2768 41.195 21.6251 41.195C22.0051 41.195 22.3138 40.91 22.5513 40.34C22.7888 39.77 22.9393 38.8833 23.0026 37.68H23.5251C23.4301 39.6433 23.058 41.0208 22.4088 41.8125C21.7597 42.6042 20.6751 43 19.1551 43C17.7934 43 16.7247 42.7863 15.9488 42.3587C15.173 41.9312 14.6743 41.29 14.4526 40.435C14.1359 41.3533 13.6688 42.0104 13.0513 42.4062C12.4338 42.8021 11.5868 43 10.5101 43ZM28.2276 43C27.5943 43 27.0797 42.7388 26.6838 42.2163C26.288 41.6937 26.2168 41.1317 26.4701 40.53L31.3151 27.7525C31.5368 27.2142 31.8851 26.7708 32.3601 26.4225C32.8351 26.0742 33.3734 25.9 33.9751 25.9C34.5768 25.9 35.1151 26.0742 35.5901 26.4225C36.0651 26.7708 36.4134 27.2142 36.6351 27.7525L41.4801 40.53C41.7334 41.1317 41.6622 41.6937 41.2663 42.2163C40.8705 42.7388 40.3559 43 39.7226 43C39.3426 43 38.9943 42.8892 38.6776 42.6675C38.3609 42.4458 38.1234 42.145 37.9651 41.765L37.0151 39.01H30.9351L29.9851 41.765C29.8584 42.1133 29.6368 42.4062 29.3201 42.6437C29.0034 42.8812 28.6393 43 28.2276 43ZM12.8376 41.6225C13.2493 41.6225 13.5976 41.2979 13.8826 40.6488C14.1676 39.9996 14.3101 39.2158 14.3101 38.2975V35.115C13.4868 35.115 12.8851 35.3604 12.5051 35.8512C12.1251 36.3421 11.9351 37.1417 11.9351 38.25V38.7725C11.9351 39.9125 11.9984 40.6725 12.1251 41.0525C12.2518 41.4325 12.4893 41.6225 12.8376 41.6225ZM32.1701 35.685H35.8276L33.9751 30.27L32.1701 35.685ZM30.4126 22.1475C28.8926 22.1475 27.6813 21.6171 26.7788 20.5562C25.8763 19.4954 25.4251 18.0625 25.4251 16.2575C25.4251 12.9642 26.4701 10.2646 28.5601 8.15875C30.6501 6.05292 33.3259 5 36.5876 5C37.9176 5 38.9943 5.15042 39.8176 5.45125C40.6409 5.75208 41.0526 6.14 41.0526 6.615C41.0526 6.805 41.0209 6.995 40.9576 7.185C40.8943 7.375 40.7834 7.54917 40.6251 7.7075C40.4668 7.92917 40.2688 8.0875 40.0313 8.1825C39.7938 8.2775 39.5484 8.29333 39.2951 8.23C38.8518 8.10333 38.3451 7.9925 37.7751 7.8975C37.2051 7.8025 36.6826 7.755 36.2076 7.755C33.9593 7.755 32.1543 8.515 30.7926 10.035C29.4309 11.555 28.7501 13.5658 28.7501 16.0675C28.7501 16.7642 28.8768 17.4925 29.1301 18.2525C29.3834 19.0125 29.9534 19.3925 30.8401 19.3925C31.1884 19.3925 31.5288 19.3133 31.8613 19.155C32.1938 18.9967 32.4868 18.775 32.7401 18.49C33.2784 17.92 33.7772 16.97 34.2363 15.64C34.6955 14.31 35.1151 12.695 35.4951 10.795C35.5584 10.3833 35.7247 10.0904 35.9938 9.91625C36.263 9.74208 36.6351 9.655 37.1101 9.655C37.6801 9.655 38.1155 9.80542 38.4163 10.1062C38.7172 10.4071 38.8043 10.7792 38.6776 11.2225C38.2976 12.5842 38.0205 13.7717 37.8463 14.785C37.6722 15.7983 37.5851 16.7167 37.5851 17.54C37.5851 18.1733 37.6722 18.6325 37.8463 18.9175C38.0205 19.2025 38.2818 19.345 38.6301 19.345C38.9784 19.345 39.3188 19.2183 39.6513 18.965C39.9838 18.7117 40.4509 18.2367 41.0526 17.54C41.1159 17.445 41.3534 17.3342 41.7651 17.2075C42.0184 17.2075 42.2084 17.3025 42.3351 17.4925C42.4618 17.6825 42.5251 17.9517 42.5251 18.3C42.5251 19.1867 42.0184 20.0417 41.0051 20.865C39.9918 21.6883 38.9309 22.1 37.8226 22.1C36.9993 22.1 36.2947 21.8783 35.7088 21.435C35.123 20.9917 34.7193 20.3583 34.4976 19.535C34.0226 20.3583 33.4368 20.9996 32.7401 21.4587C32.0434 21.9179 31.2676 22.1475 30.4126 22.1475ZM7.3751 22.1V11.65C7.3751 9.81333 8.02426 8.24583 9.3226 6.9475C10.6209 5.64917 12.1884 5 14.0251 5C15.8618 5 17.4293 5.64917 18.7276 6.9475C20.0259 8.24583 20.6751 9.81333 20.6751 11.65V22.1H16.8751V18.3H11.1751V22.1H7.3751ZM11.1751 14.5H16.8751V11.65C16.8751 10.8583 16.598 10.1854 16.0438 9.63125C15.4897 9.07708 14.8168 8.8 14.0251 8.8C13.2334 8.8 12.5605 9.07708 12.0063 9.63125C11.4522 10.1854 11.1751 10.8583 11.1751 11.65V14.5Z" fill="white"/>
</svg>
