<svg width="48" height="48" viewBox="0 0 48 48" fill="none" xmlns="http://www.w3.org/2000/svg">
<path fill-rule="evenodd" clip-rule="evenodd" d="M37.2201 5.00379C38.2732 4.93797 39.1806 5.73791 39.2465 6.7909C39.2489 6.83047 39.2504 6.87039 39.2504 6.91004V41.0897C39.2502 42.1446 38.3944 42.9999 37.3393 42.9999C37.3108 42.9999 37.282 42.9993 37.2533 42.9979L11.7504 41.8524C10.7574 41.8075 9.96443 41.0089 9.92714 40.0155L8.75039 8.64929C8.71158 7.61345 9.50582 6.73544 10.5404 6.67078L31.4486 5.36414L31.2709 9.67078C31.2683 9.73681 31.2886 9.80167 31.3285 9.85437C31.4237 9.97977 31.6025 10.0042 31.7279 9.90906L33.4008 8.64051L34.8139 9.75379C34.8668 9.79534 34.9331 9.81667 35.0004 9.81433C35.1575 9.80862 35.2803 9.67659 35.2748 9.51941L35.1215 5.13465L37.2201 5.00379ZM24.5746 11.8339C19.6012 11.8339 16.814 14.535 16.8139 18.5868C16.8139 22.6458 19.965 24.4148 22.642 25.9178C24.6191 27.0278 26.3383 27.9936 26.3383 29.6288C26.3381 30.7091 25.8088 31.3505 24.6449 31.3505C23.1282 31.3505 22.5285 30.5759 22.599 27.9423C22.599 27.3709 16.8145 27.1929 16.6381 27.9423C16.1891 34.3245 20.1651 36.1658 24.7152 36.1659C29.1242 36.1659 32.5812 33.8156 32.5814 29.5614C32.5814 25.1226 29.2528 23.3578 26.5023 21.9003C24.5662 20.8743 22.9164 20.0004 22.9164 18.452C22.9164 16.9328 24.045 16.7304 24.7152 16.7303C25.4207 16.7303 26.6911 16.8543 26.5853 19.6903C26.5853 20.4336 31.5918 20.0777 32.2641 19.5555C32.2641 14.4939 29.548 11.834 24.5746 11.8339Z" fill="white"/>
</svg>
