<svg width="48" height="48" viewBox="0 0 48 48" fill="none" xmlns="http://www.w3.org/2000/svg">
<path d="M36.0383 18.194C35.6375 18.0615 35.2367 17.9362 34.8359 17.8184C34.9027 17.5459 34.9621 17.2733 35.0215 17.0008C35.9344 12.6109 35.3332 9.0827 33.307 7.91892C31.3551 6.80671 28.1711 7.96312 24.95 10.7473C24.6309 11.0199 24.3191 11.3071 24.0223 11.5944C23.8219 11.4029 23.6141 11.2114 23.4062 11.0272C20.0293 8.0515 16.6449 6.79934 14.6188 7.97048C12.6742 9.09007 12.0953 12.412 12.9117 16.5662C12.9934 16.9787 13.0824 17.3838 13.1863 17.7963C12.7113 17.9289 12.2437 18.0762 11.8059 18.2309C7.84258 19.5935 5 21.7443 5 23.9687C5 26.2668 8.02813 28.5723 12.1473 29.9718C12.4813 30.0822 12.8152 30.1927 13.1566 30.2885C13.0453 30.7304 12.9488 31.165 12.8598 31.6143C12.0805 35.7023 12.6891 38.9432 14.6336 40.0554C16.6375 41.2044 20.007 40.0259 23.2875 37.1754C23.5473 36.9471 23.807 36.7114 24.0668 36.4609C24.3934 36.7777 24.7348 37.0796 25.0762 37.3743C28.2527 40.0848 31.3922 41.1823 33.3293 40.0701C35.3332 38.9211 35.9863 35.4371 35.1402 31.1945C35.0734 30.8704 34.9992 30.5389 34.9176 30.2001C35.1551 30.1338 35.3852 30.0602 35.6152 29.9865C39.8977 28.5796 43 26.3037 43 23.9687C43 21.7369 40.0758 19.5714 36.0383 18.194ZM25.9965 11.9406C28.7574 9.5541 31.3328 8.61866 32.5055 9.28894C33.7598 10.0034 34.2422 12.8908 33.4555 16.6841C33.4035 16.9345 33.3516 17.1776 33.2848 17.4206C31.6371 17.0524 29.9672 16.7872 28.2898 16.6399C27.325 15.2699 26.2711 13.9588 25.1281 12.7287C25.4176 12.4562 25.6996 12.1984 25.9965 11.9406ZM17.4094 27.7915C17.7879 28.4323 18.1738 29.0731 18.582 29.6992C17.4242 29.574 16.2738 29.3899 15.1383 29.1468C15.4648 28.0861 15.873 26.9887 16.348 25.8691C16.6895 26.5173 17.0383 27.1581 17.4094 27.7915ZM15.1605 18.9306C16.2293 18.6949 17.3648 18.5034 18.5449 18.3561C18.1516 18.9674 17.7656 19.5935 17.402 20.227C17.0383 20.8531 16.682 21.4939 16.348 22.142C15.8805 21.0446 15.4871 19.9692 15.1605 18.9306ZM17.1941 24.0056C17.684 22.9891 18.2184 21.9947 18.7824 21.0151C19.3465 20.0355 19.9551 19.0853 20.5934 18.1498C21.7066 18.0688 22.8422 18.0246 24 18.0246C25.1578 18.0246 26.3008 18.0688 27.4066 18.1498C28.0375 19.0779 28.6387 20.0281 29.2102 21.0004C29.7816 21.9726 30.316 22.967 30.8207 23.9761C30.3234 24.9926 29.7891 25.9943 29.2176 26.9813C28.6535 27.9609 28.0523 28.9111 27.4215 29.8539C26.3156 29.9349 25.1652 29.9718 24 29.9718C22.8348 29.9718 21.7066 29.9349 20.6156 29.8686C19.9699 28.9332 19.3613 27.9757 18.7898 26.996C18.2184 26.0164 17.6914 25.022 17.1941 24.0056ZM30.598 27.7768C30.9766 27.1286 31.3328 26.4731 31.6816 25.8102C32.1566 26.8782 32.5723 27.9609 32.9359 29.0731C31.7855 29.3309 30.6203 29.5298 29.4477 29.6624C29.8484 29.0437 30.227 28.4102 30.598 27.7768ZM31.6668 22.142C31.318 21.4939 30.9617 20.8457 30.5906 20.2122C30.227 19.5862 29.8484 18.9674 29.4551 18.3561C30.65 18.5034 31.793 18.7023 32.8617 18.9453C32.5203 20.0355 32.1195 21.0961 31.6668 22.142ZM24.0148 13.8557C24.7941 14.6953 25.5289 15.5792 26.2117 16.4926C24.7422 16.4263 23.2652 16.4263 21.7957 16.4926C22.523 15.5424 23.2727 14.6585 24.0148 13.8557ZM15.4055 9.3405C16.6523 8.61866 19.4207 9.64986 22.3375 12.2131C22.523 12.3752 22.7086 12.5519 22.9016 12.7287C21.7512 13.9588 20.6898 15.2699 19.7176 16.6399C18.0402 16.7872 16.3777 17.045 14.7301 17.4059C14.6336 17.0303 14.552 16.6473 14.4703 16.2642C13.7727 12.6992 14.2328 10.0108 15.4055 9.3405ZM13.5871 28.7564C13.2754 28.668 12.9711 28.5723 12.6668 28.4692C11.0859 27.9757 9.28984 27.1949 7.99102 26.1711C7.24141 25.6555 6.73672 24.86 6.5957 23.9687C6.5957 22.6208 8.94102 20.8972 12.3254 19.7261C12.7484 19.5788 13.1789 19.4462 13.6094 19.321C14.1141 20.9193 14.7227 22.4882 15.4277 24.0056C14.7152 25.545 14.0992 27.136 13.5871 28.7564ZM22.241 35.9748C21.0164 37.087 19.5988 37.9709 18.0551 38.5749C17.2312 38.9653 16.2812 39.0021 15.4352 38.6706C14.2551 37.993 13.7652 35.3929 14.4332 31.8942C14.5148 31.4817 14.6039 31.0692 14.7078 30.6641C16.3703 31.0177 18.0477 31.2608 19.7473 31.386C20.727 32.7634 21.8031 34.0818 22.9535 35.3192C22.716 35.5476 22.4785 35.7686 22.241 35.9748ZM24.0594 34.1849C23.3023 33.3747 22.5453 32.4761 21.8105 31.5112C22.523 31.5407 23.2578 31.5554 24 31.5554C24.7645 31.5554 25.5141 31.5407 26.2563 31.5038C25.5734 32.4393 24.8387 33.3305 24.0594 34.1849ZM33.7598 36.3946C33.693 37.2932 33.2477 38.1329 32.5352 38.7001C31.3551 39.3777 28.8391 38.4939 26.1227 36.181C25.8109 35.9159 25.4992 35.6286 25.1801 35.334C26.3156 34.0892 27.3621 32.7707 28.3121 31.386C30.0117 31.246 31.7039 30.9882 33.3738 30.6126C33.448 30.9146 33.5148 31.2166 33.5742 31.5112C33.9379 33.1022 33.9973 34.7595 33.7598 36.3946ZM35.1105 28.4765C34.9027 28.5428 34.6949 28.6091 34.4797 28.668C33.9602 27.0623 33.3219 25.4934 32.5871 23.9687C33.2996 22.4661 33.9008 20.9193 34.4055 19.3357C34.7914 19.4462 35.1625 19.5641 35.5188 19.6819C38.9773 20.8604 41.4043 22.6135 41.4043 23.954C41.4043 25.3977 38.8141 27.2612 35.1105 28.4765ZM24 27.3717C25.8777 27.3717 27.3992 25.8617 27.3992 23.9982C27.3992 22.1347 25.8777 20.6247 24 20.6247C22.1223 20.6247 20.6008 22.1347 20.6008 23.9982C20.6008 25.8617 22.1223 27.3717 24 27.3717Z" fill="white"/>
</svg>
