<svg width="44" height="34" viewBox="0 0 44 34" fill="none" xmlns="http://www.w3.org/2000/svg">
<path d="M30.7001 33.2163C30.5226 33.4277 30.2065 33.4553 29.9951 33.2778C29.7839 33.1004 29.7565 32.7852 29.9335 32.5737L42.3291 17.8013L0.499951 17.8013C0.223828 17.8012 -4.89792e-05 17.5774 -4.89792e-05 17.3013C9.011e-05 17.0252 0.223914 16.8013 0.499951 16.8013L42.5048 16.8013L31.2919 0.786607C31.1338 0.560456 31.188 0.248654 31.414 0.0903182C31.6401 -0.0679659 31.9518 -0.0124618 32.1103 0.213365L43.6611 16.7085C43.7186 16.7278 43.7739 16.757 43.8232 16.7983C43.9961 16.9434 44.0453 17.1801 43.9609 17.3774C43.9413 17.508 43.8705 17.6306 43.7539 17.7124C43.7267 17.7314 43.6981 17.7483 43.6689 17.7612L30.7001 33.2163Z" fill="white"/>
</svg>
