<svg width="48" height="48" viewBox="0 0 48 48" fill="none" xmlns="http://www.w3.org/2000/svg">
<path d="M24.0682 42.9493C24.8266 42.943 25.5771 42.9034 26.3259 42.8005C28.0358 42.582 29.7188 42.115 31.3068 41.4342C33.5376 40.4811 35.5784 39.1052 37.312 37.408C38.9 35.8422 40.2284 34.0024 41.1752 31.9822C41.981 30.2454 42.551 28.3819 42.7901 26.4789C43.026 24.6423 43.0038 22.7646 42.7188 20.9391C42.4829 19.4192 42.0554 17.9373 41.4633 16.525C41.0833 15.6368 40.6321 14.7819 40.1112 13.9649C38.262 11.0565 35.5816 8.71806 32.4958 7.1554C31.3986 6.59335 30.2429 6.13421 29.057 5.77957H29.0491C29.2375 5.87931 29.4291 5.98855 29.5953 6.0978C29.7853 6.21496 29.9737 6.32895 30.151 6.45403C31.0519 7.06357 31.8831 7.76337 32.6193 8.55974C34.3023 10.3726 35.4644 12.5938 36.131 14.9576C36.5806 16.5124 36.8181 18.1209 36.9147 19.7343C36.9843 20.9106 36.9843 22.0949 36.8402 23.2633C36.6043 25.274 35.9631 27.2372 34.896 28.9566C34.1123 30.228 33.0911 31.3616 31.8831 32.2561C29.9136 33.7254 27.3281 34.6025 24.8599 34.0198C24.4577 33.9233 24.0524 33.7887 23.6756 33.6114C23.2465 33.4151 22.8206 33.1728 22.4422 32.9005C21.706 32.4081 21.0411 31.816 20.4727 31.1494C19.784 30.3261 19.2156 29.3905 18.8119 28.3835C18.3147 27.1074 18.0535 25.7363 18.0297 24.3621C17.9822 22.3466 18.386 20.3201 19.3818 18.5516C20.0468 17.3736 20.9477 16.3414 22.0148 15.5149C22.371 15.2331 22.7494 14.9877 23.1294 14.7565L23.1547 14.7455C22.4169 14.5792 21.6348 14.5064 20.8732 14.5555C20.2115 14.6014 19.5702 14.7217 18.929 14.9339C18.3606 15.1239 17.8144 15.3629 17.3157 15.6463C16.912 15.8822 16.5114 16.1451 16.1552 16.43C15.8211 16.715 15.4902 16.9984 15.1815 17.3087C13.4035 19.1342 12.3823 21.555 11.9802 24.047C11.7427 25.5875 11.7427 27.1517 11.8361 28.7192C12.0023 30.9262 12.4551 33.1301 13.3323 35.1487C13.8769 36.4058 14.5878 37.5663 15.4665 38.5891C16.8186 40.1517 18.5285 41.3645 20.4252 42.1213C21.4939 42.5504 22.6322 42.8575 23.7706 42.9762C23.8877 43 24.0065 43 24.1015 43L24.0682 42.9493ZM19.423 42.3192C19.1633 42.2084 18.9259 42.0833 18.7105 41.9582C18.4746 41.8268 18.2356 41.6922 17.9997 41.5482C17.0735 40.975 16.2454 40.3022 15.4839 39.5295C13.7518 37.7278 12.5913 35.4653 11.9263 33.0683C11.4767 31.4312 11.2376 29.7403 11.1426 28.0463C11.073 26.9333 11.0967 25.8408 11.2155 24.75C11.4292 22.7598 11.9992 20.7903 12.995 19.082C13.7059 17.8249 14.678 16.7103 15.818 15.8316C16.6001 15.2394 17.4788 14.7391 18.4034 14.4067C19.708 13.9333 21.1076 13.7908 22.4612 13.9792C22.9837 14.0504 23.503 14.1707 23.9796 14.3354C24.0255 14.3354 24.0255 14.3354 24.0508 14.3829C24.0746 14.4067 24.1221 14.4067 24.1458 14.4304C24.2171 14.4557 24.3105 14.5016 24.407 14.5476C24.7854 14.7375 25.1654 14.9766 25.5216 15.2125C26.945 16.2084 28.1071 17.5842 28.8417 19.1738C29.5067 20.6209 29.8154 22.2358 29.8407 23.8254C29.8629 25.5337 29.5557 27.2404 28.8195 28.8062C27.9408 30.6808 26.4478 32.2704 24.6429 33.29C24.7854 33.3375 24.9279 33.3612 25.072 33.4087C25.4282 33.4784 25.7829 33.5259 26.1613 33.5259C28.4855 33.5971 30.74 32.4825 32.3993 30.9183C32.708 30.6333 32.993 30.3246 33.2542 29.9921C33.6104 29.5646 33.9429 29.1387 34.2263 28.6891C34.6047 28.0954 34.915 27.5016 35.1984 26.862C35.5562 26.0086 35.8381 25.1299 36.0043 24.2275C36.3146 22.6379 36.3384 21.0262 36.2402 19.4366C36.0265 16.2353 35.1747 13.0324 33.3239 10.3741C33.0389 9.97199 32.7555 9.59201 32.4452 9.23578C31.9243 8.64207 31.3543 8.09743 30.7622 7.59871C30.0972 7.05249 29.361 6.55535 28.6042 6.15004C27.8237 5.79698 26.8975 5.44233 25.9254 5.20327L25.4504 5.10827C25.1195 5.06077 24.7854 5.03861 24.4466 5.01328C23.9321 4.98953 23.3874 4.99744 22.8396 5.03861C21.725 5.10985 20.6041 5.29193 19.4958 5.57216C14.1825 6.94325 9.53407 10.6465 7.05946 15.5593C6.26626 17.1251 5.70579 18.7986 5.37806 20.518C4.99966 22.4859 4.95058 24.5125 5.2134 26.4947C5.40339 28.1096 5.80553 29.6976 6.44516 31.208C6.80456 32.1105 7.2542 32.9876 7.75134 33.8172C9.4834 36.6401 11.9992 38.9406 14.8918 40.5301C15.981 41.1492 17.121 41.6226 18.3068 42.0263C18.6646 42.1435 19.0193 42.2622 19.3977 42.3572L19.423 42.3192Z" fill="white"/>
</svg>
