<svg width="48" height="48" viewBox="0 0 48 48" fill="none" xmlns="http://www.w3.org/2000/svg">
<path d="M14.9987 32C16.0985 32 16.9984 32.9 16.9984 34C16.9984 36.2 15.1987 38 12.9989 38C12.659 38 12.339 37.96 11.9991 37.9C12.619 36.8 12.9989 35.48 12.9989 34C12.9989 32.9 13.8988 32 14.9987 32ZM38.3356 6C37.8157 6 37.3158 6.2 36.9158 6.58L18.9982 24.5L24.4974 30L42.4151 12.08C43.195 11.3 43.195 10.04 42.4151 9.26L39.7354 6.58C39.3355 6.18 38.8356 6 38.3356 6ZM14.9987 28C11.6791 28 8.99947 30.68 8.99947 34C8.99947 36.62 6.67978 38 5 38C6.83976 40.44 9.97935 42 12.9989 42C17.4184 42 20.9979 38.42 20.9979 34C20.9979 30.68 18.3182 28 14.9987 28Z" fill="white"/>
</svg>
