<svg width="48" height="48" viewBox="0 0 48 48" fill="none" xmlns="http://www.w3.org/2000/svg">
<path d="M18.1237 33.5C17.3505 33.5 16.5859 33.3107 15.8299 32.9321C15.0739 32.5534 14.4639 32.0543 14 31.4348C14.4467 31.4348 14.9021 31.2586 15.366 30.9061C15.8299 30.5529 16.0619 30.0408 16.0619 29.3696C16.0619 28.5091 16.3625 27.7776 16.9639 27.1753C17.5653 26.5729 18.2955 26.2717 19.1546 26.2717C20.0137 26.2717 20.744 26.5729 21.3454 27.1753C21.9467 27.7776 22.2474 28.5091 22.2474 29.3696C22.2474 30.5054 21.8436 31.4778 21.0361 32.2867C20.2285 33.0956 19.2577 33.5 18.1237 33.5ZM18.1237 31.4348C18.6907 31.4348 19.1759 31.2327 19.5794 30.8286C19.9835 30.4239 20.1856 29.9375 20.1856 29.3696C20.1856 29.077 20.0869 28.8319 19.8897 28.6343C19.6918 28.4361 19.4467 28.337 19.1546 28.337C18.8625 28.337 18.6175 28.4361 18.4196 28.6343C18.2223 28.8319 18.1237 29.077 18.1237 29.3696C18.1237 29.7654 18.0766 30.1268 17.9825 30.4538C17.8876 30.7808 17.7629 31.0906 17.6082 31.3832C17.6942 31.4176 17.7801 31.4348 17.866 31.4348H18.1237ZM24.0515 27.3043L21.2165 24.4647L31.1649 14.5L34 17.3397L24.0515 27.3043Z" fill="white"/>
</svg>
