<svg width="48" height="48" viewBox="0 0 48 48" fill="none" xmlns="http://www.w3.org/2000/svg">
<path d="M17.7101 35.2923C17.7101 35.4454 17.5339 35.5678 17.3117 35.5678C17.0589 35.5907 16.8827 35.4683 16.8827 35.2923C16.8827 35.1393 17.0589 35.0169 17.281 35.0169C17.5109 34.994 17.7101 35.1164 17.7101 35.2923ZM15.3274 34.9481C15.2738 35.1011 15.427 35.277 15.6569 35.3229C15.856 35.3995 16.0859 35.3229 16.1319 35.1699C16.1778 35.0169 16.0323 34.8409 15.8024 34.7721C15.6032 34.7185 15.381 34.795 15.3274 34.9481ZM18.7137 34.818C18.4915 34.8716 18.3383 35.0169 18.3613 35.1929C18.3843 35.3459 18.5835 35.4454 18.8133 35.3918C19.0355 35.3383 19.1887 35.1929 19.1657 35.0399C19.1427 34.8945 18.9359 34.795 18.7137 34.818ZM23.7548 5.5C13.1286 5.5 5 13.5563 5 24.168C5 32.6528 10.3476 39.9135 17.9859 42.4688C18.9665 42.6448 19.3113 42.0404 19.3113 41.5431C19.3113 41.0687 19.2883 38.4521 19.2883 36.8455C19.2883 36.8455 13.9254 37.9931 12.7992 34.5655C12.7992 34.5655 11.9258 32.3391 10.6694 31.7653C10.6694 31.7653 8.91492 30.5641 10.7919 30.5871C10.7919 30.5871 12.6996 30.7401 13.7492 32.561C15.427 35.5142 18.2387 34.665 19.3343 34.16C19.5105 32.9359 20.0085 32.0866 20.5601 31.5817C16.2774 31.1073 11.9565 30.4876 11.9565 23.1275C11.9565 21.0235 12.5387 19.9677 13.7645 18.6212C13.5653 18.1239 12.9141 16.0735 13.9637 13.4263C15.5649 12.929 19.25 15.492 19.25 15.492C20.7823 15.0635 22.4294 14.8417 24.0613 14.8417C25.6931 14.8417 27.3403 15.0635 28.8726 15.492C28.8726 15.492 32.5577 12.9213 34.1589 13.4263C35.2085 16.0811 34.5573 18.1239 34.3581 18.6212C35.5839 19.9754 36.3347 21.0312 36.3347 23.1275C36.3347 30.5106 31.8222 31.0997 27.5395 31.5817C28.2444 32.1861 28.8419 33.3337 28.8419 35.1317C28.8419 37.71 28.819 40.9004 28.819 41.5278C28.819 42.0251 29.1714 42.6295 30.1444 42.4535C37.8056 39.9134 43 32.6528 43 24.168C43 13.5563 34.381 5.5 23.7548 5.5ZM12.4468 31.8877C12.3472 31.9642 12.3702 32.1402 12.5004 32.2856C12.623 32.408 12.7992 32.4615 12.8988 32.3621C12.9984 32.2856 12.9754 32.1096 12.8452 31.9642C12.7226 31.8418 12.5464 31.7883 12.4468 31.8877ZM11.6194 31.268C11.5657 31.3675 11.6423 31.4899 11.7956 31.5664C11.9181 31.6429 12.0714 31.6199 12.125 31.5128C12.1786 31.4134 12.102 31.291 11.9488 31.2145C11.7956 31.1685 11.673 31.1915 11.6194 31.268ZM14.1016 33.9917C13.979 34.0912 14.025 34.3207 14.2012 34.4661C14.3774 34.642 14.5996 34.665 14.6992 34.5426C14.7988 34.4431 14.7528 34.2136 14.5996 34.0682C14.431 33.8922 14.2012 33.8693 14.1016 33.9917ZM13.2282 32.867C13.1056 32.9435 13.1056 33.1425 13.2282 33.3184C13.3508 33.4944 13.5577 33.5709 13.6573 33.4944C13.7798 33.3949 13.7798 33.196 13.6573 33.0201C13.55 32.8441 13.3508 32.7676 13.2282 32.867Z" fill="white"/>
</svg>
