<svg width="48" height="48" viewBox="0 0 48 48" fill="none" xmlns="http://www.w3.org/2000/svg">
<mask id="mask0_488_1872" style="mask-type:luminance" maskUnits="userSpaceOnUse" x="5" y="15" width="38" height="18">
<path d="M5 15.8708H43V32.1292H5" fill="white"/>
</mask>
<g mask="url(#mask0_488_1872)">
<path fill-rule="evenodd" clip-rule="evenodd" d="M41.3775 21.7999C41.3775 20.5829 41.5647 19.8652 41.5647 18.5546C41.5647 16.5262 40.8156 15.8708 39.1618 15.8708H37.9448V17.3063H38.3192C39.1618 17.3063 39.349 17.5872 39.349 18.617C39.349 19.5843 39.2553 20.5517 39.2553 21.6752C39.2553 23.1107 39.7235 23.6723 40.6596 23.8907V23.9844C39.7235 24.2028 39.2553 24.7646 39.2553 26.2001C39.2553 27.3234 39.349 28.2285 39.349 29.2583C39.349 30.3193 39.1306 30.6 38.3192 30.6V30.6312H37.9448V32.1292H39.1618C40.8156 32.1292 41.5647 31.4738 41.5647 29.4455C41.5647 28.1036 41.3775 27.4171 41.3775 26.2001C41.3775 25.5447 41.7831 24.8582 43.0001 24.7958V23.173C41.7831 23.1418 41.3775 22.4553 41.3775 21.7999ZM27.5532 23.7035C26.5858 23.3291 25.712 23.1107 25.712 22.4865C25.712 22.0185 26.0864 21.7376 26.773 21.7376C27.4595 21.7376 28.0837 22.0185 28.7702 22.5178L30.0184 20.8638C29.2382 20.271 28.1772 19.6468 26.7418 19.6468C24.6198 19.6468 23.1843 20.8638 23.1843 22.5802C23.1843 24.1093 24.5261 24.8894 25.6496 25.3263C26.6169 25.7008 27.5532 26.0128 27.5532 26.6369C27.5532 27.105 27.1786 27.4171 26.3362 27.4171C25.556 27.4171 24.7759 27.105 23.9333 26.4496L22.7163 28.2597C23.6524 29.0397 25.0878 29.5702 26.2737 29.5702C28.7702 29.5702 30.112 28.2597 30.112 26.5433C30.112 24.827 28.7702 24.1093 27.5532 23.7035ZM35.1049 23.7035C34.1688 23.3291 33.2951 23.1107 33.2951 22.4865C33.2951 22.0185 33.6695 21.7376 34.3561 21.7376C35.0426 21.7376 35.6668 22.0185 36.3533 22.5178L37.6015 20.8638C36.8213 20.271 35.7603 19.6468 34.3249 19.6468C32.2028 19.6468 30.7673 20.8638 30.7673 22.5802C30.7673 24.1093 32.1092 24.8894 33.2326 25.3263C34.2 25.7008 35.1361 26.0128 35.1361 26.6369C35.1361 27.105 34.7617 27.4171 33.9191 27.4171C33.139 27.4171 32.3588 27.105 31.5164 26.4496L30.268 28.2597C31.2043 29.0397 32.6397 29.5702 33.8256 29.5702C36.322 29.5702 37.6639 28.2597 37.6639 26.5433C37.6639 24.827 36.322 24.1093 35.1049 23.7035ZM16.5686 23.5475C16.7559 22.2993 17.5047 21.7064 18.3785 21.7064C19.502 21.7064 19.9389 22.4865 19.9389 23.5475H16.5686ZM22.3105 24.1093C22.3417 21.5815 20.9686 19.6156 18.3473 19.6156C16.0693 19.6156 13.885 21.5192 13.9473 24.5149C13.9473 27.6043 15.9758 29.4142 18.6594 29.4142C19.7829 29.4142 21.0311 29.0086 21.9984 28.3532L21.0623 26.6994C20.3758 27.105 19.7204 27.2922 19.0339 27.2922C17.7857 27.2922 16.8182 26.6994 16.5686 25.2638H22.217C22.2481 25.0454 22.3105 24.6086 22.3105 24.1093Z" fill="white"/>
</g>
<mask id="mask1_488_1872" style="mask-type:luminance" maskUnits="userSpaceOnUse" x="5" y="15" width="38" height="18">
<path d="M5 15.8708H43V32.1292H5" fill="white"/>
</mask>
<g mask="url(#mask1_488_1872)">
<path fill-rule="evenodd" clip-rule="evenodd" d="M13.7913 27.2299C13.5729 27.2299 13.292 27.0426 13.292 26.4496V15.8708H8.8607C7.17568 15.8708 6.42664 16.5262 6.42664 18.5546C6.42664 19.8964 6.61386 20.6454 6.61386 21.7999C6.61386 22.4553 6.20824 23.1418 4.99121 23.2042V24.827C6.20824 24.8582 6.61386 25.5447 6.61386 26.2001C6.61386 27.3547 6.42664 28.0411 6.42664 29.383C6.42664 31.4114 7.17568 32.0668 8.82952 32.0668H10.0465V30.6312H9.6721C8.89202 30.6312 8.64229 30.3193 8.64229 29.2895C8.64229 28.2597 8.73598 27.3859 8.73598 26.2312C8.73598 24.7958 8.26785 24.234 7.33158 24.0156V23.9221C8.26785 23.7035 8.73598 23.1418 8.73598 21.7064C8.73598 20.5829 8.64229 19.678 8.64229 18.6482C8.64229 17.6184 8.8607 17.3376 9.6721 17.3376H10.5147V26.2936C10.5147 28.1972 11.17 29.4455 13.0736 29.4455C13.6664 29.4455 14.1346 29.3518 14.4778 29.227L14.1658 27.1987C13.9785 27.2299 13.885 27.2299 13.7913 27.2299Z" fill="white"/>
</g>
</svg>
