<svg width="48" height="48" viewBox="0 0 48 48" fill="none" xmlns="http://www.w3.org/2000/svg">
<path d="M40.8201 20.3064C40.8201 18.0297 38.0059 15.8721 33.691 14.5342C34.6868 10.0788 34.2443 6.53416 32.2942 5.3993C31.8447 5.1331 31.3193 5.007 30.7454 5.007V6.56918C31.0634 6.56918 31.3193 6.63223 31.5336 6.75131C32.474 7.29772 32.8821 9.37829 32.5639 12.0543C32.4879 12.7128 32.3635 13.4063 32.2113 14.1138C30.8559 13.7776 29.3762 13.5184 27.8204 13.3503C26.887 12.0543 25.9189 10.8774 24.9439 9.84764C27.1981 7.72505 29.3141 6.56217 30.7523 6.56217V5C28.8507 5 26.3614 6.37303 23.8445 8.75481C21.3275 6.38704 18.8382 5.02802 16.9367 5.02802V6.59019C18.368 6.59019 20.4908 7.74607 22.745 9.85464C21.777 10.8844 20.8089 12.0543 19.8892 13.3503C18.3265 13.5184 16.8467 13.7776 15.4915 14.1208C15.3324 13.4203 15.2149 12.7408 15.1319 12.0893C14.807 9.41331 15.2079 7.33275 16.1415 6.77934C16.3489 6.65324 16.6185 6.59721 16.9367 6.59721V5.03503C16.3558 5.03503 15.8303 5.16112 15.374 5.42733C13.4309 6.56217 12.9953 10.0998 13.9979 14.5412C9.69695 15.8862 6.89648 18.0368 6.89648 20.3064C6.89648 22.5832 9.71077 24.7409 14.0255 26.0788C13.0298 30.5342 13.4723 34.0787 15.4224 35.2136C15.8719 35.4798 16.3973 35.6059 16.9782 35.6059C18.8797 35.6059 21.3691 34.2329 23.886 31.8511C26.4029 34.2189 28.8923 35.578 30.7938 35.578C31.3745 35.578 31.9001 35.4519 32.3565 35.1856C34.2995 34.0507 34.7352 30.513 33.7325 26.0719C38.0196 24.7338 40.8201 22.5762 40.8201 20.3064ZM31.8172 15.634C31.5613 16.5377 31.2433 17.4693 30.8836 18.401C30.6002 17.8407 30.3029 17.2802 29.9778 16.7197C29.6598 16.1594 29.3209 15.613 28.9821 15.0806C29.9639 15.2277 30.9113 15.4098 31.8172 15.634ZM28.6501 23.0945C28.1108 24.0403 27.5577 24.937 26.9838 25.7706C25.9534 25.8617 24.9094 25.9107 23.8583 25.9107C22.8141 25.9107 21.77 25.8617 20.7467 25.7775C20.1728 24.9439 19.6126 24.0543 19.0733 23.1155C18.5477 22.1979 18.0707 21.2662 17.635 20.3276C18.0638 19.3888 18.5477 18.45 19.0665 17.5324C19.6058 16.5867 20.1589 15.69 20.7328 14.8564C21.7632 14.7653 22.8072 14.7163 23.8583 14.7163C24.9024 14.7163 25.9466 14.7653 26.9699 14.8494C27.5438 15.683 28.104 16.5726 28.6433 17.5114C29.1689 18.429 29.6459 19.3608 30.0816 20.2995C29.6459 21.2381 29.1689 22.1769 28.6501 23.0945ZM30.8836 22.184C31.2466 23.0969 31.5651 24.0273 31.8379 24.9719C30.932 25.1961 29.9778 25.3853 28.9891 25.5324C29.3278 24.9931 29.6666 24.4396 29.9848 23.8721C30.3029 23.3118 30.6002 22.7443 30.8836 22.184ZM23.8721 29.6586C23.229 28.9859 22.5859 28.2364 21.9498 27.4168C22.5722 27.4449 23.2083 27.4658 23.8513 27.4658C24.5014 27.4658 25.1444 27.4519 25.7737 27.4168C25.1802 28.1982 24.5454 28.9466 23.8721 29.6586ZM18.7275 25.5324C17.7457 25.3853 16.7983 25.2031 15.8926 24.979C16.1483 24.0753 16.4665 23.1436 16.826 22.2118C17.1096 22.7723 17.4069 23.3328 17.7318 23.8931C18.0568 24.4536 18.3888 24.9999 18.7275 25.5324ZM23.8376 10.9545C24.4806 11.627 25.1237 12.3765 25.7598 13.1961C25.1375 13.1681 24.5014 13.1471 23.8583 13.1471C23.2083 13.1471 22.5652 13.1611 21.9361 13.1961C22.5296 12.4148 23.1643 11.6664 23.8376 10.9545ZM18.7206 15.0806C18.3818 15.62 18.043 16.1734 17.725 16.7407C17.4069 17.3012 17.1096 17.8617 16.826 18.422C16.463 17.5091 16.1446 16.5786 15.8719 15.634C16.7776 15.4168 17.7318 15.2277 18.7206 15.0806ZM12.4628 23.8511C10.015 22.7933 8.43155 21.4064 8.43155 20.3064C8.43155 19.2066 10.015 17.8126 12.4628 16.7619C13.0575 16.5026 13.7075 16.2714 14.3782 16.0543C14.7724 17.4273 15.291 18.8564 15.934 20.3205C15.2979 21.7776 14.7861 23.1996 14.399 24.5657C13.7145 24.3485 13.0644 24.1104 12.4628 23.8511ZM16.183 33.8616C15.2426 33.3153 14.8345 31.2347 15.1527 28.5586C15.2288 27.9002 15.3531 27.2066 15.5053 26.499C16.8607 26.8354 18.3404 27.0946 19.8962 27.2627C20.8296 28.5586 21.7977 29.7355 22.7727 30.7652C20.5185 32.8879 18.4025 34.0507 16.9643 34.0507C16.6532 34.0438 16.3905 33.9807 16.183 33.8616ZM32.5847 28.5237C32.9096 31.1996 32.5087 33.2802 31.5751 33.8336C31.3677 33.9597 31.0981 34.0158 30.7799 34.0158C29.3485 34.0158 27.2258 32.8599 24.9716 30.7513C25.9396 29.7215 26.9077 28.5517 27.8274 27.2556C29.3901 27.0875 30.8698 26.8283 32.2251 26.4851C32.3842 27.1927 32.5087 27.8722 32.5847 28.5237ZM35.2468 23.8511C34.6522 24.1104 34.0021 24.3416 33.3314 24.5587C32.9373 23.1857 32.4187 21.7566 31.7756 20.2925C32.4119 18.8354 32.9235 17.4134 33.3107 16.0473C33.9953 16.2644 34.6452 16.5026 35.2538 16.7619C37.7016 17.8195 39.285 19.2066 39.285 20.3064C39.2781 21.4064 37.6946 22.8004 35.2468 23.8511Z" fill="white"/>
<path d="M23.8512 23.5081C25.5965 23.5081 27.0113 22.0748 27.0113 20.3066C27.0113 18.5385 25.5965 17.1052 23.8512 17.1052C22.106 17.1052 20.6912 18.5385 20.6912 20.3066C20.6912 22.0748 22.106 23.5081 23.8512 23.5081ZM8.43674 41.1182H7.3936V42.9382H6.80493V38.4391H8.27509C8.7753 38.4391 9.15962 38.5545 9.42803 38.7853C9.69847 39.0158 9.8337 39.3517 9.8337 39.7925C9.8337 40.0727 9.75847 40.3168 9.60799 40.525C9.45956 40.733 9.25215 40.8885 8.98577 40.9914L10.0289 42.9011V42.9382H9.40058L8.43674 41.1182ZM7.3936 40.633H8.2934C8.58417 40.633 8.81496 40.5568 8.98577 40.4043C9.1586 40.2519 9.24502 40.048 9.24502 39.7925C9.24502 39.5144 9.16267 39.3013 8.99797 39.1529C8.83529 39.0046 8.59942 38.9294 8.29033 38.9273H7.3936V40.633ZM11.9383 43.0001C11.4909 43.0001 11.1269 42.8517 10.8463 42.5551C10.5657 42.2563 10.4254 41.8577 10.4254 41.3592V41.2541C10.4254 40.9225 10.4874 40.6269 10.6115 40.3674C10.7376 40.1056 10.9124 39.9017 11.1361 39.7555C11.3618 39.6072 11.6058 39.5329 11.8681 39.5329C12.2972 39.5329 12.6307 39.6761 12.8685 39.9624C13.1065 40.2488 13.2254 40.6587 13.2254 41.1923V41.4302H10.9897C10.9978 41.7599 11.0924 42.0267 11.2734 42.2307C11.4564 42.4324 11.6882 42.5334 11.9688 42.5334C12.1681 42.5334 12.3368 42.4923 12.475 42.4099C12.6134 42.3275 12.7343 42.2183 12.8381 42.0823L13.1827 42.3542C12.9061 42.7847 12.4914 43.0001 11.9383 43.0001ZM11.8681 40.0027C11.6404 40.0027 11.4493 40.0871 11.2947 40.256C11.1402 40.423 11.0446 40.6578 11.008 40.9606H12.6612V40.9173C12.645 40.6269 12.5676 40.4023 12.4294 40.2436C12.291 40.0831 12.1039 40.0027 11.8681 40.0027ZM15.9187 42.9382C15.8861 42.8723 15.8597 42.7549 15.8394 42.5859C15.577 42.8619 15.2639 43.0001 14.8999 43.0001C14.5746 43.0001 14.3073 42.9074 14.0978 42.7219C13.8904 42.5344 13.7867 42.2975 13.7867 42.0112C13.7867 41.6631 13.9169 41.3932 14.1771 41.2017C14.4393 41.0079 14.8075 40.9111 15.2812 40.9111H15.8303V40.6485C15.8303 40.4487 15.7712 40.29 15.6534 40.1727C15.5354 40.0531 15.3615 39.9935 15.1317 39.9935C14.9304 39.9935 14.7617 40.0448 14.6255 40.1479C14.4893 40.2508 14.4211 40.3755 14.4211 40.5218H13.8538C13.8538 40.355 13.9118 40.1943 14.0276 40.0397C14.1455 39.8832 14.3042 39.7596 14.5035 39.6689C14.7048 39.5784 14.9253 39.5329 15.1653 39.5329C15.5456 39.5329 15.8434 39.6297 16.059 39.8235C16.2745 40.0151 16.3863 40.2798 16.3945 40.6175V42.1564C16.3945 42.4634 16.4331 42.7075 16.5105 42.8887V42.9382H15.9187ZM14.9823 42.5026C15.1592 42.5026 15.327 42.4562 15.4856 42.3635C15.6441 42.2708 15.759 42.1503 15.8303 42.002V41.316H15.3879C14.6966 41.316 14.3509 41.5209 14.3509 41.9308C14.3509 42.11 14.4099 42.2502 14.5278 42.3511C14.6457 42.452 14.7973 42.5026 14.9823 42.5026ZM18.6028 42.5334C18.8041 42.5334 18.98 42.4716 19.1305 42.348C19.2809 42.2244 19.3643 42.0699 19.3805 41.8845H19.9144C19.9042 42.076 19.8391 42.2584 19.7191 42.4315C19.5991 42.6046 19.4385 42.7426 19.2372 42.8455C19.0379 42.9486 18.8265 43.0001 18.6028 43.0001C18.1534 43.0001 17.7955 42.8486 17.5291 42.5458C17.2648 42.2408 17.1326 41.8248 17.1326 41.2974V41.2017C17.1326 40.8762 17.1916 40.5867 17.3095 40.3334C17.4275 40.0799 17.5962 39.8832 17.8159 39.7431C18.0375 39.6029 18.2988 39.5329 18.5997 39.5329C18.9698 39.5329 19.2769 39.6452 19.5209 39.8699C19.7669 40.0943 19.898 40.3859 19.9144 40.7443H19.3805C19.3643 40.5279 19.2829 40.3508 19.1365 40.2128C18.9923 40.0727 18.8132 40.0027 18.5997 40.0027C18.313 40.0027 18.0904 40.1077 17.9317 40.3179C17.7752 40.5259 17.6969 40.8277 17.6969 41.2233V41.3314C17.6969 41.7165 17.7752 42.0132 17.9317 42.2213C18.0884 42.4294 18.3121 42.5334 18.6028 42.5334ZM21.3143 38.7853V39.5948H21.9305V40.0367H21.3143V42.11C21.3143 42.244 21.3419 42.3448 21.3968 42.4128C21.4516 42.4788 21.5452 42.5118 21.6774 42.5118C21.7423 42.5118 21.8319 42.4995 21.9457 42.4747V42.9382C21.7972 42.9794 21.653 43.0001 21.5126 43.0001C21.2605 43.0001 21.0704 42.9227 20.9422 42.7683C20.8141 42.6138 20.7501 42.3943 20.7501 42.11V40.0367H20.1491V39.5948H20.7501V38.7853H21.3143ZM27.6434 42.9382H27.0546L24.819 39.4712V42.9382H24.2303V38.4391H24.819L27.0608 41.9216V38.4391H27.6434V42.9382ZM30.6325 42.9382C30.5999 42.8723 30.5735 42.7549 30.5532 42.5859C30.2908 42.8619 29.9777 43.0001 29.6137 43.0001C29.2884 43.0001 29.0209 42.9074 28.8116 42.7219C28.6042 42.5344 28.5005 42.2975 28.5005 42.0112C28.5005 41.6631 28.6305 41.3932 28.8909 41.2017C29.1531 41.0079 29.5213 40.9111 29.995 40.9111H30.5441V40.6485C30.5441 40.4487 30.485 40.29 30.367 40.1727C30.2492 40.0531 30.0753 39.9935 29.8455 39.9935C29.6442 39.9935 29.4755 40.0448 29.3393 40.1479C29.2031 40.2508 29.1349 40.3755 29.1349 40.5218H28.5676C28.5676 40.355 28.6256 40.1943 28.7414 40.0397C28.8593 39.8832 29.018 39.7596 29.2173 39.6689C29.4186 39.5784 29.6391 39.5329 29.8791 39.5329C30.2593 39.5329 30.5572 39.6297 30.7728 39.8235C30.9883 40.0151 31.1001 40.2798 31.1083 40.6175V42.1564C31.1083 42.4634 31.1469 42.7075 31.2242 42.8887V42.9382H30.6325ZM29.6961 42.5026C29.873 42.5026 30.0408 42.4562 30.1994 42.3635C30.3579 42.2708 30.4728 42.1503 30.5441 42.002V41.316H30.1017C29.4104 41.316 29.0647 41.5209 29.0647 41.9308C29.0647 42.11 29.1237 42.2502 29.2416 42.3511C29.3595 42.452 29.5111 42.5026 29.6961 42.5026ZM32.7584 38.7853V39.5948H33.3745V40.0367H32.7584V42.11C32.7584 42.244 32.7859 42.3448 32.8408 42.4128C32.8957 42.4788 32.9892 42.5118 33.1214 42.5118C33.1864 42.5118 33.2759 42.4995 33.3899 42.4747V42.9382C33.2413 42.9794 33.097 43.0001 32.9566 43.0001C32.7046 43.0001 32.5144 42.9227 32.3862 42.7683C32.2582 42.6138 32.1942 42.3943 32.1942 42.11V40.0367H31.5933V39.5948H32.1942V38.7853H32.7584ZM34.6495 42.9382H34.0852V39.5948H34.6495V42.9382ZM34.0394 38.7079C34.0394 38.6153 34.0669 38.537 34.1218 38.4731C34.1787 38.4092 34.2621 38.3774 34.3718 38.3774C34.4818 38.3774 34.5651 38.4092 34.622 38.4731C34.6789 38.537 34.7074 38.6153 34.7074 38.7079C34.7074 38.8006 34.6789 38.8778 34.622 38.9397C34.5651 39.0014 34.4818 39.0324 34.3718 39.0324C34.2621 39.0324 34.1787 39.0014 34.1218 38.9397C34.0669 38.8778 34.0394 38.8006 34.0394 38.7079ZM36.6443 42.1627L37.4616 39.5948H38.0382L36.8547 42.9382H36.4246L35.2291 39.5948H35.8055L36.6443 42.1627ZM39.9079 43.0001C39.4605 43.0001 39.0966 42.8517 38.8159 42.5551C38.5353 42.2563 38.3951 41.8577 38.3951 41.3592V41.2541C38.3951 40.9225 38.4571 40.6269 38.5811 40.3674C38.7071 40.1056 38.882 39.9017 39.1057 39.7555C39.3314 39.6072 39.5754 39.5329 39.8377 39.5329C40.2667 39.5329 40.6002 39.6761 40.8382 39.9624C41.076 40.2488 41.1951 40.6587 41.1951 41.1923V41.4302H38.9593C38.9675 41.7599 39.0619 42.0267 39.243 42.2307C39.4259 42.4324 39.6578 42.5334 39.9383 42.5334C40.1376 42.5334 40.3065 42.4923 40.4447 42.4099C40.5829 42.3275 40.704 42.2183 40.8077 42.0823L41.1524 42.3542C40.8758 42.7847 40.4609 43.0001 39.9079 43.0001ZM39.8377 40.0027C39.6101 40.0027 39.4188 40.0871 39.2643 40.256C39.1097 40.423 39.0142 40.6578 38.9777 40.9606H40.6307V40.9173C40.6145 40.6269 40.5372 40.4023 40.3989 40.2436C40.2607 40.0831 40.0736 40.0027 39.8377 40.0027Z" fill="white"/>
</svg>
