<svg width="48" height="48" viewBox="0 0 48 48" fill="none" xmlns="http://www.w3.org/2000/svg">
<path d="M12.6003 29.6995C11.0232 29.6995 9.59818 30.3455 8.57214 31.3715C6.33005 33.6136 5 43 5 43C5 43 14.3864 41.6699 16.6285 39.4279C17.6545 38.4018 18.3005 36.9768 18.3005 35.3997C18.3005 32.2456 15.7544 29.6995 12.6003 29.6995ZM13.9494 36.7487C13.4173 37.2808 9.82619 38.1928 9.82619 38.1928C9.82619 38.1928 10.7192 34.6207 11.2703 34.0696C11.5933 33.7086 12.0683 33.4996 12.6003 33.4996C13.6453 33.4996 14.5004 34.3547 14.5004 35.3997C14.5004 35.9317 14.2914 36.4067 13.9494 36.7487ZM34.2992 27.1344C46.3837 15.0499 42.3555 5.64451 42.3555 5.64451C42.3555 5.64451 32.9501 1.61635 20.8656 13.7008L16.1344 12.7508C14.8994 12.5038 13.6073 12.9028 12.6953 13.7958L5 21.5101L14.5004 25.5763L22.4237 33.4996L26.4899 43L34.1852 35.3047C35.0782 34.4117 35.4772 33.1196 35.2302 31.8656L34.2992 27.1344ZM15.2794 21.7761L11.6503 20.2181L15.3934 16.4749L18.1295 17.026C17.0465 18.603 16.0774 20.2561 15.2794 21.7761ZM27.7819 36.3497L26.2238 32.7206C27.7439 31.9226 29.397 30.9535 30.955 29.8705L31.5061 32.6066L27.7819 36.3497ZM31.6011 24.4553C29.093 26.9634 25.1788 29.0154 23.9248 29.6425L18.3575 24.0752C18.9656 22.8402 21.0176 18.926 23.5447 16.3989C32.4371 7.50658 39.1824 8.81763 39.1824 8.81763C39.1824 8.81763 40.4934 15.5629 31.6011 24.4553ZM29.701 22.0992C31.7911 22.0992 33.5011 20.3891 33.5011 18.299C33.5011 16.2089 31.7911 14.4989 29.701 14.4989C27.6109 14.4989 25.9008 16.2089 25.9008 18.299C25.9008 20.3891 27.6109 22.0992 29.701 22.0992Z" fill="white"/>
</svg>
