<svg width="48" height="48" viewBox="0 0 48 48" fill="none" xmlns="http://www.w3.org/2000/svg">
<path fill-rule="evenodd" clip-rule="evenodd" d="M37.2204 5.00379C38.2735 4.93797 39.1809 5.73791 39.2467 6.7909C39.2492 6.83047 39.2506 6.87039 39.2506 6.91004V41.0897C39.2504 42.1446 38.3947 42.9999 37.3395 42.9999C37.311 42.9999 37.2822 42.9993 37.2536 42.9979L11.7506 41.8524C10.7576 41.8075 9.96467 41.0089 9.92739 40.0155L8.75063 8.64929C8.71182 7.61345 9.50607 6.73544 10.5407 6.67078L31.4489 5.36414L31.2711 9.67078C31.2685 9.73681 31.2888 9.80167 31.3288 9.85437C31.4239 9.97977 31.6028 10.0042 31.7282 9.90906L33.401 8.64051L34.8141 9.75379C34.8671 9.79534 34.9333 9.81667 35.0006 9.81433C35.1578 9.80862 35.2806 9.67659 35.275 9.51941L35.1217 5.13465L37.2204 5.00379ZM24.5749 11.8339C19.6015 11.8339 16.8142 14.535 16.8141 18.5868C16.8141 22.6458 19.9653 24.4148 22.6422 25.9178C24.6194 27.0278 26.3385 27.9936 26.3385 29.6288C26.3384 30.7091 25.809 31.3505 24.6452 31.3505C23.1285 31.3505 22.5287 30.5759 22.5993 27.9423C22.5993 27.3709 16.8147 27.1929 16.6383 27.9423C16.1893 34.3245 20.1654 36.1658 24.7155 36.1659C29.1245 36.1659 32.5814 33.8156 32.5817 29.5614C32.5817 25.1226 29.2531 23.3578 26.5026 21.9003C24.5665 20.8743 22.9167 20.0004 22.9166 18.452C22.9166 16.9328 24.0453 16.7304 24.7155 16.7303C25.4209 16.7303 26.6913 16.8543 26.5856 19.6903C26.5856 20.4336 31.5921 20.0777 32.2643 19.5555C32.2643 14.4939 29.5483 11.834 24.5749 11.8339Z" fill="white"/>
</svg>
