<svg width="48" height="48" viewBox="0 0 48 48" fill="none" xmlns="http://www.w3.org/2000/svg">
<path d="M15.7118 20.8542C15.669 22.1991 16.3412 22.7946 16.3578 23.1728C16.3499 23.2498 16.3236 23.3237 16.2813 23.3885C16.2389 23.4533 16.1817 23.5069 16.1143 23.5451L15.3544 24.0771C15.256 24.146 15.1401 24.1855 15.0201 24.1911C14.9945 24.1899 14.5338 24.2997 13.8041 22.6705C13.3589 23.2262 12.7925 23.6727 12.1481 23.9758C11.5038 24.2788 10.7987 24.4305 10.0867 24.419C9.12008 24.4719 6.5005 23.8704 6.63528 21.0816C6.54088 18.8088 8.65756 17.3969 10.8467 17.5162C11.2682 17.5174 12.1292 17.5382 13.6367 17.8885V16.9611C13.7964 15.39 12.7639 14.1711 10.9761 14.354C10.8336 14.3546 9.82426 14.3243 8.25441 14.9542C7.81742 15.1549 7.76161 15.1217 7.61614 15.1217C7.17618 15.1217 7.35727 13.8463 7.44158 13.6848C7.75092 13.3048 9.57073 12.5953 11.3567 12.6054C12.5509 12.4998 13.7386 12.8683 14.6632 13.6314C15.0391 14.0518 15.3258 14.544 15.5062 15.0784C15.6865 15.6127 15.7566 16.178 15.7124 16.7402L15.7118 20.8542ZM10.5807 22.7774C12.5062 22.7495 13.3214 21.5917 13.5072 20.9682C13.6533 20.3715 13.6289 19.9939 13.6289 19.3414C13.0548 19.2036 12.2283 19.0534 11.2801 19.0522C10.3806 18.9845 8.73771 19.3865 8.80184 20.9676C8.72821 21.9645 9.46208 22.832 10.5807 22.7774ZM20.7289 24.1459C20.2622 24.1887 20.0449 23.8574 19.976 23.5302L17.0192 13.7543C16.9616 13.5892 16.9236 13.4188 16.9052 13.2449C16.8943 13.1731 16.9123 13.1 16.9553 13.0416C16.9983 12.9831 17.0627 12.9441 17.1344 12.9331C17.1486 12.9308 17.0079 12.9331 18.4555 12.9331C18.9768 12.8809 19.1466 13.2912 19.2006 13.5489L21.3214 21.9105L23.2903 13.5489C23.3218 13.3577 23.4648 12.8916 24.0503 12.9409H25.0691C25.198 12.9302 25.7288 12.9112 25.822 13.5566L27.8063 22.0251L29.9954 13.5566C30.0239 13.4271 30.1569 12.8815 30.7483 12.9409H31.9191C31.9696 12.9331 32.2843 12.8928 32.2308 13.4503C32.2053 13.5601 32.4333 12.8174 29.0988 23.5379C29.0306 23.8651 28.8127 24.1964 28.346 24.1536H27.2363C26.5867 24.2219 26.4935 23.5801 26.4834 23.5154L24.5146 15.3734L22.5683 23.5071C22.5588 23.5718 22.4656 24.2136 21.8154 24.1453H20.7289V24.1459ZM36.9665 24.4802C36.6174 24.4808 34.9525 24.4624 33.5608 23.7505C33.4222 23.6918 33.3041 23.5933 33.2215 23.4674C33.139 23.3415 33.0957 23.1939 33.0971 23.0434V22.4051C33.0971 21.9034 33.4652 21.9954 33.6214 22.0554C34.2175 22.2964 34.5998 22.4793 35.3319 22.6254C37.508 23.0724 38.4651 22.4888 38.6996 22.3594C39.4804 21.8957 39.5421 20.8346 39.0113 20.2842C38.3891 19.7623 38.0922 19.7428 35.8568 19.0374C35.5813 18.9608 33.2622 18.2293 33.2568 15.9286C33.2206 14.2518 34.7441 12.5929 37.3845 12.6066C38.1368 12.606 40.1412 12.8518 40.6839 13.534C40.7641 13.6581 40.8038 13.8042 40.7979 13.952V14.5523C40.7979 14.8159 40.7017 14.9477 40.5088 14.9477C40.051 14.8966 39.2387 14.2845 37.5899 14.3094C37.1808 14.2881 35.2215 14.3635 35.3094 15.792C35.2838 16.9177 36.8893 17.3399 37.0728 17.3886C39.2376 18.0399 39.9613 18.148 40.8205 19.1449C41.8381 20.4659 41.2895 22.0126 41.0787 22.4366C39.9459 24.6625 37.0164 24.4814 36.9665 24.4802ZM39.3533 30.7062C35.1954 33.777 29.1594 35.4116 24.0057 35.4116C17.0519 35.4574 10.3324 32.9005 5.16815 28.2433C4.78044 27.8936 5.12243 27.4145 5.59386 27.6811C11.3225 30.958 17.8086 32.6798 24.4083 32.6756C29.3368 32.6492 34.2115 31.6494 38.7525 29.7336C39.4519 29.4367 40.045 30.1967 39.3533 30.7062ZM41.0865 28.7296C40.5545 28.0456 37.5668 28.4102 36.2291 28.5699C35.8259 28.6156 35.7576 28.2659 36.1228 28.0076C38.5019 26.335 42.4093 26.8142 42.8582 27.3765C43.3065 27.9387 42.7365 31.8539 40.5093 33.7241C40.1674 34.0133 39.8402 33.8607 39.9922 33.4807C40.4933 32.219 41.6185 29.4142 41.0865 28.7296Z" fill="white"/>
</svg>
