<svg width="48" height="48" viewBox="0 0 48 48" fill="none" xmlns="http://www.w3.org/2000/svg">
<path d="M36.6666 5H11.3333C7.84999 5 5 7.84999 5 11.3333V36.6667C5 40.15 7.84999 43 11.3333 43H36.6667C40.15 43 43 40.15 43 36.6667V11.3333C42.9999 7.84999 40.1499 5 36.6666 5ZM23.2064 24.3364C21.8875 25.6553 19.8146 26.2747 17.4727 26.2747C16.8536 26.2747 16.2884 26.2475 15.8576 26.1668V33.0042H12.5737V15.1033C13.7581 14.888 15.4002 14.7263 17.6342 14.7263C20.0571 14.7263 21.8337 15.2378 22.9913 16.207C24.0681 17.0954 24.7678 18.522 24.7678 20.2179C24.7678 21.9408 24.2294 23.3673 23.2064 24.3364ZM30.0964 33.2736C28.5081 33.2736 27.0815 32.8966 26.1124 32.3582L26.7584 29.9625C27.5121 30.4201 28.9389 30.9047 30.1233 30.9047C31.5767 30.9047 32.223 30.3125 32.223 29.451C32.223 28.5629 31.6847 28.1051 30.0695 27.5398C27.512 26.6514 26.4356 25.2517 26.4624 23.7173C26.4624 21.4023 28.3736 19.5988 31.4154 19.5988C32.8691 19.5988 34.1343 19.9758 34.8878 20.3793L34.2418 22.7213C33.6765 22.3984 32.6265 21.9676 31.4691 21.9676C30.2847 21.9676 29.6387 22.5329 29.6387 23.3404C29.6387 24.175 30.2578 24.5789 31.9269 25.171C34.2956 26.0323 35.3993 27.2436 35.4263 29.182C35.4262 31.5508 33.569 33.2736 30.0964 33.2736ZM21.4567 20.3524C21.4567 22.4791 19.9491 23.6904 17.4727 23.6904C16.7998 23.6904 16.2614 23.6635 15.8576 23.5559V17.4183C16.2077 17.3376 16.8537 17.2569 17.769 17.2569C20.0571 17.2569 21.4567 18.3337 21.4567 20.3524Z" fill="white"/>
</svg>
