<svg width="48" height="48" viewBox="0 0 48 48" fill="none" xmlns="http://www.w3.org/2000/svg">
<path fill-rule="evenodd" clip-rule="evenodd" d="M14.5 20.2001C15.7665 15.1336 18.9335 12.6001 24 12.6001C31.6 12.6001 32.55 18.3001 36.35 19.2501C38.8835 19.8836 41.1 18.9336 43 16.4001C41.7335 21.4666 38.5665 24.0001 33.5 24.0001C25.9 24.0001 24.95 18.3001 21.15 17.3501C18.6165 16.7166 16.4 17.6666 14.5 20.2001ZM5 31.6001C6.26647 26.5336 9.43353 24.0001 14.5 24.0001C22.1 24.0001 23.05 29.7001 26.85 30.6501C29.3835 31.2836 31.6 30.3336 33.5 27.8001C32.2335 32.8666 29.0665 35.4001 24 35.4001C16.4 35.4001 15.45 29.7001 11.65 28.7501C9.11647 28.1166 6.9 29.0666 5 31.6001Z" fill="white"/>
</svg>
