<svg width="48" height="48" viewBox="0 0 48 48" fill="none" xmlns="http://www.w3.org/2000/svg">
<path d="M22.5512 42.8407C21.0405 42.429 19.936 41.3883 18.7356 39.2455C18.1461 38.1924 17.7371 37.6028 17.2198 37.0572L16.5113 36.3108L14.014 36.3085C11.5244 36.3061 11.0762 36.2629 10.0724 35.931C8.83465 35.5223 7.53012 34.1466 7.03703 32.7304C6.7179 31.8135 6.69793 30.4078 6.9921 29.5232C7.15915 29.0204 8.38995 26.7578 9.64648 24.643C9.80892 24.3702 9.94141 24.1005 9.94141 24.0437C9.94141 23.9868 9.31737 22.8489 8.55508 21.5152C7.79279 20.1811 7.08426 18.8132 6.98019 18.4754C6.7156 17.6137 6.72482 16.2205 7.00055 15.3912C7.53664 13.7781 8.84655 12.4716 10.4491 11.9509C10.9172 11.7991 11.5059 11.7625 14.0566 11.7263L17.1046 11.6835L18.1077 9.91628C19.9226 6.71884 20.3823 6.15415 21.6768 5.5303C23.6899 4.5597 26.1334 4.95938 27.653 6.5079C28.1676 7.03251 28.5086 7.56451 30.1008 10.328L30.8819 11.6835L33.9506 11.7224C36.8166 11.7594 37.062 11.7769 37.6626 11.9929C38.4894 12.2902 39.0182 12.6323 39.6691 13.292C40.6845 14.3209 41.1638 15.4978 41.1595 16.9529C41.1561 18.2173 40.9406 18.7688 39.4261 21.3996C38.6933 22.6722 38.0655 23.7868 38.0313 23.8771C37.9929 23.9783 38.2417 24.5111 38.6764 25.2594C40.2817 28.0245 40.8462 29.0811 41.0044 29.6182C41.2525 30.46 41.2264 31.775 40.9453 32.6218C40.4998 33.9629 39.3631 35.2573 38.1557 35.7986C37.2356 36.2112 36.4441 36.3073 33.9652 36.3092L31.6223 36.3112L30.6123 37.3717C29.8074 38.217 29.4694 38.6715 28.9472 39.6114C27.8992 41.4973 26.706 42.5364 25.1799 42.8929C24.5355 43.0435 23.1964 43.0166 22.5512 42.8407ZM19.9391 26.6317C20.3807 25.9806 20.7717 25.4128 20.8082 25.3704C20.8446 25.3275 21.0908 25.4318 21.3554 25.6019L21.8366 25.9109H26.2913L26.8009 25.6062L27.3105 25.3019L28.1772 26.6103L29.0436 27.9187L29.0466 32.4494L29.0497 36.9802L29.3001 36.568C29.486 36.2621 29.5505 36.0107 29.5512 35.59L29.5524 35.0238L30.1503 34.5334C30.5397 34.2151 30.8942 33.7952 31.1661 33.3317C31.3957 32.9398 31.5835 32.588 31.5835 32.5494C31.5835 32.4704 31.0716 32.9075 30.2966 33.6469C30.0078 33.9232 29.7221 34.1485 29.6615 34.1485C29.5847 34.1485 29.5516 33.1383 29.5516 30.8055V27.4625L28.8289 26.4235C28.4314 25.8521 28.1227 25.3684 28.143 25.3482C28.1634 25.3283 28.605 25.4089 29.125 25.5272L30.0704 25.742L31.259 24.5539L32.4472 23.3653L33.6069 22.9392C34.2452 22.7045 34.7828 22.5286 34.802 22.5481C34.8212 22.5675 34.7867 23.5105 34.7252 24.6434C34.6638 25.7759 34.6292 26.8146 34.6484 26.9504C34.6753 27.143 34.8853 26.8453 35.5969 25.6077C36.1 24.7333 36.5094 23.9981 36.5063 23.974C36.4917 23.8463 35.2809 21.7946 35.2198 21.7935C35.1799 21.7927 33.1 22.5566 30.5985 23.491C26.1668 25.1466 26.0294 25.1902 25.2605 25.1902H24.471V12.937H23.6584V25.1902H22.984C22.4003 25.1902 22.0505 25.0929 20.3677 24.4632C19.3652 24.0879 18.3622 23.7139 17.3588 23.3412C13.9794 22.0888 13.0912 21.7304 13.0912 21.6191C13.0912 21.551 13.0535 21.472 13.0078 21.4432C12.9007 21.3763 11.4387 23.9067 11.4833 24.0818C11.5309 24.2717 13.5397 27.756 13.5785 27.7167C13.5966 27.6984 13.5409 26.5344 13.4556 25.1298C13.37 23.7253 13.3154 22.5601 13.335 22.5407C13.3542 22.5212 13.6845 22.6263 14.0689 22.7742C14.4529 22.9221 14.9733 23.1128 15.2248 23.1984C15.5754 23.3179 15.9587 23.6323 16.8684 24.5461L18.0551 25.7381L18.9007 25.5533C19.3658 25.4521 19.8035 25.347 19.8734 25.3198C20.1181 25.226 19.9944 25.4711 19.2893 26.4772L18.5781 27.4921V30.8203C18.5781 32.8347 18.5401 34.1485 18.4821 34.1485C18.4295 34.1485 17.8581 33.6594 17.2121 33.0616C16.5662 32.4642 16.0378 31.9968 16.0378 32.0233C16.0378 32.0497 16.2141 32.3879 16.4295 32.7752C16.7171 33.2928 17.0524 33.6839 17.6937 34.2513L18.5666 35.0238L18.572 35.7445C18.5758 36.2863 18.6342 36.5739 18.8062 36.9035L19.0351 37.3413L19.0858 32.5786L19.1369 27.8159L19.9391 26.6317ZM15.6319 34.4634C15.6319 33.8672 15.5989 33.794 14.35 31.6057C13.6449 30.3708 13.0121 29.2909 12.9429 29.206C12.8738 29.1212 12.7866 28.9636 12.7486 28.8558C12.711 28.7484 12.3907 28.1693 12.0374 27.5688C11.6841 26.9687 11.2479 26.2106 11.0674 25.8852C10.8869 25.5599 10.7244 25.2933 10.706 25.2933C10.6703 25.2933 9.65377 27.0609 8.75208 28.6908C8.07927 29.9077 7.97789 30.2786 8.03204 31.3278C8.06506 31.9746 8.13956 32.2965 8.36114 32.7561C8.90876 33.8897 10.0478 34.7654 11.2402 34.9689C11.504 35.0141 12.6 35.0565 13.6757 35.0631L15.6319 35.0752V34.4634ZM36.6684 34.9713C37.4541 34.8203 38.1895 34.4459 38.7106 33.931C39.5505 33.1013 39.9406 32.1657 39.9345 30.9966C39.9287 29.9132 39.9226 29.8992 37.784 26.1483L37.244 25.2015L36.2337 26.9628C35.6776 27.9319 35.1972 28.7978 35.1661 28.8877C35.135 28.978 35.0509 29.1212 34.9802 29.206C34.865 29.3434 34.3512 30.2237 32.9372 32.7047C32.5224 33.4317 32.4982 33.5181 32.4982 34.2746V35.0752H34.3135C35.312 35.0752 36.3715 35.0285 36.6684 34.9713ZM11.7371 20.9914L12.5843 19.5211L12.2283 18.0878C12.0324 17.2993 11.8719 16.5774 11.8719 16.4832C11.8719 16.3299 11.9886 16.3197 13.0151 16.3859C13.6438 16.4264 14.1949 16.4661 14.2402 16.4742C14.3108 16.4875 14.946 15.4371 16.0566 13.4702L16.3677 12.9184L13.7897 12.9647C10.9372 13.0153 10.5459 13.0849 9.71099 13.6874C7.92988 14.9732 7.49325 17.3145 8.67297 19.2564C8.83964 19.5312 9.04471 19.883 9.12843 20.0387C9.21253 20.1936 9.60001 20.882 9.99018 21.5674C10.5639 22.5753 10.7179 22.7804 10.7943 22.6376C10.8466 22.5407 11.2709 21.8001 11.7371 20.9914ZM38.4499 20.6594C39.0528 19.6118 39.6319 18.5271 39.7363 18.2493C39.936 17.7188 39.9975 16.6439 39.8642 16.0185C39.6553 15.0417 38.7559 13.9006 37.8124 13.4161C37.0539 13.0266 36.1726 12.9273 33.7625 12.9596L31.6227 12.9884L32.5735 14.6358C33.0962 15.5422 33.5562 16.3365 33.595 16.4015C33.6484 16.4894 34.0251 16.4929 35.0678 16.4143C35.8385 16.3563 36.4875 16.3275 36.5098 16.3505C36.5324 16.3731 36.37 17.1203 36.1488 18.0103C35.928 18.9007 35.739 19.7336 35.729 19.8612C35.7083 20.1259 37.1807 22.7551 37.2843 22.6399C37.322 22.5983 37.8466 21.7071 38.4499 20.6594ZM19.5443 16.7482C19.5151 16.7004 19.5355 16.6459 19.5893 16.6268C19.6434 16.6077 20.0297 15.7815 20.4476 14.7903C21.1542 13.1145 21.1926 12.9861 20.9986 12.9538C20.8834 12.9351 20.7509 12.9588 20.7037 13.0071C20.6561 13.055 20.2974 13.8353 19.9061 14.7405C19.2778 16.1948 19.168 16.3851 18.9629 16.3754C18.835 16.3696 18.1188 16.3042 17.3715 16.2302L16.0125 16.0956L15.827 16.3439L15.6415 16.5922L17.5416 16.7509C19.4464 16.9105 19.6426 16.9101 19.5443 16.7482ZM31.9625 16.6494C32.2751 16.6439 32.2851 16.6315 32.1749 16.3863C32.1112 16.2446 31.9798 16.129 31.883 16.129C31.6257 16.129 29.6561 16.3256 29.2855 16.3886C28.984 16.4392 28.9575 16.4155 28.7421 15.8994C28.6177 15.6009 28.4406 15.241 28.3489 15.0993C28.2567 14.9576 28.1753 14.7724 28.1676 14.6872C28.1599 14.6023 27.9909 14.1734 27.7913 13.7349C27.4798 13.048 27.3938 12.937 27.173 12.937H26.9172L27.2782 13.7862L28.0939 15.7126C28.3446 16.3053 28.5662 16.8171 28.5866 16.8502C28.6065 16.8833 29.3009 16.8529 30.1288 16.7829C30.9568 16.7124 31.782 16.6525 31.9625 16.6494ZM29.1906 11.2122C27.8765 8.90288 27.168 7.77427 26.7986 7.3995C26.1568 6.74841 25.2778 6.34601 24.3412 6.2744C22.6373 6.14364 21.2275 6.91654 20.3569 8.45922C19.9994 9.08644 19.6397 9.71237 19.2778 10.337L18.489 11.7014H29.4691L29.1906 11.2122Z" fill="white"/>
<path d="M22.551 42.8406C21.0402 42.4289 19.9358 41.3882 18.7353 39.2454C18.1459 38.1923 17.7369 37.6027 17.2196 37.0571L16.5111 36.3107H14.0441C10.8647 36.3107 10.1654 36.1725 8.94193 35.3035C8.32557 34.8657 7.498 33.885 7.27296 33.3246C7.18805 33.1175 7.10035 32.9116 7.0099 32.7069C6.91006 32.4804 6.83594 31.9446 6.81098 31.2651C6.77795 30.3703 6.80752 30.075 6.98187 29.5519C7.15737 29.025 8.3705 26.7896 9.64623 24.6425C9.80868 24.3701 9.94116 24.1004 9.94116 24.0432C9.94116 23.9867 9.31712 22.8488 8.55484 21.5147C7.79255 20.1806 7.08402 18.8127 6.97995 18.4753C6.71536 17.6136 6.72457 16.22 7.0003 15.3907C7.5364 13.7779 8.84631 12.4715 10.4488 11.9504C10.917 11.7986 11.5057 11.762 14.0564 11.7262L17.1044 11.683L18.1075 9.91618C19.9224 6.71834 20.382 6.15365 21.6766 5.52981C23.6658 4.57089 26.1017 4.95383 27.6151 6.46382C28.051 6.89853 28.9193 8.18708 29.3571 9.0491C29.4358 9.20477 29.8102 9.86053 30.1896 10.5073L30.879 11.683L33.9489 11.7223C36.8167 11.7589 37.0618 11.7768 37.6624 11.9924C38.4892 12.2897 39.018 12.6318 39.6689 13.2915C41.3613 15.0066 41.6505 17.5082 40.407 19.6766C39.9551 20.4687 39.5013 21.2596 39.0456 22.0494C38.7591 22.5451 38.478 23.0439 38.2023 23.5458L37.9523 24.0128L38.6677 25.2449C40.2799 28.0205 40.8459 29.0798 41.0053 29.6177C41.2472 30.4361 41.2169 31.8644 40.9408 32.6552C40.4873 33.9527 39.3805 35.2171 38.2219 35.762C37.2757 36.2068 36.4969 36.3068 33.965 36.3087L31.622 36.3107L30.6121 37.3716C29.8095 38.2145 29.4673 38.6737 28.9454 39.6109C27.8947 41.4968 26.7004 42.5375 25.1793 42.8928C24.5353 43.043 23.1962 43.0161 22.551 42.8406ZM19.9389 26.6316C20.3805 25.9805 20.7714 25.4127 20.8079 25.3703C20.8444 25.3274 21.0906 25.4317 21.3551 25.6018L21.8363 25.9108H26.291L26.8006 25.6061L27.3102 25.3018L28.177 26.6102L29.0433 27.9186L29.0464 32.4493L29.0495 36.9801L29.2999 36.5679C29.4857 36.262 29.5502 36.0106 29.551 35.5899L29.5522 35.0237L30.1501 34.5333C30.5395 34.215 30.8939 33.7951 31.1658 33.3316C31.3955 32.9397 31.5833 32.5879 31.5833 32.5493C31.5833 32.4703 31.0714 32.9074 30.2964 33.6468C30.0076 33.9231 29.7219 34.1484 29.6612 34.1484C29.5844 34.1484 29.5514 33.1381 29.5514 30.8054V27.4624L28.8287 26.4234C28.4312 25.852 28.1224 25.3683 28.1428 25.3481C28.1631 25.3282 28.6048 25.4088 29.1247 25.5271L30.0702 25.7419L31.2588 24.5538L32.4469 23.3652L33.6067 22.9391C34.2449 22.7044 34.7826 22.5285 34.8018 22.548C34.821 22.5674 34.7864 23.5104 34.725 24.6433C34.6635 25.7758 34.629 26.8145 34.6482 26.9503C34.675 27.1429 34.8851 26.8452 35.5967 25.6076C36.0998 24.7332 36.5091 23.998 36.5061 23.9739C36.4915 23.8462 35.2807 21.7945 35.2196 21.7934C35.1797 21.7926 33.0998 22.5565 30.5982 23.4909C26.1666 25.1465 26.0291 25.1901 25.2603 25.1901H24.4707V12.9369H23.6581V25.1901H22.9838C22.4001 25.1901 22.0502 25.0928 20.3674 24.4631C19.365 24.0878 18.362 23.7138 17.3586 23.3411C13.9792 22.0887 13.0909 21.7303 13.0909 21.619C13.0909 21.5509 13.0533 21.4719 13.0076 21.4431C12.9005 21.3762 11.4385 23.9066 11.483 24.0817C11.5306 24.2716 13.5395 27.7559 13.5783 27.7166C13.5963 27.6983 13.5406 26.5343 13.4554 25.1297C13.3697 23.7252 13.3152 22.56 13.3348 22.5406C13.354 22.5211 13.6843 22.6262 14.0687 22.7741C14.4527 22.922 14.973 23.1127 15.2246 23.1983C15.5752 23.3178 15.9584 23.6322 16.8682 24.546L18.0548 25.738L18.9005 25.5532C19.3655 25.452 19.8033 25.3469 19.8732 25.3197C20.1178 25.2259 19.9942 25.471 19.2891 26.4771L18.5779 27.492V30.8202C18.5779 32.8346 18.5399 34.1484 18.4819 34.1484C18.4293 34.1484 17.8578 33.6593 17.2119 33.0615C16.566 32.4641 16.0376 31.9967 16.0376 32.0232C16.0376 32.0496 16.2138 32.3878 16.4293 32.7751C16.7169 33.2927 17.0522 33.6838 17.6935 34.2512L18.5664 35.0237L18.5717 35.7444C18.5756 36.2862 18.6339 36.5738 18.806 36.9034L19.0349 37.3412L19.0856 32.5785L19.1366 27.8158L19.9389 26.6316ZM15.6316 34.4633C15.6316 33.8671 15.5986 33.7939 14.3498 31.6056C13.6447 30.3707 13.0118 29.2908 12.9427 29.2059C12.8736 29.1211 12.7864 28.9635 12.7484 28.8557C12.7108 28.7483 12.3905 28.1692 12.0372 27.5687C11.6839 26.9686 11.2476 26.2105 11.0671 25.8851C10.8866 25.5598 10.7242 25.2932 10.7058 25.2932C10.67 25.2932 9.65353 27.0608 8.75184 28.6907C8.07903 29.9076 7.97765 30.2785 8.03179 31.3277C8.06482 31.9745 8.13932 32.2964 8.3609 32.756C8.90852 33.8896 10.0475 34.7653 11.2399 34.9688C11.5038 35.014 12.5998 35.0564 13.6754 35.063L15.6316 35.0751V34.4633ZM36.6681 34.9712C37.4538 34.8202 38.1893 34.4458 38.7104 33.9309C39.5502 33.1012 39.9404 32.1656 39.9343 30.9965C39.9285 29.9131 39.9224 29.8991 37.7837 26.1482L37.2438 25.2013L36.2334 26.9627C35.6773 27.9318 35.1969 28.7977 35.1658 28.8876C35.1347 28.9779 35.0506 29.1211 34.98 29.2059C34.8648 29.3433 34.3509 30.2236 32.9369 32.7046C32.5222 33.4316 32.498 33.518 32.498 34.2745V35.0751H34.3133C35.3118 35.0751 36.3713 35.0284 36.6681 34.9712ZM11.7369 20.9913L12.584 19.521L12.228 18.0877C12.0322 17.2992 11.8717 16.5773 11.8717 16.4831C11.8717 16.3298 11.9884 16.3196 13.0149 16.3858C13.6435 16.4263 14.1946 16.466 14.2399 16.4741C14.3106 16.4874 14.9458 15.437 16.0564 13.4701L16.3674 12.9183L13.7895 12.9646C10.9369 13.0152 10.5456 13.0848 9.71075 13.6873C7.92887 14.9735 7.49454 17.3058 8.67273 19.2602C9.03397 19.8563 9.37757 20.4632 9.70307 21.08C9.91217 21.4677 10.13 21.8505 10.3563 22.2281C10.6409 22.6974 10.72 22.7702 10.796 22.6309C10.8475 22.5375 11.2707 21.8 11.7369 20.9913ZM38.4496 20.6593C39.0525 19.6117 39.6317 18.527 39.7361 18.2492C39.9358 17.7187 39.9972 16.6438 39.864 16.0184C39.6551 15.0416 38.7557 13.9005 37.8121 13.416C37.0537 13.0265 36.1724 12.9272 33.7622 12.9595L31.6224 12.9883L32.5733 14.6357C33.0959 15.5421 33.556 16.3364 33.5948 16.4014C33.6482 16.4893 34.0249 16.4928 35.0675 16.4142C35.8383 16.3562 36.4873 16.3274 36.5095 16.3504C36.5322 16.373 36.3697 17.1202 36.1485 18.0102C35.9277 18.9006 35.7388 19.7335 35.7288 19.8611C35.7081 20.1258 37.1804 22.755 37.2841 22.6398C37.3217 22.5982 37.8463 21.707 38.4496 20.6593ZM19.5441 16.7481C19.5149 16.7002 19.5353 16.6458 19.589 16.6267C19.6432 16.6076 20.0295 15.7814 20.4473 14.7902C21.1539 13.1144 21.1923 12.986 20.9984 12.9537C20.8832 12.935 20.7507 12.9587 20.7035 13.007C20.6558 13.0549 20.2972 13.8352 19.9058 14.7404C19.2776 16.1947 19.1677 16.385 18.9627 16.3753C18.8348 16.3695 18.1186 16.3041 17.3713 16.2301L16.0122 16.0955L15.8267 16.3438L15.6412 16.5921L17.5414 16.7508C19.4462 16.9104 19.6424 16.91 19.5441 16.7481ZM31.9623 16.6493C32.2749 16.6438 32.2849 16.6314 32.1747 16.3862C32.1109 16.2445 31.9796 16.1289 31.8828 16.1289C31.6255 16.1289 29.6558 16.3255 29.2853 16.3885C28.9838 16.4391 28.9573 16.4154 28.7419 15.8993C28.6174 15.6008 28.4404 15.2408 28.3486 15.0992C28.2565 14.9575 28.175 14.7723 28.1674 14.6871C28.1597 14.6022 27.9907 14.1733 27.791 13.7347C27.4796 13.0479 27.3936 12.9369 27.1727 12.9369H26.917L27.278 13.7861L28.0936 15.7125C28.3444 16.3052 28.566 16.817 28.5863 16.8501C28.6063 16.8832 29.3006 16.8528 30.1286 16.7828C30.9565 16.7123 31.7818 16.6524 31.9623 16.6493ZM29.1904 11.2121C27.8763 8.90277 27.1677 7.77417 26.7983 7.3994C26.1566 6.74831 25.2776 6.3459 24.3409 6.2743C22.637 6.14353 21.2273 6.91643 20.3567 8.45912C19.9992 9.08634 19.6395 9.71226 19.2776 10.3369L18.4888 11.7013H29.4688L29.1904 11.2121Z" fill="white"/>
<path d="M22.5512 42.8407C21.0281 42.4259 19.9448 41.3977 18.6886 39.1747C18.0419 38.0306 17.6706 37.4982 17.1614 36.9864L16.4893 36.31L14.0028 36.3034C10.7981 36.2945 10.1594 36.1684 8.94209 35.3036C8.32573 34.8658 7.49816 33.8851 7.27312 33.3247C7.1882 33.1176 7.10051 32.9117 7.01006 32.7071C6.91021 32.4806 6.8361 31.9447 6.81114 31.2652C6.77811 30.3705 6.80768 30.0751 6.98203 29.552C7.15753 29.0251 8.37066 26.7897 9.64639 24.6426C9.80883 24.3702 9.93825 24.0919 9.93441 24.025C9.92711 23.8911 9.87949 23.8043 8.27542 21.0128C7.66559 19.9539 7.08264 18.8112 6.97972 18.4742C6.71551 17.6141 6.72511 16.2201 7.00046 15.3912C7.53656 13.7785 8.84647 12.472 10.449 11.9509C10.9171 11.7991 11.5058 11.7625 14.0565 11.7267L17.1045 11.6835L18.1076 9.91669C19.9225 6.71924 20.3822 6.15416 21.6767 5.53032C23.5166 4.64222 25.7128 4.88896 27.2908 6.15922C27.7409 6.52115 28.4797 7.44738 28.6733 7.89143C28.7347 8.03309 28.8154 8.17203 28.8522 8.20043C28.8891 8.22884 29.0496 8.4927 29.2098 8.78692C29.3699 9.08152 29.7866 9.80967 30.136 10.4059C30.4855 11.0013 30.7712 11.5364 30.7712 11.5952C30.7712 11.6652 31.689 11.7014 33.4889 11.7014C37.3872 11.7014 38.2605 11.9155 39.56 13.1927C40.6372 14.2513 41.1525 15.425 41.1652 16.8498C41.1744 17.9115 40.9187 18.8046 40.3196 19.8036C40.0416 20.2668 39.8138 20.6956 39.8138 20.7559C39.8138 20.8163 39.7735 20.8657 39.7244 20.8657C39.6752 20.8657 39.6076 20.9466 39.5746 21.0459C39.5416 21.1447 39.4337 21.365 39.3342 21.5355C39.2347 21.7059 38.8822 22.3263 38.5504 22.9147C37.9705 23.9429 37.9529 23.9943 38.1011 24.2523C40.9943 29.2932 40.9736 29.2524 41.1356 30.2872C41.4072 32.0213 40.7171 33.8104 39.3027 35.0378C38.0846 36.0948 37.1833 36.3065 33.9993 36.2832L31.6902 36.2668L30.7409 37.19C30.2186 37.6974 29.7347 38.2287 29.6648 38.3703C29.5949 38.512 29.2558 39.114 28.911 39.7091C27.8691 41.5051 26.6437 42.5508 25.1798 42.8925C24.5358 43.0431 23.1963 43.0167 22.5512 42.8407ZM19.939 26.6317C20.3806 25.9806 20.7716 25.4128 20.8081 25.3704C20.8446 25.3276 21.0907 25.4319 21.3553 25.6019L21.8365 25.9109H26.2912L26.8008 25.6062L27.3104 25.3019L28.1771 26.6103L29.0435 27.9187L29.0466 32.4494L29.0496 36.9802L29.3 36.5681C29.4859 36.2622 29.5504 36.0108 29.5512 35.5901L29.5523 35.0238L30.1502 34.5335C30.5396 34.2151 30.8941 33.7952 31.166 33.3317C31.3956 32.9398 31.5834 32.588 31.5834 32.5495C31.5834 32.4704 31.0715 32.9075 30.2966 33.6469C30.0078 33.9232 29.722 34.1486 29.6614 34.1486C29.5846 34.1486 29.5515 33.1383 29.5515 30.8056V27.4626L28.8288 26.4235C28.4313 25.8522 28.1226 25.3684 28.1429 25.3482C28.1633 25.3283 28.6049 25.4089 29.1249 25.5272L30.0704 25.742L31.2589 24.5539L32.4471 23.3653L33.6068 22.9392C34.2451 22.7045 34.7827 22.5286 34.8019 22.5481C34.8211 22.5675 34.7866 23.5105 34.7251 24.6434C34.6637 25.7759 34.6291 26.8146 34.6483 26.9504C34.6752 27.1431 34.8853 26.8453 35.5969 25.6078C36.0999 24.7333 36.5093 23.9981 36.5062 23.974C36.4916 23.8464 35.2808 21.7946 35.2197 21.7935C35.1798 21.7927 33.0999 22.5566 30.5984 23.4911C26.1667 25.1466 26.0293 25.1902 25.2605 25.1902H24.4709V12.9371H23.6583V25.1902H22.984C22.4002 25.1902 22.0504 25.0929 20.3676 24.4632C19.3651 24.0879 18.3622 23.714 17.3588 23.3412C13.9793 22.0889 13.0911 21.7304 13.0911 21.6191C13.0911 21.551 13.0535 21.472 13.0078 21.4432C12.9006 21.3763 11.4386 23.9067 11.4832 24.0818C11.5308 24.2717 13.5396 27.756 13.5784 27.7167C13.5965 27.6984 13.5408 26.5344 13.4555 25.1299C13.3699 23.7253 13.3154 22.5602 13.3349 22.5407C13.3541 22.5212 13.6844 22.6263 14.0688 22.7742C14.4528 22.9221 14.9732 23.1128 15.2247 23.1984C15.5753 23.3179 15.9586 23.6323 16.8684 24.5461L18.055 25.7381L18.9006 25.5533C19.3657 25.4521 19.8035 25.347 19.8734 25.3198C20.118 25.226 19.9943 25.4712 19.2892 26.4772L18.578 27.4921V30.8204C18.578 32.8347 18.54 34.1486 18.482 34.1486C18.4294 34.1486 17.858 33.6594 17.2121 33.0616C16.5661 32.4642 16.0377 31.9968 16.0377 32.0233C16.0377 32.0498 16.214 32.3879 16.4294 32.7752C16.7171 33.2928 17.0523 33.6839 17.6936 34.2513L18.5665 35.0238L18.5719 35.7446C18.5757 36.2863 18.6341 36.5739 18.8061 36.9035L19.035 37.3413L19.0857 32.5786L19.1368 27.8159L19.939 26.6317ZM15.6318 34.4634C15.6318 33.8672 15.5988 33.794 14.3499 31.6057C13.6449 30.3709 13.012 29.2909 12.9429 29.2061C12.8737 29.1212 12.7866 28.9636 12.7485 28.8558C12.7109 28.7484 12.3906 28.1693 12.0373 27.5688C11.684 26.9687 11.2478 26.2106 11.0673 25.8852C10.8868 25.5599 10.7243 25.2933 10.7059 25.2933C10.6702 25.2933 9.65369 27.0609 8.752 28.6908C8.07918 29.9077 7.9778 30.2786 8.03195 31.3278C8.06498 31.9746 8.13948 32.2965 8.36106 32.7561C8.90868 33.8898 10.0477 34.7654 11.2401 34.9689C11.5039 35.0141 12.5999 35.0565 13.6756 35.0631L15.6318 35.0752V34.4634ZM36.6683 34.9713C37.454 34.8203 38.1894 34.4459 38.7105 33.931C39.5504 33.1013 39.9406 32.1657 39.9344 30.9967C39.9287 29.9132 39.9225 29.8992 37.7839 26.1483L37.2439 25.2015L36.2336 26.9629C35.6775 27.9319 35.1971 28.7978 35.166 28.8877C35.1349 28.978 35.0508 29.1212 34.9801 29.2061C34.8649 29.3434 34.3511 30.2238 32.9371 32.7047C32.5224 33.4317 32.4982 33.5181 32.4982 34.2747V35.0752H34.3134C35.3119 35.0752 36.3714 35.0285 36.6683 34.9713ZM11.737 20.9914L12.5842 19.5211L12.2282 18.0878C12.0323 17.2993 11.8718 16.5789 11.8718 16.4867C11.8718 16.3373 11.9978 16.3268 13.0151 16.3898C13.6437 16.4287 14.1948 16.4676 14.2401 16.4754C14.3108 16.4871 14.9471 15.4348 16.0565 13.4702L16.3676 12.9184L13.7896 12.9647C10.9371 13.0153 10.5458 13.0849 9.71091 13.6874C7.92903 14.9736 7.4947 17.3059 8.67289 19.2603C9.06217 19.9027 9.43002 20.5582 9.77581 21.2257C9.95323 21.5658 10.2343 22.0585 10.4006 22.3212C10.6518 22.7182 10.7194 22.7703 10.7962 22.6302C10.8476 22.5376 11.2708 21.8001 11.737 20.9914ZM38.4498 20.6594C39.0527 19.6118 39.6318 18.5271 39.7363 18.2493C39.936 17.7188 39.9974 16.6439 39.8641 16.0185C39.6552 15.0417 38.7558 13.9007 37.8123 13.4161C37.0538 13.0266 36.1725 12.9273 33.7624 12.9596L31.6226 12.9884L32.5734 14.6358C33.0961 15.5422 33.5562 16.3365 33.5949 16.4015C33.6483 16.4894 34.025 16.4929 35.0677 16.4143C35.8384 16.3563 36.4874 16.3275 36.5097 16.3505C36.5323 16.3731 36.3699 17.1203 36.1487 18.0103C35.9279 18.9008 35.7389 19.7336 35.729 19.8612C35.7082 20.1259 37.1806 22.7551 37.2843 22.6399C37.3219 22.5983 37.8465 21.7071 38.4498 20.6594ZM29.1341 16.8494C29.33 16.8494 30.1164 16.7965 30.883 16.7315L32.2762 16.6132L32.1675 16.3711C32.1076 16.238 31.9793 16.1291 31.8822 16.1291C31.6253 16.1291 29.6556 16.3256 29.285 16.3886C28.9836 16.4392 28.9571 16.4155 28.7416 15.8995C28.6172 15.601 28.4402 15.241 28.3484 15.0993C28.2562 14.9577 28.1748 14.7724 28.1671 14.6872C28.1595 14.6023 27.9905 14.1735 27.7908 13.7349C27.4793 13.048 27.3933 12.9371 27.1725 12.9371H26.9167L27.2777 13.7862C27.4755 14.2532 27.8457 15.1223 28.0995 15.7169C28.3534 16.3116 28.5631 16.8576 28.565 16.9304C28.5677 17.0214 28.6015 17.0292 28.6737 16.9561C28.7313 16.8977 28.9386 16.8498 29.1345 16.8498L29.1341 16.8494ZM19.5439 16.7482C19.5147 16.7004 19.535 16.6459 19.5888 16.6268C19.6429 16.6077 20.0293 15.7815 20.4471 14.7903C21.1537 13.1145 21.1921 12.9861 20.9982 12.9538C20.883 12.9351 20.7505 12.9589 20.7032 13.0071C20.6556 13.055 20.2969 13.8353 19.9056 14.7405C19.2773 16.1948 19.1675 16.3851 18.9624 16.3754C18.8346 16.3696 18.1184 16.3042 17.371 16.2302L16.012 16.0956L15.8265 16.3439L15.641 16.5922L17.5412 16.751C19.4459 16.9105 19.6422 16.9101 19.5439 16.7482ZM29.1906 11.2122C27.876 8.90289 27.1675 7.77429 26.7981 7.39952C26.1564 6.74843 25.2773 6.34602 24.3407 6.27442C22.6368 6.14365 21.227 6.91655 20.3565 8.45923C19.999 9.08646 19.6393 9.71238 19.2773 10.337L18.4886 11.7014H29.4686L29.1906 11.2122Z" fill="white"/>
<path d="M23.1145 42.9333C23.076 42.8944 22.8752 42.8492 22.6678 42.8329C21.6233 42.7496 20.0691 41.5225 19.2635 40.1456C18.9985 39.6915 18.7811 39.2727 18.7811 39.2143C18.7811 39.156 18.7458 39.0925 18.7028 39.0739C18.6598 39.0548 18.4347 38.715 18.2024 38.3189C17.9701 37.9219 17.4889 37.3078 17.1333 36.9529L16.4866 36.308L14.0519 36.3029C10.9754 36.2967 10.1732 36.1574 9.12866 35.4468C8.37443 34.9346 7.29955 33.6752 7.29955 33.3048C7.29955 33.2289 7.19893 32.9825 7.07643 32.7568C6.74233 32.1427 6.69048 30.4272 6.97927 29.5593C7.14402 29.0655 9.26038 25.1726 9.60715 24.7266C9.65131 24.6702 9.75346 24.4939 9.83449 24.3351C9.96967 24.0693 9.96122 24.0066 9.73273 23.5626C9.55534 23.2244 9.36837 22.8916 9.17205 22.5643C8.11905 20.8271 7.14363 19.0077 6.98042 18.4765C6.71544 17.6137 6.72428 16.2208 7.00039 15.3907C7.53649 13.778 8.8464 12.4715 10.4489 11.9504C10.9167 11.7986 11.5073 11.7621 14.0565 11.7255L17.1045 11.6815L18.3744 9.45465C19.3748 7.70143 19.785 7.08303 20.3049 6.54558C21.0234 5.80343 21.8741 5.32319 22.8249 5.12199C23.4086 4.99862 24.8026 4.9671 24.909 5.0749C24.9451 5.11148 25.1079 5.15195 25.27 5.1648C25.6828 5.19788 26.6505 5.66372 27.2201 6.10387C27.7158 6.48721 28.3299 7.23364 28.6267 7.81429C28.7204 7.99837 28.9113 8.33422 29.0503 8.56072C29.1893 8.78722 29.3556 9.06509 29.4198 9.17834C29.4835 9.29159 29.8138 9.85784 30.1532 10.4365C30.4927 11.0152 30.7708 11.534 30.7708 11.5893C30.7708 11.6515 31.9063 11.706 33.7427 11.7325C35.3771 11.7558 36.9505 11.8247 37.2389 11.885C38.8717 12.2267 40.5092 13.7955 40.9704 15.4596C41.3848 16.9552 41.1483 18.5994 40.3633 19.6813C40.2396 19.851 39.98 20.2912 39.7857 20.6593C39.5914 21.0275 39.197 21.7459 38.9094 22.2553C38.6217 22.7652 38.2911 23.3707 38.1744 23.6007L37.9624 24.0195L38.9006 25.6602C39.4167 26.5627 40.0142 27.6022 40.2281 27.9704C40.8003 28.9553 41.0081 29.4858 41.1344 30.2887C41.4071 32.0143 40.7147 33.8146 39.313 35.0268C38.0645 36.1068 37.5453 36.2341 34.2999 36.2562L31.6824 36.2741L30.7366 37.1934C30.2166 37.6993 29.7343 38.2286 29.6644 38.3702C29.5945 38.5119 29.2554 39.1124 28.9109 39.7051C27.8648 41.5039 26.6383 42.5519 25.1794 42.8924C24.6667 43.0123 23.2208 43.0407 23.1145 42.9333ZM19.939 26.6316C20.3806 25.9805 20.7715 25.4127 20.808 25.3703C20.8445 25.3275 21.0906 25.4318 21.3552 25.6018L21.8364 25.9108H26.2911L26.8007 25.6061L27.3103 25.3018L28.177 26.6102L29.0434 27.9186L29.0465 32.4493L29.0496 36.9801L29.2999 36.568C29.4858 36.2621 29.5503 36.0107 29.5511 35.59L29.5522 35.0237L30.1502 34.5334C30.5396 34.215 30.894 33.7951 31.1659 33.3316C31.3956 32.9397 31.5833 32.5879 31.5833 32.5494C31.5833 32.4704 31.0714 32.9074 30.2965 33.6468C30.0077 33.9231 29.722 34.1485 29.6613 34.1485C29.5845 34.1485 29.5515 33.1382 29.5515 30.8055V27.4625L28.8287 26.4234C28.4313 25.8521 28.1225 25.3683 28.1429 25.3481C28.1632 25.3283 28.6049 25.4088 29.1248 25.5271L30.0703 25.7419L31.2588 24.5538L32.447 23.3653L33.6068 22.9391C34.245 22.7044 34.7827 22.5285 34.8019 22.548C34.8211 22.5675 34.7865 23.5104 34.7251 24.6433C34.6636 25.7758 34.629 26.8145 34.6482 26.9503C34.6751 27.143 34.8852 26.8453 35.5968 25.6077C36.0999 24.7332 36.5092 23.9981 36.5062 23.9739C36.4916 23.8463 35.2807 21.7946 35.2197 21.7934C35.1797 21.7926 33.0999 22.5566 30.5983 23.491C26.1667 25.1465 26.0292 25.1901 25.2604 25.1901H24.4708V12.937H23.6582V25.1901H22.9839C22.4002 25.1901 22.0503 25.0928 20.3675 24.4631C19.365 24.0879 18.3621 23.7139 17.3587 23.3411C13.9793 22.0888 13.091 21.7303 13.091 21.619C13.091 21.5509 13.0534 21.4719 13.0077 21.4431C12.9005 21.3762 11.4386 23.9066 11.4831 24.0817C11.5307 24.2716 13.5396 27.7559 13.5784 27.7166C13.5964 27.6983 13.5407 26.5343 13.4555 25.1298C13.3698 23.7252 13.3153 22.5601 13.3349 22.5406C13.3541 22.5211 13.6843 22.6262 14.0687 22.7741C14.4528 22.922 14.9731 23.1127 15.2247 23.1983C15.5753 23.3178 15.9585 23.6322 16.8683 24.546L18.0549 25.7381L18.9005 25.5532C19.3656 25.452 19.8034 25.3469 19.8733 25.3197C20.1179 25.2259 19.9942 25.4711 19.2892 26.4771L18.578 27.4921V30.8203C18.578 32.8346 18.5399 34.1485 18.482 34.1485C18.4293 34.1485 17.8579 33.6593 17.212 33.0615C16.5661 32.4641 16.0376 31.9967 16.0376 32.0232C16.0376 32.0497 16.2139 32.3879 16.4293 32.7751C16.717 33.2927 17.0522 33.6838 17.6936 34.2512L18.5664 35.0237L18.5718 35.7445C18.5757 36.2862 18.634 36.5738 18.8061 36.9034L19.035 37.3413L19.0856 32.5786L19.1367 27.8158L19.939 26.6316ZM15.6317 34.4633C15.6317 33.8671 15.5987 33.7939 14.3499 31.6056C13.6448 30.3708 13.0119 29.2908 12.9428 29.206C12.8737 29.1211 12.7865 28.9635 12.7485 28.8557C12.7108 28.7483 12.3906 28.1692 12.0373 27.5687C11.684 26.9686 11.2477 26.2105 11.0672 25.8852C10.8867 25.5598 10.7243 25.2932 10.7058 25.2932C10.6701 25.2932 9.65362 27.0609 8.75193 28.6907C8.07912 29.9077 7.97773 30.2785 8.03188 31.3277C8.06491 31.9746 8.13941 32.2964 8.36099 32.756C8.90861 33.8897 10.0476 34.7653 11.24 34.9689C11.5038 35.014 12.5999 35.0564 13.6755 35.063L15.6317 35.0751V34.4633ZM36.6682 34.9712C37.4539 34.8202 38.1893 34.4458 38.7105 33.9309C39.5503 33.1012 39.9405 32.1656 39.9343 30.9966C39.9286 29.9131 39.9224 29.8991 37.7838 26.1482L37.2439 25.2014L36.2335 26.9628C35.6774 27.9318 35.197 28.7977 35.1659 28.8876C35.1348 28.9779 35.0507 29.1211 34.98 29.206C34.8648 29.3434 34.351 30.2237 32.937 32.7046C32.5223 33.4316 32.4981 33.518 32.4981 34.2746V35.0751H34.3134C35.3118 35.0751 36.3714 35.0284 36.6682 34.9712ZM11.737 20.9913L12.5841 19.521L12.2281 18.0877C12.0323 17.2992 11.8717 16.5789 11.8717 16.4866C11.8717 16.3372 11.9977 16.3267 13.015 16.3897C13.6436 16.4286 14.1939 16.4676 14.2381 16.4753C14.3065 16.487 15.7435 14.1029 16.2055 13.211L16.3572 12.9183L13.7842 12.9646C10.9374 13.0152 10.5453 13.0853 9.71084 13.6873C7.92896 14.9735 7.49463 17.3058 8.67282 19.2603C9.11714 19.997 9.40554 20.5142 9.85561 21.3801C10.0764 21.8051 10.3575 22.2974 10.48 22.4744C10.6709 22.7496 10.7166 22.7722 10.7961 22.6289C10.8476 22.5367 11.2707 21.8 11.737 20.9913ZM38.4497 20.6593C39.0526 19.6117 39.6317 18.5271 39.7362 18.2492C39.9359 17.7187 39.9973 16.6439 39.8641 16.0185C39.6552 15.0416 38.7558 13.9006 37.8122 13.416C37.0538 13.0265 36.1724 12.9272 33.7623 12.9595L31.6225 12.9883L32.5734 14.6357C33.096 15.5421 33.5561 16.3364 33.5949 16.4014C33.6482 16.4894 34.025 16.4929 35.0676 16.4142C35.8383 16.3563 36.4873 16.3275 36.5096 16.3504C36.5323 16.373 36.3698 17.1202 36.1486 18.0102C35.9278 18.9007 35.7389 19.7335 35.7289 19.8611C35.7082 20.1258 37.1805 22.755 37.2842 22.6398C37.3218 22.5982 37.8464 21.707 38.4497 20.6593ZM29.134 16.8493C29.3299 16.8493 30.1164 16.7964 30.8829 16.7314L32.2761 16.6131L32.1674 16.371C32.1075 16.2379 31.9793 16.129 31.8821 16.129C31.6252 16.129 29.6555 16.3255 29.285 16.3886C28.9835 16.4391 28.957 16.4154 28.7416 15.8994C28.6171 15.6009 28.4401 15.2409 28.3483 15.0992C28.2562 14.9576 28.1747 14.7723 28.1671 14.6871C28.1594 14.6023 27.9904 14.1734 27.7907 13.7348C27.4793 13.0479 27.3933 12.937 27.1724 12.937H26.9167L27.2777 13.7862C27.4754 14.2532 27.8456 15.1222 28.0995 15.7168C28.3533 16.3115 28.563 16.8575 28.5649 16.9303C28.5676 17.0214 28.6014 17.0291 28.6736 16.956C28.7312 16.8976 28.9386 16.8497 29.1344 16.8497L29.134 16.8493ZM19.5438 16.7482C19.5146 16.7003 19.535 16.6458 19.5887 16.6267C19.6429 16.6077 20.0292 15.7814 20.447 14.7902C21.1536 13.1144 21.192 12.986 20.9981 12.9537C20.8829 12.935 20.7504 12.9588 20.7032 13.007C20.6555 13.0549 20.2969 13.8352 19.9055 14.7404C19.2773 16.1947 19.1674 16.3851 18.9624 16.3753C18.8345 16.3695 18.1183 16.3041 17.371 16.2302L16.0119 16.0955L15.8264 16.3438L15.6409 16.5921L17.5411 16.7509C19.4459 16.9104 19.6421 16.91 19.5438 16.7482ZM29.1905 11.2122C27.876 8.90281 27.1674 7.7742 26.798 7.39943C26.1563 6.74834 25.2773 6.34594 24.3406 6.27433C22.6367 6.14357 21.227 6.91647 20.3564 8.45915C19.9989 9.08637 19.6392 9.7123 19.2773 10.3369L18.4885 11.7014H29.4685L29.1905 11.2122Z" fill="white"/>
<path d="M23.1147 42.9332C23.0763 42.8943 22.885 42.8499 22.6892 42.8344C22.1585 42.792 21.1423 42.2526 20.4933 41.668C19.9146 41.1469 19.4077 40.4577 18.976 39.6054C18.847 39.3509 18.7153 39.1189 18.6838 39.0909C18.6519 39.0625 18.4015 38.6687 18.1277 38.2153C17.8539 37.7627 17.3697 37.1478 17.0517 36.8493L16.4737 36.3068L14.0459 36.2998C10.9549 36.2908 10.1692 36.1542 9.12849 35.4471C8.37196 34.933 7.29977 33.6748 7.29977 33.302C7.29977 33.2253 7.20146 32.9789 7.08126 32.7544C6.90653 32.4275 6.85391 32.1169 6.81628 31.188C6.78402 30.3808 6.80399 30.0294 6.88233 30.0294C6.94416 30.0294 6.99485 29.9095 6.99485 29.7632C6.99485 29.6165 7.12734 29.211 7.28901 28.8619C7.58817 28.217 9.43994 24.9324 9.63272 24.7055C9.69071 24.637 9.73832 24.5479 9.73832 24.5074C9.73832 24.4669 9.81321 24.3502 9.90461 24.2475C10.0402 24.0957 10.0475 24.0322 9.94301 23.905C9.87273 23.819 9.852 23.7485 9.89769 23.7485C9.94339 23.7485 9.90038 23.6894 9.80284 23.617C9.7053 23.5446 9.61467 23.4174 9.60161 23.3337C9.58894 23.2504 9.4169 22.9274 9.21951 22.6157C8.56436 21.5812 7.28402 19.2983 7.24562 19.0967C7.22488 18.9878 7.12964 18.7504 7.03441 18.569C6.91497 18.341 6.84777 17.9067 6.81666 17.1583C6.77865 16.2499 6.80591 15.9744 6.98564 15.4342C7.53479 13.7857 8.84047 12.4726 10.4495 11.9511C10.92 11.7986 11.4745 11.7655 13.9549 11.7425C15.5755 11.7274 16.8101 11.7398 16.6984 11.7698C16.5866 11.7997 16.4538 11.864 16.4031 11.9122C16.2867 12.0243 16.7464 11.8912 16.9549 11.7527C17.1369 11.6316 17.3881 11.2475 17.7963 10.4657C17.9591 10.1543 18.1761 9.8064 18.2783 9.69315C18.3804 9.58029 18.4626 9.44992 18.4607 9.40439C18.453 9.21681 19.5298 7.45852 19.9277 7.00864C20.1631 6.74166 20.4161 6.43655 20.4899 6.3307C20.5632 6.22484 20.8147 6.0396 21.0486 5.91973C21.2825 5.79948 21.4995 5.66054 21.5313 5.61112C21.5628 5.5613 21.8601 5.42198 22.1919 5.30172C22.8378 5.06705 24.8777 4.8962 24.8777 5.07717C24.8777 5.12971 25.0275 5.17291 25.2103 5.17291C25.625 5.17291 26.7172 5.68895 27.2917 6.15674C27.7264 6.51011 28.6339 7.64649 28.6358 7.8403C28.6366 7.89712 28.7959 8.16993 28.9899 8.44663C29.1842 8.72294 29.3228 8.98252 29.2982 9.02261C29.2737 9.06269 29.3328 9.18373 29.4288 9.29114C29.6154 9.49973 30.7153 11.3541 30.7829 11.5744C30.8136 11.6748 31.491 11.7126 33.718 11.7386C35.3101 11.7573 36.8689 11.8208 37.1815 11.8799C38.8432 12.1951 40.4822 13.748 40.983 15.4805C41.0678 15.7755 41.1277 16.0534 41.1154 16.0986C41.1035 16.1433 41.1273 16.3531 41.1692 16.5644C41.2683 17.0676 41.0079 18.4569 40.723 18.9461C40.6032 19.1524 40.5402 19.3209 40.5836 19.3209C40.6266 19.3209 40.5697 19.4252 40.4568 19.5525C40.2641 19.7704 39.001 21.9564 39.001 22.0724C39.001 22.1016 38.7641 22.5417 38.4749 23.0496L37.9488 23.9735L38.1953 24.4179C38.3309 24.6623 38.7963 25.4881 39.2295 26.2525C39.6627 27.0172 40.0168 27.6932 40.0168 27.7547C40.0168 27.817 40.0605 27.8675 40.1139 27.8675C40.1673 27.8675 40.3962 28.2521 40.6227 28.7226C40.9396 29.3791 41.0621 29.7889 41.1508 30.4836C41.2391 31.1751 41.2376 31.4067 41.1462 31.4643C41.0801 31.5051 41.0559 31.618 41.0924 31.7145C41.1738 31.9293 40.9434 32.8097 40.8059 32.8097C40.751 32.8097 40.7314 32.8758 40.7625 32.9575C40.7933 33.0385 40.632 33.3969 40.4046 33.7538C39.6888 34.8754 38.7349 35.6405 37.5782 36.0196C36.9822 36.2153 36.665 36.2375 34.3124 36.2476L31.7068 36.2593L30.7053 37.2346C30.0678 37.8553 29.6108 38.3978 29.448 38.7274C28.2756 41.1006 26.8305 42.5063 25.1631 42.8963C24.6634 43.013 23.2191 43.0391 23.1147 42.9332ZM19.9392 26.6315C20.3808 25.9804 20.7717 25.4126 20.8082 25.3702C20.8447 25.3274 21.0909 25.4317 21.3555 25.6018L21.8366 25.9108H26.2913L26.8009 25.6061L27.3105 25.3017L28.1773 26.6101L29.0436 27.9185L29.0467 32.4493L29.0498 36.98L29.3002 36.5679C29.486 36.262 29.5505 36.0106 29.5513 35.5899L29.5525 35.0237L30.1504 34.5333C30.5398 34.215 30.8942 33.795 31.1661 33.3315C31.3958 32.9396 31.5836 32.5878 31.5836 32.5493C31.5836 32.4703 31.0717 32.9073 30.2967 33.6468C30.0079 33.9231 29.7222 34.1484 29.6615 34.1484C29.5847 34.1484 29.5517 33.1381 29.5517 30.8054V27.4624L28.829 26.4233C28.4315 25.852 28.1227 25.3683 28.1431 25.348C28.1634 25.3282 28.6051 25.4087 29.125 25.5271L30.0705 25.7419L31.2591 24.5537L32.4472 23.3652L33.607 22.9391C34.2452 22.7044 34.7829 22.5285 34.8021 22.5479C34.8213 22.5674 34.7867 23.5104 34.7253 24.6432C34.6638 25.7757 34.6293 26.8144 34.6485 26.9503C34.6754 27.1429 34.8854 26.8452 35.597 25.6076C36.1001 24.7331 36.5095 23.998 36.5064 23.9739C36.4918 23.8462 35.281 21.7945 35.2199 21.7933C35.18 21.7926 33.1001 22.5565 30.5985 23.4909C26.1669 25.1464 26.0294 25.19 25.2606 25.19H24.471V12.9369H23.6585V25.19H22.9841C22.4004 25.19 22.0505 25.0927 20.3677 24.4631C19.3653 24.0878 18.3623 23.7138 17.3589 23.3411C13.9795 22.0887 13.0912 21.7303 13.0912 21.619C13.0912 21.5509 13.0536 21.4719 13.0079 21.4431C12.9008 21.3761 11.4388 23.9065 11.4833 24.0817C11.531 24.2716 13.5398 27.7559 13.5786 27.7165C13.5966 27.6983 13.5409 26.5342 13.4557 25.1297C13.37 23.7252 13.3155 22.56 13.3351 22.5405C13.3543 22.5211 13.6846 22.6262 14.069 22.774C14.453 22.9219 14.9733 23.1126 15.2249 23.1982C15.5755 23.3177 15.9588 23.6322 16.8685 24.546L18.0551 25.738L18.9008 25.5531C19.3658 25.4519 19.8036 25.3469 19.8735 25.3196C20.1181 25.2258 19.9945 25.471 19.2894 26.477L18.5782 27.492V30.8202C18.5782 32.8346 18.5402 34.1484 18.4822 34.1484C18.4296 34.1484 17.8581 33.6592 17.2122 33.0615C16.5663 32.4641 16.0379 31.9967 16.0379 32.0231C16.0379 32.0496 16.2141 32.3878 16.4296 32.775C16.7172 33.2926 17.0525 33.6837 17.6938 34.2512L18.5667 35.0237L18.572 35.7444C18.5759 36.2861 18.6343 36.5737 18.8063 36.9034L19.0352 37.3412L19.0859 32.5785L19.1369 27.8158L19.9392 26.6315ZM15.632 34.4633C15.632 33.867 15.5989 33.7939 14.3501 31.6056C13.645 30.3707 13.0121 29.2908 12.943 29.2059C12.8739 29.1211 12.7867 28.9635 12.7487 28.8557C12.7111 28.7482 12.3908 28.1692 12.0375 27.5687C11.6842 26.9686 11.2479 26.2104 11.0674 25.8851C10.8869 25.5597 10.7245 25.2932 10.7061 25.2932C10.6704 25.2932 9.65384 27.0608 8.75215 28.6906C8.07934 29.9076 7.97796 30.2785 8.0321 31.3277C8.06513 31.9745 8.13963 32.2963 8.36121 32.756C8.90883 33.8896 10.0478 34.7653 11.2402 34.9688C11.5041 35.0139 12.6001 35.0564 13.6757 35.063L15.632 35.075V34.4633ZM36.6684 34.9711C37.4542 34.8201 38.1896 34.4457 38.7107 33.9309C39.5505 33.1011 39.9407 32.1656 39.9346 30.9965C39.9288 29.913 39.9227 29.899 37.784 26.1482L37.2441 25.2013L36.2337 26.9627C35.6777 27.9318 35.1972 28.7977 35.1661 28.8876C35.135 28.9779 35.0509 29.1211 34.9803 29.2059C34.8651 29.3433 34.3512 30.2236 32.9373 32.7046C32.5225 33.4316 32.4983 33.518 32.4983 34.2745V35.075H34.3136C35.3121 35.075 36.3716 35.0283 36.6684 34.9711ZM11.7372 20.9912L12.5843 19.5209L12.2283 18.0876C12.0325 17.2992 11.872 16.5776 11.872 16.4838C11.872 16.3344 11.9699 16.3208 12.6592 16.3749C13.0924 16.4087 13.6462 16.4469 13.8904 16.4597L14.3336 16.4831L15.0486 15.2505C15.3927 14.6593 15.7318 14.0652 16.0659 13.4681L16.3677 12.9182L13.7898 12.9645C10.9372 13.0151 10.5459 13.0848 9.71106 13.6872C8.64155 14.4594 8.01098 15.6837 8.01098 16.9874C8.01098 17.8008 8.21067 18.4912 8.65729 19.2178C8.84854 19.5291 9.26521 20.2919 9.58356 20.9126C9.90192 21.533 10.2725 22.1736 10.4073 22.3362C10.5425 22.4985 10.6542 22.6861 10.6558 22.7526C10.6573 22.8188 10.7107 22.7807 10.774 22.667C10.8374 22.5542 11.2714 21.7999 11.7372 20.9912ZM38.4499 20.6593C39.0528 19.6116 39.632 18.527 39.7364 18.2491C39.9361 17.7187 39.9975 16.6438 39.8643 16.0184C39.6554 15.0416 38.756 13.9005 37.8124 13.416C37.054 13.0264 36.1727 12.9272 33.7625 12.9595L31.6227 12.9883L32.5736 14.6357C33.0962 15.542 33.5563 16.3363 33.5951 16.4013C33.6485 16.4893 34.0252 16.4928 35.0678 16.4142C35.8386 16.3562 36.4876 16.3274 36.5098 16.3504C36.5325 16.3729 36.3701 17.1201 36.1489 18.0102C35.928 18.9006 35.7391 19.7334 35.7291 19.8611C35.7084 20.1257 37.1807 22.755 37.2844 22.6398C37.322 22.5981 37.8466 21.7069 38.4499 20.6593ZM29.1343 16.8493C29.3301 16.8493 30.1166 16.7963 30.8831 16.7314L32.2764 16.613L32.1677 16.371C32.1078 16.2379 31.9795 16.1289 31.8823 16.1289C31.6254 16.1289 29.6558 16.3254 29.2852 16.3885C28.9837 16.4391 28.9572 16.4153 28.7418 15.8993C28.6174 15.6008 28.4403 15.2408 28.3485 15.0992C28.2564 14.9575 28.175 14.7723 28.1673 14.687C28.1596 14.6022 27.9906 14.1733 27.7909 13.7347C27.4795 13.0478 27.3935 12.9369 27.1727 12.9369H26.9169L27.2779 13.7861C28.357 16.3297 28.5325 16.7582 28.5221 16.8263C28.4922 17.0256 28.5467 17.0847 28.6569 16.973C28.7241 16.9053 28.9388 16.8493 29.1343 16.8493ZM19.544 16.7481C19.5148 16.7002 19.5352 16.6457 19.5889 16.6267C19.6431 16.6076 20.0294 15.7814 20.4472 14.7902C21.1538 13.1144 21.1922 12.9859 20.9983 12.9536C20.8831 12.935 20.7506 12.9587 20.7034 13.007C20.6558 13.0548 20.2971 13.8351 19.9058 14.7403C19.2775 16.1947 19.1677 16.385 18.9626 16.3753C18.8347 16.3694 18.1185 16.304 17.3712 16.2301L16.0121 16.0954L15.8267 16.3437L15.6412 16.592L17.5413 16.7508C19.4461 16.9104 19.6423 16.91 19.544 16.7481ZM16.0621 12.0445C15.9922 12.0157 15.9603 11.95 15.9922 11.8982C16.0237 11.8465 16.0037 11.804 15.948 11.804C15.9161 11.8065 15.8852 11.8162 15.8576 11.8326C15.83 11.8489 15.8064 11.8713 15.7886 11.8982C15.7322 11.9916 15.8912 12.0967 16.0882 12.0967C16.1442 12.0967 16.1323 12.0733 16.0621 12.0445ZM17.4277 11.5787C17.3954 11.497 17.3712 11.5211 17.3662 11.641C17.362 11.7499 17.3858 11.8103 17.42 11.7764C17.4534 11.7422 17.4572 11.653 17.4277 11.5787ZM29.1903 11.2121C27.8762 8.90274 27.1677 7.77414 26.7982 7.39937C26.1565 6.74828 25.2775 6.34587 24.3409 6.27427C22.6369 6.1435 21.2272 6.9164 20.3566 8.45909C19.9991 9.08631 19.6394 9.71223 19.2775 10.3368L18.4887 11.7013H29.4687L29.1903 11.2121Z" fill="white"/>
<path d="M23.1504 42.9079C23.0663 42.8491 22.8443 42.8001 22.6569 42.7989C22.0771 42.7966 21.089 42.2362 20.3332 41.482C19.6892 40.8391 18.8827 39.647 18.8827 39.3376C18.8827 39.2641 18.8224 39.1668 18.7487 39.1216C18.6189 39.0419 18.0037 38.0117 17.9615 37.8035C17.9499 37.7471 17.6727 37.4482 17.3451 37.14C17.0171 36.8314 16.7491 36.5231 16.7491 36.4554C16.7491 36.3188 15.0724 36.2453 12.7103 36.2779C11.8347 36.2896 11.3639 36.2589 11.3639 36.1896C11.3639 36.1266 11.2587 36.109 11.1101 36.1468C10.9557 36.1861 10.8558 36.1678 10.8558 36.0997C10.8558 36.0355 10.7714 36.0153 10.6562 36.0518C10.3647 36.1456 9.04748 35.4704 8.50331 34.9478C7.89425 34.3628 7.37159 33.5837 7.20761 33.0155C7.13427 32.7606 7.02213 32.5193 6.95915 32.4792C6.80055 32.3788 6.7272 30.0294 6.88235 30.0294C6.94417 30.0294 6.99486 29.9457 6.99486 29.843C6.99486 29.5184 7.49256 28.3505 7.86583 27.7998C8.21529 27.2838 8.34087 27.0604 9.16614 25.4796C9.38235 25.0655 9.58895 24.7035 9.62582 24.6751C9.74064 24.5864 10.0433 24.0692 10.0433 23.9622C10.0433 23.9057 9.95032 23.7719 9.83703 23.6648C9.72374 23.5578 9.60969 23.3593 9.58357 23.2235C9.55823 23.0877 9.49102 22.9612 9.43457 22.9421C9.40536 22.9307 9.38008 22.9109 9.3618 22.8851C9.34352 22.8593 9.33305 22.8287 9.33165 22.797C9.33165 22.7363 9.2153 22.5316 9.07282 22.3424C8.92996 22.1529 8.85009 21.9972 8.89463 21.9961C8.93957 21.9957 8.92651 21.961 8.86545 21.919C8.67612 21.7898 7.28096 19.3127 7.25331 19.057C7.23872 18.9235 7.14195 18.685 7.03826 18.527C6.72874 18.0557 6.70416 16.325 6.99333 15.4132C7.11698 15.0232 7.2994 14.6154 7.39886 14.5076C7.49832 14.3994 7.6093 14.2165 7.6454 14.1013C7.7633 13.725 8.91076 12.666 9.56245 12.3321C10.5025 11.8503 11.4787 11.7013 13.6873 11.7013C15.486 11.7013 15.5959 11.7126 15.7675 11.9153C15.8827 12.0519 16.0114 12.1056 16.1204 12.0632C16.266 12.0118 16.4148 11.9704 16.5659 11.9394C16.7164 11.9087 16.9104 11.8079 16.9972 11.7153C17.3021 11.3884 17.6807 10.8774 17.6174 10.8774C17.529 10.8774 18.0571 9.95193 18.3078 9.66745C18.42 9.54019 18.4818 9.43589 18.4453 9.43589C18.3804 9.43589 19.3624 7.68539 19.4849 7.58226C19.5187 7.55385 19.7499 7.27598 19.9995 6.96464C20.5939 6.22132 20.8927 5.93488 21.0724 5.93488C21.1535 5.93488 21.3167 5.83681 21.435 5.71695C21.8032 5.34334 22.7022 5.08727 23.8363 5.032C24.4469 5.00204 24.8777 5.02072 24.8777 5.07715C24.8777 5.12969 25.0333 5.17288 25.2234 5.17288C25.761 5.17288 27.0129 5.85549 27.6389 6.48985C27.9396 6.79496 28.3148 7.30283 28.4722 7.61845C28.6297 7.93407 28.8685 8.32091 29.0026 8.4793C29.1366 8.63769 29.2522 8.80115 29.2595 8.84357C29.2664 8.88637 29.2779 8.96577 29.2848 9.02064C29.2917 9.07512 29.3662 9.20277 29.4499 9.30357C29.6304 9.52151 30.7249 11.3856 30.7829 11.5748C30.8136 11.676 31.4776 11.7141 33.6673 11.7414C36.8301 11.781 37.5014 11.8565 38.2979 12.2621C38.9634 12.6006 39.8985 13.3934 40.0225 13.7242C40.0724 13.8573 40.1519 13.9663 40.1992 13.9663C40.4077 13.9663 41.2007 15.8343 41.0778 16.0359C41.0479 16.0845 41.0755 16.2993 41.1385 16.5134C41.2295 16.8208 41.2195 17.0835 41.0909 17.7704C41.0018 18.2479 40.8658 18.7111 40.7894 18.7994C40.713 18.8881 40.617 19.0761 40.5759 19.2178C40.5348 19.3594 40.443 19.5447 40.3724 19.6295C40.2118 19.8221 39.001 21.9879 39.0006 22.0829C39.0006 22.121 38.7721 22.5374 38.4926 23.0083C38.2134 23.4788 37.9849 23.9073 37.9849 23.961C37.9849 24.0727 38.2337 24.5448 38.6051 25.1386C38.7468 25.3651 39.1308 26.0594 39.4584 26.6817C39.786 27.304 40.1312 27.8967 40.2253 27.9995C40.3198 28.1022 40.4764 28.3808 40.5736 28.6186C40.6708 28.8568 40.8148 29.1759 40.8935 29.3281C41.097 29.7204 41.2487 31.0494 41.1181 31.2961C41.0613 31.4043 41.0413 31.6398 41.0751 31.8196C41.1158 32.0414 41.0713 32.2749 40.935 32.545C40.8251 32.7641 40.7564 32.9785 40.7829 33.0217C40.8743 33.172 39.8182 34.6321 39.4108 34.9182C39.1854 35.0766 39.001 35.2385 39.001 35.2785C39.001 35.3186 38.7721 35.477 38.493 35.6315C38.2134 35.7856 37.9849 35.8798 37.9849 35.8409C37.9849 35.802 37.9277 35.8179 37.8582 35.8759C37.511 36.1639 36.7506 36.2437 34.2675 36.2515L31.718 36.2593L30.7111 37.2225C30.0237 37.8802 29.6231 38.3542 29.4496 38.7157C29.1128 39.417 28.4641 40.4869 28.1938 40.7877C27.2165 41.8735 26.9473 42.0992 26.1458 42.5016C25.3512 42.9005 25.2172 42.9348 24.2959 42.9733C23.7038 42.9982 23.241 42.9717 23.1504 42.9079ZM19.9392 26.6315C20.3808 25.9804 20.7718 25.4126 20.8082 25.3702C20.8447 25.3274 21.0909 25.4317 21.3555 25.6018L21.8367 25.9108H26.2913L26.8009 25.606L27.3105 25.3017L28.1773 26.6101L29.0436 27.9185L29.0467 32.4493L29.0498 36.98L29.3002 36.5679C29.486 36.262 29.5506 36.0106 29.5513 35.5899L29.5525 35.0236L30.1504 34.5333C30.5398 34.2149 30.8943 33.795 31.1661 33.3315C31.3958 32.9396 31.5836 32.5878 31.5836 32.5493C31.5836 32.4703 31.0717 32.9073 30.2967 33.6467C30.0079 33.9231 29.7222 34.1484 29.6615 34.1484C29.5847 34.1484 29.5517 33.1381 29.5517 30.8054V27.4624L28.829 26.4233C28.4315 25.852 28.1228 25.3683 28.1431 25.348C28.1635 25.3282 28.6051 25.4087 29.1251 25.527L30.0705 25.7419L31.2591 24.5537L32.4473 23.3652L33.607 22.939C34.2453 22.7044 34.7829 22.5285 34.8021 22.5479C34.8213 22.5674 34.7867 23.5103 34.7253 24.6432C34.6638 25.7757 34.6293 26.8144 34.6485 26.9502C34.6754 27.1429 34.8854 26.8452 35.597 25.6076C36.1001 24.7331 36.5095 23.998 36.5064 23.9738C36.4918 23.8462 35.281 21.7945 35.2199 21.7933C35.18 21.7925 33.1001 22.5565 30.5986 23.4909C26.1669 25.1464 26.0294 25.19 25.2606 25.19H24.4711V12.9369H23.6585V25.19H22.9841C22.4004 25.19 22.0506 25.0927 20.3678 24.463C19.3653 24.0878 18.3623 23.7138 17.3589 23.341C13.9795 22.0887 13.0913 21.7303 13.0913 21.619C13.0913 21.5509 13.0536 21.4718 13.0079 21.4431C12.9008 21.3761 11.4388 23.9065 11.4833 24.0816C11.531 24.2716 13.5398 27.7558 13.5786 27.7165C13.5966 27.6982 13.5409 26.5342 13.4557 25.1297C13.3701 23.7252 13.3155 22.56 13.3351 22.5405C13.3543 22.5211 13.6846 22.6261 14.069 22.774C14.453 22.9219 14.9734 23.1126 15.2249 23.1982C15.5755 23.3177 15.9588 23.6321 16.8685 24.5459L18.0552 25.738L18.9008 25.5531C19.3658 25.4519 19.8036 25.3468 19.8735 25.3196C20.1181 25.2258 19.9945 25.471 19.2894 26.477L18.5782 27.492V30.8202C18.5782 32.8345 18.5402 34.1484 18.4822 34.1484C18.4296 34.1484 17.8582 33.6592 17.2122 33.0614C16.5663 32.4641 16.0379 31.9966 16.0379 32.0231C16.0379 32.0496 16.2141 32.3878 16.4296 32.775C16.7172 33.2926 17.0525 33.6837 17.6938 34.2511L18.5667 35.0236L18.5721 35.7444C18.5759 36.2861 18.6343 36.5737 18.8063 36.9033L19.0352 37.3412L19.0859 32.5785L19.137 27.8158L19.9392 26.6315ZM15.632 34.4632C15.632 33.867 15.5989 33.7939 14.3501 31.6055C13.645 30.3707 13.0121 29.2907 12.943 29.2059C12.8739 29.121 12.7867 28.9634 12.7487 28.8556C12.7111 28.7482 12.3908 28.1691 12.0375 27.5686C11.6842 26.9685 11.2479 26.2104 11.0674 25.8851C10.887 25.5597 10.7245 25.2931 10.7061 25.2931C10.6704 25.2931 9.65385 27.0608 8.75216 28.6906C8.07935 29.9076 7.97797 30.2785 8.03212 31.3277C8.06514 31.9745 8.13964 32.2963 8.36122 32.7559C8.90884 33.8896 10.0479 34.7652 11.2403 34.9688C11.5041 35.0139 12.6001 35.0563 13.6757 35.0629L15.632 35.075V34.4632ZM36.6685 34.9711C37.4542 34.8201 38.1896 34.4457 38.7107 33.9308C39.5506 33.1011 39.9407 32.1656 39.9346 30.9965C39.9288 29.913 39.9227 29.899 37.784 26.1482L37.2441 25.2013L36.2337 26.9627C35.6777 27.9317 35.1973 28.7976 35.1661 28.8875C35.135 28.9778 35.0509 29.121 34.9803 29.2059C34.8651 29.3433 34.3512 30.2236 32.9373 32.7046C32.5225 33.4315 32.4983 33.5179 32.4983 34.2745V35.075H34.3136C35.3121 35.075 36.3716 35.0283 36.6685 34.9711ZM11.7356 20.9936L12.5817 19.526L12.2053 17.9864C11.9979 17.1396 11.8551 16.4204 11.887 16.3881C11.9188 16.3558 12.4814 16.3663 13.1366 16.4118L14.3282 16.4947L14.7395 15.7709C14.9661 15.3731 15.3163 14.7785 15.5183 14.4488C15.7351 14.0939 15.9429 13.7334 16.1416 13.3677L16.3977 12.8851L13.8555 12.9412C11.8424 12.9851 11.1942 13.0342 10.7422 13.1762C9.14348 13.6783 8.01099 15.2587 8.01099 16.9874C8.01099 17.8031 8.21145 18.4935 8.65961 19.2178C8.85201 19.5291 9.20109 20.1778 9.43534 20.6593C9.6696 21.1407 10.0494 21.8229 10.2798 22.1755C10.632 22.7149 10.7138 22.7884 10.794 22.6386C10.8466 22.5413 11.2702 21.8007 11.7356 20.9936ZM38.4496 20.6593C39.0529 19.6116 39.6324 18.527 39.7368 18.2491C39.9365 17.7187 39.9979 16.6438 39.8643 16.0184C39.6554 15.0415 38.756 13.9005 37.8125 13.416C37.054 13.0264 36.1727 12.9272 33.7625 12.9595L31.6228 12.9883L32.5736 14.6356C33.0963 15.542 33.5563 16.3363 33.5951 16.4013C33.6485 16.4893 34.0252 16.4928 35.0678 16.4142C35.8386 16.3562 36.4876 16.3274 36.5099 16.3503C36.5325 16.3729 36.3701 17.1201 36.1489 18.0102C35.9281 18.9006 35.7391 19.7334 35.7291 19.8611C35.7084 20.1257 37.1807 22.755 37.2844 22.6398C37.3221 22.5981 37.8463 21.7069 38.4496 20.6593ZM29.1347 16.8492C29.3305 16.8492 30.117 16.7963 30.8835 16.7313L32.2767 16.613L32.1681 16.371C32.1082 16.2379 31.9799 16.1289 31.8827 16.1289C31.6258 16.1289 29.6562 16.3254 29.2856 16.3885C28.9841 16.4391 28.9576 16.4153 28.7422 15.8993C28.6178 15.6008 28.4407 15.2408 28.3489 15.0991C28.2568 14.9575 28.1754 14.7722 28.1677 14.687C28.16 14.6022 27.991 14.1733 27.7913 13.7347C27.4799 13.0478 27.3939 12.9369 27.1731 12.9369H26.9173L27.2783 13.7861C28.3574 16.3297 28.5329 16.7582 28.5225 16.8263C28.4926 17.0255 28.5471 17.0847 28.6573 16.973C28.7245 16.9053 28.9392 16.8492 29.1347 16.8492ZM19.5444 16.7481C19.5152 16.7002 19.5356 16.6457 19.5893 16.6266C19.6435 16.6076 20.0298 15.7814 20.4476 14.7901C21.1542 13.1144 21.1926 12.9859 20.9987 12.9536C20.8835 12.9349 20.751 12.9587 20.7038 13.0069C20.6562 13.0548 20.2975 13.8351 19.9062 14.7403C19.2779 16.1947 19.1681 16.385 18.963 16.3752C18.8351 16.3694 18.1189 16.304 17.3716 16.2301L16.0125 16.0954L15.827 16.3437L15.6416 16.592L17.5417 16.7508C19.4465 16.9103 19.6427 16.91 19.5444 16.7481ZM17.5621 11.6499C17.665 11.5238 17.66 11.495 17.5344 11.495C17.4499 11.495 17.3539 11.5647 17.3221 11.6495C17.2898 11.7347 17.3021 11.804 17.3493 11.804C17.3969 11.804 17.4926 11.7351 17.5621 11.6499ZM29.1907 11.2121C27.8766 8.90272 27.1681 7.77412 26.7986 7.39934C26.1569 6.74826 25.2779 6.34585 24.3413 6.27424C22.6373 6.14348 21.2276 6.91638 20.357 8.45906C19.9995 9.08629 19.6398 9.71221 19.2779 10.3368L18.4891 11.7013H29.4691L29.1907 11.2121ZM16.0648 11.7301C16.2191 11.7067 16.4476 11.7071 16.5728 11.7316C16.6976 11.7561 16.5713 11.7752 16.2917 11.7744C16.0125 11.7737 15.9104 11.7538 16.0648 11.7301Z" fill="white"/>
<path d="M23.2011 42.908C23.0894 42.8554 22.8486 42.8091 22.6662 42.8048C22.4838 42.8009 22.2553 42.757 22.1581 42.7075C21.9826 42.621 21.8052 42.5382 21.6263 42.4592C20.8094 42.0973 19.6723 40.9115 19.1435 39.8697C18.9262 39.4416 18.7146 39.0909 18.6731 39.0909C18.6316 39.0909 18.5483 38.9633 18.488 38.8076C18.4273 38.652 18.2587 38.3457 18.1136 38.1266C17.9684 37.9082 17.9104 37.7674 17.9853 37.8141C18.0598 37.8608 18.0064 37.7561 17.8667 37.5817C17.7273 37.407 17.5836 37.2809 17.5479 37.3015C17.5118 37.3218 17.4097 37.226 17.3213 37.0886C17.2322 36.9513 17.0418 36.7193 16.8978 36.5734L16.6359 36.308L14.0107 36.2838C12.5667 36.2702 11.4377 36.2255 11.5018 36.1834C11.6051 36.1165 11.0564 36.0523 10.6527 36.0846C10.569 36.0912 10.3624 36.032 10.1938 35.953C9.99789 35.8621 9.7994 35.777 9.5986 35.6977C9.16696 35.5316 8.42924 34.9661 8.36166 34.7501C8.32901 34.6458 8.23646 34.5602 8.15659 34.5602C8.07671 34.5602 8.01066 34.4909 8.01066 34.4057C8.01066 34.3205 7.97225 34.2512 7.92502 34.2512C7.82325 34.2512 7.09668 32.8498 7.09668 32.6532C7.09484 32.6142 7.08185 32.5766 7.05928 32.545C7.03671 32.5133 7.00554 32.489 6.96957 32.475C6.80943 32.4209 6.73416 30.1326 6.89276 30.1326C6.94883 30.1326 6.99491 30.0501 6.99491 29.9489C6.99491 29.606 7.53024 28.1984 7.70805 28.0731C7.85129 27.9726 8.62049 26.6253 8.62049 26.4755C8.62049 26.3914 8.65505 26.3226 8.69729 26.3226C8.73915 26.3226 8.88547 26.1027 9.02256 25.8338C9.15928 25.5644 9.39929 25.1508 9.55559 24.9141C9.71189 24.6775 9.83977 24.4343 9.83977 24.3732C9.83977 24.3129 9.88585 24.2634 9.94153 24.2634C10.1205 24.2634 10.0502 23.8587 9.83285 23.638C9.71688 23.5213 9.60666 23.3473 9.58785 23.252C9.53216 22.9741 9.01872 22.1012 8.91081 22.1012C8.85628 22.1012 8.84015 22.0545 8.87471 21.9981C8.90928 21.9412 8.88892 21.8949 8.82978 21.8949C8.77064 21.8949 8.72226 21.851 8.72226 21.7976C8.72226 21.7443 8.58516 21.4933 8.41734 21.2419C8.2499 20.9901 8.11242 20.755 8.11242 20.7192C8.11242 20.6834 7.92963 20.3612 7.70613 20.0024C7.48262 19.6436 7.29983 19.2762 7.29983 19.1859C7.29983 18.9757 7.08017 18.4671 6.94883 18.3741C6.89353 18.3344 6.82978 17.8117 6.80828 17.212C6.77487 16.2951 6.80444 16.0095 6.99338 15.4132C7.11703 15.0233 7.3052 14.6096 7.41158 14.494C7.51757 14.3784 7.60474 14.2313 7.60474 14.1667C7.60474 14.1021 7.90428 13.7347 8.27103 13.3495C9.53754 12.0204 10.6842 11.6752 13.6869 11.7204C15.2948 11.7445 15.5806 11.7733 15.758 11.929C15.9757 12.1205 16.2599 12.0994 16.7695 11.8543C16.9723 11.7566 17.0564 11.7531 17.0917 11.8402C17.1182 11.9052 17.1431 11.8613 17.1474 11.7418C17.152 11.6227 17.2699 11.4005 17.4097 11.2475C17.5494 11.0946 17.6635 10.9051 17.6635 10.8265C17.6635 10.6762 18.0145 10.0092 18.2322 9.74455C18.3025 9.65971 18.5268 9.26081 18.7315 8.8584C19.2411 7.85278 20.3494 6.47082 20.9673 6.06881C21.2461 5.88784 21.5537 5.66796 21.6516 5.58001C21.7495 5.49205 21.8889 5.42006 21.9615 5.42006C22.0341 5.42006 22.137 5.3788 22.19 5.32821C22.4561 5.07408 24.8778 4.86976 24.8778 5.10093C24.8778 5.15153 25.0372 5.19356 25.2322 5.19356C25.771 5.19356 26.9811 5.84464 27.6067 6.47082C27.9062 6.77049 28.2787 7.27096 28.4346 7.5823C28.5909 7.89364 28.8375 8.28787 28.9826 8.45794C29.1278 8.62762 29.2465 8.83894 29.2465 8.92729C29.2465 9.01563 29.3271 9.17791 29.4258 9.28766C29.6159 9.50015 30.7146 11.3522 30.7837 11.5772C30.816 11.6822 31.4239 11.7107 33.6401 11.7114C35.2998 11.7118 36.4799 11.7523 36.5149 11.8095C36.5475 11.8632 36.7941 11.9068 37.0629 11.9068C37.417 11.9068 37.7445 12.0053 38.2541 12.2637C38.9223 12.6022 39.9661 13.4499 39.9661 13.6538C39.9661 13.7059 40.0687 13.8453 40.1939 13.9636C40.5729 14.3216 41.0287 15.393 41.0318 15.9332C41.0326 16.0807 41.0852 16.3523 41.1485 16.5372C41.2415 16.8073 41.2276 17.0373 41.0779 17.7109C40.864 18.673 40.6842 19.066 39.6493 20.8383C39.2369 21.5443 38.8989 22.1751 38.8985 22.2401C38.8985 22.3051 38.6927 22.6814 38.4415 23.0761C38.1904 23.4707 37.9846 23.8533 37.9846 23.926C37.9846 24.0704 38.2038 24.4981 38.6055 25.1387C38.7476 25.3652 39.1485 26.0937 39.4965 26.7577C39.8448 27.4216 40.1735 27.9925 40.2273 28.0264C40.3452 28.1003 40.7561 28.8969 40.6758 28.8969C40.6451 28.8969 40.6766 29.0012 40.7472 29.1285C40.9951 29.5756 41.1256 30.0797 41.1263 30.5926C41.1263 31.4721 41.074 32.1446 40.9949 32.2742C40.9534 32.3423 40.9565 32.3987 41.0018 32.3995C41.0468 32.4003 41.0256 32.4384 40.9542 32.4843C40.8832 32.5303 40.8056 32.721 40.7822 32.9078C40.7342 33.2938 40.1862 34.1811 39.7503 34.5796C39.5898 34.7264 39.2791 35.0116 39.0606 35.214C38.8421 35.4164 38.6247 35.5572 38.5779 35.5281C38.531 35.4989 38.493 35.5265 38.493 35.5899C38.493 35.6534 38.4469 35.6763 38.3912 35.6413C38.3356 35.6063 38.2899 35.6257 38.2899 35.6837C38.2899 35.7421 38.2138 35.7596 38.1209 35.7238C37.998 35.6759 37.9742 35.6954 38.0349 35.7943C38.0925 35.8892 38.079 35.9063 37.9892 35.8499C37.9177 35.8051 37.8286 35.8219 37.7887 35.8873C37.6278 36.1511 36.4239 36.2725 34.2764 36.2406C33.1028 36.2235 32.0283 36.2336 31.8885 36.2632C31.5514 36.3348 29.45 38.3959 29.45 38.6555C29.45 38.7644 29.3244 39.0357 29.1704 39.2579C29.0164 39.4801 28.8041 39.823 28.6973 40.0199C28.5145 40.3573 27.445 41.6801 27.3002 41.7478C27.2634 41.7649 27.1286 41.8708 27.0007 41.9833C26.8728 42.0961 26.4227 42.3522 26.0007 42.553C25.3417 42.8667 25.104 42.9243 24.3187 42.9609C23.8156 42.9842 23.3129 42.9609 23.2011 42.908ZM19.9392 26.6316C20.3809 25.9805 20.7718 25.4127 20.8083 25.3702C20.8448 25.3274 21.0909 25.4317 21.3555 25.6018L21.8367 25.9108H26.2914L26.801 25.6061L27.3106 25.3018L28.1773 26.6102L29.0437 27.9186L29.0468 32.4493L29.0498 36.9801L29.3002 36.5679C29.4861 36.262 29.5506 36.0106 29.5514 35.5899L29.5525 35.0237L30.1505 34.5333C30.5399 34.215 30.8943 33.7951 31.1662 33.3316C31.3958 32.9397 31.5836 32.5879 31.5836 32.5493C31.5836 32.4703 31.0717 32.9074 30.2968 33.6468C30.008 33.9231 29.7223 34.1484 29.6616 34.1484C29.5848 34.1484 29.5518 33.1381 29.5518 30.8054V27.4624L28.829 26.4233C28.4316 25.852 28.1228 25.3683 28.1432 25.3481C28.1635 25.3282 28.6051 25.4088 29.1251 25.5271L30.0706 25.7419L31.2591 24.5538L32.4473 23.3652L33.6071 22.9391C34.2453 22.7044 34.7829 22.5285 34.8021 22.548C34.8213 22.5674 34.7868 23.5104 34.7253 24.6433C34.6639 25.7758 34.6293 26.8145 34.6485 26.9503C34.6754 27.1429 34.8855 26.8452 35.5971 25.6076C36.1001 24.7332 36.5095 23.998 36.5064 23.9739C36.4919 23.8462 35.281 21.7945 35.22 21.7934C35.18 21.7926 33.1001 22.5565 30.5986 23.4909C26.167 25.1465 26.0295 25.1901 25.2607 25.1901H24.4711V12.9369H23.6585V25.1901H22.9842C22.4004 25.1901 22.0506 25.0928 20.3678 24.4631C19.3653 24.0878 18.3624 23.7138 17.359 23.3411C13.9796 22.0887 13.0913 21.7303 13.0913 21.619C13.0913 21.5509 13.0537 21.4719 13.008 21.4431C12.9008 21.3762 11.4388 23.9066 11.4834 24.0817C11.531 24.2716 13.5398 27.7559 13.5786 27.7166C13.5967 27.6983 13.541 26.5343 13.4557 25.1297C13.3701 23.7252 13.3156 22.56 13.3352 22.5406C13.3544 22.5211 13.6846 22.6262 14.069 22.7741C14.4531 22.922 14.9734 23.1127 15.2249 23.1983C15.5756 23.3177 15.9588 23.6322 16.8686 24.546L18.0552 25.738L18.9008 25.5532C19.3659 25.452 19.8037 25.3469 19.8736 25.3197C20.1182 25.2259 19.9945 25.471 19.2895 26.4771L18.5782 27.492V30.8202C18.5782 32.8346 18.5402 34.1484 18.4822 34.1484C18.4296 34.1484 17.8582 33.6592 17.2123 33.0615C16.5663 32.4641 16.0379 31.9967 16.0379 32.0232C16.0379 32.0496 16.2142 32.3878 16.4296 32.775C16.7173 33.2926 17.0525 33.6838 17.6938 34.2512L18.5667 35.0237L18.5721 35.7444C18.5759 36.2862 18.6343 36.5738 18.8064 36.9034L19.0352 37.3412L19.0859 32.5785L19.137 27.8158L19.9392 26.6316ZM15.632 34.4633C15.632 33.8671 15.599 33.7939 14.3501 31.6056C13.6451 30.3707 13.0122 29.2908 12.9431 29.2059C12.8739 29.1211 12.7868 28.9635 12.7488 28.8557C12.7111 28.7483 12.3908 28.1692 12.0375 27.5687C11.6842 26.9686 11.248 26.2105 11.0675 25.8851C10.887 25.5598 10.7246 25.2932 10.7061 25.2932C10.6704 25.2932 9.6539 27.0608 8.75221 28.6907C8.0794 29.9076 7.97802 30.2785 8.03216 31.3277C8.06519 31.9745 8.13969 32.2964 8.36127 32.756C8.90889 33.8896 10.0479 34.7653 11.2403 34.9688C11.5041 35.014 12.6001 35.0564 13.6758 35.063L15.632 35.0751V34.4633ZM36.6685 34.9712C37.4542 34.8202 38.1896 34.4458 38.7107 33.9309C39.5506 33.1012 39.9408 32.1656 39.9346 30.9965C39.9289 29.9131 39.9227 29.8991 37.7841 26.1482L37.2442 25.2013L36.2338 26.9627C35.6777 27.9318 35.1973 28.7977 35.1662 28.8876C35.1351 28.9779 35.051 29.1211 34.9803 29.2059C34.8651 29.3433 34.3513 30.2236 32.9373 32.7046C32.5226 33.4316 32.4984 33.518 32.4984 34.2745V35.0751H34.3137C35.3121 35.0751 36.3717 35.0284 36.6685 34.9712ZM12.0702 20.4534C12.1009 20.425 12.2288 20.1985 12.354 19.9502L12.5821 19.498L12.2269 18.0682C12.0318 17.2821 11.872 16.571 11.872 16.4889C11.872 16.3722 11.9884 16.3488 12.4058 16.3807C12.6988 16.4037 13.2537 16.4337 13.6385 16.4477L14.3386 16.473L14.6789 15.9149C14.8659 15.6074 15.0744 15.2408 15.1412 15.0992C15.2088 14.9575 15.455 14.5403 15.6892 14.1726C15.9235 13.8044 16.1462 13.3989 16.1846 13.2712C16.223 13.144 16.2975 13.0397 16.3498 13.0397C16.4016 13.0397 16.4442 13.0047 16.4442 12.9626C16.4442 12.8758 12.6347 12.8965 11.7745 12.9879C10.0141 13.1747 8.71765 14.1574 8.22494 15.6783C7.82556 16.9104 7.97686 18.1005 8.6804 19.2692C8.88508 19.6093 9.31673 20.4071 9.63969 21.043C9.96227 21.6785 10.3336 22.3296 10.4646 22.49L10.7027 22.7811L11.3586 21.6431C11.7192 21.017 12.0395 20.4818 12.0702 20.4534ZM38.4496 20.6597C39.0529 19.6116 39.6324 18.527 39.7369 18.2492C39.9366 17.7187 39.998 16.6438 39.8644 16.0184C39.6554 15.0416 38.7561 13.9005 37.8125 13.416C37.0541 13.0264 36.1727 12.9272 33.7626 12.9595L31.6228 12.9883L32.5736 14.6357C33.0963 15.5421 33.5564 16.3364 33.5952 16.4014C33.6485 16.4893 34.0253 16.4928 35.0679 16.4142C35.8386 16.3562 36.4876 16.3274 36.5099 16.3504C36.5326 16.3729 36.3701 17.1202 36.1489 18.0102C35.9281 18.9006 35.7392 19.7335 35.7292 19.8611C35.7084 20.1257 37.1808 22.755 37.2845 22.6398C37.3221 22.5982 37.8463 21.7073 38.4496 20.6597ZM29.1347 16.8497C29.3306 16.8497 30.117 16.7964 30.8836 16.7314L32.2768 16.6131L32.1681 16.371C32.1082 16.2379 31.9799 16.1289 31.8828 16.1289C31.6259 16.1289 29.6562 16.3255 29.2856 16.3885C28.9842 16.4391 28.9577 16.4154 28.7422 15.8993C28.6178 15.6008 28.4408 15.2408 28.349 15.0992C28.2568 14.9575 28.1754 14.7723 28.1677 14.6871C28.1601 14.6022 27.9911 14.1733 27.7914 13.7347C27.4799 13.0479 27.3939 12.9369 27.1731 12.9369H26.9173L27.2783 13.7861C28.3574 16.3298 28.5329 16.7582 28.5226 16.8263C28.4926 17.0256 28.5471 17.0847 28.6574 16.9731C28.7246 16.9053 28.9392 16.8497 29.1347 16.8497ZM19.5445 16.7485C19.5153 16.7002 19.5356 16.6458 19.5894 16.6267C19.6435 16.6076 20.0299 15.7814 20.4477 14.7902C21.1543 13.1144 21.1927 12.986 20.9988 12.9537C20.8836 12.935 20.7511 12.9587 20.7038 13.007C20.6562 13.0549 20.2975 13.8352 19.9062 14.7404C19.2779 16.1947 19.1681 16.385 18.963 16.3753C18.8352 16.3694 18.119 16.3041 17.3716 16.2301L16.0126 16.0955L15.8271 16.3438L15.6416 16.5921L17.5418 16.7508C19.4465 16.9104 19.6428 16.9104 19.5445 16.7485ZM17.7461 11.6056C17.773 11.5227 17.7042 11.49 17.5491 11.5122C17.4177 11.5312 17.2948 11.6274 17.2764 11.7262C17.2488 11.8733 17.2841 11.8905 17.473 11.8196C17.5998 11.7718 17.723 11.6756 17.7461 11.6056ZM29.1908 11.2121C27.8766 8.90277 27.1681 7.77417 26.7987 7.39939C26.157 6.7483 25.2779 6.3459 24.3413 6.27429C22.6374 6.14353 21.2276 6.91643 20.3571 8.45911C19.9996 9.08633 19.6399 9.71226 19.2779 10.3369L18.4892 11.7013H29.4692L29.1908 11.2121ZM16.3175 11.7359C16.387 11.7075 16.5018 11.7075 16.5713 11.7359C16.6408 11.7644 16.584 11.7877 16.4446 11.7877C16.3044 11.7877 16.2476 11.7644 16.3175 11.7359Z" fill="white"/>
</svg>
