<svg width="48" height="48" viewBox="0 0 48 48" fill="none" xmlns="http://www.w3.org/2000/svg">
<path d="M5.08708 10.0879C5.08708 10.0625 5.08708 10.0309 5.08708 10.0008C5.08708 8.62178 5.65547 7.37574 6.5706 6.48437L6.57218 6.48278C7.44931 5.56765 8.68268 4.99768 10.049 4.99768H10.095C10.125 4.99768 10.1583 4.99609 10.1947 4.99609C11.4439 4.99609 12.5839 5.46316 13.4483 6.23104L13.4436 6.22629C14.327 6.98468 14.9508 8.0233 15.1772 9.20442L15.182 9.23767C15.7488 9.09359 16.4011 9.01126 17.0724 9.01126C17.9115 9.01126 18.7206 9.1395 19.4806 9.38016L19.4236 9.36433C20.9609 9.85672 22.2734 10.6895 23.3216 11.7772L23.3247 11.7804L19.593 15.5122C18.9502 14.8266 18.0556 14.3817 17.0582 14.3263H17.0487C17.036 14.3263 17.0217 14.3263 17.0075 14.3263C16.1684 14.3263 15.4131 14.6857 14.8875 15.2573L14.8859 15.2588C14.3381 15.8161 13.9993 16.5809 13.9993 17.4247V17.4675V17.5134C13.9993 18.3478 14.3223 19.1078 14.8495 19.673L14.8479 19.6714L23.3342 28.1577L19.5946 31.8863L11.1082 23.4C10.0237 22.3804 9.24474 21.0488 8.91225 19.5495L8.90275 19.5004C8.75393 18.8766 8.66685 18.1594 8.66685 17.4232C8.66685 16.5634 8.78401 15.7306 9.0025 14.9406L8.98667 15.0055C7.8388 14.7775 6.86509 14.1505 6.19537 13.2782L6.18745 13.2671C5.50348 12.4185 5.08866 11.3276 5.08866 10.1401C5.08866 10.1227 5.08708 10.1053 5.08708 10.0879ZM16.0211 19.9295L17.2877 18.742L24.5074 11.5302C25.5207 10.4489 26.8333 9.65882 28.3136 9.29308L28.3674 9.282C29.0118 9.11259 29.7512 9.01601 30.5144 9.01601C31.3345 9.01601 32.1293 9.12842 32.8829 9.339L32.8212 9.32475C33.0032 8.09297 33.6191 7.03059 34.5074 6.27854L34.5153 6.27221C35.3972 5.48532 36.5672 5.00401 37.8496 5.00401C37.8845 5.00401 37.9209 5.00401 37.9557 5.00559H37.951H37.9747C39.3332 5.00559 40.5602 5.57557 41.4278 6.48753L41.4294 6.48912C42.3461 7.38208 42.9145 8.62811 42.9145 10.0071C42.9145 10.0372 42.9145 10.0689 42.9129 10.099V10.0942C42.9129 10.1227 42.9145 10.156 42.9145 10.1892C42.9145 11.4463 42.4332 12.5894 41.6447 13.4476L41.6479 13.4444C40.8483 14.3374 39.7654 14.9612 38.5415 15.1781L38.5083 15.1828C38.7378 15.8842 38.8693 16.6933 38.8693 17.5324C38.8693 18.2655 38.7679 18.9748 38.5795 19.6477L38.5922 19.5922C38.1093 21.2262 37.2591 22.6242 36.1334 23.7467L32.3161 19.9263C33.046 19.3373 33.5241 18.4634 33.5827 17.4754V17.4659C33.5827 17.4596 33.5827 17.4501 33.5827 17.4422C33.5827 16.584 33.2249 15.8114 32.6502 15.262L32.6486 15.2604C32.0992 14.6841 31.325 14.3263 30.4669 14.3263C30.4589 14.3263 30.451 14.3263 30.4415 14.3263C30.4352 14.3263 30.4273 14.3263 30.4194 14.3263C29.5612 14.3263 28.7886 14.6841 28.2392 15.2588L28.2376 15.2604L19.7513 23.7467L16.0211 19.9295ZM38.5874 32.9028C39.8461 33.0643 40.9386 33.6691 41.7271 34.5525L41.7318 34.5573C42.5171 35.4107 43 36.5554 43 37.8125C43 37.8489 43 37.8837 42.9984 37.9186V37.9138V38.0009C42.9984 39.3799 42.43 40.6259 41.5149 41.5173L41.5133 41.5189C40.6204 42.4356 39.3743 43.004 37.9953 43.004C37.9652 43.004 37.9335 43.004 37.9035 43.0024H37.9082C37.9003 43.0024 37.8908 43.0024 37.8813 43.0024C36.6638 43.0024 35.5476 42.5718 34.6752 41.8561L34.6847 41.8625C33.7696 41.1516 33.1236 40.1288 32.9083 38.9556L32.9035 38.9255C32.1736 39.1551 31.3345 39.2881 30.4637 39.2881C29.7021 39.2881 28.9659 39.1868 28.2645 38.9968L28.3231 39.011C26.6939 38.5978 25.3054 37.7317 24.2589 36.5569L24.2525 36.549L27.9843 32.7334C28.5733 33.4632 29.4472 33.9414 30.4352 34H30.4447H30.4684C31.3266 34 32.0992 33.6422 32.6486 33.0674L32.6502 33.0658C33.2265 32.5165 33.5843 31.7422 33.5843 30.8841C33.5843 30.8762 33.5843 30.8683 33.5843 30.8588C33.5843 30.8556 33.5843 30.8524 33.5843 30.8477C33.5843 29.9896 33.2265 29.2169 32.6518 28.6675L32.6502 28.6659L24.1639 20.1796L27.9795 16.4479L36.3756 24.9342C37.3984 25.9364 38.1647 27.1951 38.5716 28.6058L38.5859 28.6659C38.7743 29.3008 38.8819 30.0291 38.8819 30.7844C38.8819 31.5396 38.7743 32.2679 38.5716 32.9566L38.5859 32.9012L38.5874 32.9028ZM31.4627 28.4142L23.0651 36.8039C22.0518 37.8299 20.7773 38.5962 19.3507 38.9952L19.2922 39.0094C18.6509 39.1978 17.9131 39.3071 17.15 39.3071C16.3869 39.3071 15.6506 39.1994 14.9524 38.9968L15.0078 39.011C14.7973 40.1905 14.1671 41.1959 13.2805 41.8878L13.2694 41.8957C12.4192 42.5829 11.3267 42.9993 10.1361 42.9993C10.1203 42.9993 10.1029 42.9993 10.087 42.9993H10.0902C10.0649 42.9993 10.0332 42.9993 10.0031 42.9993C8.6241 42.9993 7.37807 42.4309 6.48669 41.5157L6.4851 41.5142C5.56839 40.6212 5 39.3752 5 37.9961C5 37.9676 5 37.9391 5 37.9106V37.9154C5 37.8996 5 37.8806 5 37.8631C5 36.6725 5.4164 35.5785 6.11145 34.7204L6.10354 34.7299C6.78118 33.8464 7.7533 33.2194 8.87109 32.9962L8.90117 32.9914C8.75234 32.385 8.66685 31.6884 8.66685 30.9728C8.66685 30.1368 8.78401 29.3278 9.0025 28.5614L8.98667 28.6232C9.46481 27.0304 10.3166 25.672 11.4423 24.5985L11.4455 24.5954L15.1772 28.419C14.4885 29.0253 14.042 29.8914 13.9914 30.8635V30.8714V30.911C13.9914 31.7549 14.3302 32.5196 14.878 33.0769C15.4131 33.6517 16.1763 34.0111 17.0217 34.0111H17.0867H17.0835C17.1072 34.0111 17.1342 34.0126 17.1611 34.0126C17.9891 34.0126 18.7317 33.6532 19.2447 33.0801L19.2478 33.0769L27.7341 24.5906L31.4627 28.4142Z" fill="white"/>
</svg>
