<svg width="48" height="48" viewBox="0 0 48 48" fill="none" xmlns="http://www.w3.org/2000/svg">
<path fill-rule="evenodd" clip-rule="evenodd" d="M22.1963 5.54719C23.3815 4.83696 24.5393 4.81097 25.7334 5.51106C30.1632 8.10907 34.599 10.6969 39.0303 13.2923C39.5669 13.608 39.9671 14.0072 40.2344 14.4837C40.5064 14.9682 40.6413 15.5332 40.6416 16.1722C40.6433 21.3752 40.6426 31.7615 40.6426 31.8275C40.6426 32.4525 40.5136 33.0064 40.2539 33.4837C39.9865 33.9742 39.5804 34.3846 39.0312 34.7073C34.5995 37.3026 30.1642 39.8905 25.7344 42.4886C24.5397 43.1891 23.3812 43.1632 22.1953 42.4525C20.431 41.3951 11.6001 36.2574 8.96875 34.7093C8.41962 34.3864 8.01344 33.9756 7.74609 33.4847C7.48622 33.0077 7.35745 32.4541 7.35742 31.8294C7.35911 26.6101 7.35768 21.3906 7.35938 16.1712C7.35964 14.9038 7.88702 13.9287 8.9707 13.2913C11.6021 11.7431 20.4325 6.60364 22.1963 5.54719ZM24.0869 11.4329C17.2538 11.4329 11.7148 17.0597 11.7148 24.0003C11.7149 26.2773 12.3113 28.4124 13.3535 30.2542C15.4886 34.027 19.4955 36.5677 24.0869 36.5677L24.2246 36.5667C28.7482 36.5166 32.6897 33.9998 34.8066 30.2786L29.4297 27.1146L29.4551 27.0687C28.3986 28.9718 26.3911 30.2581 24.0869 30.2581C21.7969 30.2581 19.8002 28.9879 18.7383 27.1048C18.2049 26.16 17.9247 25.0895 17.9258 24.0003C17.9258 20.5443 20.6845 17.7425 24.0869 17.7425H24.1572C26.3885 17.7679 28.3337 18.9999 29.3945 20.8245L34.7783 17.6741C34.7853 17.6863 34.7929 17.6981 34.7998 17.7103L34.7793 17.6741H34.7783C32.7001 14.0587 28.8971 11.591 24.5146 11.4398L24.0869 11.4329ZM32.7734 22.1673H31.0186V23.0579H32.7734V24.8402H31.0186V25.7318H32.7734V27.514H33.6504V25.7318H35.4053V27.514H36.2832V25.7318H38.0371V24.8402H36.2832V23.0579H38.0371V22.1673H36.2832V20.3851H35.4053V22.1673H33.6504V20.3851H32.7734V22.1673ZM35.4053 24.8402H33.6504V23.0579H35.4053V24.8402Z" fill="white"/>
</svg>
