<svg width="48" height="48" viewBox="0 0 48 48" fill="none" xmlns="http://www.w3.org/2000/svg">
<path d="M24 5C13.4276 5 5 13.4191 5 24C5 34.5809 13.4191 43 24 43C34.5809 43 43 34.5724 43 24C43 13.4276 34.5809 5 24 5ZM9.12933 24.1604L23.8396 38.8623C15.7413 38.8707 9.12933 32.2587 9.12933 24.1604ZM27.3017 38.5413L9.46711 20.6898C10.9533 14.0778 16.8982 9.12089 24 9.12089C28.7627 9.13777 33.2383 11.4009 36.0587 15.2347L33.9137 17.0502C31.6423 13.7231 27.8676 11.7387 23.8396 11.7556C18.6884 11.7218 14.1031 14.9898 12.4311 19.8538L27.9689 35.4C31.7689 34.0743 34.7413 30.7724 35.5689 26.8036H29.1257V24H38.8707C38.8707 31.1017 33.9137 37.0551 27.3017 38.5413Z" fill="white"/>
</svg>
