<svg width="48" height="48" viewBox="0 0 48 48" fill="none" xmlns="http://www.w3.org/2000/svg">
<path fill-rule="evenodd" clip-rule="evenodd" d="M41.4044 20.3203L42.9999 20.3291C42.9999 20.3291 40.0335 24.3487 39.7913 24.6763C39.7127 24.7824 39.5932 24.8968 39.5326 25.0386C39.3793 25.3951 39.222 26.1771 39.222 26.1771L37.7621 26.1844C37.7621 26.1844 37.9893 25.3693 37.9799 24.9351C37.9718 24.5558 37.7781 24.1769 37.6695 23.7965C37.5597 23.4114 37.4106 22.6579 37.4106 22.6579H38.9116L39.1186 23.486L41.4044 20.3203Z" fill="white"/>
<path fill-rule="evenodd" clip-rule="evenodd" d="M38.3832 21.1681C38.6777 21.3456 38.8584 22.3248 38.8584 22.3248C38.8584 22.3248 37.3177 22.3475 36.4792 22.3475H35.7547L34.8749 26.1772H33.5293C33.5293 26.1772 34.3667 22.0153 34.5644 21.2607C34.6285 21.0164 35.0033 21.0584 35.6362 21.0584H36.6469C37.2996 21.0584 38.0624 20.975 38.3832 21.1681ZM32.1191 23.0332C32.1191 23.0332 32.161 22.7874 31.9768 22.5027C31.8194 22.2601 31.6741 22.2036 31.26 22.1906C30.091 22.1539 30.1137 23.0203 30.1137 23.0203L32.1191 23.0332ZM33.387 22.0411C33.5583 22.6591 33.2318 24.1112 33.2318 24.1112C33.2318 24.1112 31.5265 24.0827 30.5924 24.1112C30.302 24.1201 29.9544 24.0796 29.8679 24.2147C29.7462 24.4041 29.9123 24.6956 30.0531 24.8187C30.2151 24.9604 30.5307 24.9766 30.6442 24.991C31.4023 25.0873 32.989 25.0158 32.989 25.0158L32.7142 26.233C32.7142 26.233 30.4719 26.3454 29.3503 26.0777C29.1289 26.025 28.9213 25.9184 28.781 25.7673C28.7427 25.7259 28.7095 25.6695 28.6733 25.6208C28.6444 25.5819 28.5601 25.4542 28.5223 25.3532C28.2661 24.6706 28.5523 23.3629 28.8328 22.6621C28.8654 22.5809 28.9062 22.4779 28.9493 22.3904C29.0031 22.2813 29.0486 22.1581 29.0916 22.0928C29.1205 22.0478 29.1563 22.0189 29.1863 21.9764C29.221 21.9262 29.2613 21.8776 29.2986 21.8341C29.4021 21.7141 29.5196 21.6292 29.6609 21.5237C30.1281 21.1737 30.9738 20.9021 31.9897 21.0061C32.3722 21.0454 32.9498 21.182 33.2318 21.5754C33.3073 21.6804 33.3446 21.8889 33.387 22.0411ZM27.2155 21.0536L28.5203 21.0459C28.5203 21.0459 27.7931 24.4952 27.4225 26.1772H25.9216C24.8727 26.1772 23.9386 26.3071 23.5411 25.5561C23.1556 24.8269 23.5235 23.6279 23.6963 22.8132C23.8185 22.2367 24.0758 21.0583 24.0758 21.0583L25.4276 21.0459C25.4276 21.0459 25.0456 22.8805 24.8866 23.7966C24.8297 24.1247 24.7123 24.4337 24.8349 24.6763C24.9514 24.9072 25.1144 24.9237 25.6112 24.9351C25.7686 24.9388 26.284 24.9351 26.284 24.9351L27.2155 21.0536ZM21.1087 23.5377C21.2453 23.0524 21.4446 22.526 21.4193 22.0887C21.3919 21.6209 20.9996 21.195 20.7465 21.1054C19.9842 20.8363 19.2706 21.2125 18.9869 21.5194C18.62 21.9169 18.4957 22.3812 18.3658 23.0203C18.2692 23.4948 18.1899 23.9957 18.3658 24.3658C18.6773 25.02 19.6488 24.8772 20.6947 24.8834C20.85 24.4673 20.9783 24 21.1087 23.5377ZM22.9201 21.623C23.0691 22.7066 22.4973 23.9027 22.1034 24.9428C22.5051 24.9791 22.857 24.9373 22.8823 24.9672C22.9087 25.006 22.6132 26.2088 22.5101 26.2119C22.1914 26.2201 21.1352 26.2289 20.6947 26.2289C19.2575 26.2289 17.913 26.3226 17.2274 25.6079C16.9489 25.3176 16.7564 24.8196 16.7098 24.4693C16.6322 23.8845 16.7294 23.2407 16.8651 22.7098C16.9878 22.2305 17.145 21.7782 17.3826 21.3641C17.9866 20.31 19.0371 19.5275 20.7982 19.7081C21.1398 19.7433 21.6304 19.8929 21.9368 20.0704C21.958 20.0828 22.0321 20.1418 22.0491 20.1522C22.4631 20.4156 22.8404 21.0444 22.9201 21.623ZM16.5612 21.0599C16.4743 21.4557 16.3874 21.9045 16.2958 22.2957H14.8467C14.959 21.8621 15.0449 21.4309 15.1572 21.0537C15.6209 21.0537 16.0521 21.0599 16.5613 21.0599M14.7949 22.658H16.1923C16.0096 23.6693 15.6478 25.3005 15.3642 26.4359C15.1867 27.1465 15.0682 27.665 14.5879 28.0402C14.545 28.0739 14.5202 28.0579 14.4844 28.092C14.3959 28.1764 13.9865 28.2743 13.7599 28.299C13.3915 28.3389 12.9749 28.3042 12.522 28.2949C12.6405 27.8618 12.7746 27.3416 12.8802 26.9534C13.9841 27.087 14.012 26.0436 14.2257 25.0386C14.3494 24.4579 14.7241 22.8909 14.7949 22.658Z" fill="white"/>
<path fill-rule="evenodd" clip-rule="evenodd" d="M11.5345 25.2974L11.5046 25.375C10.9943 26.3687 10.0902 26.9783 8.80049 27.0052C8.19759 27.0176 7.62315 26.8629 7.24788 26.6947C6.43806 26.3308 5.75688 25.6561 5.38489 24.9351C4.85127 23.9016 4.75503 22.4639 5.86459 21.3901C5.88172 21.3901 5.72999 21.623 5.74712 21.623L5.71658 21.7223C4.91704 24.2256 7.3804 26.3708 9.775 26.1254C10.3505 26.0664 11.0843 25.7513 11.5345 25.2974Z" fill="white"/>
<path fill-rule="evenodd" clip-rule="evenodd" d="M10.0856 24.2622C10.688 24.2663 11.3173 23.9848 11.6899 23.5895C11.3639 24.417 10.4199 24.9489 9.15411 24.7798C8.09416 24.6379 7.08449 23.5714 6.98051 22.5026C6.90445 21.7248 7.17551 21.2606 7.62221 20.6975C7.46698 20.992 7.40895 21.2191 7.3945 21.364C7.22482 23.0465 8.73854 24.2534 10.0856 24.2622Z" fill="white"/>
<path fill-rule="evenodd" clip-rule="evenodd" d="M11.6292 22.1724C11.5356 22.3873 10.9964 22.7929 10.7582 22.8436C9.8153 23.0445 9.21143 22.5974 8.89509 22.0886C8.84809 22.0126 8.76116 21.8051 8.74559 21.7523C8.62291 21.3351 8.6793 20.7042 9.04525 20.3777C8.93501 20.6882 8.91893 21.0489 8.97695 21.2834C9.01211 21.4251 9.11922 21.6726 9.22641 21.8283C9.42141 22.1119 9.54514 22.1808 9.79563 22.3314C9.90848 22.3992 10.0295 22.4536 10.0818 22.4685C10.3194 22.5384 10.8208 22.7226 11.6292 22.1724Z" fill="white"/>
</svg>
