<svg width="48" height="48" viewBox="0 0 48 48" fill="none" xmlns="http://www.w3.org/2000/svg">
<path d="M22.7556 5.01023C22.6739 5.01765 22.4139 5.04365 22.1799 5.06222C16.7826 5.54876 11.7271 8.46055 8.52512 12.9359C6.74213 15.4243 5.60176 18.247 5.17087 21.2368C5.01857 22.2804 5 22.5887 5 24.0037C5 25.4188 5.01857 25.727 5.17087 26.7707C6.20352 33.9053 11.2813 39.8997 18.1681 42.1207C19.4014 42.5181 20.7015 42.7892 22.1799 42.9526C22.7556 43.0158 25.2444 43.0158 25.8201 42.9526C28.372 42.6704 30.5339 42.039 32.6661 40.9508C32.993 40.7837 33.0561 40.7391 33.0115 40.702C32.9818 40.6797 31.5889 38.8115 29.9173 36.5534L26.8788 32.4494L23.0714 26.8152C20.9763 23.7177 19.2528 21.1848 19.2379 21.1848C19.2231 21.1811 19.2082 23.6843 19.2008 26.741C19.1896 32.0929 19.1859 32.3083 19.1191 32.4345C19.0225 32.6165 18.9482 32.6908 18.7922 32.7725C18.6733 32.8319 18.5693 32.8431 18.0084 32.8431H17.3658L17.1949 32.7354C17.0835 32.6648 17.0018 32.572 16.946 32.4643L16.868 32.2971L16.8755 24.8505L16.8866 17.4002L17.0018 17.2553C17.0612 17.1774 17.1875 17.0771 17.2766 17.0288C17.4289 16.9545 17.4884 16.9471 18.131 16.9471C18.8888 16.9471 19.0151 16.9768 19.2119 17.1922C19.2676 17.2516 21.3292 20.3566 23.7957 24.0966C26.2622 27.8366 29.635 32.9434 31.2917 35.4503L34.3005 40.0074L34.4528 39.9072C35.8012 39.0306 37.2276 37.7827 38.3568 36.4828C40.7601 33.7233 42.3091 30.3584 42.8291 26.7707C42.9814 25.727 43 25.4188 43 24.0037C43 22.5887 42.9814 22.2804 42.8291 21.2368C41.7965 14.1021 36.7187 8.10772 29.8319 5.88673C28.6172 5.49305 27.3245 5.22193 25.8759 5.05851C25.5193 5.02137 23.0639 4.98051 22.7556 5.01023ZM30.5339 16.5014C30.7122 16.5905 30.8571 16.7614 30.9091 16.9397C30.9388 17.0362 30.9462 19.1012 30.9388 23.7549L30.9277 30.4327L29.7501 28.6277L28.5689 26.8227V21.9684C28.5689 18.8301 28.5838 17.0659 28.6061 16.9805C28.6655 16.7725 28.7955 16.6091 28.9738 16.5125C29.1261 16.4345 29.1818 16.4271 29.765 16.4271C30.3148 16.4271 30.4113 16.4345 30.5339 16.5014Z" fill="white"/>
</svg>
