<svg width="48" height="48" viewBox="0 0 48 48" fill="none" xmlns="http://www.w3.org/2000/svg">
<path d="M8.00704 18.4967H13.6426C15.2967 18.5105 16.4953 18.9851 17.2384 19.9196C17.9816 20.8541 18.2268 22.1306 17.9744 23.7489C17.8764 24.4884 17.659 25.2137 17.3226 25.9251C16.9956 26.643 16.5395 27.2955 15.9767 27.8502C15.2757 28.5755 14.5258 29.0358 13.7267 29.2313C12.9277 29.4267 12.1004 29.5242 11.2454 29.5242H8.722L7.92293 33.5H5L8.00704 18.4967ZM10.4673 20.8822L9.20565 27.1597C9.28976 27.1735 9.37388 27.1806 9.45799 27.1806H9.75239C11.0982 27.1944 12.2198 27.0622 13.1169 26.783C14.014 26.4901 14.6171 25.4719 14.9253 23.728C15.1777 22.2632 14.9253 21.4191 14.1683 21.196C13.4252 20.973 12.4932 20.8683 11.3716 20.8822C11.2033 20.896 11.0423 20.9031 10.8879 20.9031H10.4463L10.4673 20.8822ZM21.304 14.5H24.2059L23.3858 18.4967H25.9933C27.4233 18.5247 28.4886 18.8177 29.1896 19.3756C29.9046 19.9334 30.1149 20.9939 29.8205 22.5562L28.4116 29.5242H25.4676L26.8134 22.87C26.9535 22.1724 26.9114 21.6773 26.6873 21.3844C26.4631 21.0914 25.9795 20.9449 25.2363 20.9449L22.9022 20.924L21.1779 29.5242H18.276L21.304 14.5ZM32.9366 18.4967H38.5722C40.2263 18.5105 41.4249 18.9851 42.168 19.9196C42.9112 20.8541 43.1564 22.1306 42.904 23.7489C42.806 24.4884 42.5886 25.2137 42.2521 25.9251C41.9252 26.643 41.4691 27.2955 40.9063 27.8502C40.2053 28.5755 39.4554 29.0358 38.6563 29.2313C37.8572 29.4267 37.03 29.5242 36.175 29.5242H33.6516L32.8525 33.5H29.9296L32.9366 18.4967ZM35.3969 20.8822L34.1352 27.1597C34.2194 27.1735 34.3035 27.1806 34.3876 27.1806H34.682C36.0278 27.1944 37.1494 27.0622 38.0465 26.783C38.9436 26.4901 39.5466 25.4719 39.8549 23.728C40.1073 22.2632 39.8549 21.4191 39.0979 21.196C38.3548 20.973 37.4228 20.8683 36.3012 20.8822C36.1329 20.896 35.9718 20.9031 35.8175 20.9031H35.3759L35.3969 20.8822Z" fill="white"/>
</svg>
