<svg width="48" height="48" viewBox="0 0 48 48" fill="none" xmlns="http://www.w3.org/2000/svg">
<path d="M42.3033 19.2921C41.6502 16.6712 40.4119 14.6949 37.774 14.6949H34.3728V18.7153C34.3728 21.8366 31.7264 24.466 28.7069 24.466H19.6483C17.1715 24.466 15.1189 26.5865 15.1189 29.0717V37.7062C15.1189 40.166 17.2564 41.6079 19.6483 42.3119C22.5151 43.1516 25.2717 43.3042 28.7069 42.3119C30.9885 41.6503 33.2362 40.3186 33.2362 37.7062V34.2541H24.1861V33.1005H37.774C40.4119 33.1005 41.3873 31.26 42.3033 28.5034C43.2533 25.6619 43.2109 22.9308 42.3033 19.2921ZM29.2752 36.5527C30.2167 36.5527 30.98 37.3245 30.98 38.2745C30.98 39.2329 30.2167 40.0048 29.2752 40.0048C28.3422 40.0048 27.5703 39.2245 27.5703 38.2745C27.5788 37.316 28.3422 36.5527 29.2752 36.5527ZM19.2326 23.3294H28.2913C30.8104 23.3294 32.8206 21.2514 32.8206 18.7238V10.0808C32.8206 7.62101 30.751 5.78044 28.2913 5.36483C25.2548 4.8644 21.9553 4.88985 19.2326 5.37331C15.3988 6.05186 14.7033 7.46833 14.7033 10.0892V13.5414H23.7704V14.6949H11.3021C8.66423 14.6949 6.35716 16.281 5.6362 19.2921C4.80498 22.7442 4.77105 24.8986 5.6362 28.5034C6.28083 31.1836 7.81605 33.1005 10.4539 33.1005H13.5668V28.9614C13.5668 25.9673 16.1537 23.3294 19.2326 23.3294ZM18.6644 11.2343C17.7229 11.2343 16.9595 10.4624 16.9595 9.51247C16.968 8.55401 17.7229 7.78216 18.6644 7.78216C19.5974 7.78216 20.3692 8.5625 20.3692 9.51247C20.3692 10.4624 19.6058 11.2343 18.6644 11.2343Z" fill="white"/>
</svg>
