<svg width="48" height="48" viewBox="0 0 48 48" fill="none" xmlns="http://www.w3.org/2000/svg">
<path d="M32.1169 11.9524C30.2301 10.7625 28.4197 10.295 26.6179 9.10512C25.513 8.35719 23.9576 6.55536 22.6658 5C22.4363 7.49027 21.6884 8.50168 20.7959 9.20711C18.9856 10.652 17.8382 11.0939 16.2489 11.9524C14.906 12.6578 7.68164 17.6298 7.68164 26.894C7.68164 36.1751 15.4839 43 24.1531 43C32.7968 43 40.3186 36.7106 40.3186 27.1915C40.3186 17.6468 33.2643 12.6578 32.1169 11.9524ZM32.3294 39.6258C30.621 41.3342 24.6716 42.0651 22.4108 39.9828C22.0028 39.5748 22.4363 38.9629 22.9632 38.9629C22.9632 38.9629 24.4081 40.0933 27.3403 40.0933C29.6351 40.0933 31.25 39.4388 31.9724 38.9034C32.4909 38.5124 32.6863 39.2688 32.3294 39.6258ZM27.6973 35.1552C28.4367 34.8493 30.1621 34.8323 30.825 35.2657C31.1735 35.5037 32.1934 36.8636 31.352 37.28C30.638 37.637 31.25 35.9456 29.0997 35.9456C27.8503 35.9456 27.4423 36.3876 26.8304 36.8806C26.2354 37.3905 25.9975 37.5605 25.7935 37.28C25.2835 36.5831 27.1448 35.3847 27.6973 35.1552ZM35.5591 36.6256C34.2672 36.5406 31.6919 32.478 30.0346 32.4185C27.4083 32.342 21.1869 39.2773 16.3253 35.9881C13.0276 33.7274 15.0845 27.081 20.7279 27.047C24.9351 27.0045 27.8503 31.2116 29.9496 31.1691C31.7599 31.1436 35.2021 27.6164 36.9019 27.6164C41.0411 27.6164 38.8823 36.9061 35.5591 36.6256Z" fill="white"/>
</svg>
