<svg width="48" height="48" viewBox="0 0 48 48" fill="none" xmlns="http://www.w3.org/2000/svg">
<path d="M22.9217 31.1684C22.8861 31.2314 22.9039 31.2034 22.9217 31.1684V31.1684ZM37.714 26.0938C36.5198 26.0934 35.3415 26.3628 34.2702 26.8812C33.9199 26.1871 33.5577 25.5805 33.4983 25.1255C33.4271 24.5947 33.3499 24.2798 33.433 23.6498C33.5162 23.0199 33.8902 22.1274 33.8843 22.0633C33.8783 21.9991 33.8012 21.6783 33.0352 21.6725C32.2693 21.6666 31.6102 21.8183 31.5336 22.0166C31.3983 22.379 31.2931 22.7516 31.2189 23.1307C31.0823 23.8131 29.6876 26.2513 28.8979 27.5228C28.6367 27.027 28.417 26.5896 28.3695 26.2396C28.2982 25.7088 28.221 25.3938 28.3042 24.7639C28.3873 24.1339 28.7613 23.2415 28.7554 23.1773C28.7495 23.1132 28.6723 22.7924 27.9069 22.7865C27.1416 22.7807 26.4819 22.9324 26.4047 23.1307C26.3275 23.329 26.2444 23.7956 26.09 24.2448C25.9357 24.6939 24.0778 28.7536 23.5915 29.8093C23.3421 30.3459 23.1284 30.7776 22.974 31.0692C22.9502 31.1159 22.9324 31.145 22.9206 31.1684C22.9384 31.1392 22.9502 31.11 22.9502 31.1217C22.8196 31.3725 22.7424 31.5125 22.7424 31.5125V31.5183C22.6415 31.705 22.5287 31.8741 22.4752 31.8741C22.4396 31.8741 22.3624 31.3842 22.4931 30.7134C22.7721 29.3018 23.4312 27.1087 23.4253 27.0329C23.4193 26.992 23.5499 26.6129 22.9918 26.4087C22.4515 26.2163 22.2556 26.5371 22.2081 26.5371C22.1606 26.5371 22.1249 26.6537 22.1249 26.6537C22.1249 26.6537 22.7246 24.1806 20.9736 24.1806C19.8811 24.1806 18.3611 25.3588 17.6142 26.4262C17.1451 26.6771 16.1298 27.2195 15.061 27.797C14.6513 28.0186 14.2297 28.2461 13.8319 28.4619C13.8022 28.4328 13.7785 28.4036 13.7488 28.3744C11.6237 26.1463 7.70019 24.5714 7.86645 21.5791C7.92582 20.4884 8.31176 17.6245 15.4113 14.1481C21.2301 11.3016 25.8822 12.0832 26.6832 13.8214C27.8351 16.3004 24.1959 20.9142 18.1533 21.5791C15.8501 21.83 14.6394 20.955 14.3366 20.6284C14.0219 20.2842 13.9744 20.2667 13.8557 20.3309C13.6597 20.4359 13.7844 20.7392 13.8557 20.92C14.0338 21.3808 14.776 22.1974 16.0401 22.6057C17.1504 22.9615 19.8508 23.1598 23.1159 21.9174C26.7841 20.5292 29.6395 16.662 28.8023 13.4248C27.9497 10.1351 22.3969 9.056 17.1463 10.8875C14.0178 11.9783 10.6345 13.6931 8.20073 15.9271C5.30973 18.5869 4.84719 20.9025 5.0372 21.8708C5.71348 25.3063 10.5336 27.5462 12.4627 29.2027C12.3677 29.2552 12.2787 29.3018 12.1955 29.3485C11.2283 29.821 7.55354 31.7108 6.63381 33.7057C5.59473 35.9688 6.806 37.5903 7.60104 37.812C10.0823 38.4886 12.623 37.2695 13.9881 35.2689C15.3531 33.2682 15.1875 30.6551 14.5581 29.4652C14.5521 29.4477 14.5403 29.436 14.5343 29.4185C14.7837 29.2727 15.039 29.1269 15.2943 28.981C15.7866 28.6952 16.2675 28.4328 16.6891 28.2053C16.4516 28.8352 16.2794 29.5935 16.1903 30.6901C16.0834 31.9733 16.6238 33.6357 17.3244 34.2889C17.6332 34.5748 18.0066 34.5806 18.2382 34.5806C19.0576 34.5806 19.4257 33.9156 19.8348 33.1224C20.3395 32.1541 20.7848 31.0284 20.7848 31.0284C20.7848 31.0284 20.2267 34.0731 21.7526 34.0731C22.3102 34.0731 22.8683 33.3673 23.1183 33.0057V33.0115C23.1183 33.0115 23.1302 32.9882 23.1598 32.9415C23.2192 32.8541 23.2489 32.8016 23.2489 32.8016V32.7841C23.4745 32.4049 23.9674 31.5358 24.709 30.1009C25.6708 28.2461 26.5906 25.9305 26.5906 25.9305C26.6794 26.4395 26.8024 26.9422 26.9587 27.4353C27.125 27.9895 27.4753 28.5961 27.7543 29.1852C27.5287 29.4885 27.3921 29.6635 27.3921 29.6635C27.3926 29.668 27.3947 29.6721 27.3981 29.6751C27.22 29.9085 27.0181 30.1593 26.8103 30.4043C26.0508 31.2909 25.1477 32.3058 25.029 32.5974C24.8865 32.9416 24.9221 33.1982 25.1952 33.3965C25.3971 33.5482 25.7534 33.5715 26.1268 33.5423C26.8097 33.4957 27.2906 33.3324 27.5222 33.2274C27.9491 33.077 28.3526 32.8689 28.721 32.6091C29.4632 32.0725 29.9144 31.3025 29.8729 30.2876C29.8491 29.7276 29.665 29.1677 29.4394 28.6427C29.5047 28.5494 29.576 28.4502 29.6413 28.3511C30.8163 26.6654 31.7248 24.8152 31.7248 24.8152C31.8137 25.3242 31.9366 25.827 32.0929 26.3201C32.2354 26.7926 32.5139 27.3117 32.7692 27.8191C31.6654 28.6999 30.9826 29.7206 30.7451 30.3914C30.3057 31.6338 30.6501 32.1938 31.2973 32.3221C31.5882 32.3804 32.0039 32.2463 32.3126 32.118C32.7711 31.9679 33.2035 31.7495 33.5945 31.4705C34.3367 30.9339 35.0546 30.1814 35.0071 29.1607C34.9893 28.6999 34.8586 28.2391 34.6864 27.7958C35.6186 27.4108 36.8293 27.2009 38.3731 27.3758C41.6791 27.755 42.3263 29.7848 42.2016 30.6306C42.0769 31.4763 41.3822 31.9488 41.1507 32.0888C40.9191 32.2288 40.8479 32.2813 40.8657 32.3863C40.8954 32.5379 41.0022 32.5321 41.1982 32.4971C41.4713 32.4504 42.9314 31.8088 42.9967 30.2398C43.0917 28.2566 41.1507 26.0751 37.7122 26.0926L37.714 26.0938ZM12.2312 34.5339C11.1392 35.7063 9.60734 36.1496 8.94887 35.7763C8.2423 35.3727 8.52136 33.6473 9.8686 32.3979C10.688 31.6397 11.7443 30.9397 12.4449 30.5081C12.6052 30.4148 12.8368 30.2748 13.1218 30.1056C13.1693 30.0765 13.193 30.0648 13.193 30.0648C13.2465 30.0298 13.3059 30.0006 13.3652 29.9656C13.8575 31.7388 13.383 33.302 12.2312 34.5328V34.5339ZM20.2089 29.2027C19.8289 30.1184 19.0279 32.4516 18.541 32.3291C18.1254 32.2241 17.8701 30.4451 18.4579 28.6952C18.7548 27.8145 19.3841 26.7646 19.7582 26.3563C20.3573 25.6971 21.0164 25.4872 21.1708 25.7496C21.3786 26.0938 20.4464 28.6311 20.2089 29.2027ZM26.7996 32.2941C26.6393 32.3758 26.4908 32.4283 26.4196 32.3874C26.3661 32.3583 26.4849 32.2474 26.4849 32.2474C26.4849 32.2474 27.3102 31.3783 27.6368 30.9817C27.8268 30.7484 28.0465 30.4743 28.2834 30.1709C28.2834 30.2001 28.2893 30.2293 28.2893 30.2643C28.2816 31.3083 27.2609 32.0141 26.7978 32.2941H26.7996ZM31.8809 31.1567C31.7622 31.075 31.78 30.8009 32.1778 29.9493C32.3322 29.6168 32.6879 29.0569 33.306 28.5202C33.3759 28.7234 33.414 28.9358 33.4188 29.1502C33.4128 30.4626 32.4569 30.9525 31.8815 31.1567H31.8809Z" fill="white"/>
</svg>
