<svg width="48" height="48" viewBox="0 0 48 48" fill="none" xmlns="http://www.w3.org/2000/svg">
<path fill-rule="evenodd" clip-rule="evenodd" d="M12.8927 9.5C10.7245 9.5 9.12011 11.3181 9.19195 13.2897C9.2609 15.184 9.17132 17.6373 8.52665 19.638C7.87969 21.6442 6.7863 22.9156 5 23.0788V24.9212C6.7863 25.0847 7.87969 26.3555 8.52658 28.362C9.17132 30.3627 9.26082 32.816 9.19187 34.7103C9.12003 36.6816 10.7244 38.5 12.893 38.5H35.1102C37.2784 38.5 38.8825 36.6819 38.8106 34.7103C38.7417 32.816 38.8313 30.3627 39.4759 28.362C40.1229 26.3555 41.2136 25.0842 43 24.9212V23.0788C41.2137 22.9153 40.123 21.6445 39.4759 19.638C38.8312 17.6376 38.7417 15.184 38.8106 13.2897C38.8825 11.3184 37.2784 9.5 35.1102 9.5H12.8924H12.8927ZM30.7627 27.3514C30.7627 30.0663 28.6489 31.7128 25.141 31.7128H19.1695C18.9987 31.7128 18.8348 31.6478 18.714 31.5321C18.5933 31.4164 18.5254 31.2594 18.5254 31.0958V16.9043C18.5254 16.7406 18.5933 16.5837 18.714 16.468C18.8348 16.3523 18.9987 16.2873 19.1695 16.2873H25.107C28.032 16.2873 29.9517 17.8052 29.9517 20.1356C29.9517 21.7713 28.6603 23.2357 27.0151 23.4922V23.5775C29.2547 23.8129 30.7627 25.2989 30.7627 27.3514ZM24.4898 18.2432H21.085V22.8506H23.9527C26.1696 22.8506 27.392 21.9954 27.392 20.4668C27.3918 19.0342 26.3409 18.2432 24.4898 18.2432ZM21.085 24.6787V29.7562H24.6151C26.9233 29.7562 28.1459 28.8689 28.1459 27.2014C28.1459 25.534 26.889 24.6785 24.4667 24.6785H21.085V24.6787Z" fill="white"/>
</svg>
