<svg width="48" height="48" viewBox="0 0 48 48" fill="none" xmlns="http://www.w3.org/2000/svg">
<path d="M30.2509 17.6691C31.9083 17.6691 33.4978 17.0018 34.6697 15.8138C35.8416 14.6258 36.5 13.0146 36.5 11.3346C36.5 9.65454 35.8416 8.04331 34.6697 6.85535C33.4978 5.66739 31.9083 5 30.2509 5L17.7527 5C16.0964 5 14.5078 5.667 13.3366 6.85427C12.1653 8.04153 11.5073 9.65181 11.5073 11.3309C11.5073 13.0099 12.1653 14.6202 13.3366 15.8075C14.5078 16.9947 16.0964 17.6617 17.7527 17.6617C16.0954 17.6617 14.5059 18.3291 13.334 19.5171C12.162 20.705 11.5037 22.3163 11.5037 23.9963C11.5037 25.6763 12.162 27.2875 13.334 28.4755C14.5059 29.6635 16.0954 30.3309 17.7527 30.3309C16.5168 30.3301 15.3084 30.7009 14.2803 31.3964C13.2523 32.0918 12.4507 33.0807 11.9771 34.2379C11.5034 35.3951 11.379 36.6687 11.6194 37.8976C11.8598 39.1265 12.4543 40.2556 13.3277 41.142C14.2012 42.0284 15.3143 42.6324 16.5264 42.8776C17.7384 43.1227 18.995 42.998 20.1371 42.5192C21.2793 42.0405 22.2557 41.2291 22.943 40.1878C23.6302 39.1465 23.9974 37.922 23.9982 36.6691V17.6691H30.2509ZM30.2509 17.6691C29.0157 17.6691 27.8082 18.0404 26.7811 18.7361C25.7541 19.4317 24.9536 20.4205 24.4809 21.5773C24.0082 22.7341 23.8845 24.007 24.1255 25.2351C24.3665 26.4632 24.9613 27.5912 25.8347 28.4766C26.7082 29.362 27.821 29.9649 29.0325 30.2092C30.244 30.4535 31.4997 30.3281 32.6409 29.849C33.7821 29.3698 34.7575 28.5583 35.4438 27.5172C36.1301 26.4761 36.4963 25.2521 36.4963 24C36.4961 22.321 35.8381 20.7108 34.6669 19.5236C33.4957 18.3364 31.9072 17.6693 30.2509 17.6691Z" fill="white"/>
</svg>
