<svg width="48" height="48" viewBox="0 0 48 48" fill="none" xmlns="http://www.w3.org/2000/svg">
<path d="M7.70067 23.9995C7.70067 30.2815 11.4498 35.7102 16.8866 38.2828L9.1118 17.5408C8.1798 19.573 7.69893 21.7739 7.70067 23.9995ZM35.0026 23.1986C35.0026 21.2373 34.279 19.879 33.6585 18.8218C32.8322 17.5145 32.0578 16.4074 32.0578 15.1001C32.0578 13.6412 33.1942 12.2831 34.7949 12.2831C34.8671 12.2831 34.9355 12.2919 35.006 12.2959C32.1063 9.70903 28.2429 8.12968 23.9996 8.12968C18.3055 8.12968 13.2959 10.9744 10.3815 15.2831C10.7639 15.2943 11.1242 15.302 11.4304 15.302C13.1351 15.302 15.7741 15.1007 15.7741 15.1007C16.6528 15.0502 16.7564 16.3068 15.8787 16.408C15.8787 16.408 14.9956 16.5092 14.0131 16.5592L19.9488 33.7498L23.5156 23.3335L20.9762 16.5588C20.0985 16.5087 19.267 16.4076 19.267 16.4076C18.3888 16.3574 18.4917 15.0498 19.37 15.1003C19.37 15.1003 22.0617 15.3017 23.6632 15.3017C25.3678 15.3017 28.007 15.1003 28.007 15.1003C28.8861 15.0498 28.9896 16.3063 28.1116 16.4076C28.1116 16.4076 27.2268 16.5087 26.246 16.5588L32.1362 33.6191L33.7619 28.3292C34.4664 26.1341 35.0027 24.5575 35.0027 23.1987L35.0026 23.1986ZM24.2856 25.3878L19.3953 39.2244C20.8905 39.6531 22.441 39.8709 23.9996 39.8709C25.8976 39.8709 27.7177 39.5514 29.4121 38.9713C29.3669 38.9019 29.3281 38.8287 29.2961 38.7527L24.2856 25.3878ZM38.3012 16.3854C38.3713 16.8909 38.4111 17.4335 38.4111 18.0173C38.4111 19.6278 38.1022 21.4381 37.1717 23.7018L32.1931 37.7178C37.0387 34.9664 40.2978 29.8548 40.2978 23.9999C40.2981 21.2407 39.5744 18.646 38.3012 16.3854ZM23.9996 5.5C13.5234 5.5 5 13.7988 5 23.9995C5 34.2015 13.5234 42.5 23.9996 42.5C34.4754 42.5 43 34.2015 43 23.9995C42.9999 13.7988 34.4754 5.5 23.9996 5.5ZM23.9996 41.6521C14.004 41.6521 5.87112 33.7331 5.87112 23.9995C5.87112 14.2666 14.0035 6.34822 23.9996 6.34822C33.995 6.34822 42.1271 14.2666 42.1271 23.9995C42.1271 33.7331 33.995 41.6521 23.9996 41.6521Z" fill="white"/>
</svg>
