<svg width="48" height="48" viewBox="0 0 48 48" fill="none" xmlns="http://www.w3.org/2000/svg">
<path d="M8 20.9797C8.00919 12.1429 15.1842 4.98886 24.0223 5.00001C32.8604 5.01117 40.0118 12.1843 40 21.021C39.9882 29.8578 32.8289 37 24 37C15.1587 36.9954 7.99541 29.8236 8 20.9823V20.9797ZM23.6758 26.4582C22.4345 26.4945 21.1934 26.3833 19.9783 26.1268C19.5365 26.0368 19.1226 25.8424 18.7712 25.5598C18.4198 25.2773 18.1411 24.9148 17.9583 24.5025C17.5965 23.6682 17.4215 22.3815 17.4333 20.6423C17.4399 19.7336 17.4969 18.8259 17.6039 17.9234C17.7081 17.0444 17.8122 16.3201 17.9163 15.7505L18.0259 15.1841C18.0272 15.1675 18.0272 15.1508 18.0259 15.1342C18.0257 15.0577 17.9987 14.9837 17.9497 14.925C17.9007 14.8663 17.8327 14.8266 17.7575 14.8126L15.6935 14.4911H15.6489C15.5759 14.4918 15.5052 14.5168 15.448 14.5622C15.3908 14.6076 15.3505 14.6708 15.3332 14.7418C15.2978 14.873 15.2774 14.9721 15.2157 15.2871C15.0976 15.8948 14.9887 16.4875 14.8673 17.3518C14.74 18.2905 14.6624 19.2353 14.6349 20.1823C14.5897 20.8419 14.5897 21.5039 14.6349 22.1636C14.6835 23.9136 14.9841 25.3124 15.5367 26.3598C16.0893 27.4072 17.0251 28.1602 18.3442 28.6187C19.6633 29.0785 21.5009 29.3036 23.8569 29.294H24.1536C26.5122 29.3036 28.3498 29.0785 29.6663 28.6187C30.9828 28.1589 31.9186 27.4059 32.4738 26.3598C33.0264 25.3124 33.3272 23.9136 33.3762 22.1636C33.4208 21.5039 33.4208 20.842 33.3762 20.1823C33.3485 19.2353 33.2707 18.2905 33.1432 17.3518C33.0225 16.4986 32.9129 15.908 32.7954 15.2871C32.7298 14.9721 32.7127 14.8743 32.6773 14.7418C32.6607 14.6705 32.6204 14.6069 32.5631 14.5614C32.5058 14.5159 32.4348 14.4911 32.3616 14.4911H32.3084L30.2445 14.8126C30.1684 14.8253 30.0994 14.8646 30.0497 14.9235C30 14.9824 29.973 15.0571 29.9734 15.1342C29.9721 15.1508 29.9721 15.1675 29.9734 15.1841L30.0824 15.7505C30.1865 16.3219 30.2917 17.0462 30.398 17.9234C30.5035 18.826 30.5596 19.7336 30.566 20.6423C30.5835 22.3784 30.4085 23.664 30.041 24.4993C29.8597 24.9109 29.5828 25.2733 29.2333 25.5563C28.8838 25.8394 28.4718 26.035 28.0315 26.1268C26.8174 26.3839 25.5771 26.4958 24.3367 26.4602L23.6758 26.4582Z" fill="white"/>
<path d="M36.3276 44.2177C36.3276 42.9448 36.6899 42.0518 38.1639 42.0518C39.6378 42.0518 40.0001 42.9448 40.0001 44.2177C40.0001 45.4906 39.6378 46.383 38.1657 46.383C36.6936 46.383 36.3276 45.4912 36.3276 44.2177ZM39.0636 44.2177C39.0636 43.3325 38.9489 42.8289 38.1639 42.8289C37.3789 42.8289 37.2618 43.3337 37.2618 44.2177C37.2618 45.1017 37.3783 45.6065 38.1639 45.6065C38.9495 45.6065 39.0636 45.0999 39.0636 44.2177Z" fill="white"/>
<path d="M10.8953 46.2206C10.9061 46.2392 10.9216 46.2546 10.9403 46.2652C10.959 46.2758 10.9801 46.2813 11.0016 46.281H11.3452C11.3772 46.281 11.4079 46.2682 11.4306 46.2456C11.4532 46.2229 11.466 46.1922 11.466 46.1602V42.2734C11.466 42.2413 11.4532 42.2106 11.4306 42.188C11.4079 42.1653 11.3772 42.1526 11.3452 42.1526H10.6611C10.629 42.1526 10.5983 42.1653 10.5757 42.188C10.553 42.2106 10.5403 42.2413 10.5403 42.2734V45.3583C10.2485 45.5231 9.91772 45.6065 9.58263 45.5998C9.14486 45.5998 8.9305 45.4096 8.9305 44.9882V42.2734C8.9305 42.2413 8.91777 42.2106 8.89513 42.188C8.87248 42.1653 8.84176 42.1526 8.80973 42.1526H8.12077C8.08874 42.1526 8.05802 42.1653 8.03537 42.188C8.01272 42.2106 8 42.2413 8 42.2734V45.0685C8 45.8619 8.37196 46.3818 9.42141 46.3818C9.90091 46.377 10.3678 46.2273 10.7607 45.9525L10.8815 46.226L10.8953 46.2206Z" fill="white"/>
<path d="M18.6087 43.3651C18.6087 42.5801 18.2204 42.0505 17.2404 42.0505C16.7683 42.0519 16.3075 42.1947 15.9174 42.4605C15.7441 42.2051 15.4126 42.0505 14.8589 42.0505C14.4087 42.0594 13.9727 42.2096 13.6126 42.4799L13.4918 42.2063C13.4811 42.1876 13.4655 42.1722 13.4467 42.1615C13.4279 42.1509 13.4066 42.1455 13.385 42.1459H13.039C13.0069 42.1459 12.9762 42.1587 12.9536 42.1813C12.9309 42.204 12.9182 42.2347 12.9182 42.2667V46.1554C12.9182 46.1874 12.9309 46.2181 12.9536 46.2407C12.9762 46.2634 13.0069 46.2761 13.039 46.2761H13.7231C13.7551 46.2761 13.7859 46.2634 13.8085 46.2407C13.8312 46.2181 13.8439 46.1874 13.8439 46.1554V43.0758C14.1053 42.9174 14.4053 42.8338 14.711 42.8343C15.0835 42.8343 15.2979 42.9714 15.2979 43.3639V46.1614C15.2979 46.1934 15.3106 46.2241 15.3333 46.2468C15.3559 46.2694 15.3866 46.2822 15.4187 46.2822H16.1028C16.1348 46.2822 16.1655 46.2694 16.1882 46.2468C16.2108 46.2241 16.2236 46.1934 16.2236 46.1614V43.0758C16.4843 42.9143 16.7857 42.8305 17.0925 42.8343C17.4548 42.8343 17.6794 42.9714 17.6794 43.3639V46.159C17.6794 46.191 17.6921 46.2217 17.7148 46.2444C17.7374 46.267 17.7681 46.2797 17.8002 46.2797H18.4843C18.5163 46.2797 18.547 46.267 18.5697 46.2444C18.5923 46.2217 18.6051 46.191 18.6051 46.159L18.6087 43.3651Z" fill="white"/>
<path d="M20.7239 45.9538C21.1117 46.2412 21.5837 46.3922 22.0662 46.3831C23.2739 46.3831 23.7189 45.5734 23.7189 44.2178C23.7189 42.8622 23.2696 42.0495 22.0662 42.0495C21.6739 42.0512 21.29 42.1631 20.9582 42.3725V41.1244C20.9587 41.1082 20.9559 41.0921 20.9501 41.0771C20.9442 41.062 20.9354 41.0482 20.9241 41.0366C20.9129 41.025 20.8994 41.0158 20.8845 41.0095C20.8696 41.0032 20.8536 41 20.8374 41H20.1479C20.1158 41 20.0851 41.0127 20.0625 41.0354C20.0398 41.058 20.0271 41.0887 20.0271 41.1208V46.1615C20.0271 46.1935 20.0398 46.2243 20.0625 46.2469C20.0851 46.2696 20.1158 46.2823 20.1479 46.2823H20.4914C20.5129 46.2826 20.5341 46.2771 20.5528 46.2665C20.5715 46.2559 20.587 46.2405 20.5977 46.2219L20.7239 45.9538ZM21.847 45.5981C21.5336 45.5983 21.2257 45.5149 20.9552 45.3566V43.076C21.2257 42.9177 21.5336 42.8343 21.847 42.8344C22.6568 42.8344 22.7818 43.4546 22.7818 44.2154C22.7818 44.9762 22.661 45.5957 21.8482 45.5957L21.847 45.5981Z" fill="white"/>
<path d="M27.1384 42.8645C27.0319 42.8501 26.9246 42.8432 26.8172 42.844C26.4482 42.8283 26.0819 42.9139 25.7581 43.0915V46.1602C25.7581 46.1922 25.7453 46.2229 25.7227 46.2456C25.7 46.2682 25.6693 46.2809 25.6373 46.2809H24.9526C24.9205 46.2809 24.8898 46.2682 24.8672 46.2456C24.8445 46.2229 24.8318 46.1922 24.8318 46.1602V42.2733C24.8318 42.2413 24.8445 42.2106 24.8672 42.1879C24.8898 42.1653 24.9205 42.1526 24.9526 42.1526H25.2961C25.3177 42.1522 25.339 42.1575 25.3578 42.1682C25.3766 42.1788 25.3922 42.1943 25.403 42.213L25.5238 42.4865C25.8988 42.2007 26.359 42.0494 26.8305 42.0572C26.9391 42.0571 27.0476 42.0662 27.1547 42.0843C27.2151 42.0843 27.267 42.187 27.267 42.2528V42.7479C27.267 42.78 27.2543 42.8107 27.2316 42.8333C27.209 42.856 27.1783 42.8687 27.1463 42.8687H27.1366" fill="white"/>
<path d="M29.5103 44.3746C29.0997 44.4241 28.8564 44.5799 28.8564 45.011C28.8564 45.3256 28.9928 45.6227 29.4922 45.6227C29.8086 45.6256 30.118 45.5298 30.3774 45.3486V44.2792L29.5103 44.3746ZM30.6045 45.9536C30.2489 46.2333 29.8093 46.3846 29.357 46.3829C28.29 46.3829 27.9355 45.7224 27.9355 45.06C27.9355 44.1669 28.514 43.7865 29.4487 43.7128L30.375 43.6386V43.432C30.375 43.0094 30.1763 42.8451 29.5647 42.8451C29.1806 42.8452 28.7992 42.909 28.4361 43.0341C28.4235 43.0359 28.4107 43.0359 28.3981 43.0341C28.366 43.0341 28.3353 43.0214 28.3127 42.9988C28.29 42.9761 28.2773 42.9454 28.2773 42.9134V42.3663C28.2766 42.341 28.2839 42.3162 28.2981 42.2953C28.3123 42.2744 28.3327 42.2585 28.3564 42.2498C28.7677 42.1113 29.199 42.0415 29.6329 42.0432C30.9885 42.0432 31.3019 42.638 31.3019 43.5154V46.1529C31.3019 46.1849 31.2892 46.2156 31.2665 46.2383C31.2439 46.2609 31.2131 46.2737 31.1811 46.2737H30.8381C30.8166 46.2741 30.7953 46.2687 30.7765 46.2581C30.7577 46.2474 30.7421 46.232 30.7313 46.2133L30.6045 45.9536Z" fill="white"/>
<path d="M35.3146 45.4305C35.3269 45.4287 35.3393 45.4287 35.3515 45.4305C35.3835 45.4305 35.4142 45.4432 35.4369 45.4659C35.4595 45.4885 35.4722 45.5192 35.4722 45.5513V46.0996C35.4726 46.1238 35.4657 46.1476 35.4523 46.1679C35.4389 46.1881 35.4198 46.2039 35.3974 46.2131C35.0561 46.3355 34.6953 46.3944 34.3328 46.387C32.8691 46.387 32.4175 45.5102 32.4175 44.221C32.4175 42.9319 32.8649 42.0557 34.3328 42.0557C34.6925 42.0462 35.0508 42.1027 35.3901 42.2224C35.4131 42.2314 35.4328 42.2472 35.4465 42.2677C35.4602 42.2882 35.4673 42.3124 35.4668 42.3371V42.8848C35.4668 42.9168 35.4541 42.9475 35.4314 42.9702C35.4088 42.9928 35.3781 43.0055 35.346 43.0055C35.333 43.0068 35.3198 43.0068 35.3068 43.0055C35.0085 42.9115 34.6968 42.8675 34.3841 42.8751C33.5823 42.8751 33.3498 43.4222 33.3498 44.2229C33.3498 45.0235 33.5823 45.57 34.3841 45.57C34.6969 45.5758 35.0085 45.5297 35.3062 45.4335" fill="white"/>
</svg>
