<svg width="48" height="48" viewBox="0 0 48 48" fill="none" xmlns="http://www.w3.org/2000/svg">
<path d="M40.5728 5H7.42719C6.08622 5 5 6.08622 5 7.42719V40.5728C5 41.9102 6.08622 43 7.42719 43H40.5728C41.9102 43 43 41.9138 43 40.5728V7.42365C42.9965 6.08622 41.9102 5 40.5728 5ZM22.2521 26.4166C22.2521 27.4709 22.1531 28.3732 21.9514 29.1162C21.7497 29.8592 21.4454 30.4536 21.0421 30.9207C20.6352 31.3806 20.1292 31.7203 19.5242 31.9326C18.9192 32.1484 18.2151 32.2546 17.4119 32.2546C16.7043 32.2546 16.0674 32.1413 15.4942 31.922C14.3726 31.5009 13.4952 30.5987 13.1095 29.4665C12.8831 28.8331 12.7734 28.168 12.784 27.4957V27.0216H15.059C15.059 29.141 15.8445 30.2024 17.4155 30.2024C17.8188 30.2024 18.1726 30.1564 18.4911 30.0609C18.806 29.9618 19.0713 29.7849 19.2907 29.516C19.5101 29.2507 19.6728 28.8827 19.786 28.405C19.8993 27.9274 19.9559 27.3082 19.9559 26.5404V14.6804H22.2592L22.2521 26.4166ZM34.9577 29.8592C34.7171 30.3439 34.3775 30.7721 33.96 31.1153C33.4929 31.4903 32.9551 31.7769 32.3819 31.9538C31.7628 32.152 31.0693 32.251 30.3015 32.251C26.9013 32.251 25.1074 30.9101 24.9235 28.221H27.1596C27.1702 29.7389 28.2104 30.4996 30.2767 30.4996C30.7367 30.4996 31.1471 30.4501 31.4974 30.3475C31.8512 30.2484 32.1449 30.1069 32.3784 29.93C32.8348 29.6009 33.1037 29.0737 33.1002 28.5112C33.1108 28.2635 33.0613 28.0194 32.9622 27.7929C32.8702 27.6089 32.6898 27.4497 32.4244 27.3082C32.0706 27.1348 31.7026 26.9968 31.3205 26.8978C30.7084 26.7209 30.0927 26.551 29.4736 26.3918C28.7341 26.2078 28.0937 26.0238 27.5594 25.8398C27.0853 25.6912 26.6395 25.4683 26.2361 25.1747C25.9 24.9235 25.6346 24.5909 25.4683 24.2088C25.302 23.8231 25.2207 23.3384 25.2207 22.7546C25.2207 22.2415 25.3304 21.7639 25.5462 21.3216C25.7655 20.8829 26.0734 20.5007 26.4838 20.1752C26.8871 19.8533 27.379 19.602 27.9521 19.4181C28.5749 19.227 29.2259 19.135 29.8769 19.1421C33.1639 19.1421 34.8374 20.3097 34.887 22.6484H32.6862C32.6084 21.4808 31.7274 20.8935 30.0432 20.8935C29.6682 20.8935 29.325 20.9324 29.003 21.0067C28.681 21.081 28.4086 21.1872 28.1715 21.3287C27.9345 21.4667 27.754 21.64 27.6196 21.8453C27.4886 22.0575 27.4179 22.3052 27.425 22.5564C27.425 22.8006 27.4568 23.0022 27.5169 23.1579C27.5771 23.3171 27.7222 23.4622 27.9557 23.5966C28.1857 23.7311 28.5289 23.8655 28.9817 23.9965C29.4346 24.1274 30.0538 24.2901 30.8393 24.4812C31.5965 24.6652 32.2581 24.8527 32.8171 25.0508C33.3726 25.249 33.8361 25.486 34.2112 25.7655C34.5827 26.0415 34.8551 26.3847 35.0356 26.7845C35.2125 27.1844 35.3045 27.6868 35.3045 28.2883C35.3115 28.8579 35.1912 29.378 34.9577 29.8592Z" fill="white"/>
</svg>
