<svg width="140" height="150" viewBox="0 0 140 150" fill="none" xmlns="http://www.w3.org/2000/svg">
<path fill-rule="evenodd" clip-rule="evenodd" d="M54.9891 15.5313C63.8531 8.16726 76.7263 8.15634 85.6024 15.498L85.8495 15.4463C97.8572 12.9 109.851 19.825 113.65 31.4971L113.782 31.9023C125.042 35.7525 131.768 47.2764 129.616 58.9512C137.443 68.025 137.376 81.5132 129.42 90.5137L129.491 90.8496C132.037 102.857 125.112 114.852 113.44 118.65L113.319 118.689C109.297 129.512 98.1053 135.946 86.7206 133.962L86.367 134.281L85.9354 134.659C76.954 142.363 63.6786 142.363 54.6971 134.659L54.2655 134.281L53.8788 133.934C42.4124 136.011 31.1065 129.534 27.0897 118.615C15.4797 114.78 8.60285 102.822 11.1415 90.8496L11.1747 90.6924L11.1561 90.6719C3.07566 81.6886 2.95023 68.1282 10.7782 59.002L10.9832 58.7666C8.94859 47.2312 15.5608 35.8809 26.6297 31.9775L26.787 31.4971C30.5857 19.825 42.5801 12.9002 54.5877 15.4463L54.9891 15.5313ZM75.1971 131.537C71.9147 130.841 68.5225 130.841 65.2401 131.537L55.1043 133.686C63.7821 141.341 76.7987 141.352 85.4891 133.719L75.1971 131.537ZM28.3172 119.017C32.2998 128.786 42.4703 134.607 52.9256 133.076L46.1698 126.998C43.6752 124.754 40.7373 123.058 37.5467 122.02L28.3172 119.017ZM103.086 122.02L102.49 122.223C99.5294 123.273 96.8014 124.894 94.4627 126.998L87.6776 133.102C98.0486 134.544 108.108 128.763 112.09 119.089L103.086 122.02ZM75.4051 18.6836C71.9859 19.4086 68.4523 19.4086 65.0331 18.6836L55.2625 16.6113C55.1526 16.7066 55.043 16.8027 54.9344 16.9004L46.8387 24.1826C44.2401 26.5201 41.1799 28.2865 37.8563 29.3682L27.5018 32.7383C27.4771 32.7463 27.4523 32.7546 27.4276 32.7627L24.369 42.1611C23.2873 45.4848 21.52 48.5449 19.1825 51.1436L12.0565 59.0645C12.0773 59.1697 12.0976 59.2756 12.12 59.3809L14.3788 70.0332C15.1036 73.4521 15.1037 76.9854 14.3788 80.4043L12.2586 90.4014L19.1825 98.0996C21.5198 100.698 23.2863 103.758 24.368 107.081L27.7381 117.436C27.7799 117.564 27.8242 117.691 27.868 117.818L37.8563 121.069C41.1799 122.151 44.2402 123.917 46.8387 126.255L54.1786 132.857C54.2458 132.844 54.3135 132.832 54.3807 132.817L65.0331 130.559C68.4523 129.834 71.9859 129.834 75.4051 130.559L86.0575 132.817C86.1775 132.843 86.2978 132.865 86.4178 132.889L93.7938 126.255C96.3924 123.917 99.4525 122.151 102.776 121.069L112.544 117.89C112.596 117.739 112.649 117.588 112.699 117.436L116.069 107.081C117.151 103.757 118.918 100.697 121.256 98.0986L128.336 90.2266L126.254 80.4043C125.529 76.9854 125.529 73.4522 126.254 70.0332L128.513 59.3809C128.522 59.3348 128.53 59.2882 128.54 59.2422C128.539 59.2412 128.538 59.2403 128.537 59.2393L121.255 51.1436C118.917 48.5451 117.151 45.4855 116.069 42.1621L112.986 32.6914L102.776 29.3682C99.4527 28.2865 96.3924 26.52 93.7938 24.1826L85.6981 16.9004C85.577 16.7915 85.4546 16.684 85.3319 16.5781L75.4051 18.6836ZM121.999 98.7676L121.584 99.2412C119.545 101.631 117.994 104.4 117.02 107.391L113.732 117.492C124.43 113.685 130.762 102.611 128.589 91.4404L121.999 98.7676ZM12.0067 91.6182C9.94905 102.651 16.1712 113.552 26.6786 117.412L23.4178 107.391C22.4443 104.399 20.8933 101.63 18.8543 99.2402L18.4393 98.7676L12.0067 91.6182ZM11.2323 60.0156C4.18988 68.573 4.25846 80.9815 11.4344 89.4658L13.4002 80.1973C14.0527 77.1202 14.0941 73.9465 13.5233 70.8574L13.4002 70.2402L11.2323 60.0156ZM127.232 70.2402L127.109 70.8574C126.538 73.9465 126.58 77.1202 127.232 80.1973L129.158 89.2812C136.128 80.8655 136.195 68.6951 129.359 60.207L127.232 70.2402ZM117.02 41.8516L117.223 42.4473C118.273 45.408 119.895 48.136 121.999 50.4746L128.761 57.9922C130.355 47.3224 124.287 36.9356 114.173 33.1045L117.02 41.8516ZM26.2352 33.1914C16.3143 37.0675 10.3562 47.2814 11.8416 57.8066L18.4393 50.4756C20.5431 48.1368 22.1655 45.4082 23.2157 42.4473L23.4178 41.8525L26.2352 33.1914ZM54.0418 16.3564C42.7251 14.1313 31.4965 20.6425 27.8133 31.584L37.5467 28.418C40.538 27.4444 43.3072 25.8926 45.6971 23.8535L46.1698 23.4395L54.0418 16.3564ZM112.599 31.5137C108.909 20.666 97.793 14.1963 86.5545 16.3252L94.4627 23.4395C96.9573 25.6833 99.8953 27.3796 103.086 28.418L112.599 31.5137ZM84.3358 15.7666C76.0702 9.40073 64.507 9.41092 56.2528 15.7988L65.2411 17.7061C68.5233 18.402 71.9158 18.4021 75.1981 17.7061L84.3358 15.7666Z" fill="white"/>
<path d="M44.4748 83.854V66.2759H48.7404V68.2329C48.9436 67.5532 49.3029 67.022 49.8186 66.6392C50.3342 66.2563 50.9826 66.0649 51.7639 66.0649V69.5688C51.4201 69.5688 51.01 69.6079 50.5334 69.686C50.0568 69.7563 49.6389 69.8579 49.2795 69.9907C48.9201 70.1157 48.7404 70.2563 48.7404 70.4126V83.854H44.4748ZM65.1054 65.1978V61.7056H69.3007V65.1978H65.1054ZM65.9961 86.9009C65.1054 86.9009 64.5117 86.7993 64.2148 86.5962V83.7837C64.3554 83.8228 64.4843 83.8423 64.6015 83.8423C64.8281 83.8423 64.9687 83.7642 65.0234 83.6079C65.0781 83.4517 65.1054 83.2524 65.1054 83.0103V66.2759H69.3007V82.8931C69.3007 84.1431 69.0507 85.1235 68.5507 85.8345C68.0586 86.5454 67.207 86.9009 65.9961 86.9009ZM82.8298 86.7837V66.2759H87.0954V68.1509C87.3532 67.5024 87.7087 66.9985 88.1618 66.6392C88.6228 66.272 89.279 66.0884 90.1306 66.0884C91.279 66.0884 92.0876 66.5063 92.5564 67.3423C93.0329 68.1782 93.2712 69.272 93.2712 70.6235V79.272C93.2712 80.1704 93.1423 80.9829 92.8845 81.7095C92.6345 82.4282 92.2361 82.9985 91.6892 83.4204C91.1501 83.8345 90.4431 84.0415 89.5681 84.0415C88.4275 84.0415 87.6032 83.354 87.0954 81.979V86.7837H82.8298ZM88.0915 80.772C88.529 80.772 88.7907 80.5532 88.8767 80.1157C88.9704 79.6782 89.0173 79.1392 89.0173 78.4985V71.6313C89.0173 70.9829 88.9704 70.4438 88.8767 70.0142C88.7907 69.5767 88.529 69.3579 88.0915 69.3579C87.6384 69.3579 87.3571 69.5806 87.2478 70.0259C87.1462 70.4634 87.0954 70.9985 87.0954 71.6313V78.4985C87.0954 79.1313 87.1462 79.6704 87.2478 80.1157C87.3571 80.5532 87.6384 80.772 88.0915 80.772Z" fill="white"/>
<path fill-rule="evenodd" clip-rule="evenodd" d="M32.232 52.1475C34.6353 45.239 40.0981 39.7755 47.006 37.3708C53.0415 31.3136 61.9044 28.9266 70.1637 31.127C77.7479 29.4727 85.7126 31.6137 91.4466 36.8481C98.9959 39.1746 104.945 45.1122 107.287 52.6544C113.22 58.6736 115.552 67.4314 113.393 75.6063C114.787 82.8228 112.776 90.3228 107.96 95.8749C105.787 104.295 99.1764 110.912 90.7589 113.093C85.1523 118.022 77.5215 120.067 70.2017 118.599C62.1913 120.615 53.6573 118.343 47.711 112.615C39.9234 110.306 33.799 104.164 31.5138 96.3666C26.4823 90.7165 24.4062 82.9734 25.935 75.5642C23.6467 67.2145 26.0629 58.2247 32.232 52.1475ZM102.405 100.6C99.7674 102.315 97.4935 104.53 95.7128 107.118L95.364 107.641L95.0367 108.144C94.2307 109.383 93.3265 110.525 92.3423 111.566C98.917 109.26 104.117 104.06 106.426 97.4866C105.493 98.3783 104.479 99.2062 103.384 99.9553L102.907 100.273L102.405 100.6ZM47.5529 38.2422C46.5101 39.3101 45.5571 40.4934 44.7155 41.7881L44.3888 42.2915C42.4837 45.2219 39.9844 47.72 37.054 49.625L36.552 49.953C35.297 50.7689 34.1461 51.6884 33.1041 52.6937C32.451 54.6337 32.0473 56.6899 31.9344 58.8243L31.9019 59.423C31.7173 62.9134 30.8031 66.3269 29.2178 69.4419L28.9457 69.9764C28.0313 71.7733 27.3741 73.6389 26.9632 75.529C27.3641 76.9344 27.9047 78.3198 28.5901 79.6667L28.8615 80.2018C30.4467 83.3168 31.3616 86.7298 31.5463 90.2201L31.578 90.8195C31.6703 92.563 31.9562 94.2543 32.4136 95.8728C33.7147 97.3047 35.2168 98.5922 36.9076 99.6915L37.411 100.018C40.3414 101.923 42.8401 104.422 44.7451 107.352L45.0718 107.856C45.9987 109.282 47.0604 110.573 48.2289 111.723C49.8621 112.188 51.5696 112.479 53.3306 112.572L53.9299 112.604C57.4203 112.788 60.8338 113.703 63.9489 115.288L64.4827 115.561C66.3247 116.498 68.2394 117.164 70.1782 117.573C71.745 117.162 73.2898 116.579 74.7868 115.818L75.3213 115.545C78.4362 113.96 81.8494 113.045 85.3396 112.861L85.9389 112.829C87.4271 112.75 88.8776 112.53 90.2769 112.183C91.7492 110.861 93.0727 109.329 94.1977 107.599L94.525 107.096C96.4301 104.166 98.9281 101.666 101.859 99.7612L102.362 99.4346C104.138 98.2798 105.704 96.9152 107.05 95.3957C107.394 94.002 107.613 92.5581 107.691 91.0764L107.723 90.477C107.908 86.9868 108.823 83.5737 110.408 80.4587L110.68 79.9243C111.401 78.508 111.96 77.0484 112.366 75.5684C111.961 73.5772 111.286 71.6101 110.324 69.7195L110.052 69.1851C108.466 66.07 107.552 62.6564 107.368 59.1661L107.336 58.5667C107.237 56.705 106.918 54.903 106.404 53.1854C105.3 52.0883 104.07 51.088 102.718 50.2092L102.215 49.8826C99.2844 47.9775 96.7857 45.4788 94.8807 42.5484L94.5541 42.045C93.5064 40.4335 92.2867 38.9948 90.935 37.7368C89.2263 37.2287 87.4343 36.9122 85.5833 36.8142L84.9839 36.7825C81.4935 36.5978 78.0801 35.6837 74.965 34.0983L74.4305 33.8263C73.0352 33.1162 71.5983 32.5628 70.1409 32.1579C68.3368 32.5715 66.5562 33.2093 64.839 34.0832L64.3045 34.3552C61.1895 35.9404 57.7758 36.8547 54.2856 37.0393L53.6869 37.0718C51.5512 37.1848 49.4939 37.5884 47.5529 38.2422ZM72.4093 117.928C78.1563 118.557 83.9591 116.987 88.6072 113.546C87.9352 113.655 87.2535 113.738 86.5639 113.791L85.9921 113.828L85.3927 113.86C82.2516 114.026 79.1753 114.808 76.3391 116.159L75.775 116.437L75.2405 116.709C74.3126 117.181 73.3667 117.586 72.4093 117.928ZM112.706 77.7836C112.383 78.6602 112.005 79.5266 111.572 80.3779L111.3 80.9124L111.021 81.4766C109.67 84.3128 108.889 87.389 108.722 90.5302L108.691 91.1295L108.653 91.7013C108.602 92.3751 108.521 93.0407 108.415 93.6976C111.755 89.1116 113.288 83.4256 112.706 77.7836ZM107.834 54.7439C108.096 55.9686 108.267 57.2282 108.335 58.5149L108.366 59.1136L108.408 59.7406C108.656 62.8725 109.516 65.9278 110.943 68.7314L111.215 69.2659L111.469 69.7796C112.034 70.9579 112.494 72.1632 112.853 73.3828C113.992 66.7492 112.151 59.9099 107.834 54.7439ZM49.7999 113.132C54.8693 117.275 61.5031 119.064 67.9664 118.036C66.6304 117.631 65.3127 117.105 64.029 116.452L63.4945 116.18C60.691 114.753 57.6362 113.892 54.5045 113.644L53.8768 113.603L53.2781 113.572C52.0935 113.509 50.9323 113.359 49.7999 113.132ZM33.1359 98.019C35.4819 103.988 40.2455 108.73 46.227 111.051C45.5113 110.224 44.8439 109.341 44.2328 108.4L43.9061 107.897C42.1916 105.26 39.9763 102.987 37.3882 101.207L36.8655 100.856L36.3628 100.53C35.2001 99.7746 34.1238 98.9324 33.1359 98.019ZM93.0811 38.4936C93.9175 39.421 94.6921 40.4237 95.3924 41.5009L95.719 42.0029C97.5477 44.816 99.9467 47.2147 102.76 49.0436L103.262 49.3709C104.125 49.9315 104.939 50.5407 105.705 51.1897C103.388 45.4365 98.8181 40.8425 93.0811 38.4936ZM72.2312 31.7802C73.1279 32.1086 74.0144 32.4925 74.8849 32.9355L75.4187 33.2069C78.409 34.7287 81.6858 35.6066 85.0364 35.7839L85.6351 35.8164C86.8485 35.8806 88.0376 36.0359 89.1962 36.2728C84.3669 32.6011 78.2478 30.9788 72.2312 31.7802ZM26.6069 77.6407C25.9006 83.4791 27.47 89.3949 30.9718 94.1161C30.7702 93.0581 30.6372 91.9754 30.5788 90.8727L30.5471 90.2733C30.3698 86.9225 29.4919 83.646 27.97 80.6555L27.6979 80.1211C27.2835 79.3067 26.9209 78.4782 26.6069 77.6407ZM31.5953 54.2978C27.093 59.5682 25.2027 66.6336 26.4736 73.4484C26.8783 72.1164 27.4029 70.8026 28.0542 69.5227L28.3263 68.9883C29.8482 65.9978 30.7261 62.7213 30.9034 59.3705L30.9352 58.7711C31.0163 57.2371 31.2408 55.7415 31.5953 54.2978ZM49.1846 36.7265C50.6208 36.3754 52.1082 36.1533 53.6337 36.0726L54.2331 36.0408C57.5837 35.8636 60.8605 34.9855 63.8508 33.4637L64.3853 33.1917C65.5875 32.5799 66.8197 32.0789 68.0686 31.6849C61.3512 30.4765 54.4045 32.331 49.1846 36.7265ZM45.484 39.0529C40.3409 41.3628 36.2053 45.5029 33.9024 50.6498C34.569 50.1061 35.2703 49.5919 36.0064 49.1133L36.5098 48.7867C39.323 46.9578 41.7217 44.5592 43.5505 41.746L43.8771 41.2426C44.3764 40.4747 44.9141 39.7451 45.484 39.0529Z" fill="white" fill-opacity="0.28"/>
</svg>
