<svg width="48" height="48" viewBox="0 0 48 48" fill="none" xmlns="http://www.w3.org/2000/svg">
<g clip-path="url(#clip0_399_1748)">
<path d="M22.4299 0.0373191C22.3268 0.0466931 21.9987 0.0795024 21.7034 0.102938C14.8932 0.71694 8.51411 4.39158 4.47388 10.0395C2.2241 13.1798 0.78518 16.7419 0.241483 20.515C0.0493141 21.8321 0.0258789 22.2211 0.0258789 24.0069C0.0258789 25.7926 0.0493141 26.1816 0.241483 27.4987C1.54448 36.5025 7.95167 44.0674 16.6414 46.8702C18.1975 47.3718 19.838 47.7139 21.7034 47.9201C22.4299 47.9998 25.5703 47.9998 26.2968 47.9201C29.5167 47.5639 32.2446 46.7671 34.935 45.3938C35.3474 45.1829 35.4271 45.1267 35.3709 45.0798C35.3334 45.0517 33.5757 42.6941 31.4666 39.8444L27.6326 34.6652L22.8283 27.5549C20.1848 23.646 18.0101 20.4494 17.9913 20.4494C17.9726 20.4447 17.9538 23.6038 17.9444 27.4612C17.9304 34.2152 17.9257 34.4871 17.8413 34.6464C17.7195 34.8761 17.6257 34.9698 17.4289 35.073C17.2789 35.148 17.1476 35.162 16.4399 35.162H15.629L15.4134 35.0261C15.2728 34.937 15.1697 34.8199 15.0994 34.6839L15.001 34.473L15.0104 25.0755L15.0244 15.6733L15.1697 15.4905C15.2447 15.3921 15.4041 15.2655 15.5166 15.2046C15.7087 15.1108 15.7837 15.1015 16.5946 15.1015C17.5507 15.1015 17.7101 15.139 17.9585 15.4108C18.0288 15.4858 20.6301 19.4042 23.7423 24.124C26.8545 28.8439 31.1103 35.2886 33.2008 38.4523L36.9973 44.2033L37.1894 44.0768C38.8908 42.9706 40.6907 41.3958 42.1155 39.7553C45.148 36.2728 47.1025 32.0264 47.7587 27.4987C47.9509 26.1816 47.9743 25.7926 47.9743 24.0069C47.9743 22.2211 47.9509 21.8321 47.7587 20.515C46.4557 11.5112 40.0485 3.94631 31.3588 1.14346C29.8261 0.646635 28.195 0.30448 26.3671 0.0982506C25.9171 0.0513802 22.819 -0.000177283 22.4299 0.0373191ZM32.2446 14.539C32.4696 14.6515 32.6524 14.8671 32.718 15.0921C32.7555 15.214 32.7649 17.82 32.7555 23.6928L32.7414 32.1201L31.2556 29.8422L29.7652 27.5643V21.4384C29.7652 17.4778 29.7839 15.2515 29.812 15.1437C29.887 14.8812 30.0511 14.675 30.2761 14.5531C30.4682 14.4547 30.5385 14.4453 31.2744 14.4453C31.9681 14.4453 32.0899 14.4547 32.2446 14.539Z" fill="white"/>
<path d="M36.7627 44.3064C36.5986 44.4095 36.5471 44.4799 36.6924 44.4002C36.7955 44.3392 36.9642 44.2127 36.9361 44.208C36.922 44.208 36.8423 44.2549 36.7627 44.3064ZM36.4393 44.5174C36.3549 44.583 36.3549 44.5877 36.458 44.5361C36.5142 44.508 36.5611 44.4752 36.5611 44.4658C36.5611 44.4283 36.5377 44.4377 36.4393 44.5174ZM36.2049 44.658C36.1205 44.7236 36.1205 44.7283 36.2237 44.6767C36.2799 44.6486 36.3268 44.6158 36.3268 44.6064C36.3268 44.5689 36.3033 44.5783 36.2049 44.658ZM35.9706 44.7986C35.8862 44.8642 35.8862 44.8689 35.9893 44.8173C36.0455 44.7892 36.0924 44.7564 36.0924 44.747C36.0924 44.7095 36.069 44.7189 35.9706 44.7986ZM35.6143 44.9861C35.4362 45.0798 35.4456 45.1173 35.6237 45.0282C35.7034 44.9861 35.7643 44.9439 35.7643 44.9345C35.7643 44.9017 35.7596 44.9064 35.6143 44.9861Z" fill="white" fill-opacity="0.72"/>
</g>
<defs>
<clipPath id="clip0_399_1748">
<rect width="48" height="48" fill="white"/>
</clipPath>
</defs>
</svg>
