<svg width="32" height="32" viewBox="0 0 32 32" fill="none" xmlns="http://www.w3.org/2000/svg">
<path d="M5 12.6161C5.00632 6.54088 9.93917 1.62247 16.0153 1.63014C22.0915 1.63781 27.0081 6.56931 27 12.6446C26.9919 18.7198 22.0698 23.6301 16 23.6301C9.92157 23.627 4.99684 18.6964 5 12.6179V12.6161ZM15.7771 16.3827C14.9237 16.4076 14.0704 16.3311 13.2351 16.1548C12.9313 16.0929 12.6468 15.9593 12.4052 15.765C12.1636 15.5707 11.972 15.3215 11.8463 15.0381C11.5976 14.4645 11.4773 13.5799 11.4854 12.3842C11.4899 11.7595 11.5291 11.1354 11.6027 10.515C11.6743 9.91066 11.7459 9.4127 11.8175 9.02107L11.8928 8.63169C11.8937 8.62028 11.8937 8.60881 11.8928 8.5974C11.8926 8.54482 11.8741 8.49395 11.8404 8.45358C11.8067 8.41322 11.76 8.38589 11.7083 8.37632L10.2893 8.15524H10.2586C10.2084 8.15573 10.1598 8.17294 10.1205 8.20416C10.0812 8.23538 10.0534 8.27881 10.0416 8.32759C10.0172 8.41783 10.0032 8.48596 9.96083 8.70253C9.87961 9.12033 9.80472 9.52775 9.72125 10.122C9.63374 10.7674 9.58043 11.4169 9.56152 12.068C9.53039 12.5215 9.53039 12.9766 9.56152 13.4301C9.59491 14.6333 9.80156 15.5949 10.1815 16.315C10.5614 17.0351 11.2048 17.5528 12.1116 17.868C13.0185 18.1841 14.2819 18.3389 15.9016 18.3323H16.1056C17.7271 18.3389 18.9905 18.1841 19.8956 17.868C20.8006 17.5519 21.444 17.0342 21.8258 16.315C22.2057 15.5949 22.4124 14.6333 22.4461 13.4301C22.4768 12.9766 22.4768 12.5215 22.4461 12.068C22.4271 11.4169 22.3736 10.7674 22.286 10.122C22.2029 9.53542 22.1276 9.12935 22.0468 8.70253C22.0017 8.48596 21.99 8.41873 21.9656 8.32759C21.9542 8.27858 21.9266 8.23488 21.8872 8.20358C21.8477 8.17229 21.7989 8.15525 21.7486 8.15524H21.7121L20.2931 8.37632C20.2408 8.38501 20.1933 8.41203 20.1592 8.45255C20.125 8.49306 20.1064 8.54442 20.1067 8.5974C20.1058 8.60881 20.1058 8.62028 20.1067 8.63169L20.1816 9.02107C20.2532 9.4139 20.3255 9.91187 20.3986 10.515C20.4712 11.1355 20.5097 11.7595 20.5141 12.3842C20.5262 13.5778 20.4059 14.4617 20.1532 15.0359C20.0285 15.3188 19.8382 15.568 19.5979 15.7626C19.3576 15.9572 19.0743 16.0917 18.7717 16.1548C17.937 16.3316 17.0843 16.4085 16.2315 16.384L15.7771 16.3827Z" fill="#3D3D3D"/>
<path d="M25.2458 28.7403C25.2458 27.7857 25.5176 27.116 26.6229 27.116C27.7283 27.116 28 27.7857 28 28.7403C28 29.6949 27.7283 30.3642 26.6243 30.3642C25.5203 30.3642 25.2458 29.6954 25.2458 28.7403ZM27.2977 28.7403C27.2977 28.0764 27.2116 27.6988 26.6229 27.6988C26.0343 27.6988 25.9464 28.0774 25.9464 28.7403C25.9464 29.4033 26.0338 29.7819 26.6229 29.7819C27.2121 29.7819 27.2977 29.4019 27.2977 28.7403Z" fill="#3D3D3D"/>
<path d="M6.17297 30.2423C6.18103 30.2563 6.19266 30.2678 6.20667 30.2758C6.22068 30.2838 6.23656 30.2878 6.25268 30.2876H6.51034C6.53436 30.2876 6.5574 30.2781 6.57439 30.2611C6.59137 30.2441 6.60091 30.2211 6.60091 30.1971V27.2821C6.60091 27.2581 6.59137 27.235 6.57439 27.2181C6.5574 27.2011 6.53436 27.1915 6.51034 27.1915H5.99727C5.97325 27.1915 5.95021 27.2011 5.93323 27.2181C5.91624 27.235 5.9067 27.2581 5.9067 27.2821V29.5957C5.68783 29.7193 5.43979 29.7818 5.18849 29.7768C4.86018 29.7768 4.69942 29.6342 4.69942 29.3181V27.2821C4.69942 27.2581 4.68988 27.235 4.67289 27.2181C4.65591 27.2011 4.63287 27.1915 4.60885 27.1915H4.09216C4.06814 27.1915 4.0451 27.2011 4.02811 27.2181C4.01113 27.235 4.00159 27.2581 4.00159 27.2821V29.3783C4.00159 29.9733 4.28054 30.3632 5.06758 30.3632C5.42719 30.3596 5.7773 30.2474 6.07199 30.0413L6.16256 30.2464L6.17297 30.2423Z" fill="#3D3D3D"/>
<path d="M11.9575 28.1009C11.9575 27.5122 11.6664 27.1151 10.9314 27.1151C10.5774 27.116 10.2318 27.2232 9.93922 27.4225C9.80925 27.231 9.56064 27.1151 9.14538 27.1151C8.80777 27.1217 8.48079 27.2343 8.21071 27.437L8.12014 27.2319C8.11205 27.2179 8.10035 27.2063 8.08625 27.1983C8.07215 27.1903 8.05618 27.1863 8.03999 27.1866H7.78051C7.75649 27.1866 7.73345 27.1961 7.71647 27.2131C7.69948 27.2301 7.68994 27.2531 7.68994 27.2772V30.1935C7.68994 30.2175 7.69948 30.2405 7.71647 30.2575C7.73345 30.2745 7.75649 30.2841 7.78051 30.2841H8.29358C8.3176 30.2841 8.34064 30.2745 8.35762 30.2575C8.37461 30.2405 8.38415 30.2175 8.38415 30.1935V27.884C8.58021 27.7651 8.80517 27.7025 9.03444 27.7028C9.31384 27.7028 9.4746 27.8056 9.4746 28.1V30.198C9.4746 30.222 9.48414 30.2451 9.50113 30.2621C9.51811 30.279 9.54115 30.2886 9.56517 30.2886H10.0782C10.1023 30.2886 10.1253 30.279 10.1423 30.2621C10.1593 30.2451 10.1688 30.222 10.1688 30.198V27.884C10.3644 27.7628 10.5904 27.7 10.8205 27.7028C11.0922 27.7028 11.2606 27.8056 11.2606 28.1V30.1962C11.2606 30.2202 11.2702 30.2433 11.2871 30.2602C11.3041 30.2772 11.3272 30.2868 11.3512 30.2868H11.8643C11.8883 30.2868 11.9113 30.2772 11.9283 30.2602C11.9453 30.2433 11.9548 30.2202 11.9548 30.1962L11.9575 28.1009Z" fill="#3D3D3D"/>
<path d="M13.5438 30.0422C13.8346 30.2578 14.1886 30.371 14.5505 30.3642C15.4562 30.3642 15.7899 29.7569 15.7899 28.7403C15.7899 27.7237 15.453 27.1141 14.5505 27.1141C14.2563 27.1154 13.9683 27.1994 13.7195 27.3564V26.4204C13.7199 26.4083 13.7178 26.3962 13.7134 26.3849C13.709 26.3736 13.7024 26.3633 13.694 26.3546C13.6855 26.3459 13.6754 26.339 13.6643 26.3342C13.6531 26.3295 13.6411 26.3271 13.629 26.3271H13.1118C13.0878 26.3271 13.0648 26.3366 13.0478 26.3536C13.0308 26.3706 13.0212 26.3936 13.0212 26.4177V30.198C13.0212 30.222 13.0308 30.2451 13.0478 30.262C13.0648 30.279 13.0878 30.2886 13.1118 30.2886H13.3695C13.3856 30.2888 13.4015 30.2847 13.4155 30.2768C13.4295 30.2688 13.4411 30.2572 13.4492 30.2433L13.5438 30.0422ZM14.3861 29.7755C14.151 29.7756 13.9202 29.7131 13.7173 29.5944V27.884C13.9202 27.7653 14.151 27.7027 14.3861 27.7028C14.9934 27.7028 15.0871 28.1679 15.0871 28.7385C15.0871 29.3091 14.9965 29.7737 14.387 29.7737L14.3861 29.7755Z" fill="#3D3D3D"/>
<path d="M18.3545 27.7255C18.2747 27.7147 18.1942 27.7095 18.1136 27.7101C17.8368 27.6983 17.5622 27.7625 17.3193 27.8957V30.1971C17.3193 30.2211 17.3098 30.2442 17.2928 30.2611C17.2758 30.2781 17.2527 30.2877 17.2287 30.2877H16.7152C16.6912 30.2877 16.6681 30.2781 16.6512 30.2611C16.6342 30.2442 16.6246 30.2211 16.6246 30.1971V27.2821C16.6246 27.2581 16.6342 27.2351 16.6512 27.2181C16.6681 27.2011 16.6912 27.1916 16.7152 27.1916H16.9729C16.9891 27.1913 17.005 27.1953 17.0191 27.2033C17.0332 27.2112 17.0449 27.2228 17.053 27.2369L17.1436 27.442C17.4248 27.2277 17.77 27.1142 18.1235 27.12C18.205 27.12 18.2864 27.1268 18.3667 27.1404C18.412 27.1404 18.451 27.2174 18.451 27.2667V27.6381C18.451 27.6621 18.4414 27.6851 18.4244 27.7021C18.4074 27.7191 18.3844 27.7286 18.3604 27.7286H18.3531" fill="#3D3D3D"/>
<path d="M20.1332 28.8581C19.8252 28.8952 19.6427 29.012 19.6427 29.3354C19.6427 29.5713 19.7451 29.7941 20.1196 29.7941C20.3569 29.7963 20.5889 29.7244 20.7834 29.5885V28.7865L20.1332 28.8581ZM20.9537 30.0423C20.6871 30.252 20.3574 30.3655 20.0181 30.3642C19.218 30.3642 18.9521 29.8688 18.9521 29.372C18.9521 28.7023 19.386 28.417 20.087 28.3618L20.7816 28.3061V28.1512C20.7816 27.8342 20.6327 27.711 20.1739 27.711C19.8859 27.7111 19.5999 27.759 19.3276 27.8528C19.3181 27.8541 19.3085 27.8541 19.299 27.8528C19.275 27.8528 19.252 27.8432 19.235 27.8262C19.218 27.8092 19.2085 27.7862 19.2085 27.7622V27.3519C19.208 27.333 19.2134 27.3143 19.2241 27.2987C19.2347 27.283 19.25 27.271 19.2678 27.2645C19.5762 27.1607 19.8997 27.1084 20.2251 27.1096C21.2417 27.1096 21.4768 27.5557 21.4768 28.2137V30.1917C21.4768 30.2157 21.4672 30.2388 21.4502 30.2557C21.4332 30.2727 21.4102 30.2823 21.3862 30.2823H21.129C21.1128 30.2826 21.0968 30.2785 21.0827 30.2706C21.0686 30.2626 21.0569 30.251 21.0488 30.237L20.9537 30.0423Z" fill="#3D3D3D"/>
<path d="M24.4863 29.6501C24.4955 29.6487 24.5048 29.6487 24.514 29.6501C24.538 29.6501 24.561 29.6596 24.578 29.6766C24.595 29.6936 24.6045 29.7166 24.6045 29.7406V30.1518C24.6048 30.17 24.5996 30.1879 24.5896 30.203C24.5796 30.2182 24.5652 30.23 24.5484 30.237C24.2924 30.3287 24.0219 30.3729 23.75 30.3674C22.6523 30.3674 22.3136 29.7098 22.3136 28.743C22.3136 27.7762 22.6492 27.1191 23.75 27.1191C24.0197 27.112 24.2885 27.1543 24.5429 27.2441C24.5602 27.2509 24.5749 27.2627 24.5852 27.2781C24.5955 27.2935 24.6008 27.3117 24.6005 27.3302V27.7409C24.6005 27.7649 24.5909 27.7879 24.5739 27.8049C24.557 27.8219 24.5339 27.8314 24.5099 27.8314C24.5001 27.8324 24.4902 27.8324 24.4805 27.8314C24.2568 27.7609 24.023 27.7279 23.7885 27.7336C23.1871 27.7336 23.0128 28.1439 23.0128 28.7444C23.0128 29.3449 23.1871 29.7547 23.7885 29.7547C24.0231 29.7591 24.2568 29.7245 24.48 29.6523" fill="#3D3D3D"/>
</svg>
