<svg width="48" height="48" viewBox="0 0 48 48" fill="none" xmlns="http://www.w3.org/2000/svg">
<g clip-path="url(#clip0_399_1740)">
<path d="M48 48H0V0H48V48ZM38.5918 22.0557C37.7638 21.8398 35.7845 21.7677 34.9443 21.9355C32.3523 22.4155 30.5404 24.0961 30.0244 26.4961C29.8564 27.1801 29.9157 28.8841 30.0957 29.5801C30.3357 30.3841 30.852 31.3565 31.416 31.9805C32.3999 33.0123 33.4566 33.6843 35.9404 34.7402C38.1001 35.7001 38.868 36.1322 39.252 36.6602C39.5279 37.0801 39.6123 37.332 39.6123 37.8838C39.6123 38.4838 39.4196 38.9162 38.9756 39.3242C37.9435 40.2599 35.8557 40.3683 34.2959 39.5645C33.78 39.2765 32.8922 38.4365 32.4961 37.8125L32.1836 37.3916L30.8281 38.1836L29.0283 39.2275L28.5723 39.5156C28.5243 39.5996 29.3763 40.8843 29.8203 41.3643C30.9483 42.6001 32.7843 43.56 34.7041 43.9199C35.6041 44.0759 37.5243 44.1 38.3643 43.9561C41.04 43.512 42.9116 42.1561 43.6797 40.1523C44.3637 38.3163 44.1362 35.8676 43.1162 34.3076C42.2162 32.9157 40.7277 31.9437 37.2959 30.4678C35.436 29.6518 34.8357 29.2557 34.5117 28.5957C34.3678 28.2839 34.2959 28.0674 34.2959 27.6836C34.2961 26.4238 35.2565 25.6677 36.6963 25.7637C37.6921 25.8357 38.3282 26.2205 38.9521 27.1084C39.144 27.4201 39.3357 27.6236 39.3838 27.5879C40.6437 26.8079 42.7195 25.4042 42.7197 25.332C42.6716 25.116 42.0123 24.2759 41.5684 23.7959C40.7284 22.92 39.7922 22.3681 38.5684 22.0801L38.5918 22.0557ZM10.5596 22.1279V24.0957L10.5244 24.084V26.04H16.7637V43.7998H21.1924V26.04H27.4316V24.1201C27.4316 23.0401 27.4318 22.1636 27.3838 22.1396C27.3555 22.104 23.5627 22.0918 18.96 22.0918L10.5596 22.1279Z" fill="white"/>
</g>
<defs>
<clipPath id="clip0_399_1740">
<rect width="48" height="48" rx="2" fill="white"/>
</clipPath>
</defs>
</svg>
