<svg width="48" height="48" viewBox="0 0 48 48" fill="none" xmlns="http://www.w3.org/2000/svg">
<path d="M31.9689 16.0031C34.091 16.0031 36.1262 15.1601 37.6268 13.6595C39.1274 12.1589 39.9704 10.1237 39.9704 8.00156C39.9704 5.87942 39.1274 3.84419 37.6268 2.3436C36.1262 0.843019 34.091 0 31.9689 0L15.9657 0C13.8448 0 11.8108 0.842525 10.3111 2.34223C8.81138 3.84194 7.96885 5.87597 7.96885 7.99688C7.96885 10.1178 8.81138 12.1518 10.3111 13.6515C11.8108 15.1512 13.8448 15.9938 15.9657 15.9938C13.8436 15.9938 11.8083 16.8368 10.3078 18.3374C8.80718 19.8379 7.96416 21.8732 7.96416 23.9953C7.96416 26.1175 8.80718 28.1527 10.3078 29.6533C11.8083 31.1539 13.8436 31.9969 15.9657 31.9969C14.3832 31.9959 12.8359 32.4643 11.5195 33.3428C10.2031 34.2212 9.17683 35.4703 8.57035 36.932C7.96388 38.3938 7.80448 40.0025 8.11231 41.5549C8.42014 43.1072 9.18138 44.5334 10.2998 45.6531C11.4181 46.7728 12.8434 47.5357 14.3954 47.8453C15.9474 48.155 17.5563 47.9975 19.0188 47.3927C20.4812 46.7879 21.7315 45.7631 22.6115 44.4478C23.4915 43.1324 23.9617 41.5857 23.9626 40.0031V16.0031H31.9689ZM31.9689 16.0031C30.3872 16.0031 28.8411 16.4721 27.526 17.3508C26.2109 18.2295 25.186 19.4785 24.5807 20.9397C23.9754 22.401 23.8171 24.0089 24.1256 25.5601C24.4342 27.1114 25.1958 28.5363 26.3142 29.6546C27.4326 30.773 28.8575 31.5347 30.4087 31.8432C31.96 32.1518 33.5679 31.9934 35.0291 31.3881C36.4904 30.7829 37.7393 29.7579 38.618 28.4428C39.4967 27.1277 39.9657 25.5816 39.9657 24C39.9655 21.8792 39.1229 19.8453 37.6232 18.3456C36.1236 16.846 34.0897 16.0034 31.9689 16.0031Z" fill="white"/>
</svg>
