<svg width="32" height="32" viewBox="0 0 32 32" fill="none" xmlns="http://www.w3.org/2000/svg">
<g clip-path="url(#clip0_316_206)">
<path d="M14.9533 0.0250218C14.8845 0.0312712 14.6658 0.053144 14.4689 0.0687675C9.92874 0.478103 5.67603 2.92786 2.98255 6.69312C1.48269 8.78667 0.523412 11.1614 0.160948 13.6768C0.0328354 14.5549 0.0172119 14.8142 0.0172119 16.0047C0.0172119 17.1952 0.0328354 17.4546 0.160948 18.3326C1.02961 24.3351 5.30107 29.3784 11.0943 31.247C12.1317 31.5813 13.2253 31.8094 14.4689 31.9469C14.9533 32 17.0468 32 17.5311 31.9469C19.6778 31.7094 21.4964 31.1782 23.2899 30.2627C23.5649 30.1221 23.618 30.0846 23.5805 30.0533C23.5555 30.0346 22.3838 28.4629 20.9777 26.5631L18.4217 23.1103L15.2189 18.3701C13.4565 15.7641 12.0067 13.6331 11.9942 13.6331C11.9817 13.6299 11.9692 15.736 11.9629 18.3076C11.9535 22.8103 11.9504 22.9915 11.8942 23.0978C11.8129 23.2509 11.7504 23.3134 11.6192 23.3821C11.5192 23.4321 11.4317 23.4415 10.9599 23.4415H10.4193L10.2756 23.3509C10.1818 23.2915 10.1131 23.2134 10.0662 23.1228L10.0006 22.9822L10.0069 16.7171L10.0162 10.449L10.1131 10.3271C10.1631 10.2615 10.2693 10.1772 10.3443 10.1365C10.4724 10.074 10.5224 10.0678 11.063 10.0678C11.7004 10.0678 11.8067 10.0928 11.9723 10.274C12.0192 10.324 13.7534 12.9363 15.8282 16.0828C17.903 19.2294 20.7402 23.5259 22.1338 25.635L24.6648 29.469L24.7929 29.3847C25.9272 28.6472 27.1271 27.5973 28.077 26.5037C30.0986 24.182 31.4016 21.3511 31.8391 18.3326C31.9672 17.4546 31.9828 17.1952 31.9828 16.0047C31.9828 14.8142 31.9672 14.5549 31.8391 13.6768C30.9704 7.67427 26.699 2.63102 20.9058 0.76245C19.884 0.431232 18.7966 0.203129 17.578 0.0656428C17.278 0.0343959 15.2126 2.42274e-05 14.9533 0.0250218ZM21.4964 9.69283C21.6463 9.76782 21.7682 9.91156 21.812 10.0615C21.837 10.1428 21.8432 11.8801 21.837 15.7954L21.8276 21.4136L20.8371 19.895L19.8434 18.3764V14.2924C19.8434 11.652 19.8559 10.1678 19.8746 10.0959C19.9246 9.92093 20.034 9.78344 20.184 9.7022C20.3121 9.63658 20.359 9.63033 20.8496 9.63033C21.312 9.63033 21.3932 9.63658 21.4964 9.69283Z" fill="#3D3D3D"/>
<path d="M24.5085 29.5377C24.3992 29.6065 24.3648 29.6533 24.4617 29.6002C24.5304 29.5596 24.6429 29.4752 24.6241 29.4721C24.6148 29.4721 24.5616 29.5034 24.5085 29.5377ZM24.2929 29.6783C24.2367 29.7221 24.2367 29.7252 24.3054 29.6908C24.3429 29.6721 24.3742 29.6502 24.3742 29.644C24.3742 29.619 24.3585 29.6252 24.2929 29.6783ZM24.1367 29.7721C24.0804 29.8158 24.0804 29.8189 24.1492 29.7846C24.1867 29.7658 24.2179 29.744 24.2179 29.7377C24.2179 29.7127 24.2023 29.719 24.1367 29.7721ZM23.9805 29.8658C23.9242 29.9096 23.9242 29.9127 23.9929 29.8783C24.0304 29.8596 24.0617 29.8377 24.0617 29.8314C24.0617 29.8064 24.0461 29.8127 23.9805 29.8658ZM23.743 29.9908C23.6242 30.0533 23.6305 30.0783 23.7492 30.0189C23.8023 29.9908 23.843 29.9627 23.843 29.9564C23.843 29.9346 23.8398 29.9377 23.743 29.9908Z" fill="white" fill-opacity="0.72"/>
</g>
<defs>
<clipPath id="clip0_316_206">
<rect width="32" height="32" fill="white"/>
</clipPath>
</defs>
</svg>
