<svg width="32" height="32" viewBox="0 0 32 32" fill="none" xmlns="http://www.w3.org/2000/svg">
<g clip-path="url(#clip0_322_1760)">
<path d="M32 32H0V0H32V32ZM25.7275 14.7041C25.1753 14.5602 23.8558 14.5121 23.2959 14.624C21.5679 14.944 20.3596 16.0641 20.0156 17.6641C19.9037 18.1201 19.9445 19.2557 20.0645 19.7197C20.2245 20.2557 20.5683 20.9043 20.9443 21.3203C21.6002 22.0081 22.3042 22.4563 23.96 23.1602C25.3999 23.8001 25.912 24.0884 26.168 24.4404C26.3518 24.7202 26.4082 24.8881 26.4082 25.2559C26.4082 25.6557 26.2802 25.9439 25.9844 26.2158C25.2964 26.8398 23.9042 26.9119 22.8643 26.376C22.5203 26.184 21.9281 25.624 21.6641 25.208L21.4561 24.9277L20.5518 25.4561L19.3516 26.1523L19.0479 26.3438C19.0159 26.3997 19.5839 27.2562 19.8799 27.5762C20.6318 28.4001 21.8558 29.0402 23.1357 29.2803C23.7357 29.3843 25.0162 29.3997 25.5762 29.3037C27.3601 29.0077 28.6081 28.1035 29.1201 26.7676C29.5759 25.5437 29.424 23.912 28.7441 22.8721C28.1442 21.9441 27.152 21.2964 24.8643 20.3125C23.6245 19.7686 23.2238 19.5043 23.0078 19.0645C22.9118 18.8565 22.8643 18.712 22.8643 18.4561C22.8643 17.6161 23.5039 17.1118 24.4639 17.1758C25.1279 17.2238 25.5518 17.4803 25.9678 18.0723C26.0958 18.2802 26.2239 18.4156 26.2559 18.3916C27.0959 17.8716 28.4805 16.9357 28.4805 16.8877C28.4481 16.7434 28.0078 16.1841 27.7119 15.8643C27.1519 15.2803 26.5279 14.9117 25.7119 14.7197L25.7275 14.7041ZM7.04004 14.752V16.0645L7.01562 16.0557V17.3604H11.1758V29.2002H14.1279V17.3604H18.2881V16.0801C18.2881 15.3601 18.2879 14.7758 18.2559 14.7598C18.237 14.736 15.7081 14.7275 12.6396 14.7275L7.04004 14.752Z" fill="#3D3D3D"/>
</g>
<defs>
<clipPath id="clip0_322_1760">
<rect width="32" height="32" rx="2" fill="white"/>
</clipPath>
</defs>
</svg>
