<svg width="32" height="32" viewBox="0 0 32 32" fill="none" xmlns="http://www.w3.org/2000/svg">
<path fill-rule="evenodd" clip-rule="evenodd" d="M30.6074 12.9154L31.9462 12.9228C31.9462 12.9228 29.4572 16.2955 29.2539 16.5704C29.1879 16.6594 29.0877 16.7554 29.0368 16.8744C28.9082 17.1735 28.7762 17.8297 28.7762 17.8297L27.5513 17.8358C27.5513 17.8358 27.7419 17.1518 27.734 16.7875C27.7272 16.4693 27.5647 16.1514 27.4735 15.8322C27.3814 15.5091 27.2563 14.8768 27.2563 14.8768H28.5157L28.6894 15.5717L30.6074 12.9154Z" fill="#3D3D3D"/>
<path fill-rule="evenodd" clip-rule="evenodd" d="M28.0723 13.6267C28.3194 13.7756 28.471 14.5973 28.471 14.5973C28.471 14.5973 27.1782 14.6163 26.4747 14.6163H25.8668L25.1286 17.8297H23.9996C23.9996 17.8297 24.7022 14.3376 24.8681 13.7045C24.9218 13.4995 25.2363 13.5346 25.7674 13.5346H26.6154C27.1631 13.5346 27.8031 13.4647 28.0723 13.6267ZM22.8162 15.1917C22.8162 15.1917 22.8514 14.9855 22.6969 14.7466C22.5648 14.543 22.4429 14.4956 22.0954 14.4847C21.1145 14.4539 21.1336 15.1808 21.1336 15.1808L22.8162 15.1917ZM23.8801 14.3592C24.0239 14.8778 23.7499 16.0962 23.7499 16.0962C23.7499 16.0962 22.319 16.0723 21.5352 16.0962C21.2916 16.1036 20.9999 16.0697 20.9273 16.1831C20.8252 16.342 20.9646 16.5865 21.0827 16.6898C21.2187 16.8088 21.4835 16.8223 21.5787 16.8344C22.2148 16.9152 23.5462 16.8553 23.5462 16.8553L23.3156 17.8765C23.3156 17.8765 21.4341 17.9709 20.4931 17.7463C20.3072 17.702 20.1331 17.6126 20.0154 17.4858C19.9832 17.4511 19.9554 17.4038 19.925 17.3629C19.9007 17.3303 19.83 17.2231 19.7982 17.1383C19.5833 16.5656 19.8234 15.4683 20.0588 14.8803C20.0861 14.8122 20.1204 14.7258 20.1566 14.6523C20.2017 14.5608 20.2399 14.4574 20.2759 14.4026C20.3002 14.3649 20.3302 14.3406 20.3554 14.305C20.3845 14.2628 20.4183 14.222 20.4496 14.1856C20.5365 14.0848 20.6351 14.0136 20.7536 13.9251C21.1457 13.6315 21.8552 13.4035 22.7077 13.4908C23.0286 13.5238 23.5133 13.6384 23.7499 13.9685C23.8132 14.0566 23.8446 14.2315 23.8801 14.3592ZM18.7018 13.5306L19.7966 13.5242C19.7966 13.5242 19.1864 16.4184 18.8755 17.8297H17.6161C16.736 17.8297 15.9522 17.9387 15.6187 17.3086C15.2952 16.6968 15.6039 15.6906 15.7489 15.0071C15.8514 14.5233 16.0673 13.5346 16.0673 13.5346L17.2016 13.5242C17.2016 13.5242 16.8811 15.0636 16.7477 15.8322C16.6999 16.1075 16.6014 16.3668 16.7043 16.5703C16.802 16.7641 16.9388 16.778 17.3556 16.7875C17.4877 16.7906 17.9202 16.7875 17.9202 16.7875L18.7018 13.5306ZM13.5777 15.615C13.6924 15.2078 13.8596 14.7661 13.8383 14.3991C13.8153 14.0066 13.4862 13.6493 13.2738 13.5741C12.6342 13.3483 12.0354 13.664 11.7974 13.9215C11.4895 14.255 11.3852 14.6446 11.2762 15.1809C11.1951 15.579 11.1286 15.9993 11.2762 16.3098C11.5376 16.8588 12.3527 16.7389 13.2304 16.7441C13.3606 16.395 13.4683 16.0029 13.5777 15.615ZM15.0976 14.0084C15.2226 14.9176 14.7429 15.9213 14.4124 16.794C14.7494 16.8245 15.0447 16.7893 15.0659 16.8145C15.0881 16.847 14.8401 17.8562 14.7536 17.8588C14.4862 17.8658 13.5999 17.8731 13.2304 17.8731C12.0244 17.8731 10.8963 17.9517 10.321 17.3521C10.0874 17.1085 9.9258 16.6906 9.88668 16.3967C9.82155 15.906 9.90318 15.3658 10.017 14.9203C10.1199 14.5181 10.2519 14.1386 10.4512 13.7912C10.958 12.9067 11.8395 12.2501 13.3172 12.4017C13.6038 12.4312 14.0154 12.5567 14.2726 12.7056C14.2903 12.7161 14.3525 12.7656 14.3667 12.7743C14.7142 12.9953 15.0307 13.5229 15.0976 14.0084ZM9.76205 13.5359C9.68912 13.8681 9.61618 14.2446 9.5393 14.5729H8.32343C8.41762 14.209 8.48974 13.8473 8.58399 13.5307C8.97305 13.5307 9.3348 13.5359 9.76212 13.5359M8.27999 14.8769H9.45249C9.29918 15.7254 8.99562 17.0941 8.75768 18.0468C8.60874 18.6431 8.5093 19.0781 8.1063 19.393C8.07024 19.4212 8.04943 19.4078 8.01943 19.4364C7.94518 19.5072 7.60168 19.5893 7.41155 19.6101C7.10237 19.6436 6.7528 19.6145 6.3728 19.6066C6.47224 19.2432 6.58474 18.8068 6.67337 18.481C7.59962 18.5931 7.62305 17.7176 7.80237 16.8744C7.90612 16.3871 8.22055 15.0723 8.27999 14.8769Z" fill="#3D3D3D"/>
<path fill-rule="evenodd" clip-rule="evenodd" d="M5.54423 17.0915L5.51911 17.1566C5.09098 17.9904 4.3323 18.5019 3.25017 18.5244C2.7443 18.5349 2.2623 18.4051 1.94742 18.2639C1.26792 17.9586 0.696358 17.3924 0.384233 16.7875C-0.0635167 15.9203 -0.144267 14.714 0.786733 13.813C0.801108 13.813 0.673796 14.0084 0.688171 14.0084L0.662546 14.0917C-0.00832921 16.1921 2.05861 17.9921 4.06786 17.7862C4.55073 17.7367 5.16648 17.4723 5.54423 17.0915Z" fill="#3D3D3D"/>
<path fill-rule="evenodd" clip-rule="evenodd" d="M4.32834 16.223C4.83384 16.2264 5.36184 15.9902 5.67453 15.6585C5.40096 16.3529 4.6089 16.7992 3.54678 16.6572C2.6574 16.5382 1.81021 15.6433 1.72296 14.7466C1.65915 14.0939 1.88659 13.7044 2.2614 13.2319C2.13115 13.4791 2.08246 13.6696 2.07034 13.7912C1.92796 15.2029 3.19809 16.2156 4.32834 16.223Z" fill="#3D3D3D"/>
<path fill-rule="evenodd" clip-rule="evenodd" d="M5.62375 14.4695C5.54518 14.6497 5.09275 14.9901 4.89293 15.0327C4.10175 15.2012 3.59506 14.8261 3.32962 14.3991C3.29018 14.3354 3.21725 14.1612 3.20418 14.1169C3.10125 13.7669 3.14856 13.2376 3.45562 12.9636C3.36312 13.2241 3.34962 13.5267 3.39831 13.7235C3.42781 13.8424 3.51768 14.0501 3.60762 14.1807C3.77125 14.4187 3.87506 14.4765 4.08525 14.6029C4.17993 14.6597 4.2815 14.7054 4.32537 14.7179C4.52468 14.7766 4.94543 14.9311 5.62375 14.4695Z" fill="#3D3D3D"/>
</svg>
