<svg width="32" height="32" viewBox="0 0 32 32" fill="none" xmlns="http://www.w3.org/2000/svg">
<g clip-path="url(#clip0_323_1794)">
<path d="M2.26529 15.5C2.26529 20.7634 5.40999 25.3119 9.97031 27.4675L3.44893 10.0885C2.66717 11.7912 2.26383 13.6352 2.26529 15.5ZM25.1658 14.8289C25.1658 13.1857 24.5588 12.0476 24.0384 11.1618C23.3453 10.0665 22.6957 9.13892 22.6957 8.04359C22.6957 6.82122 23.6489 5.68333 24.9915 5.68333C25.0521 5.68333 25.1095 5.69063 25.1686 5.69403C22.7364 3.52658 19.4958 2.20331 15.9366 2.20331C11.1604 2.20331 6.95847 4.58678 4.51395 8.19689C4.83467 8.20625 5.13689 8.21269 5.39374 8.21269C6.82361 8.21269 9.03715 8.04407 9.03715 8.04407C9.77421 8.00177 9.86107 9.05455 9.12489 9.13941C9.12489 9.13941 8.38421 9.22414 7.56004 9.26608L12.5388 23.6694L15.5307 14.942L13.4006 9.26572C12.6644 9.22378 11.967 9.13904 11.967 9.13904C11.2303 9.09698 11.3167 8.0014 12.0534 8.04371C12.0534 8.04371 14.3112 8.21245 15.6544 8.21245C17.0843 8.21245 19.2979 8.04371 19.2979 8.04371C20.0354 8.0014 20.1221 9.05419 19.3857 9.13904C19.3857 9.13904 18.6435 9.22378 17.8208 9.26572L22.7615 23.5599L24.1251 19.1277C24.716 17.2885 25.1659 15.9676 25.1659 14.8291L25.1658 14.8289ZM16.1765 16.6632L12.0746 28.2563C13.3287 28.6156 14.6293 28.798 15.9366 28.798C17.5286 28.798 19.0553 28.5303 20.4766 28.0443C20.4386 27.9861 20.406 27.9248 20.3792 27.8611L16.1765 16.6632ZM27.9326 9.12044C27.9914 9.54399 28.0247 9.99865 28.0247 10.4877C28.0247 11.8371 27.7656 13.3539 26.9852 15.2505L22.8092 26.9941C26.8736 24.6888 29.6073 20.4059 29.6073 15.5004C29.6076 13.1885 29.0005 11.0145 27.9326 9.12044ZM15.9366 0C7.14933 0 0 6.95324 0 15.5C0 24.0479 7.14933 31.0009 15.9366 31.0009C24.7235 31.0009 31.8739 24.0479 31.8739 15.5C31.8738 6.95324 24.7235 0 15.9366 0ZM15.9366 30.2904C7.55241 30.2904 0.730681 23.6554 0.730681 15.5C0.730681 7.34518 7.55204 0.71069 15.9366 0.71069C24.3206 0.71069 31.1417 7.34518 31.1417 15.5C31.1417 23.6554 24.3206 30.2904 15.9366 30.2904Z" fill="#3D3D3D"/>
</g>
<defs>
<clipPath id="clip0_323_1794">
<rect width="32" height="32" fill="white"/>
</clipPath>
</defs>
</svg>
