<svg width="48" height="48" viewBox="0 0 48 48" fill="none" xmlns="http://www.w3.org/2000/svg">
<g clip-path="url(#clip0_379_344)">
<path d="M39.9687 0.046875H8.03128C3.63984 0.046875 0.046875 3.63984 0.046875 8.03128V39.9688C0.046875 44.3603 3.63984 47.9532 8.03128 47.9532H39.9688C44.3603 47.9532 47.9532 44.3603 47.9532 39.9688V8.03128C47.9531 3.63984 44.3602 0.046875 39.9687 0.046875ZM22.9996 24.4241C21.3368 26.0869 18.7236 26.8677 15.7712 26.8677C14.9906 26.8677 14.278 26.8335 13.7349 26.7317V35.3515H9.59503V12.784C11.0882 12.5126 13.1584 12.3088 15.9747 12.3088C19.0293 12.3088 21.2691 12.9536 22.7284 14.1755C24.0859 15.2955 24.9681 17.094 24.9681 19.232C24.968 21.404 24.2893 23.2024 22.9996 24.4241ZM31.6857 35.6912C29.6834 35.6912 27.8849 35.216 26.6632 34.5371L27.4776 31.5169C28.4277 32.0938 30.2265 32.7048 31.7197 32.7048C33.552 32.7048 34.3668 31.9582 34.3668 30.8721C34.3668 29.7524 33.6881 29.1753 31.6518 28.4627C28.4276 27.3427 27.0706 25.5781 27.1044 23.6437C27.1044 20.7251 29.5138 18.4515 33.3486 18.4515C35.1813 18.4515 36.7762 18.9267 37.7262 19.4355L36.9118 22.388C36.1991 21.9809 34.8755 21.4378 33.4163 21.4378C31.9231 21.4378 31.1087 22.1505 31.1087 23.1684C31.1087 24.2207 31.8893 24.7298 33.9934 25.4764C36.9797 26.5622 38.3711 28.0893 38.4051 30.533C38.405 33.5193 36.0636 35.6912 31.6857 35.6912ZM20.7938 19.4016C20.7938 22.0826 18.8932 23.6097 15.7712 23.6097C14.9228 23.6097 14.2441 23.5758 13.7349 23.4401V15.7026C14.1763 15.6008 14.9907 15.499 16.1447 15.499C19.0293 15.499 20.7938 16.8565 20.7938 19.4016Z" fill="white"/>
</g>
<defs>
<clipPath id="clip0_379_344">
<rect width="48" height="48" fill="white"/>
</clipPath>
</defs>
</svg>
