<svg width="32" height="32" viewBox="0 0 32 32" fill="none" xmlns="http://www.w3.org/2000/svg">
<g opacity="0.72" clip-path="url(#clip0_322_1770)">
<path d="M14.1566 31.7933C12.9035 31.4517 11.9873 30.5885 10.9915 28.811C10.5025 27.9374 10.1632 27.4483 9.73415 26.9957L9.14641 26.3766L7.07485 26.3746C5.00966 26.3727 4.6379 26.3369 3.8052 26.0615C2.77849 25.7225 1.69636 24.5813 1.28734 23.4066C1.02262 22.646 1.00605 21.4799 1.25007 20.7462C1.38864 20.3291 2.40961 18.4521 3.45192 16.6979C3.58667 16.4716 3.69657 16.2479 3.69657 16.2008C3.69657 16.1536 3.17892 15.2097 2.54659 14.1034C1.91425 12.9967 1.32652 11.862 1.24019 11.5818C1.02071 10.867 1.02835 9.71131 1.25707 9.02337C1.70178 7.68525 2.78837 6.60152 4.1177 6.16958C4.50602 6.04368 4.99436 6.01334 7.11021 5.98331L9.63858 5.9478L10.4706 4.48185C11.9761 1.82951 12.3574 1.36109 13.4313 0.843598C15.1012 0.0384692 17.1281 0.370012 18.3887 1.65454C18.8155 2.08971 19.0984 2.53101 20.4191 4.8234L21.0671 5.9478L23.6126 5.98008C25.99 6.01075 26.1936 6.02528 26.6918 6.20445C27.3776 6.45109 27.8163 6.73485 28.3563 7.28204C29.1985 8.13559 29.5961 9.11182 29.5926 10.3189C29.5897 11.3677 29.411 11.8252 28.1546 14.0075C27.5468 15.0631 27.026 15.9877 26.9976 16.0626C26.9658 16.1465 27.1722 16.5885 27.5328 17.2093C28.8643 19.5029 29.3326 20.3794 29.4639 20.8249C29.6697 21.5232 29.648 22.614 29.4148 23.3165C29.0453 24.4289 28.1024 25.5027 27.1008 25.9517C26.3376 26.2939 25.681 26.3737 23.6248 26.3753L21.6812 26.3769L20.8434 27.2566C20.1758 27.9578 19.8954 28.3348 19.4622 29.1144C18.5929 30.6789 17.6031 31.5408 16.3372 31.8365C15.8026 31.9615 14.6918 31.9392 14.1566 31.7933ZM11.9898 18.3476C12.3562 17.8075 12.6805 17.3365 12.7107 17.3013C12.741 17.2658 12.9452 17.3523 13.1647 17.4934L13.5638 17.7497H17.2591L17.6818 17.4969L18.1045 17.2445L18.8235 18.3298L19.5421 19.4151L19.5447 23.1735L19.5472 26.9318L19.7549 26.5899C19.9091 26.3362 19.9626 26.1277 19.9633 25.7787L19.9642 25.309L20.4602 24.9022C20.7832 24.6381 21.0773 24.2898 21.3028 23.9053C21.4933 23.5802 21.6491 23.2884 21.6491 23.2564C21.6491 23.1909 21.2244 23.5534 20.5816 24.1668C20.342 24.396 20.105 24.5829 20.0547 24.5829C19.991 24.5829 19.9636 23.7449 19.9636 21.8099V19.0368L19.3641 18.1748C19.0344 17.7009 18.7782 17.2997 18.7951 17.2829C18.812 17.2664 19.1784 17.3332 19.6097 17.4314L20.394 17.6096L21.3799 16.624L22.3655 15.6381L23.3275 15.2846C23.857 15.0899 24.303 14.944 24.3189 14.9601C24.3348 14.9763 24.3061 15.7585 24.2552 16.6982C24.2042 17.6377 24.1755 18.4993 24.1915 18.6119C24.2138 18.7717 24.388 18.5248 24.9783 17.4982C25.3956 16.7728 25.7352 16.163 25.7326 16.143C25.7205 16.0371 24.7161 14.3351 24.6655 14.3342C24.6323 14.3335 22.907 14.9672 20.832 15.7423C17.1558 17.1156 17.0418 17.1518 16.4041 17.1518H15.7491V6.98762H15.075V17.1518H14.5157C14.0315 17.1518 13.7413 17.0711 12.3453 16.5488C11.5138 16.2375 10.6818 15.9272 9.84947 15.6181C7.04618 14.5792 6.30936 14.2819 6.30936 14.1896C6.30936 14.1331 6.27814 14.0675 6.24023 14.0436C6.15136 13.9881 4.93862 16.0871 4.97557 16.2324C5.01507 16.3899 6.68143 19.2802 6.71361 19.2476C6.72858 19.2324 6.68239 18.2668 6.61167 17.1018C6.54063 15.9367 6.4954 14.9701 6.51164 14.954C6.52757 14.9379 6.80153 15.025 7.1204 15.1477C7.43896 15.2704 7.8706 15.4286 8.07925 15.4996C8.37009 15.5987 8.68801 15.8595 9.44267 16.6175L10.427 17.6063L11.1285 17.453C11.5142 17.3691 11.8774 17.2819 11.9354 17.2593C12.1383 17.1815 12.0357 17.3849 11.4508 18.2194L10.8609 19.0613V21.8221C10.8609 23.4931 10.8293 24.5829 10.7812 24.5829C10.7376 24.5829 10.2636 24.1771 9.72778 23.6813C9.19197 23.1857 8.75364 22.798 8.75364 22.82C8.75364 22.8419 8.89985 23.1225 9.07856 23.4437C9.31716 23.873 9.59526 24.1975 10.1272 24.6682L10.8513 25.309L10.8558 25.9068C10.859 26.3562 10.9074 26.5948 11.0501 26.8682L11.24 27.2314L11.282 23.2807L11.3244 19.3299L11.9898 18.3476ZM8.41692 24.8441C8.41692 24.3495 8.38953 24.2888 7.35358 22.4736C6.76872 21.4493 6.24374 20.5534 6.1864 20.483C6.12906 20.4127 6.05675 20.2819 6.02521 20.1925C5.99399 20.1034 5.72832 19.623 5.43525 19.1249C5.14217 18.6271 4.7803 17.9983 4.63057 17.7284C4.48085 17.4585 4.3461 17.2374 4.33081 17.2374C4.30119 17.2374 3.45797 18.7036 2.71 20.0556C2.1519 21.0651 2.0678 21.3728 2.11271 22.2431C2.14011 22.7796 2.20191 23.0466 2.38572 23.4279C2.83998 24.3683 3.78481 25.0946 4.77392 25.2635C4.99277 25.3009 5.90193 25.3361 6.7942 25.3416L8.41692 25.3516V24.8441ZM25.8671 25.2654C26.5188 25.1401 27.1289 24.8296 27.5611 24.4025C28.2578 23.7142 28.5815 22.9381 28.5764 21.9684C28.5716 21.0696 28.5665 21.058 26.7925 17.9466L26.3446 17.1612L25.5065 18.6223C25.0452 19.4261 24.6467 20.1444 24.6209 20.219C24.5951 20.2939 24.5253 20.4127 24.4667 20.483C24.3711 20.597 23.9449 21.3272 22.772 23.3853C22.4279 23.9883 22.4079 24.06 22.4079 24.6875V25.3516H23.9137C24.7419 25.3516 25.6208 25.3128 25.8671 25.2654ZM5.18613 13.6688L5.88887 12.4492L5.59357 11.2602C5.4311 10.6062 5.29795 10.0073 5.29795 9.92922C5.29795 9.80202 5.39479 9.79363 6.24629 9.84851C6.76776 9.88208 7.22489 9.91501 7.26248 9.92179C7.32109 9.93277 7.84798 9.06146 8.76924 7.4299L9.02727 6.97213L6.88881 7.01055C4.52258 7.05251 4.19798 7.1103 3.50544 7.61003C2.02798 8.67665 1.66578 10.6188 2.64438 12.2297C2.78264 12.4576 2.95274 12.7494 3.02219 12.8786C3.09195 13.007 3.41337 13.5781 3.73703 14.1466C4.21295 14.9827 4.34069 15.1529 4.40408 15.0344C4.4474 14.954 4.79941 14.3397 5.18613 13.6688ZM27.3448 13.3935C27.845 12.5244 28.3254 11.6247 28.412 11.3942C28.5776 10.9542 28.6286 10.0625 28.5181 9.54376C28.3448 8.73347 27.5987 7.78694 26.816 7.38502C26.1869 7.06187 25.4558 6.97955 23.4566 7.00635L21.6816 7.03024L22.4703 8.39676C22.9039 9.14862 23.2855 9.80751 23.3177 9.86142C23.3619 9.93438 23.6744 9.93729 24.5393 9.87208C25.1787 9.82397 25.717 9.80009 25.7355 9.81913C25.7543 9.83786 25.6195 10.4577 25.4361 11.196C25.2529 11.9346 25.0962 12.6255 25.0879 12.7313C25.0707 12.9509 26.292 15.1319 26.378 15.0363C26.4092 15.0018 26.8444 14.2625 27.3448 13.3935ZM11.6624 10.1491C11.6382 10.1094 11.655 10.0642 11.6996 10.0483C11.7446 10.0325 12.065 9.34716 12.4116 8.52492C12.9977 7.13483 13.0296 7.0283 12.8687 7.00151C12.7732 6.98601 12.6633 7.0057 12.6241 7.04573C12.5846 7.08544 12.287 7.73271 11.9624 8.4836C11.4413 9.69 11.3502 9.84786 11.1801 9.83979C11.074 9.83495 10.4799 9.78072 9.85998 9.71938L8.73261 9.60768L8.57875 9.81364L8.42489 10.0196L10.0011 10.1513C11.5811 10.2837 11.7439 10.2834 11.6624 10.1491ZM21.9635 10.0671C22.2228 10.0625 22.2311 10.0522 22.1396 9.84883C22.0868 9.73132 21.9778 9.63544 21.8975 9.63544C21.6841 9.63544 20.0502 9.79847 19.7428 9.85077C19.4928 9.89274 19.4708 9.87304 19.2921 9.44498C19.1889 9.19737 19.042 8.89876 18.9659 8.78125C18.8894 8.66374 18.8219 8.51007 18.8155 8.43937C18.8091 8.369 18.669 8.01324 18.5033 7.64942C18.245 7.07963 18.1736 6.98762 17.9905 6.98762H17.7783L18.0777 7.69203L18.7544 9.29002C18.9624 9.78168 19.1462 10.2062 19.1631 10.2336C19.1796 10.2611 19.7556 10.2359 20.4424 10.1778C21.1292 10.1194 21.8138 10.0696 21.9635 10.0671ZM19.6642 5.55686C18.5741 3.64121 17.9863 2.70501 17.6799 2.39413C17.1476 1.85404 16.4184 1.52024 15.6414 1.46084C14.228 1.35237 13.0586 1.9935 12.3364 3.27319C12.0399 3.79348 11.7415 4.3127 11.4413 4.83082L10.787 5.96265H19.8951L19.6642 5.55686Z" fill="#3D3D3D"/>
<path d="M14.1567 31.7933C12.9035 31.4517 11.9873 30.5885 10.9915 28.811C10.5025 27.9374 10.1633 27.4483 9.73416 26.9957L9.14643 26.3766H7.10003C4.46271 26.3766 3.88262 26.262 2.86771 25.5411C2.35642 25.1779 1.66994 24.3644 1.48326 23.8995C1.41283 23.7277 1.34008 23.557 1.26505 23.3872C1.18223 23.1993 1.12075 22.7548 1.10004 22.1911C1.07265 21.4489 1.09717 21.2039 1.2418 20.77C1.38738 20.3329 2.39369 18.4786 3.45194 16.6976C3.58668 16.4716 3.69659 16.2479 3.69659 16.2004C3.69659 16.1536 3.17893 15.2097 2.5466 14.103C1.91427 12.9964 1.32653 11.8617 1.24021 11.5818C1.02072 10.867 1.02837 9.71099 1.25709 9.02304C1.70179 7.68525 2.78839 6.60152 4.11772 6.16926C4.50604 6.04336 4.99438 6.01301 7.11022 5.98331L9.6386 5.94748L10.4707 4.48185C11.9762 1.82919 12.3575 1.36076 13.4313 0.843275C15.0814 0.0478311 17.102 0.365492 18.3575 1.61806C18.719 1.97865 19.4393 3.04753 19.8024 3.76259C19.8677 3.89172 20.1783 4.43568 20.4931 4.97222L21.0649 5.94748L23.6114 5.98008C25.9904 6.01043 26.1936 6.02528 26.6918 6.20412C27.3777 6.45076 27.8163 6.73453 28.3563 7.28172C29.7601 8.70441 30 10.7795 28.9685 12.5783C28.5937 13.2353 28.2172 13.8914 27.8393 14.5466C27.6016 14.9577 27.3684 15.3715 27.1397 15.7879L26.9323 16.1753L27.5258 17.1973C28.8631 19.4997 29.3326 20.3785 29.4648 20.8246C29.6655 21.5035 29.6404 22.6883 29.4113 23.3443C29.0351 24.4206 28.117 25.4694 27.156 25.9214C26.371 26.2904 25.725 26.3733 23.6248 26.3749L21.6813 26.3766L20.8435 27.2566C20.1777 27.9558 19.8938 28.3368 19.4609 29.1141C18.5894 30.6785 17.5987 31.5418 16.3369 31.8365C15.8026 31.9611 14.6918 31.9389 14.1567 31.7933ZM11.9899 18.3476C12.3562 17.8075 12.6805 17.3365 12.7107 17.3013C12.741 17.2658 12.9452 17.3523 13.1647 17.4934L13.5638 17.7497H17.2591L17.6818 17.4969L18.1045 17.2445L18.8235 18.3298L19.5422 19.4151L19.5447 23.1735L19.5473 26.9318L19.755 26.5899C19.9091 26.3362 19.9627 26.1277 19.9633 25.7787L19.9643 25.309L20.4602 24.9022C20.7833 24.6381 21.0773 24.2898 21.3028 23.9053C21.4933 23.5802 21.6491 23.2884 21.6491 23.2564C21.6491 23.1909 21.2245 23.5534 20.5816 24.1668C20.3421 24.396 20.1051 24.5829 20.0547 24.5829C19.991 24.5829 19.9636 23.7449 19.9636 21.8099V19.0368L19.3641 18.1748C19.0344 17.7009 18.7783 17.2997 18.7952 17.2829C18.812 17.2664 19.1784 17.3332 19.6097 17.4314L20.394 17.6096L21.3799 16.624L22.3655 15.6381L23.3276 15.2846C23.857 15.0899 24.303 14.944 24.3189 14.9601C24.3348 14.9763 24.3062 15.7585 24.2552 16.6982C24.2042 17.6377 24.1755 18.4993 24.1915 18.6119C24.2138 18.7717 24.388 18.5248 24.9783 17.4982C25.3956 16.7728 25.7352 16.163 25.7326 16.143C25.7205 16.0371 24.7161 14.3351 24.6655 14.3342C24.6324 14.3335 22.9071 14.9672 20.832 15.7423C17.1559 17.1156 17.0418 17.1518 16.4041 17.1518H15.7491V6.98762H15.0751V17.1518H14.5157C14.0315 17.1518 13.7413 17.0711 12.3454 16.5488C11.5138 16.2375 10.6818 15.9272 9.84948 15.6181C7.0462 14.5792 6.30938 14.2819 6.30938 14.1896C6.30938 14.1331 6.27816 14.0675 6.24025 14.0436C6.15137 13.9881 4.93863 16.0871 4.97559 16.2324C5.01509 16.3899 6.68145 19.2802 6.71362 19.2476C6.7286 19.2324 6.6824 18.2668 6.61169 17.1018C6.54065 15.9367 6.49541 14.9701 6.51166 14.954C6.52759 14.9379 6.80154 15.025 7.12042 15.1477C7.43897 15.2704 7.87062 15.4286 8.07927 15.4996C8.37011 15.5987 8.68803 15.8595 9.44269 16.6175L10.427 17.6063L11.1285 17.453C11.5143 17.3691 11.8774 17.2819 11.9354 17.2593C12.1383 17.1815 12.0357 17.3849 11.4509 18.2194L10.8609 19.0613V21.8221C10.8609 23.4931 10.8294 24.5829 10.7813 24.5829C10.7376 24.5829 10.2636 24.1771 9.72779 23.6813C9.19198 23.1857 8.75365 22.798 8.75365 22.82C8.75365 22.8419 8.89987 23.1225 9.07858 23.4437C9.31718 23.873 9.59527 24.1975 10.1273 24.6682L10.8513 25.309L10.8558 25.9068C10.859 26.3562 10.9074 26.5948 11.0501 26.8682L11.24 27.2314L11.282 23.2807L11.3244 19.3299L11.9899 18.3476ZM8.41694 24.8441C8.41694 24.3495 8.38954 24.2888 7.3536 22.4736C6.76873 21.4493 6.24375 20.5534 6.18641 20.483C6.12907 20.4127 6.05676 20.2819 6.02523 20.1925C5.99401 20.1034 5.72833 19.623 5.43526 19.1249C5.14219 18.6271 4.78031 17.9983 4.63059 17.7284C4.48087 17.4585 4.34612 17.2374 4.33083 17.2374C4.3012 17.2374 3.45799 18.7036 2.71002 20.0556C2.15191 21.0651 2.06781 21.3728 2.11273 22.2431C2.14012 22.7796 2.20192 23.0466 2.38573 23.4279C2.83999 24.3683 3.78483 25.0946 4.77394 25.2635C4.99279 25.3009 5.90194 25.3361 6.79422 25.3416L8.41694 25.3516V24.8441ZM25.8671 25.2654C26.5188 25.1401 27.1289 24.8296 27.5612 24.4025C28.2578 23.7142 28.5815 22.9381 28.5764 21.9684C28.5716 21.0696 28.5665 21.058 26.7925 17.9466L26.3446 17.1612L25.5065 18.6223C25.0452 19.4261 24.6467 20.1444 24.6209 20.219C24.5951 20.2939 24.5253 20.4127 24.4667 20.483C24.3711 20.597 23.9449 21.3272 22.772 23.3853C22.428 23.9883 22.4079 24.06 22.4079 24.6875V25.3516H23.9137C24.7419 25.3516 25.6208 25.3128 25.8671 25.2654ZM5.18615 13.6688L5.88888 12.4492L5.59358 11.2602C5.43112 10.6062 5.29796 10.0073 5.29796 9.92922C5.29796 9.80202 5.3948 9.79363 6.2463 9.84851C6.76778 9.88208 7.22491 9.91501 7.26249 9.92179C7.32111 9.93277 7.848 9.06146 8.76926 7.4299L9.02729 6.97213L6.88883 7.01054C4.5226 7.05251 4.19799 7.1103 3.50545 7.61003C2.02736 8.67697 1.66707 10.6117 2.6444 12.2329C2.94406 12.7273 3.22908 13.2308 3.49908 13.7424C3.67254 14.064 3.85321 14.3815 4.04094 14.6948C4.27699 15.0841 4.34262 15.1445 4.40569 15.0289C4.44838 14.9514 4.79942 14.3397 5.18615 13.6688ZM27.3449 13.3935C27.845 12.5244 28.3254 11.6247 28.412 11.3942C28.5777 10.9542 28.6286 10.0625 28.5181 9.54376C28.3448 8.73347 27.5987 7.78694 26.8161 7.38502C26.1869 7.06187 25.4558 6.97955 23.4566 7.00635L21.6816 7.03024L22.4703 8.39676C22.9039 9.14862 23.2855 9.80751 23.3177 9.86142C23.362 9.93438 23.6745 9.93729 24.5393 9.87208C25.1787 9.82397 25.717 9.80009 25.7355 9.81913C25.7543 9.83786 25.6196 10.4577 25.4361 11.196C25.2529 11.9346 25.0962 12.6255 25.0879 12.7313C25.0707 12.9509 26.292 15.1319 26.378 15.0363C26.4093 15.0018 26.8444 14.2625 27.3449 13.3935ZM11.6624 10.1491C11.6382 10.1094 11.6551 10.0642 11.6997 10.0483C11.7446 10.0325 12.065 9.34716 12.4116 8.52492C12.9978 7.13483 13.0296 7.0283 12.8687 7.00151C12.7732 6.98601 12.6633 7.0057 12.6241 7.04573C12.5846 7.08544 12.2871 7.73271 11.9625 8.4836C11.4413 9.69 11.3502 9.84786 11.1801 9.83979C11.074 9.83495 10.4799 9.78072 9.85999 9.71938L8.73263 9.60768L8.57876 9.81364L8.4249 10.0196L10.0011 10.1513C11.5811 10.2837 11.7439 10.2834 11.6624 10.1491ZM21.9635 10.0671C22.2228 10.0625 22.2311 10.0522 22.1397 9.84883C22.0868 9.73132 21.9778 9.63544 21.8976 9.63544C21.6841 9.63544 20.0503 9.79847 19.7429 9.85077C19.4928 9.89274 19.4708 9.87304 19.2921 9.44498C19.1889 9.19737 19.042 8.89876 18.9659 8.78125C18.8894 8.66374 18.8219 8.51007 18.8155 8.43937C18.8092 8.369 18.669 8.01324 18.5034 7.64942C18.245 7.07963 18.1736 6.98762 17.9905 6.98762H17.7783L18.0778 7.69203L18.7544 9.29002C18.9624 9.78168 19.1462 10.2062 19.1631 10.2336C19.1796 10.2611 19.7556 10.2359 20.4424 10.1778C21.1292 10.1194 21.8138 10.0696 21.9635 10.0671ZM19.6642 5.55686C18.5741 3.64121 17.9863 2.70501 17.6799 2.39413C17.1476 1.85404 16.4184 1.52024 15.6415 1.46084C14.228 1.35237 13.0586 1.9935 12.3364 3.27319C12.0399 3.79348 11.7415 4.3127 11.4413 4.83082L10.787 5.96265H19.8951L19.6642 5.55686Z" fill="#3D3D3D"/>
<path d="M14.1566 31.7933C12.8932 31.4491 11.9946 30.5962 10.9526 28.7522C10.4161 27.8031 10.1081 27.3615 9.68567 26.937L9.1282 26.3759L7.06555 26.3704C4.40721 26.363 3.87745 26.2584 2.86763 25.5411C2.35635 25.1779 1.66986 24.3644 1.48319 23.8995C1.41275 23.7277 1.34001 23.557 1.26498 23.3872C1.18216 23.1993 1.12068 22.7548 1.09997 22.1911C1.07257 21.4489 1.0971 21.2039 1.24173 20.77C1.38731 20.3329 2.39362 18.4786 3.45186 16.6976C3.58661 16.4716 3.69396 16.2408 3.69078 16.1853C3.68473 16.0742 3.64523 16.0022 2.31462 13.6866C1.80875 12.8082 1.32519 11.8604 1.23981 11.5808C1.02065 10.8674 1.02861 9.71099 1.25702 9.02337C1.70172 7.68558 2.78831 6.60185 4.11764 6.16959C4.50596 6.04369 4.99431 6.01334 7.11015 5.98364L9.63853 5.94781L10.4706 4.48218C11.9761 1.82984 12.3574 1.36109 13.4312 0.843603C14.9574 0.106913 16.7793 0.311585 18.0882 1.36529C18.4616 1.66552 19.0745 2.43384 19.235 2.80219C19.286 2.9197 19.3529 3.03495 19.3834 3.05851C19.414 3.08208 19.5472 3.30095 19.68 3.54501C19.8129 3.78939 20.1585 4.3934 20.4484 4.88797C20.7383 5.38189 20.9753 5.82578 20.9753 5.87452C20.9753 5.93263 21.7366 5.96266 23.2297 5.96266C26.4633 5.96266 27.1877 6.14021 28.2657 7.19973C29.1593 8.07781 29.5868 9.05146 29.5973 10.2333C29.6049 11.114 29.3928 11.8549 28.8958 12.6836C28.6652 13.0677 28.4763 13.4235 28.4763 13.4735C28.4763 13.5236 28.4428 13.5646 28.4021 13.5646C28.3613 13.5646 28.3052 13.6317 28.2778 13.714C28.2504 13.796 28.1609 13.9788 28.0784 14.1201C27.9959 14.2615 27.7035 14.7761 27.4282 15.2642C26.9472 16.1172 26.9326 16.1598 27.0555 16.3738C29.4555 20.5554 29.4383 20.5215 29.5728 21.3799C29.798 22.8184 29.2255 24.3024 28.0523 25.3206C27.0418 26.1974 26.2942 26.373 23.653 26.3536L21.7376 26.3401L20.9501 27.1058C20.5169 27.5268 20.1155 27.9675 20.0575 28.085C19.9995 28.2025 19.7183 28.7019 19.4322 29.1955C18.5679 30.6853 17.5514 31.5528 16.3371 31.8362C15.8029 31.9611 14.6918 31.9392 14.1566 31.7933ZM11.9898 18.3476C12.3561 17.8075 12.6804 17.3365 12.7107 17.3013C12.7409 17.2658 12.9451 17.3523 13.1646 17.4934L13.5638 17.7497H17.259L17.6817 17.4969L18.1045 17.2445L18.8234 18.3298L19.5421 19.4151L19.5446 23.1735L19.5472 26.9318L19.7549 26.59C19.9091 26.3362 19.9626 26.1277 19.9632 25.7787L19.9642 25.309L20.4602 24.9022C20.7832 24.6381 21.0772 24.2898 21.3027 23.9053C21.4932 23.5802 21.649 23.2884 21.649 23.2565C21.649 23.1909 21.2244 23.5535 20.5815 24.1668C20.342 24.396 20.105 24.5829 20.0546 24.5829C19.9909 24.5829 19.9635 23.7449 19.9635 21.8099V19.0368L19.364 18.1748C19.0343 17.7009 18.7782 17.2997 18.7951 17.2829C18.812 17.2664 19.1783 17.3332 19.6096 17.4314L20.3939 17.6096L21.3798 16.624L22.3654 15.6381L23.3275 15.2846C23.8569 15.0899 24.3029 14.944 24.3188 14.9601C24.3348 14.9763 24.3061 15.7585 24.2551 16.6982C24.2041 17.6377 24.1755 18.4993 24.1914 18.612C24.2137 18.7718 24.388 18.5248 24.9782 17.4982C25.3955 16.7728 25.7351 16.163 25.7326 16.143C25.7205 16.0371 24.7161 14.3352 24.6654 14.3342C24.6323 14.3335 22.907 14.9672 20.8319 15.7424C17.1558 17.1157 17.0417 17.1518 16.404 17.1518H15.7491V6.98763H15.075V17.1518H14.5156C14.0314 17.1518 13.7412 17.0711 12.3453 16.5488C11.5137 16.2375 10.6818 15.9272 9.84941 15.6181C7.04612 14.5792 6.3093 14.2819 6.3093 14.1896C6.3093 14.1331 6.27809 14.0675 6.24018 14.0436C6.1513 13.9881 4.93856 16.0871 4.97551 16.2324C5.01501 16.3899 6.68138 19.2802 6.71355 19.2476C6.72852 19.2324 6.68233 18.2668 6.61161 17.1018C6.54057 15.9367 6.49534 14.9701 6.51159 14.954C6.52751 14.9379 6.80147 15.025 7.12035 15.1477C7.4389 15.2704 7.87054 15.4286 8.0792 15.4996C8.37004 15.5987 8.68796 15.8595 9.44261 16.6175L10.4269 17.6063L11.1284 17.453C11.5142 17.3691 11.8773 17.2819 11.9353 17.2593C12.1382 17.1815 12.0357 17.3849 11.4508 18.2194L10.8608 19.0613V21.8221C10.8608 23.4931 10.8293 24.5829 10.7812 24.5829C10.7375 24.5829 10.2635 24.1772 9.72772 23.6813C9.19191 23.1858 8.75358 22.798 8.75358 22.82C8.75358 22.8419 8.8998 23.1225 9.07851 23.4437C9.3171 23.8731 9.5952 24.1975 10.1272 24.6682L10.8513 25.309L10.8557 25.9069C10.8589 26.3562 10.9073 26.5948 11.05 26.8682L11.2399 27.2314L11.282 23.2807L11.3243 19.3299L11.9898 18.3476ZM8.41687 24.8441C8.41687 24.3495 8.38947 24.2888 7.35353 22.4736C6.76866 21.4493 6.24368 20.5534 6.18634 20.4831C6.129 20.4127 6.05669 20.2819 6.02515 20.1925C5.99393 20.1034 5.72826 19.623 5.43519 19.1249C5.14212 18.6271 4.78024 17.9983 4.63052 17.7284C4.4808 17.4585 4.34605 17.2374 4.33076 17.2374C4.30113 17.2374 3.45792 18.7036 2.70995 20.0556C2.15184 21.0651 2.06774 21.3728 2.11266 22.2431C2.14005 22.7796 2.20185 23.0466 2.38566 23.4279C2.83992 24.3683 3.78475 25.0946 4.77387 25.2635C4.99271 25.3009 5.90187 25.3361 6.79414 25.3416L8.41687 25.3516V24.8441ZM25.867 25.2654C26.5188 25.1401 27.1288 24.8296 27.5611 24.4025C28.2578 23.7142 28.5814 22.9381 28.5763 21.9684C28.5715 21.0696 28.5664 21.058 26.7924 17.9466L26.3445 17.1612L25.5064 18.6223C25.0451 19.4261 24.6466 20.1444 24.6208 20.219C24.595 20.2939 24.5252 20.4127 24.4666 20.4831C24.3711 20.597 23.9448 21.3272 22.7719 23.3853C22.4279 23.9883 22.4078 24.06 22.4078 24.6875V25.3516H23.9136C24.7419 25.3516 25.6208 25.3129 25.867 25.2654ZM5.18608 13.6688L5.88881 12.4492L5.59351 11.2602C5.43105 10.6062 5.29789 10.0086 5.29789 9.93213C5.29789 9.80816 5.40238 9.79945 6.24623 9.85174C6.7677 9.88403 7.22483 9.91631 7.26242 9.92276C7.32104 9.93245 7.84888 9.05953 8.76919 7.4299L9.02722 6.97213L6.88876 7.01055C4.52253 7.05252 4.19792 7.1103 3.50538 7.61004C2.02728 8.67698 1.667 10.6117 2.64433 12.2329C2.96724 12.7658 3.27238 13.3095 3.55922 13.8632C3.70639 14.1453 3.93957 14.554 4.07751 14.7719C4.28584 15.1012 4.34191 15.1445 4.40562 15.0283C4.4483 14.9514 4.79935 14.3397 5.18608 13.6688ZM27.3448 13.3935C27.8449 12.5244 28.3253 11.6247 28.4119 11.3942C28.5776 10.9542 28.6286 10.0625 28.518 9.54377C28.3447 8.73347 27.5987 7.78695 26.816 7.38503C26.1868 7.06188 25.4557 6.97956 23.4565 7.00635L21.6815 7.03024L22.4702 8.39677C22.9038 9.14863 23.2854 9.80752 23.3176 9.86143C23.3619 9.93439 23.6744 9.93729 24.5393 9.87208C25.1786 9.82398 25.717 9.80009 25.7354 9.81914C25.7542 9.83786 25.6195 10.4577 25.436 11.196C25.2528 11.9346 25.0961 12.6255 25.0878 12.7314C25.0706 12.9509 26.292 15.1319 26.378 15.0363C26.4092 15.0018 26.8443 14.2625 27.3448 13.3935ZM19.6173 10.233C19.7797 10.233 20.4321 10.1891 21.068 10.1352L22.2237 10.037L22.1335 9.83625C22.0838 9.72584 21.9774 9.63545 21.8969 9.63545C21.6837 9.63545 20.0499 9.79848 19.7425 9.85077C19.4924 9.89274 19.4704 9.87305 19.2917 9.44498C19.1885 9.19737 19.0416 8.89876 18.9655 8.78125C18.8891 8.66374 18.8215 8.51008 18.8151 8.43938C18.8088 8.369 18.6686 8.01325 18.503 7.64942C18.2446 7.07964 18.1733 6.98763 17.9901 6.98763H17.7779L18.0774 7.69204C18.2414 8.07943 18.5485 8.8003 18.7591 9.29358C18.9696 9.78685 19.1436 10.2398 19.1452 10.3001C19.1474 10.3757 19.1754 10.3821 19.2353 10.3215C19.2831 10.273 19.4551 10.2333 19.6176 10.2333L19.6173 10.233ZM11.662 10.1491C11.6378 10.1094 11.6547 10.0642 11.6993 10.0483C11.7442 10.0325 12.0646 9.34717 12.4112 8.52493C12.9974 7.13484 13.0292 7.02831 12.8684 7.00151C12.7728 6.98602 12.6629 7.00571 12.6237 7.04574C12.5842 7.08545 12.2867 7.73271 11.9621 8.48361C11.4409 9.69001 11.3498 9.84787 11.1797 9.8398C11.0736 9.83496 10.4795 9.78072 9.8596 9.71938L8.73224 9.60769L8.57837 9.81365L8.42451 10.0196L10.0007 10.1513C11.5808 10.2837 11.7435 10.2834 11.662 10.1491ZM19.6641 5.55686C18.5737 3.64121 17.9859 2.70502 17.6795 2.39414C17.1472 1.85405 16.418 1.52025 15.6411 1.46085C14.2276 1.35238 13.0582 1.99351 12.3361 3.27319C12.0395 3.79349 11.7411 4.3127 11.4409 4.83083L10.7866 5.96266H19.8947L19.6641 5.55686Z" fill="#3D3D3D"/>
<path d="M14.6239 31.8701C14.5921 31.8379 14.4255 31.8004 14.2535 31.7868C13.387 31.7178 12.0978 30.6999 11.4295 29.5577C11.2097 29.181 11.0294 28.8336 11.0294 28.7852C11.0294 28.7368 11.0001 28.6842 10.9644 28.6687C10.9287 28.6528 10.742 28.371 10.5493 28.0424C10.3566 27.7131 9.95742 27.2037 9.66244 26.9093L9.12599 26.3743L7.10635 26.3701C4.55441 26.365 3.88894 26.2494 3.02247 25.6599C2.39683 25.2351 1.5052 24.1904 1.5052 23.8831C1.5052 23.8201 1.42173 23.6158 1.32011 23.4286C1.04297 22.9191 0.999966 21.4961 1.23952 20.7762C1.37618 20.3665 3.13174 17.1373 3.41939 16.7674C3.45603 16.7206 3.54076 16.5743 3.60798 16.4426C3.72011 16.2221 3.7131 16.1701 3.52356 15.8018C3.37641 15.5213 3.22132 15.2452 3.05847 14.9737C2.18499 13.5326 1.37586 12.0234 1.24048 11.5828C1.02067 10.8671 1.028 9.71167 1.25704 9.02308C1.70174 7.68529 2.78834 6.60157 4.11767 6.1693C4.50567 6.0434 4.99561 6.01305 7.11018 5.98271L9.63855 5.94623L10.692 4.09902C11.5218 2.64469 11.8621 2.13172 12.2934 1.68589C12.8894 1.07026 13.595 0.671896 14.3837 0.504995C14.868 0.402659 16.0243 0.37651 16.1125 0.465933C16.1425 0.496279 16.2776 0.529853 16.412 0.540506C16.7544 0.567946 17.5572 0.954369 18.0296 1.31949C18.4409 1.63747 18.9502 2.25665 19.1965 2.73831C19.2742 2.891 19.4325 3.1696 19.5478 3.35749C19.6632 3.54537 19.8011 3.77587 19.8543 3.86981C19.9072 3.96375 20.1811 4.43347 20.4627 4.91351C20.7443 5.39355 20.975 5.82388 20.975 5.86972C20.975 5.92137 21.9169 5.96657 23.4403 5.98852C24.796 6.00789 26.1012 6.06503 26.3404 6.11507C27.6949 6.39851 29.0532 7.69982 29.4358 9.08022C29.7795 10.3208 29.5833 11.6848 28.9322 12.5822C28.8296 12.723 28.6142 13.0881 28.4531 13.3935C28.2919 13.6989 27.9647 14.2948 27.7261 14.7174C27.4875 15.1403 27.2132 15.6426 27.1164 15.8334L26.9406 16.1808L27.7188 17.5418C28.1469 18.2905 28.6426 19.1527 28.82 19.4581C29.2947 20.2752 29.467 20.7152 29.5718 21.3812C29.798 22.8126 29.2236 24.306 28.0609 25.3116C27.0253 26.2074 26.5946 26.313 23.9025 26.3314L21.7312 26.3463L20.9466 27.1088C20.5153 27.5284 20.1152 27.9675 20.0572 28.085C19.9992 28.2025 19.718 28.7006 19.4322 29.1923C18.5645 30.6844 17.547 31.5538 16.3368 31.8362C15.9115 31.9357 14.7122 31.9592 14.6239 31.8701ZM11.9898 18.3476C12.3561 17.8075 12.6804 17.3365 12.7107 17.3013C12.741 17.2658 12.9452 17.3523 13.1646 17.4934L13.5638 17.7497H17.259L17.6818 17.4969L18.1045 17.2445L18.8235 18.3298L19.5421 19.4152L19.5447 23.1735L19.5472 26.9319L19.7549 26.59C19.9091 26.3362 19.9626 26.1277 19.9632 25.7787L19.9642 25.309L20.4602 24.9023C20.7832 24.6382 21.0772 24.2899 21.3028 23.9054C21.4933 23.5803 21.649 23.2884 21.649 23.2565C21.649 23.191 21.2244 23.5535 20.5816 24.1669C20.342 24.3961 20.105 24.583 20.0547 24.583C19.991 24.583 19.9636 23.7449 19.9636 21.8099V19.0368L19.364 18.1749C19.0343 17.701 18.7782 17.2997 18.7951 17.2829C18.812 17.2664 19.1783 17.3333 19.6096 17.4314L20.3939 17.6096L21.3799 16.624L22.3655 15.6381L23.3275 15.2846C23.8569 15.09 24.3029 14.944 24.3188 14.9602C24.3348 14.9763 24.3061 15.7585 24.2551 16.6983C24.2042 17.6377 24.1755 18.4993 24.1914 18.612C24.2137 18.7718 24.388 18.5248 24.9783 17.4982C25.3956 16.7728 25.7351 16.163 25.7326 16.143C25.7205 16.0371 24.7161 14.3352 24.6654 14.3342C24.6323 14.3336 22.907 14.9673 20.8319 15.7424C17.1558 17.1157 17.0418 17.1518 16.404 17.1518H15.7491V6.98767H15.075V17.1518H14.5156C14.0314 17.1518 13.7412 17.0711 12.3453 16.5488C11.5137 16.2375 10.6818 15.9273 9.84943 15.6181C7.04615 14.5792 6.30933 14.2819 6.30933 14.1896C6.30933 14.1331 6.27811 14.0676 6.2402 14.0437C6.15132 13.9881 4.93858 16.0872 4.97554 16.2324C5.01504 16.39 6.6814 19.2802 6.71357 19.2476C6.72855 19.2325 6.68236 18.2669 6.61164 17.1018C6.5406 15.9367 6.49536 14.9702 6.51161 14.954C6.52754 14.9379 6.8015 15.0251 7.12037 15.1477C7.43892 15.2704 7.87057 15.4286 8.07922 15.4996C8.37006 15.5987 8.68798 15.8596 9.44264 16.6176L10.427 17.6064L11.1284 17.453C11.5142 17.3691 11.8774 17.2819 11.9353 17.2593C12.1383 17.1815 12.0357 17.3849 11.4508 18.2194L10.8608 19.0614V21.8222C10.8608 23.4931 10.8293 24.583 10.7812 24.583C10.7376 24.583 10.2636 24.1772 9.72775 23.6813C9.19193 23.1858 8.7536 22.7981 8.7536 22.82C8.7536 22.842 8.89982 23.1225 9.07853 23.4437C9.31713 23.8731 9.59523 24.1975 10.1272 24.6682L10.8513 25.309L10.8557 25.9069C10.8589 26.3563 10.9074 26.5948 11.0501 26.8683L11.2399 27.2314L11.282 23.2807L11.3243 19.33L11.9898 18.3476ZM8.41689 24.8441C8.41689 24.3496 8.38949 24.2889 7.35355 22.4736C6.76868 21.4493 6.24371 20.5535 6.18637 20.4831C6.12903 20.4127 6.05671 20.282 6.02518 20.1925C5.99396 20.1034 5.72828 19.6231 5.43521 19.125C5.14214 18.6272 4.78026 17.9983 4.63054 17.7284C4.48082 17.4585 4.34607 17.2374 4.33078 17.2374C4.30116 17.2374 3.45794 18.7037 2.70997 20.0557C2.15186 21.0651 2.06776 21.3728 2.11268 22.2431C2.14008 22.7797 2.20188 23.0467 2.38568 23.4279C2.83994 24.3683 3.78478 25.0947 4.77389 25.2635C4.99274 25.3009 5.9019 25.3361 6.79417 25.3416L8.41689 25.3516V24.8441ZM25.867 25.2654C26.5188 25.1402 27.1288 24.8296 27.5611 24.4025C28.2578 23.7143 28.5814 22.9382 28.5763 21.9684C28.5716 21.0697 28.5665 21.058 26.7924 17.9466L26.3445 17.1612L25.5064 18.6223C25.0452 19.4262 24.6466 20.1444 24.6208 20.219C24.595 20.2939 24.5253 20.4127 24.4667 20.4831C24.3711 20.597 23.9449 21.3273 22.7719 23.3853C22.4279 23.9883 22.4078 24.06 22.4078 24.6876V25.3516H23.9136C24.7419 25.3516 25.6208 25.3129 25.867 25.2654ZM5.1861 13.6689L5.88883 12.4492L5.59353 11.2603C5.43107 10.6062 5.29791 10.0087 5.29791 9.93216C5.29791 9.8082 5.4024 9.79948 6.24625 9.85178C6.76773 9.88406 7.22422 9.91634 7.26085 9.9228C7.31755 9.93249 8.50959 7.95485 8.89281 7.21494L9.01864 6.97217L6.88432 7.01059C4.52287 7.05255 4.19762 7.11066 3.5054 7.61008C2.02731 8.67702 1.66702 10.6117 2.64435 12.2329C3.01292 12.8441 3.25215 13.2731 3.6255 13.9914C3.80867 14.3439 4.04185 14.7523 4.14347 14.8992C4.30179 15.1274 4.3397 15.1461 4.40564 15.0273C4.44833 14.9508 4.79938 14.3397 5.1861 13.6689ZM27.3448 13.3935C27.8449 12.5245 28.3253 11.6247 28.412 11.3942C28.5776 10.9542 28.6286 10.0626 28.518 9.5438C28.3448 8.73351 27.5987 7.78698 26.816 7.38507C26.1869 7.06192 25.4558 6.9796 23.4565 7.00639L21.6815 7.03028L22.4703 8.3968C22.9038 9.14866 23.2855 9.80755 23.3176 9.86146C23.3619 9.93442 23.6744 9.93733 24.5393 9.87212C25.1786 9.82402 25.717 9.80013 25.7355 9.81917C25.7543 9.8379 25.6195 10.4577 25.436 11.196C25.2529 11.9347 25.0961 12.6255 25.0878 12.7314C25.0706 12.9509 26.292 15.1319 26.378 15.0364C26.4092 15.0018 26.8444 14.2626 27.3448 13.3935ZM19.6173 10.233C19.7798 10.233 20.4322 10.1891 21.068 10.1352L22.2237 10.0371L22.1336 9.83628C22.0839 9.72588 21.9775 9.63549 21.8969 9.63549C21.6838 9.63549 20.0499 9.79851 19.7425 9.85081C19.4924 9.89278 19.4704 9.87309 19.2917 9.44502C19.1885 9.19741 19.0417 8.8988 18.9655 8.78129C18.8891 8.66378 18.8215 8.51011 18.8152 8.43942C18.8088 8.36904 18.6686 8.01329 18.503 7.64946C18.2446 7.07967 18.1733 6.98767 17.9901 6.98767H17.778L18.0774 7.69207C18.2415 8.07946 18.5485 8.80033 18.7591 9.29361C18.9697 9.78689 19.1436 10.2398 19.1452 10.3002C19.1474 10.3757 19.1755 10.3822 19.2353 10.3215C19.2831 10.2731 19.4551 10.2334 19.6176 10.2334L19.6173 10.233ZM11.662 10.1491C11.6378 10.1094 11.6547 10.0642 11.6993 10.0484C11.7442 10.0326 12.0647 9.3472 12.4113 8.52496C12.9974 7.13488 13.0293 7.02834 12.8684 7.00155C12.7728 6.98605 12.6629 7.00574 12.6237 7.04577C12.5842 7.08548 12.2867 7.73275 11.9621 8.48364C11.4409 9.69004 11.3498 9.84791 11.1797 9.83984C11.0736 9.83499 10.4795 9.78076 9.85963 9.71942L8.73226 9.60772L8.5784 9.81369L8.42453 10.0196L10.0007 10.1514C11.5808 10.2837 11.7436 10.2834 11.662 10.1491ZM19.6641 5.5569C18.5737 3.64125 17.986 2.70505 17.6795 2.39417C17.1472 1.85409 16.418 1.52028 15.6411 1.46088C14.2277 1.35241 13.0582 1.99355 12.3361 3.27323C12.0395 3.79352 11.7412 4.31274 11.4409 4.83086L10.7866 5.96269H19.8948L19.6641 5.5569Z" fill="#3D3D3D"/>
<path d="M14.624 31.8701C14.5921 31.8378 14.4335 31.801 14.271 31.7881C13.8308 31.7529 12.9879 31.3055 12.4495 30.8206C11.9695 30.3883 11.549 29.8166 11.1909 29.1096C11.0839 28.8985 10.9746 28.7061 10.9485 28.6828C10.922 28.6593 10.7143 28.3326 10.4872 27.9565C10.2601 27.581 9.85839 27.071 9.59462 26.8234L9.1152 26.3733L7.10129 26.3675C4.53724 26.3601 3.88547 26.2468 3.02219 25.6602C2.39464 25.2338 1.50523 24.1901 1.50523 23.8808C1.50523 23.8172 1.42368 23.6128 1.32397 23.4266C1.17903 23.1554 1.13539 22.8978 1.10417 22.1272C1.07741 21.4577 1.09397 21.1661 1.15896 21.1661C1.21025 21.1661 1.2523 21.0667 1.2523 20.9453C1.2523 20.8236 1.3622 20.4872 1.49631 20.1977C1.74446 19.6627 3.28054 16.9381 3.44045 16.7499C3.48855 16.6931 3.52806 16.6191 3.52806 16.5856C3.52806 16.552 3.59017 16.4551 3.66599 16.3699C3.77844 16.244 3.78449 16.1914 3.69785 16.0858C3.63955 16.0145 3.62235 15.9561 3.66026 15.9561C3.69816 15.9561 3.66249 15.907 3.58157 15.8469C3.50066 15.7869 3.42548 15.6813 3.41465 15.6119C3.40414 15.5428 3.26142 15.2749 3.09769 15.0163C2.55423 14.1582 1.49217 12.2645 1.46031 12.0973C1.44311 12.0069 1.36411 11.81 1.28511 11.6596C1.18604 11.4704 1.13029 11.1101 1.10449 10.4893C1.07295 9.73584 1.09557 9.50728 1.24465 9.0592C1.70019 7.69171 2.78327 6.60249 4.11802 6.16991C4.50825 6.04336 4.96824 6.01592 7.02579 5.99687C8.3701 5.98428 9.39425 5.99461 9.30155 6.01947C9.20885 6.04433 9.09863 6.09759 9.05658 6.13762C8.96006 6.2306 9.34137 6.12019 9.51435 6.00526C9.66534 5.90487 9.87368 5.58624 10.2123 4.93768C10.3474 4.67942 10.5274 4.39081 10.6121 4.29687C10.6968 4.20325 10.765 4.0951 10.7634 4.05733C10.757 3.90173 11.6503 2.4432 11.9803 2.07001C12.1756 1.84856 12.3855 1.59546 12.4466 1.50765C12.5075 1.41984 12.7161 1.26618 12.9101 1.16675C13.1041 1.06699 13.2841 0.951744 13.3106 0.910745C13.3367 0.869424 13.5833 0.753852 13.8585 0.654099C14.3943 0.459435 16.0865 0.317714 16.0865 0.467828C16.0865 0.51141 16.2107 0.547243 16.3623 0.547243C16.7064 0.547243 17.6123 0.975311 18.0889 1.36335C18.4495 1.65647 19.2022 2.59913 19.2038 2.75989C19.2045 2.80703 19.3367 3.03333 19.4976 3.26286C19.6587 3.49206 19.7737 3.70739 19.7534 3.74064C19.733 3.77389 19.782 3.87429 19.8617 3.96339C20.0165 4.13642 20.9288 5.67469 20.9849 5.85741C21.0104 5.9407 21.5723 5.97201 23.4196 5.99364C24.7403 6.00914 26.0333 6.06176 26.2927 6.11083C27.671 6.37232 29.0306 7.66039 29.446 9.09762C29.5164 9.34232 29.5661 9.57282 29.5559 9.61026C29.5461 9.64739 29.5658 9.82139 29.6005 9.99669C29.6827 10.4141 29.4667 11.5666 29.2304 11.9724C29.131 12.1435 29.0787 12.2833 29.1147 12.2833C29.1504 12.2833 29.1033 12.3698 29.0096 12.4753C28.8497 12.6561 27.802 14.4694 27.802 14.5656C27.802 14.5899 27.6054 14.955 27.3655 15.3763L26.9291 16.1426L27.1336 16.5113C27.2461 16.7141 27.6322 17.3991 27.9915 18.0331C28.3508 18.6675 28.6445 19.2282 28.6445 19.2792C28.6445 19.3309 28.6809 19.3728 28.7251 19.3728C28.7694 19.3728 28.9593 19.6918 29.1472 20.0821C29.41 20.6267 29.5117 20.9666 29.5852 21.5429C29.6585 22.1165 29.6572 22.3086 29.5814 22.3564C29.5266 22.3903 29.5066 22.4839 29.5368 22.564C29.6044 22.7422 29.4132 23.4724 29.2992 23.4724C29.2536 23.4724 29.2374 23.5273 29.2632 23.5951C29.2887 23.6622 29.1549 23.9596 28.9663 24.2556C28.3725 25.186 27.5812 25.8207 26.6217 26.1351C26.1273 26.2975 25.8642 26.3159 23.9127 26.3243L21.7513 26.3339L20.9205 27.143C20.3917 27.6579 20.0127 28.1079 19.8776 28.3813C18.905 30.3499 17.7063 31.516 16.3231 31.8394C15.9087 31.9363 14.7106 31.9579 14.624 31.8701ZM11.9898 18.3476C12.3562 17.8075 12.6805 17.3365 12.7107 17.3013C12.741 17.2658 12.9452 17.3523 13.1647 17.4934L13.5638 17.7497H17.2591L17.6818 17.4969L18.1045 17.2445L18.8235 18.3298L19.5421 19.4151L19.5447 23.1735L19.5472 26.9318L19.7549 26.5899C19.9091 26.3362 19.9626 26.1277 19.9633 25.7787L19.9642 25.309L20.4602 24.9022C20.7832 24.6381 21.0773 24.2898 21.3028 23.9053C21.4933 23.5802 21.6491 23.2884 21.6491 23.2564C21.6491 23.1909 21.2244 23.5534 20.5816 24.1668C20.342 24.396 20.105 24.5829 20.0547 24.5829C19.991 24.5829 19.9636 23.7449 19.9636 21.8099V19.0368L19.3641 18.1748C19.0344 17.7009 18.7783 17.2997 18.7951 17.2829C18.812 17.2664 19.1784 17.3332 19.6097 17.4314L20.394 17.6096L21.3799 16.624L22.3655 15.6381L23.3275 15.2846C23.857 15.0899 24.303 14.944 24.3189 14.9601C24.3348 14.9763 24.3061 15.7585 24.2552 16.6982C24.2042 17.6377 24.1755 18.4993 24.1915 18.6119C24.2138 18.7717 24.388 18.5248 24.9783 17.4982C25.3956 16.7728 25.7352 16.163 25.7326 16.143C25.7205 16.0371 24.7161 14.3351 24.6655 14.3342C24.6323 14.3335 22.907 14.9672 20.832 15.7423C17.1559 17.1156 17.0418 17.1518 16.4041 17.1518H15.7491V6.98762H15.075V17.1518H14.5157C14.0315 17.1518 13.7413 17.0711 12.3453 16.5488C11.5138 16.2375 10.6818 15.9272 9.84947 15.6181C7.04618 14.5792 6.30936 14.2819 6.30936 14.1896C6.30936 14.1331 6.27814 14.0675 6.24024 14.0436C6.15136 13.9881 4.93862 16.0871 4.97557 16.2324C5.01507 16.3899 6.68143 19.2802 6.71361 19.2476C6.72858 19.2324 6.68239 18.2668 6.61167 17.1018C6.54063 15.9367 6.4954 14.9701 6.51164 14.954C6.52757 14.9379 6.80153 15.025 7.1204 15.1477C7.43896 15.2704 7.8706 15.4286 8.07925 15.4996C8.3701 15.5987 8.68801 15.8595 9.44267 16.6175L10.427 17.6063L11.1285 17.453C11.5142 17.3691 11.8774 17.2819 11.9354 17.2593C12.1383 17.1815 12.0357 17.3849 11.4508 18.2194L10.8609 19.0613V21.8221C10.8609 23.4931 10.8293 24.5829 10.7812 24.5829C10.7376 24.5829 10.2636 24.1771 9.72778 23.6813C9.19197 23.1857 8.75364 22.798 8.75364 22.82C8.75364 22.8419 8.89985 23.1225 9.07856 23.4437C9.31716 23.873 9.59526 24.1975 10.1272 24.6682L10.8513 25.309L10.8558 25.9068C10.859 26.3562 10.9074 26.5948 11.0501 26.8682L11.24 27.2314L11.282 23.2807L11.3244 19.3299L11.9898 18.3476ZM8.41692 24.8441C8.41692 24.3495 8.38953 24.2888 7.35359 22.4736C6.76872 21.4493 6.24374 20.5534 6.1864 20.483C6.12906 20.4127 6.05675 20.2819 6.02521 20.1925C5.99399 20.1034 5.72832 19.623 5.43525 19.1249C5.14218 18.6271 4.7803 17.9983 4.63058 17.7284C4.48085 17.4585 4.34611 17.2374 4.33081 17.2374C4.30119 17.2374 3.45797 18.7036 2.71001 20.0556C2.1519 21.0651 2.0678 21.3728 2.11271 22.2431C2.14011 22.7796 2.20191 23.0466 2.38572 23.4279C2.83998 24.3683 3.78481 25.0946 4.77393 25.2635C4.99277 25.3009 5.90193 25.3361 6.7942 25.3416L8.41692 25.3516V24.8441ZM25.8671 25.2654C26.5188 25.1401 27.1289 24.8296 27.5611 24.4025C28.2578 23.7142 28.5815 22.9381 28.5764 21.9684C28.5716 21.0696 28.5665 21.058 26.7925 17.9466L26.3446 17.1612L25.5065 18.6223C25.0452 19.4261 24.6467 20.1444 24.6209 20.219C24.5951 20.2939 24.5253 20.4127 24.4667 20.483C24.3711 20.597 23.9449 21.3272 22.772 23.3853C22.4279 23.9883 22.4079 24.06 22.4079 24.6875V25.3516H23.9137C24.7419 25.3516 25.6208 25.3128 25.8671 25.2654ZM5.18614 13.6688L5.88887 12.4492L5.59357 11.2602C5.4311 10.6062 5.29795 10.0077 5.29795 9.92986C5.29795 9.8059 5.37918 9.7946 5.95099 9.83947C6.31032 9.86756 6.76967 9.89919 6.97228 9.90985L7.33989 9.92922L7.93304 8.90683C8.21846 8.41641 8.49975 7.92355 8.77689 7.42828L9.02728 6.97213L6.88881 7.01055C4.52259 7.05251 4.19798 7.1103 3.50544 7.61003C2.61826 8.25052 2.09519 9.26613 2.09519 10.3476C2.09519 11.0223 2.26084 11.595 2.63132 12.1977C2.78996 12.456 3.1356 13.0887 3.39968 13.6036C3.66376 14.1182 3.97117 14.6496 4.08298 14.7845C4.19511 14.9191 4.28781 15.0747 4.28908 15.1299C4.29036 15.1848 4.33464 15.1532 4.3872 15.0589C4.43976 14.9653 4.79973 14.3397 5.18614 13.6688ZM27.3448 13.3935C27.845 12.5244 28.3254 11.6247 28.412 11.3942C28.5777 10.9542 28.6286 10.0625 28.5181 9.54376C28.3448 8.73347 27.5987 7.78694 26.816 7.38502C26.1869 7.06187 25.4558 6.97955 23.4566 7.00635L21.6816 7.03024L22.4703 8.39676C22.9039 9.14862 23.2855 9.80751 23.3177 9.86142C23.3619 9.93438 23.6744 9.93729 24.5393 9.87208C25.1787 9.82397 25.717 9.80009 25.7355 9.81913C25.7543 9.83786 25.6195 10.4577 25.4361 11.196C25.2529 11.9346 25.0962 12.6255 25.0879 12.7313C25.0707 12.9509 26.292 15.1319 26.378 15.0363C26.4092 15.0018 26.8444 14.2625 27.3448 13.3935ZM19.6173 10.233C19.7798 10.233 20.4322 10.1891 21.068 10.1352L22.2237 10.037L22.1336 9.83624C22.0839 9.72584 21.9775 9.63544 21.8969 9.63544C21.6838 9.63544 20.0499 9.79847 19.7425 9.85077C19.4925 9.89274 19.4705 9.87304 19.2918 9.44498C19.1886 9.19737 19.0417 8.89876 18.9656 8.78125C18.8891 8.66374 18.8216 8.51007 18.8152 8.43937C18.8088 8.369 18.6687 8.01324 18.503 7.64942C18.2447 7.07963 18.1733 6.98762 17.9901 6.98762H17.778L18.0774 7.69203C18.9726 9.80202 19.1182 10.1575 19.1096 10.2139C19.0847 10.3792 19.1299 10.4283 19.2214 10.3357C19.2771 10.2795 19.4552 10.233 19.6173 10.233ZM11.662 10.1491C11.6378 10.1094 11.6547 10.0642 11.6993 10.0483C11.7442 10.0325 12.0647 9.34716 12.4113 8.52492C12.9974 7.13483 13.0293 7.0283 12.8684 7.00151C12.7728 6.98601 12.6629 7.0057 12.6238 7.04573C12.5843 7.08544 12.2867 7.73271 11.9621 8.4836C11.441 9.69 11.3499 9.84786 11.1798 9.83979C11.0737 9.83495 10.4796 9.78072 9.85966 9.71938L8.73229 9.60768L8.57843 9.81364L8.42457 10.0196L10.0008 10.1513C11.5808 10.2837 11.7436 10.2834 11.662 10.1491ZM8.77371 6.24738C8.71573 6.2235 8.68929 6.16894 8.71573 6.126C8.74185 6.08307 8.72529 6.04788 8.67909 6.04788C8.65266 6.04992 8.62703 6.05801 8.60413 6.07154C8.58123 6.08507 8.56166 6.10369 8.54689 6.126C8.50007 6.20348 8.63195 6.29064 8.79537 6.29064C8.84188 6.29064 8.832 6.27127 8.77371 6.24738ZM9.90649 5.86096C9.87973 5.79317 9.85966 5.81318 9.85552 5.91261C9.85202 6.003 9.87177 6.05304 9.90012 6.02496C9.92783 5.99655 9.93102 5.92262 9.90649 5.86096ZM19.6638 5.55686C18.5737 3.64121 17.986 2.70501 17.6796 2.39413C17.1472 1.85404 16.4181 1.52024 15.6411 1.46084C14.2277 1.35237 13.0583 1.9935 12.3361 3.27319C12.0396 3.79348 11.7412 4.3127 11.441 4.83082L10.7867 5.96265H19.8948L19.6638 5.55686Z" fill="#3D3D3D"/>
<path d="M14.6536 31.8491C14.5838 31.8004 14.3997 31.7597 14.2442 31.7587C13.7632 31.7568 12.9436 31.2919 12.3166 30.6663C11.7824 30.133 11.1135 29.1442 11.1135 28.8875C11.1135 28.8265 11.0634 28.7458 11.0023 28.7084C10.8946 28.6422 10.3843 27.7877 10.3492 27.6149C10.3397 27.5681 10.1097 27.3202 9.83797 27.0645C9.56592 26.8085 9.34357 26.5528 9.34357 26.4967C9.34357 26.3834 7.95276 26.3223 5.99332 26.3495C5.26702 26.3592 4.87647 26.3336 4.87647 26.2762C4.87647 26.2239 4.78918 26.2094 4.6659 26.2407C4.53784 26.2733 4.45502 26.2581 4.45502 26.2016C4.45502 26.1483 4.38494 26.1316 4.28937 26.1619C4.04759 26.2397 2.95494 25.6796 2.50355 25.246C1.99832 24.7608 1.56477 24.1145 1.42874 23.6432C1.3679 23.4318 1.27488 23.2316 1.22264 23.1984C1.09108 23.1151 1.03023 21.1662 1.15893 21.1662C1.21022 21.1662 1.25226 21.0968 1.25226 21.0115C1.25226 20.7423 1.66511 19.7735 1.97475 19.3167C2.26463 18.8886 2.3688 18.7033 3.05338 17.392C3.23272 17.0485 3.40411 16.7483 3.43469 16.7247C3.52994 16.6511 3.78096 16.2221 3.78096 16.1333C3.78096 16.0865 3.70387 15.9754 3.60989 15.8867C3.51592 15.7979 3.42131 15.6333 3.39965 15.5206C3.37862 15.4079 3.32287 15.303 3.27605 15.2872C3.25182 15.2777 3.23084 15.2612 3.21568 15.2399C3.20052 15.2185 3.19183 15.1931 3.19067 15.1668C3.19067 15.1164 3.09415 14.9466 2.97597 14.7897C2.85746 14.6325 2.79121 14.5034 2.82816 14.5024C2.86543 14.5021 2.8546 14.4733 2.80395 14.4385C2.6469 14.3313 1.48959 12.2765 1.46665 12.0644C1.45455 11.9537 1.37427 11.7558 1.28826 11.6247C1.03151 11.2338 1.01112 9.79817 1.25099 9.04179C1.35357 8.71832 1.50488 8.38 1.58738 8.29057C1.66989 8.20083 1.76195 8.0491 1.7919 7.95354C1.88969 7.64137 2.84154 6.76296 3.38213 6.48598C4.16195 6.08632 4.97172 5.96267 6.80373 5.96267C8.29584 5.96267 8.38695 5.97204 8.52934 6.14023C8.62491 6.25354 8.73162 6.29809 8.82209 6.2629C8.94284 6.22025 9.06629 6.18596 9.19162 6.16024C9.31649 6.13474 9.47736 6.05113 9.54936 5.9743C9.80229 5.70312 10.1164 5.27925 10.0638 5.27925C9.99055 5.27925 10.4286 4.51157 10.6366 4.27558C10.7296 4.17002 10.7809 4.0835 10.7506 4.0835C10.6968 4.0835 11.5113 2.63143 11.613 2.54588C11.641 2.52232 11.8328 2.29182 12.0398 2.03356C12.5329 1.41696 12.7808 1.17936 12.9299 1.17936C12.9971 1.17936 13.1325 1.09801 13.2306 0.998577C13.5361 0.688664 14.2818 0.476244 15.2225 0.430403C15.729 0.405546 16.0864 0.421041 16.0864 0.467851C16.0864 0.511433 16.2154 0.547266 16.3731 0.547266C16.8191 0.547266 17.8576 1.1135 18.3768 1.63971C18.6263 1.89281 18.9375 2.31409 19.0681 2.57591C19.1987 2.83772 19.3969 3.15861 19.508 3.29C19.6192 3.42139 19.7151 3.55697 19.7211 3.59216C19.7269 3.62767 19.7364 3.69353 19.7422 3.73905C19.7479 3.78424 19.8097 3.89013 19.8791 3.97374C20.0289 4.15453 20.9368 5.70086 20.9849 5.85776C21.0103 5.94169 21.5611 5.97333 23.3775 5.99593C26.0011 6.02885 26.558 6.09148 27.2187 6.42787C27.7707 6.70873 28.5464 7.36632 28.6493 7.64072C28.6907 7.75113 28.7566 7.84152 28.7958 7.84152C28.9688 7.84152 29.6266 9.39109 29.5247 9.55831C29.4998 9.59867 29.5228 9.77687 29.575 9.95442C29.6505 10.2095 29.6422 10.4274 29.5355 10.9971C29.4616 11.3933 29.3488 11.7774 29.2854 11.8507C29.2221 11.9243 29.1424 12.0802 29.1083 12.1977C29.0742 12.3152 28.9981 12.4689 28.9395 12.5393C28.8063 12.6991 27.8019 14.4956 27.8016 14.5744C27.8016 14.606 27.6121 14.9514 27.3802 15.3421C27.1486 15.7324 26.959 16.0878 26.959 16.1323C26.959 16.225 27.1655 16.6166 27.4735 17.1092C27.5911 17.2971 27.9096 17.873 28.1813 18.3892C28.4531 18.9054 28.7394 19.3971 28.8175 19.4823C28.8959 19.5675 29.0258 19.7987 29.1064 19.9959C29.187 20.1935 29.3065 20.4582 29.3718 20.5844C29.5406 20.9098 29.6664 22.0123 29.5581 22.217C29.511 22.3067 29.4944 22.502 29.5225 22.6512C29.5562 22.8352 29.5193 23.0289 29.4062 23.2529C29.3151 23.4347 29.2581 23.6125 29.28 23.6484C29.3558 23.773 28.4798 24.9842 28.1418 25.2215C27.9548 25.3529 27.8019 25.4872 27.8019 25.5204C27.8019 25.5537 27.6121 25.6851 27.3805 25.8133C27.1486 25.9411 26.959 26.0192 26.959 25.9869C26.959 25.9547 26.9116 25.9679 26.8539 26.016C26.5659 26.2549 25.9352 26.3211 23.8754 26.3275L21.7605 26.334L20.9253 27.133C20.3551 27.6785 20.0228 28.0717 19.8788 28.3717C19.5995 28.9534 19.0614 29.8408 18.8372 30.0904C18.0264 30.9911 17.8031 31.1783 17.1383 31.5121C16.4792 31.843 16.368 31.8714 15.6038 31.9034C15.1126 31.924 14.7287 31.9021 14.6536 31.8491ZM11.9898 18.3476C12.3561 17.8075 12.6804 17.3365 12.7107 17.3013C12.741 17.2658 12.9452 17.3523 13.1646 17.4934L13.5638 17.7497H17.259L17.6818 17.4969L18.1045 17.2445L18.8235 18.3298L19.5421 19.4152L19.5447 23.1735L19.5472 26.9318L19.7549 26.59C19.9091 26.3362 19.9626 26.1277 19.9632 25.7787L19.9642 25.309L20.4602 24.9022C20.7832 24.6382 21.0772 24.2898 21.3028 23.9054C21.4933 23.5803 21.649 23.2884 21.649 23.2565C21.649 23.1909 21.2244 23.5535 20.5816 24.1668C20.342 24.396 20.105 24.583 20.0547 24.583C19.991 24.583 19.9636 23.7449 19.9636 21.8099V19.0368L19.364 18.1749C19.0343 17.701 18.7782 17.2997 18.7951 17.2829C18.812 17.2664 19.1783 17.3333 19.6096 17.4314L20.3939 17.6096L21.3799 16.624L22.3655 15.6381L23.3275 15.2846C23.8569 15.0899 24.3029 14.944 24.3189 14.9602C24.3348 14.9763 24.3061 15.7585 24.2551 16.6983C24.2042 17.6377 24.1755 18.4993 24.1914 18.612C24.2137 18.7718 24.388 18.5248 24.9783 17.4982C25.3956 16.7728 25.7352 16.163 25.7326 16.143C25.7205 16.0371 24.7161 14.3352 24.6654 14.3342C24.6323 14.3336 22.907 14.9673 20.8319 15.7424C17.1558 17.1157 17.0418 17.1518 16.404 17.1518H15.7491V6.98765H15.075V17.1518H14.5156C14.0314 17.1518 13.7412 17.0711 12.3453 16.5488C11.5137 16.2375 10.6818 15.9273 9.84943 15.6181C7.04615 14.5792 6.30933 14.2819 6.30933 14.1896C6.30933 14.1331 6.27811 14.0675 6.2402 14.0437C6.15133 13.9881 4.93859 16.0871 4.97554 16.2324C5.01504 16.39 6.6814 19.2802 6.71358 19.2476C6.72855 19.2324 6.68236 18.2669 6.61164 17.1018C6.5406 15.9367 6.49537 14.9702 6.51161 14.954C6.52754 14.9379 6.8015 15.025 7.12037 15.1477C7.43893 15.2704 7.87057 15.4286 8.07922 15.4996C8.37006 15.5987 8.68798 15.8596 9.44264 16.6175L10.427 17.6064L11.1284 17.453C11.5142 17.3691 11.8774 17.2819 11.9353 17.2593C12.1383 17.1815 12.0357 17.3849 11.4508 18.2194L10.8608 19.0613V21.8222C10.8608 23.4931 10.8293 24.583 10.7812 24.583C10.7376 24.583 10.2636 24.1772 9.72775 23.6813C9.19194 23.1858 8.7536 22.7981 8.7536 22.82C8.7536 22.842 8.89982 23.1225 9.07853 23.4437C9.31713 23.8731 9.59523 24.1975 10.1272 24.6682L10.8513 25.309L10.8558 25.9069C10.8589 26.3562 10.9074 26.5948 11.0501 26.8682L11.2399 27.2314L11.282 23.2807L11.3243 19.3299L11.9898 18.3476ZM8.41689 24.8441C8.41689 24.3496 8.3895 24.2889 7.35355 22.4736C6.76869 21.4493 6.24371 20.5534 6.18637 20.4831C6.12903 20.4127 6.05672 20.2819 6.02518 20.1925C5.99396 20.1034 5.72829 19.6231 5.43521 19.1249C5.14214 18.6271 4.78026 17.9983 4.63054 17.7284C4.48082 17.4585 4.34607 17.2374 4.33078 17.2374C4.30116 17.2374 3.45794 18.7037 2.70997 20.0556C2.15187 21.0651 2.06777 21.3728 2.11268 22.2431C2.14008 22.7797 2.20188 23.0466 2.38568 23.4279C2.83994 24.3683 3.78478 25.0946 4.77389 25.2635C4.99274 25.3009 5.9019 25.3361 6.79417 25.3416L8.41689 25.3516V24.8441ZM25.867 25.2654C26.5188 25.1402 27.1288 24.8296 27.5611 24.4025C28.2578 23.7142 28.5814 22.9382 28.5763 21.9684C28.5716 21.0696 28.5665 21.058 26.7924 17.9466L26.3445 17.1612L25.5064 18.6223C25.0452 19.4261 24.6466 20.1444 24.6208 20.219C24.595 20.2939 24.5253 20.4127 24.4667 20.4831C24.3711 20.597 23.9449 21.3273 22.7719 23.3853C22.4279 23.9883 22.4078 24.06 22.4078 24.6876V25.3516H23.9137C24.7419 25.3516 25.6208 25.3129 25.867 25.2654ZM5.18483 13.6708L5.88661 12.4534L5.57442 11.1763C5.4024 10.4738 5.2839 9.87726 5.31034 9.85047C5.33678 9.82367 5.80346 9.83239 6.34692 9.87016L7.3354 9.93892L7.67657 9.33847C7.86452 9.00854 8.15504 8.51526 8.3226 8.24183C8.50242 7.94738 8.67481 7.64835 8.83961 7.34502L9.05209 6.94471L6.94325 6.9912C5.27339 7.02768 4.73567 7.06835 4.36073 7.18619C3.03458 7.60263 2.09516 8.91363 2.09516 10.3476C2.09516 11.0243 2.26145 11.597 2.6332 12.1977C2.7928 12.456 3.08236 12.9942 3.27668 13.3935C3.471 13.7928 3.78605 14.3587 3.97719 14.6512C4.2693 15.0987 4.33715 15.1597 4.40373 15.0354C4.44737 14.9547 4.79874 14.3403 5.18483 13.6708ZM27.3445 13.3935C27.8449 12.5244 28.3256 11.6247 28.4123 11.3942C28.5779 10.9542 28.6289 10.0626 28.518 9.54378C28.3448 8.73349 27.5987 7.78696 26.816 7.38505C26.1869 7.0619 25.4558 6.97958 23.4565 7.00637L21.6815 7.03026L22.4703 8.39678C22.9038 9.14865 23.2855 9.80753 23.3176 9.86145C23.3619 9.9344 23.6744 9.93731 24.5393 9.8721C25.1786 9.824 25.717 9.80011 25.7355 9.81916C25.7543 9.83788 25.6195 10.4577 25.436 11.196C25.2529 11.9346 25.0961 12.6255 25.0878 12.7314C25.0706 12.9509 26.292 15.1319 26.378 15.0363C26.4092 15.0018 26.844 14.2625 27.3445 13.3935ZM19.6176 10.233C19.7801 10.233 20.4325 10.1891 21.0683 10.1352L22.224 10.0371L22.1339 9.83626C22.0842 9.72586 21.9778 9.63547 21.8972 9.63547C21.6841 9.63547 20.0502 9.79849 19.7428 9.85079C19.4927 9.89276 19.4708 9.87307 19.2921 9.445C19.1888 9.19739 19.042 8.89878 18.9659 8.78127C18.8894 8.66376 18.8219 8.5101 18.8155 8.4394C18.8091 8.36902 18.669 8.01327 18.5033 7.64944C18.245 7.07965 18.1736 6.98765 17.9904 6.98765H17.7783L18.0777 7.69205C18.9729 9.80204 19.1184 10.1575 19.1098 10.214C19.085 10.3793 19.1302 10.4283 19.2217 10.3357C19.2774 10.2795 19.4555 10.233 19.6176 10.233ZM11.6623 10.1491C11.6381 10.1094 11.655 10.0642 11.6996 10.0484C11.7445 10.0325 12.065 9.34718 12.4116 8.52495C12.9977 7.13486 13.0296 7.02832 12.8687 7.00153C12.7731 6.98603 12.6632 7.00573 12.6241 7.04576C12.5846 7.08546 12.287 7.73273 11.9624 8.48362C11.4413 9.69002 11.3501 9.84789 11.18 9.83982C11.074 9.83497 10.4799 9.78074 9.85995 9.7194L8.73258 9.6077L8.57872 9.81367L8.42486 10.0196L10.0011 10.1513C11.5811 10.2837 11.7439 10.2834 11.6623 10.1491ZM10.018 5.92006C10.1033 5.81547 10.0992 5.79158 9.99502 5.79158C9.92493 5.79158 9.84529 5.84936 9.81885 5.91974C9.7921 5.99044 9.80229 6.0479 9.84147 6.0479C9.88097 6.0479 9.96029 5.99076 10.018 5.92006ZM19.6641 5.55688C18.574 3.64123 17.9863 2.70504 17.6798 2.39415C17.1475 1.85407 16.4184 1.52026 15.6414 1.46086C14.228 1.35239 13.0586 1.99353 12.3364 3.27321C12.0399 3.7935 11.7415 4.31272 11.4413 4.83085L10.7869 5.96267H19.8951L19.6641 5.55688ZM8.7759 5.98656C8.90396 5.96719 9.0935 5.96752 9.19735 5.98785C9.30088 6.00819 9.19608 6.02401 8.96417 6.02337C8.73258 6.02272 8.64784 6.00626 8.7759 5.98656Z" fill="#3D3D3D"/>
<path d="M14.6956 31.8491C14.6029 31.8055 14.4031 31.7671 14.2518 31.7636C14.1005 31.7603 13.911 31.7239 13.8304 31.6829C13.6847 31.6111 13.5376 31.5424 13.3892 31.4769C12.7116 31.1767 11.7684 30.193 11.3297 29.3288C11.1494 28.9737 10.9739 28.6828 10.9395 28.6828C10.9051 28.6828 10.8359 28.577 10.7859 28.4478C10.7356 28.3187 10.5957 28.0646 10.4753 27.8829C10.3549 27.7018 10.3068 27.5849 10.3689 27.6237C10.4307 27.6624 10.3865 27.5756 10.2705 27.4309C10.1549 27.286 10.0357 27.1814 10.0061 27.1985C9.97616 27.2153 9.89142 27.1359 9.81816 27.0219C9.74425 26.9079 9.58625 26.7155 9.46679 26.5945L9.24953 26.3743L7.07189 26.3543C5.87412 26.343 4.93757 26.3059 4.99077 26.271C5.07646 26.2155 4.62125 26.1622 4.28644 26.189C4.217 26.1945 4.04562 26.1454 3.90577 26.0799C3.74323 26.0045 3.57858 25.9339 3.41201 25.8681C3.05395 25.7303 2.44201 25.2612 2.38594 25.082C2.35887 24.9955 2.28209 24.9245 2.21583 24.9245C2.14957 24.9245 2.09478 24.867 2.09478 24.7963C2.09478 24.7256 2.06293 24.6682 2.02375 24.6682C1.93933 24.6682 1.33662 23.5057 1.33662 23.3427C1.3351 23.3103 1.32432 23.2791 1.3056 23.2528C1.28687 23.2266 1.26102 23.2064 1.23118 23.1948C1.09834 23.1499 1.03591 21.2517 1.16747 21.2517C1.21398 21.2517 1.2522 21.1833 1.2522 21.0993C1.2522 20.8149 1.69627 19.6473 1.84376 19.5433C1.96258 19.46 2.60065 18.3424 2.60065 18.2181C2.60065 18.1484 2.62932 18.0912 2.66436 18.0912C2.69908 18.0912 2.82045 17.9088 2.93418 17.6858C3.04758 17.4624 3.24668 17.1192 3.37633 16.9229C3.50598 16.7267 3.61206 16.5249 3.61206 16.4742C3.61206 16.4242 3.65029 16.3832 3.69648 16.3832C3.84493 16.3832 3.78663 16.0474 3.60633 15.8644C3.51012 15.7675 3.4187 15.6232 3.40309 15.5441C3.3569 15.3136 2.93099 14.5895 2.84148 14.5895C2.79624 14.5895 2.78286 14.5508 2.81153 14.504C2.8402 14.4569 2.82332 14.4185 2.77426 14.4185C2.7252 14.4185 2.68507 14.382 2.68507 14.3377C2.68507 14.2935 2.57134 14.0853 2.43213 13.8767C2.29324 13.6679 2.1792 13.4729 2.1792 13.4432C2.1792 13.4135 2.02757 13.1462 1.84217 12.8485C1.65677 12.5509 1.50514 12.2462 1.50514 12.1713C1.50514 11.9969 1.32292 11.575 1.21398 11.4978C1.16811 11.4649 1.11523 11.0314 1.09739 10.5339C1.06967 9.77331 1.0942 9.53635 1.25093 9.04178C1.35351 8.71831 1.5096 8.37515 1.59784 8.27927C1.68576 8.18339 1.75807 8.06136 1.75807 8.00777C1.75807 7.95418 2.00654 7.64943 2.31076 7.32983C3.36136 6.22738 4.31257 5.94104 6.80335 5.97848C8.13714 5.9985 8.37415 6.02239 8.52132 6.15152C8.70194 6.31035 8.93767 6.29292 9.36039 6.08954C9.52859 6.00851 9.59835 6.0056 9.62766 6.07792C9.64964 6.13183 9.67035 6.09535 9.67385 5.99624C9.67767 5.89746 9.77547 5.71312 9.89142 5.58625C10.0074 5.45938 10.102 5.30216 10.102 5.23695C10.102 5.11234 10.3931 4.55902 10.5738 4.3395C10.6321 4.26912 10.8181 3.93822 10.9879 3.60442C11.4106 2.77024 12.33 1.62388 12.8425 1.2904C13.0738 1.14029 13.329 0.957893 13.4102 0.884934C13.4914 0.811975 13.6071 0.752252 13.6673 0.752252C13.7275 0.752252 13.8128 0.718033 13.8568 0.676065C14.0776 0.46526 16.0864 0.295776 16.0864 0.487535C16.0864 0.529502 16.2186 0.564368 16.3804 0.564368C16.8273 0.564368 17.8311 1.10446 18.35 1.62388C18.5985 1.87246 18.9075 2.28761 19.0368 2.54587C19.1665 2.80414 19.371 3.13116 19.4914 3.27223C19.6118 3.41299 19.7103 3.58828 19.7103 3.66156C19.7103 3.73484 19.7772 3.86946 19.859 3.9605C20.0167 4.13676 20.9281 5.67309 20.9854 5.85968C21.0122 5.94685 21.5165 5.97041 23.3548 5.97106C24.7316 5.97138 25.7106 6.00496 25.7395 6.05241C25.7666 6.09696 25.9711 6.13312 26.1941 6.13312C26.4878 6.13312 26.7596 6.21479 27.1823 6.42915C27.7366 6.71001 28.6024 7.41312 28.6024 7.58228C28.6024 7.62554 28.6875 7.74112 28.7913 7.83925C29.1057 8.13625 29.4838 9.02499 29.4864 9.47308C29.487 9.59543 29.5307 9.82076 29.5832 9.9741C29.6603 10.1981 29.6489 10.3889 29.5246 10.9477C29.3472 11.7458 29.1981 12.0718 28.3396 13.542C27.9975 14.1276 27.7171 14.6509 27.7168 14.7048C27.7168 14.7587 27.5461 15.0709 27.3377 15.3982C27.1294 15.7256 26.9587 16.0429 26.9587 16.1033C26.9587 16.223 27.1406 16.5778 27.4738 17.1092C27.5916 17.2971 27.9242 17.9014 28.2128 18.4522C28.5017 19.0029 28.7744 19.4765 28.819 19.5046C28.9168 19.5659 29.2577 20.2267 29.1911 20.2267C29.1656 20.2267 29.1917 20.3133 29.2503 20.4188C29.456 20.7897 29.5642 21.2079 29.5648 21.6333C29.5648 22.3629 29.5214 22.9207 29.4558 23.0282C29.4214 23.0847 29.424 23.1315 29.4615 23.1322C29.4988 23.1328 29.4813 23.1645 29.422 23.2025C29.3631 23.2406 29.2988 23.3988 29.2793 23.5538C29.2395 23.874 28.7849 24.6101 28.4234 24.9406C28.2902 25.0623 28.0325 25.299 27.8513 25.4669C27.67 25.6347 27.4897 25.7516 27.4508 25.7274C27.412 25.7032 27.3804 25.7261 27.3804 25.7787C27.3804 25.8313 27.3422 25.8504 27.296 25.8213C27.2498 25.7923 27.2119 25.8084 27.2119 25.8565C27.2119 25.9049 27.1488 25.9195 27.0717 25.8898C26.9698 25.85 26.9501 25.8662 27.0004 25.9482C27.0482 26.027 27.037 26.0412 26.9625 25.9943C26.9032 25.9572 26.8293 25.9711 26.7962 26.0253C26.6627 26.2442 25.6641 26.3449 23.8827 26.3185C22.9092 26.3043 22.0179 26.3127 21.9019 26.3372C21.6222 26.3966 19.8791 28.1063 19.8791 28.3216C19.8791 28.412 19.7749 28.637 19.6472 28.8213C19.5194 29.0057 19.3433 29.2901 19.2547 29.4534C19.1031 29.7333 18.2159 30.8306 18.0958 30.8868C18.0652 30.901 17.9534 30.9888 17.8473 31.0821C17.7413 31.1757 17.3679 31.3881 17.0178 31.5547C16.4712 31.8149 16.274 31.8627 15.6226 31.893C15.2052 31.9124 14.7883 31.893 14.6956 31.8491ZM11.9897 18.3476C12.3561 17.8075 12.6804 17.3365 12.7106 17.3013C12.7409 17.2658 12.9451 17.3523 13.1646 17.4934L13.5637 17.7497H17.259L17.6817 17.4969L18.1044 17.2445L18.8234 18.3298L19.5421 19.4152L19.5446 23.1735L19.5472 26.9318L19.7549 26.59C19.909 26.3362 19.9625 26.1277 19.9632 25.7787L19.9641 25.309L20.4601 24.9022C20.7831 24.6382 21.0772 24.2898 21.3027 23.9053C21.4932 23.5803 21.649 23.2884 21.649 23.2565C21.649 23.1909 21.2243 23.5535 20.5815 24.1668C20.3419 24.396 20.1049 24.583 20.0546 24.583C19.9909 24.583 19.9635 23.7449 19.9635 21.8099V19.0368L19.364 18.1749C19.0343 17.7009 18.7782 17.2997 18.795 17.2829C18.8119 17.2664 19.1783 17.3332 19.6096 17.4314L20.3939 17.6096L21.3798 16.624L22.3654 15.6381L23.3274 15.2846C23.8569 15.0899 24.3029 14.944 24.3188 14.9602C24.3347 14.9763 24.3061 15.7585 24.2551 16.6982C24.2041 17.6377 24.1754 18.4993 24.1914 18.612C24.2137 18.7718 24.3879 18.5248 24.9782 17.4982C25.3955 16.7728 25.7351 16.163 25.7325 16.143C25.7204 16.0371 24.716 14.3352 24.6654 14.3342C24.6322 14.3335 22.907 14.9673 20.8319 15.7424C17.1558 17.1157 17.0417 17.1518 16.404 17.1518H15.749V6.98764H15.075V17.1518H14.5156C14.0314 17.1518 13.7412 17.0711 12.3453 16.5488C11.5137 16.2375 10.6817 15.9273 9.84937 15.6181C7.04609 14.5792 6.30927 14.2819 6.30927 14.1896C6.30927 14.1331 6.27805 14.0675 6.24014 14.0436C6.15127 13.9881 4.93853 16.0871 4.97548 16.2324C5.01498 16.3899 6.68134 19.2802 6.71352 19.2476C6.72849 19.2324 6.6823 18.2669 6.61158 17.1018C6.54054 15.9367 6.49531 14.9702 6.51155 14.954C6.52748 14.9379 6.80144 15.025 7.12031 15.1477C7.43887 15.2704 7.87051 15.4286 8.07916 15.4996C8.37 15.5987 8.68792 15.8595 9.44258 16.6175L10.4269 17.6064L11.1284 17.453C11.5141 17.3691 11.8773 17.2819 11.9353 17.2593C12.1382 17.1815 12.0356 17.3849 11.4508 18.2194L10.8608 19.0613V21.8221C10.8608 23.4931 10.8293 24.583 10.7811 24.583C10.7375 24.583 10.2635 24.1772 9.72769 23.6813C9.19188 23.1858 8.75354 22.798 8.75354 22.82C8.75354 22.8419 8.89976 23.1225 9.07847 23.4437C9.31707 23.8731 9.59517 24.1975 10.1272 24.6682L10.8512 25.309L10.8557 25.9069C10.8589 26.3562 10.9073 26.5948 11.05 26.8682L11.2399 27.2314L11.2819 23.2807L11.3243 19.3299L11.9897 18.3476ZM8.41683 24.8441C8.41683 24.3496 8.38944 24.2889 7.35349 22.4736C6.76863 21.4493 6.24365 20.5534 6.18631 20.4831C6.12897 20.4127 6.05666 20.2819 6.02512 20.1925C5.9939 20.1034 5.72823 19.6231 5.43515 19.1249C5.14208 18.6271 4.7802 17.9983 4.63048 17.7284C4.48076 17.4585 4.34601 17.2374 4.33072 17.2374C4.3011 17.2374 3.45788 18.7036 2.70991 20.0556C2.1518 21.0651 2.06771 21.3728 2.11262 22.2431C2.14002 22.7796 2.20182 23.0466 2.38562 23.4279C2.83988 24.3683 3.78472 25.0946 4.77383 25.2635C4.99268 25.3009 5.90184 25.3361 6.79411 25.3416L8.41683 25.3516V24.8441ZM25.867 25.2654C26.5187 25.1402 27.1288 24.8296 27.561 24.4025C28.2577 23.7142 28.5814 22.9382 28.5763 21.9684C28.5715 21.0696 28.5664 21.058 26.7924 17.9466L26.3445 17.1612L25.5064 18.6223C25.0451 19.4261 24.6466 20.1444 24.6208 20.219C24.595 20.2939 24.5252 20.4127 24.4666 20.4831C24.371 20.597 23.9448 21.3273 22.7719 23.3853C22.4278 23.9883 22.4078 24.06 22.4078 24.6875V25.3516H23.9136C24.7418 25.3516 25.6207 25.3129 25.867 25.2654ZM5.46223 13.2227C5.48772 13.1991 5.59379 13.0113 5.69764 12.8053L5.88687 12.4302L5.5922 11.2441C5.43038 10.592 5.29786 10.0022 5.29786 9.93407C5.29786 9.83722 5.39438 9.81786 5.74065 9.84433C5.98371 9.86337 6.44402 9.88823 6.76321 9.89985L7.34394 9.92084L7.62618 9.4579C7.78131 9.20287 7.95429 8.89877 8.00972 8.78126C8.06578 8.66375 8.26998 8.31768 8.4643 8.01261C8.65861 7.70722 8.84338 7.37083 8.87523 7.26495C8.90709 7.15938 8.96889 7.07287 9.01221 7.07287C9.05522 7.07287 9.09058 7.04381 9.09058 7.00894C9.09058 6.93695 5.93051 6.95406 5.21694 7.02993C3.75669 7.18489 2.68124 8.00002 2.27254 9.26163C1.94124 10.2837 2.06675 11.2709 2.65034 12.2403C2.82013 12.5225 3.17819 13.1843 3.44609 13.7118C3.71368 14.239 4.02172 14.779 4.13035 14.9121L4.32786 15.1535L4.87195 14.2096C5.17107 13.6902 5.43675 13.2463 5.46223 13.2227ZM27.3444 13.3938C27.8449 12.5244 28.3256 11.6247 28.4122 11.3942C28.5779 10.9542 28.6288 10.0626 28.518 9.54378C28.3447 8.73348 27.5986 7.78696 26.8159 7.38504C26.1868 7.06189 25.4557 6.97957 23.4565 7.00636L21.6815 7.03025L22.4702 8.39678C22.9038 9.14864 23.2854 9.80752 23.3176 9.86144C23.3619 9.9344 23.6744 9.9373 24.5392 9.87209C25.1786 9.82399 25.7169 9.8001 25.7354 9.81915C25.7542 9.83787 25.6195 10.4577 25.436 11.196C25.2528 11.9346 25.0961 12.6255 25.0878 12.7314C25.0706 12.9509 26.2919 15.1319 26.3779 15.0363C26.4092 15.0018 26.844 14.2628 27.3444 13.3938ZM19.6176 10.2333C19.78 10.2333 20.4324 10.1891 21.0683 10.1352L22.224 10.0371L22.1338 9.83626C22.0841 9.72585 21.9777 9.63546 21.8971 9.63546C21.684 9.63546 20.0502 9.79849 19.7427 9.85078C19.4927 9.89275 19.4707 9.87306 19.292 9.44499C19.1888 9.19738 19.0419 8.89877 18.9658 8.78126C18.8893 8.66375 18.8218 8.51009 18.8154 8.43939C18.8091 8.36901 18.6689 8.01326 18.5032 7.64943C18.2449 7.07964 18.1735 6.98764 17.9904 6.98764H17.7782L18.0777 7.69205C18.9728 9.80204 19.1184 10.1575 19.1098 10.214C19.0849 10.3793 19.1302 10.4283 19.2216 10.3357C19.2773 10.2795 19.4554 10.2333 19.6176 10.2333ZM11.6623 10.1494C11.6381 10.1094 11.6549 10.0642 11.6995 10.0484C11.7445 10.0325 12.0649 9.34717 12.4115 8.52494C12.9977 7.13485 13.0295 7.02832 12.8686 7.00152C12.7731 6.98602 12.6632 7.00572 12.624 7.04575C12.5845 7.08545 12.287 7.73272 11.9624 8.48361C11.4412 9.69002 11.3501 9.84788 11.18 9.83981C11.0739 9.83497 10.4798 9.78073 9.85989 9.71939L8.73252 9.6077L8.57866 9.81366L8.4248 10.0196L10.001 10.1513C11.581 10.2837 11.7438 10.2837 11.6623 10.1494ZM10.1705 5.88325C10.1928 5.81449 10.1358 5.78737 10.0071 5.80577C9.89811 5.82159 9.79618 5.90133 9.78089 5.98333C9.75795 6.10536 9.78726 6.11956 9.94398 6.06081C10.0491 6.0211 10.1514 5.94136 10.1705 5.88325ZM19.6641 5.55687C18.574 3.64122 17.9862 2.70503 17.6798 2.39415C17.1475 1.85406 16.4183 1.52026 15.6413 1.46086C14.2279 1.35239 13.0585 1.99352 12.3363 3.2732C12.0398 3.7935 11.7414 4.31271 11.4412 4.83084L10.7869 5.96267H19.895L19.6641 5.55687ZM8.98545 5.9914C9.04311 5.96783 9.13836 5.96783 9.19602 5.9914C9.25368 6.01496 9.20653 6.03433 9.09089 6.03433C8.97462 6.03433 8.92748 6.01496 8.98545 5.9914Z" fill="#3D3D3D"/>
</g>
<defs>
<clipPath id="clip0_322_1770">
<rect width="32" height="32" fill="white"/>
</clipPath>
</defs>
</svg>
