<svg width="32" height="32" viewBox="0 0 32 32" fill="none" xmlns="http://www.w3.org/2000/svg">
<path d="M14.7906 20.3016C14.7672 20.3438 14.7789 20.325 14.7906 20.3016V20.3016ZM24.5222 16.9031C23.7366 16.9029 22.9614 17.0833 22.2566 17.4305C22.0262 16.9656 21.7879 16.5594 21.7488 16.2547C21.7019 15.8992 21.6512 15.6883 21.7058 15.2664C21.7605 14.8445 22.0066 14.2469 22.0027 14.2039C21.9988 14.161 21.948 13.9461 21.4441 13.9422C20.9402 13.9383 20.5066 14.0399 20.4562 14.1727C20.3672 14.4154 20.298 14.6649 20.2492 14.9188C20.1594 15.3758 19.2418 17.0086 18.7222 17.8602C18.5504 17.5281 18.4058 17.2352 18.3746 17.0008C18.3277 16.6453 18.2769 16.4344 18.3316 16.0125C18.3863 15.5906 18.6324 14.993 18.6285 14.95C18.6246 14.907 18.5738 14.6922 18.0703 14.6883C17.5668 14.6844 17.1328 14.786 17.082 14.9188C17.0312 15.0516 16.9765 15.3641 16.875 15.6649C16.7734 15.9656 15.5512 18.6844 15.2312 19.3914C15.0672 19.7508 14.9265 20.0399 14.825 20.2352C14.8094 20.2664 14.7976 20.286 14.7898 20.3016C14.8015 20.282 14.8094 20.2625 14.8094 20.2703C14.7234 20.4383 14.6726 20.532 14.6726 20.532V20.536C14.6062 20.661 14.532 20.7742 14.4969 20.7742C14.4734 20.7742 14.4226 20.4461 14.5086 19.9969C14.6922 19.0516 15.1258 17.5828 15.1219 17.532C15.118 17.5047 15.2039 17.2508 14.8367 17.1141C14.4812 16.9852 14.3523 17.2 14.3211 17.2C14.2898 17.2 14.2664 17.2781 14.2664 17.2781C14.2664 17.2781 14.6609 15.6219 13.509 15.6219C12.7902 15.6219 11.7902 16.411 11.2988 17.1258C10.9902 17.2938 10.3222 17.657 9.61912 18.0438C9.34959 18.1922 9.07225 18.3445 8.81053 18.4891C8.791 18.4695 8.77537 18.45 8.75584 18.4305C7.3578 16.9383 4.77655 15.8836 4.88592 13.8797C4.92498 13.1492 5.17889 11.2313 9.84959 8.90314C13.6777 6.99689 16.7383 7.52033 17.2652 8.68439C18.023 10.3445 15.6289 13.4344 11.6535 13.8797C10.1383 14.0477 9.34178 13.4617 9.14256 13.243C8.93553 13.0125 8.90428 13.0008 8.82615 13.0438C8.69725 13.1141 8.77928 13.3172 8.82615 13.4383C8.94334 13.7469 9.43162 14.2938 10.2633 14.5672C10.9937 14.8055 12.7703 14.9383 14.9183 14.1063C17.3316 13.1766 19.2101 10.5867 18.6594 8.41877C18.0984 6.21564 14.4453 5.49299 10.991 6.71955C8.9328 7.45002 6.70701 8.59845 5.10584 10.0945C3.20389 11.8758 2.89959 13.4266 3.02459 14.075C3.46951 16.3758 6.64061 17.8758 7.90975 18.9852C7.84725 19.0203 7.78865 19.0516 7.73397 19.0828C7.09764 19.3992 4.68006 20.6649 4.07498 22.0008C3.39139 23.5164 4.18826 24.6024 4.71131 24.7508C6.34373 25.2039 8.01522 24.3875 8.91326 23.0477C9.81131 21.7078 9.70233 19.9578 9.28826 19.161C9.28436 19.1492 9.27655 19.1414 9.27264 19.1297C9.4367 19.032 9.60467 18.9344 9.77264 18.8367C10.0965 18.6453 10.4129 18.4695 10.6902 18.3172C10.534 18.7391 10.4207 19.2469 10.3621 19.9813C10.2918 20.8406 10.6472 21.9539 11.1082 22.3914C11.3113 22.5828 11.557 22.5867 11.7094 22.5867C12.2484 22.5867 12.4906 22.1414 12.7597 21.6102C13.0918 20.9617 13.3847 20.2078 13.3847 20.2078C13.3847 20.2078 13.0176 22.2469 14.0215 22.2469C14.3883 22.2469 14.7555 21.7742 14.9199 21.532V21.536C14.9199 21.536 14.9277 21.5203 14.9472 21.4891C14.9863 21.4305 15.0058 21.3953 15.0058 21.3953V21.3836C15.1543 21.1297 15.4785 20.5477 15.9664 19.5867C16.5992 18.3445 17.2043 16.7938 17.2043 16.7938C17.2627 17.1347 17.3437 17.4713 17.4465 17.8016C17.5558 18.1727 17.7863 18.5789 17.9699 18.9735C17.8215 19.1766 17.7316 19.2938 17.7316 19.2938C17.7319 19.2968 17.7333 19.2996 17.7355 19.3016C17.6183 19.4578 17.4855 19.6258 17.3488 19.7899C16.8492 20.3836 16.2551 21.0633 16.1769 21.2586C16.0832 21.4891 16.1066 21.661 16.2863 21.7938C16.4191 21.8953 16.6535 21.911 16.8992 21.8914C17.3484 21.8602 17.6648 21.7508 17.8172 21.6805C18.098 21.5798 18.3635 21.4404 18.6058 21.2664C19.0941 20.907 19.391 20.3914 19.3637 19.7117C19.348 19.3367 19.2269 18.9617 19.0785 18.6102C19.1215 18.5477 19.1683 18.4813 19.2113 18.4149C19.9844 17.286 20.582 16.0469 20.582 16.0469C20.6405 16.3878 20.7214 16.7245 20.8242 17.0547C20.918 17.3711 21.1012 17.7188 21.2691 18.0586C20.543 18.6485 20.0937 19.332 19.9375 19.7813C19.6484 20.6133 19.875 20.9883 20.3008 21.0742C20.4922 21.1133 20.7656 21.0235 20.9687 20.9375C21.2704 20.837 21.5548 20.6908 21.8121 20.5039C22.3004 20.1445 22.7726 19.6406 22.7414 18.957C22.7297 18.6485 22.6437 18.3399 22.5305 18.043C23.1437 17.7852 23.9402 17.6445 24.9558 17.7617C27.1308 18.0156 27.5566 19.375 27.4746 19.9414C27.3926 20.5078 26.9355 20.8242 26.7832 20.918C26.6308 21.0117 26.584 21.0469 26.5957 21.1172C26.6152 21.2188 26.6855 21.2149 26.8144 21.1914C26.9941 21.1602 27.9547 20.7305 27.9976 19.6797C28.0601 18.3516 26.7832 16.8906 24.5211 16.9024L24.5222 16.9031ZM7.7574 22.5555C7.03905 23.3406 6.03123 23.6375 5.59803 23.3875C5.13319 23.1172 5.31678 21.9617 6.20311 21.125C6.74217 20.6172 7.43709 20.1485 7.89803 19.8594C8.0035 19.7969 8.15584 19.7031 8.34334 19.5899C8.37459 19.5703 8.39022 19.5625 8.39022 19.5625C8.42537 19.5391 8.46444 19.5195 8.5035 19.4961C8.82733 20.6836 8.51522 21.7305 7.7574 22.5547V22.5555ZM13.0058 18.9852C12.7558 19.5985 12.2289 21.161 11.9086 21.0789C11.6351 21.0086 11.4672 19.8172 11.8539 18.6453C12.0492 18.0555 12.4633 17.3524 12.7094 17.0789C13.1035 16.6375 13.5371 16.4969 13.6387 16.6727C13.7754 16.9031 13.1621 18.6024 13.0058 18.9852ZM17.3418 21.0555C17.2363 21.1102 17.1387 21.1453 17.0918 21.118C17.0566 21.0985 17.1347 21.0242 17.1347 21.0242C17.1347 21.0242 17.6777 20.4422 17.8926 20.1766C18.0176 20.0203 18.1621 19.8367 18.318 19.6336C18.318 19.6531 18.3219 19.6727 18.3219 19.6961C18.3168 20.3953 17.6453 20.868 17.3406 21.0555H17.3418ZM20.6847 20.2938C20.6066 20.2391 20.6183 20.0555 20.8801 19.4852C20.9816 19.2625 21.2156 18.8875 21.6222 18.5281C21.6683 18.6642 21.6933 18.8064 21.6965 18.95C21.6926 19.8289 21.0637 20.157 20.6851 20.2938H20.6847Z" fill="#3D3D3D"/>
</svg>
