<svg width="32" height="32" viewBox="0 0 32 32" fill="none" xmlns="http://www.w3.org/2000/svg">
<g clip-path="url(#clip0_316_268)">
<path d="M29.9588 0H2.04414C0.914796 0 0 0.914711 0 2.04395V29.9561C0 31.0823 0.914796 32 2.04414 32H29.9588C31.0852 32 32.003 31.0853 32.003 29.9561V2.04097C32 0.914711 31.0852 0 29.9588 0ZM14.5295 18.035C14.5295 18.9229 14.446 19.6827 14.2762 20.3084C14.1063 20.9341 13.8501 21.4346 13.5104 21.8279C13.1677 22.2153 12.7416 22.5013 12.2321 22.6801C11.7225 22.8618 11.1295 22.9512 10.4531 22.9512C9.85716 22.9512 9.32079 22.8559 8.83807 22.6711C7.89347 22.3166 7.15448 21.5568 6.82969 20.6034C6.63898 20.07 6.54661 19.5099 6.55554 18.9438V18.5445H8.47155C8.47155 20.3292 9.13307 21.2231 10.4561 21.2231C10.7958 21.2231 11.0938 21.1844 11.362 21.1039C11.6272 21.0205 11.8506 20.8715 12.0354 20.6451C12.2201 20.4216 12.3572 20.1117 12.4526 19.7095C12.5479 19.3073 12.5956 18.7858 12.5956 18.1393V8.15196H14.5354L14.5295 18.035ZM25.2299 20.9341C25.0273 21.3423 24.7412 21.7028 24.3896 21.9918C23.9963 22.3076 23.5433 22.549 23.0606 22.698C22.5392 22.8648 21.9551 22.9482 21.3085 22.9482C18.4449 22.9482 16.9342 21.819 16.7792 19.5546H18.6624C18.6714 20.8328 19.5474 21.4734 21.2876 21.4734C21.675 21.4734 22.0207 21.4317 22.3157 21.3453C22.6137 21.2618 22.861 21.1426 23.0576 20.9937C23.442 20.7166 23.6685 20.2726 23.6655 19.7989C23.6745 19.5903 23.6327 19.3847 23.5493 19.194C23.4718 19.0391 23.3199 18.905 23.0964 18.7858C22.7984 18.6399 22.4885 18.5237 22.1667 18.4402C21.6512 18.2912 21.1327 18.1482 20.6112 18.0142C19.9885 17.8592 19.4491 17.7043 18.9992 17.5493C18.5999 17.4242 18.2244 17.2365 17.8847 16.9892C17.6016 16.7777 17.3782 16.4976 17.2381 16.1758C17.0981 15.851 17.0295 15.4428 17.0295 14.9512C17.0295 14.5192 17.1219 14.1169 17.3037 13.7445C17.4884 13.375 17.7476 13.0533 18.0933 12.7791C18.433 12.508 18.8472 12.2965 19.3299 12.1415C19.8544 11.9806 20.4026 11.9032 20.9509 11.9091C23.7192 11.9091 25.1286 12.8924 25.1703 14.8618H23.3169C23.2513 13.8786 22.5094 13.384 21.091 13.384C20.7751 13.384 20.4861 13.4168 20.2149 13.4793C19.9438 13.5419 19.7143 13.6313 19.5147 13.7505C19.315 13.8667 19.163 14.0127 19.0498 14.1855C18.9396 14.3642 18.88 14.5728 18.8859 14.7844C18.8859 14.9899 18.9127 15.1598 18.9634 15.2909C19.0141 15.425 19.1362 15.5471 19.3329 15.6603C19.5266 15.7736 19.8156 15.8868 20.197 15.997C20.5785 16.1073 21.0999 16.2443 21.7614 16.4052C22.3991 16.5601 22.9563 16.7181 23.4271 16.8849C23.895 17.0518 24.2853 17.2514 24.6012 17.4868C24.9141 17.7192 25.1435 18.0082 25.2955 18.3449C25.4445 18.6816 25.5219 19.1047 25.5219 19.6112C25.5279 20.0909 25.4266 20.5289 25.2299 20.9341Z" fill="#3D3D3D"/>
</g>
<defs>
<clipPath id="clip0_316_268">
<rect width="32" height="32" fill="white"/>
</clipPath>
</defs>
</svg>
