<svg width="32" height="32" viewBox="0 0 32 32" fill="none" xmlns="http://www.w3.org/2000/svg">
<path d="M26.1375 11.075C25.8 10.9625 25.4625 10.8563 25.125 10.7563C25.1812 10.525 25.2313 10.2938 25.2812 10.0625C26.05 6.33751 25.5437 3.34376 23.8375 2.35626C22.1938 1.41251 19.5125 2.39376 16.8 4.75626C16.5312 4.98751 16.2687 5.23126 16.0187 5.47501C15.85 5.31251 15.675 5.15001 15.5 4.99376C12.6562 2.46876 9.80625 1.40626 8.1 2.40001C6.4625 3.35001 5.975 6.16876 6.6625 9.69376C6.73125 10.0438 6.80625 10.3875 6.89375 10.7375C6.49375 10.85 6.1 10.975 5.73125 11.1063C2.39375 12.2625 0 14.0875 0 15.975C0 17.925 2.55 19.8813 6.01875 21.0688C6.3 21.1625 6.58125 21.2563 6.86875 21.3375C6.775 21.7125 6.69375 22.0813 6.61875 22.4625C5.9625 25.9313 6.475 28.6813 8.1125 29.625C9.8 30.6 12.6375 29.6 15.4 27.1813C15.6187 26.9875 15.8375 26.7875 16.0562 26.575C16.3312 26.8438 16.6187 27.1 16.9062 27.35C19.5812 29.65 22.225 30.5813 23.8563 29.6375C25.5438 28.6625 26.0938 25.7063 25.3813 22.1063C25.325 21.8313 25.2625 21.55 25.1938 21.2625C25.3938 21.2063 25.5875 21.1438 25.7812 21.0813C29.3875 19.8875 32 17.9563 32 15.975C32 14.0813 29.5375 12.2438 26.1375 11.075ZM17.6812 5.76876C20.0063 3.74376 22.175 2.95001 23.1625 3.51876C24.2188 4.12501 24.625 6.57501 23.9625 9.79376C23.9187 10.0063 23.875 10.2125 23.8188 10.4188C22.4312 10.1063 21.025 9.88126 19.6125 9.75626C18.8 8.59376 17.9125 7.48126 16.95 6.43751C17.1938 6.20626 17.4312 5.98751 17.6812 5.76876ZM10.45 19.2188C10.7688 19.7625 11.0938 20.3063 11.4375 20.8375C10.4625 20.7313 9.49375 20.575 8.5375 20.3688C8.8125 19.4688 9.15625 18.5375 9.55625 17.5875C9.84375 18.1375 10.1375 18.6813 10.45 19.2188ZM8.55625 11.7C9.45625 11.5 10.4125 11.3375 11.4062 11.2125C11.075 11.7313 10.75 12.2625 10.4438 12.8C10.1375 13.3313 9.8375 13.875 9.55625 14.425C9.1625 13.4938 8.83125 12.5813 8.55625 11.7ZM10.2688 16.0063C10.6813 15.1438 11.1312 14.3 11.6062 13.4688C12.0813 12.6375 12.5938 11.8313 13.1313 11.0375C14.0688 10.9688 15.025 10.9313 16 10.9313C16.975 10.9313 17.9375 10.9688 18.8687 11.0375C19.4 11.825 19.9062 12.6313 20.3875 13.4563C20.8688 14.2813 21.3188 15.125 21.7437 15.9813C21.325 16.8438 20.875 17.6938 20.3937 18.5313C19.9187 19.3625 19.4125 20.1688 18.8813 20.9688C17.95 21.0375 16.9813 21.0688 16 21.0688C15.0188 21.0688 14.0687 21.0375 13.15 20.9813C12.6062 20.1875 12.0938 19.375 11.6125 18.5438C11.1313 17.7125 10.6875 16.8688 10.2688 16.0063ZM21.5562 19.2063C21.875 18.6563 22.175 18.1 22.4688 17.5375C22.8687 18.4438 23.2188 19.3625 23.525 20.3063C22.5562 20.525 21.575 20.6938 20.5875 20.8063C20.925 20.2813 21.2437 19.7438 21.5562 19.2063ZM22.4562 14.425C22.1625 13.875 21.8625 13.325 21.55 12.7875C21.2437 12.2563 20.925 11.7313 20.5938 11.2125C21.6 11.3375 22.5625 11.5063 23.4625 11.7125C23.175 12.6375 22.8375 13.5375 22.4562 14.425ZM16.0125 7.39376C16.6688 8.10626 17.2875 8.85626 17.8625 9.63126C16.625 9.57501 15.3813 9.57501 14.1438 9.63126C14.7563 8.82501 15.3875 8.07501 16.0125 7.39376ZM8.7625 3.56251C9.8125 2.95001 12.1438 3.82501 14.6 6.00001C14.7563 6.13751 14.9125 6.28751 15.075 6.43751C14.1062 7.48126 13.2125 8.59376 12.3938 9.75626C10.9812 9.88126 9.58125 10.1 8.19375 10.4063C8.1125 10.0875 8.04375 9.76251 7.975 9.43751C7.3875 6.41251 7.775 4.13126 8.7625 3.56251ZM7.23125 20.0375C6.96875 19.9625 6.7125 19.8813 6.45625 19.7938C5.125 19.375 3.6125 18.7125 2.51875 17.8438C1.8875 17.4063 1.4625 16.7313 1.34375 15.975C1.34375 14.8313 3.31875 13.3688 6.16875 12.375C6.525 12.25 6.8875 12.1375 7.25 12.0313C7.675 13.3875 8.1875 14.7188 8.78125 16.0063C8.18125 17.3125 7.6625 18.6625 7.23125 20.0375ZM14.5188 26.1625C13.4875 27.1063 12.2937 27.8563 10.9937 28.3688C10.3 28.7 9.5 28.7313 8.7875 28.45C7.79375 27.875 7.38125 25.6688 7.94375 22.7C8.0125 22.35 8.0875 22 8.175 21.6563C9.575 21.9563 10.9875 22.1625 12.4187 22.2688C13.2437 23.4375 14.15 24.5563 15.1187 25.6063C14.9187 25.8 14.7188 25.9875 14.5188 26.1625ZM16.05 24.6438C15.4125 23.9563 14.775 23.1938 14.1562 22.375C14.7563 22.4 15.375 22.4125 16 22.4125C16.6437 22.4125 17.275 22.4 17.9 22.3688C17.325 23.1625 16.7062 23.9188 16.05 24.6438ZM24.2188 26.5188C24.1625 27.2813 23.7875 27.9938 23.1875 28.475C22.1938 29.05 20.075 28.3 17.7875 26.3375C17.525 26.1125 17.2625 25.8688 16.9937 25.6188C17.95 24.5625 18.8313 23.4438 19.6313 22.2688C21.0625 22.15 22.4875 21.9313 23.8937 21.6125C23.9562 21.8688 24.0125 22.125 24.0625 22.375C24.3687 23.725 24.4188 25.1313 24.2188 26.5188ZM25.3563 19.8C25.1813 19.8563 25.0063 19.9125 24.825 19.9625C24.3875 18.6 23.85 17.2688 23.2313 15.975C23.8313 14.7 24.3375 13.3875 24.7625 12.0438C25.0875 12.1375 25.4 12.2375 25.7 12.3375C28.6125 13.3375 30.6562 14.825 30.6562 15.9625C30.6562 17.1875 28.475 18.7688 25.3563 19.8ZM16 18.8625C17.5812 18.8625 18.8625 17.5813 18.8625 16C18.8625 14.4188 17.5812 13.1375 16 13.1375C14.4187 13.1375 13.1375 14.4188 13.1375 16C13.1375 17.5813 14.4187 18.8625 16 18.8625Z" fill="white" fill-opacity="0.72"/>
</svg>
