<svg width="32" height="32" viewBox="0 0 32 32" fill="none" xmlns="http://www.w3.org/2000/svg">
<g clip-path="url(#clip0_317_297)">
<path d="M21.3125 10.6687C22.7273 10.6687 24.0841 10.1067 25.0845 9.10635C26.0849 8.10596 26.6469 6.74914 26.6469 5.33437C26.6469 3.91961 26.0849 2.56279 25.0845 1.5624C24.0841 0.562013 22.7273 0 21.3125 0L10.6438 0C9.22984 0 7.87382 0.561684 6.87401 1.56149C5.87421 2.56129 5.31253 3.91731 5.31253 5.33125C5.31253 6.74519 5.87421 8.10121 6.87401 9.10101C7.87382 10.1008 9.22984 10.6625 10.6438 10.6625C9.22901 10.6625 7.87219 11.2245 6.8718 12.2249C5.87141 13.2253 5.3094 14.5821 5.3094 15.9969C5.3094 17.4116 5.87141 18.7685 6.8718 19.7688C7.87219 20.7692 9.22901 21.3312 10.6438 21.3312C9.58874 21.3306 8.55721 21.6429 7.67963 22.2285C6.80205 22.8142 6.11785 23.6469 5.71353 24.6214C5.30921 25.5959 5.20294 26.6684 5.40817 27.7032C5.61339 28.7381 6.12088 29.6889 6.86647 30.4354C7.61206 31.1818 8.56226 31.6905 9.5969 31.8969C10.6315 32.1033 11.7042 31.9983 12.6791 31.5951C13.6541 31.192 14.4876 30.5087 15.0743 29.6318C15.6609 28.755 15.9744 27.7238 15.975 26.6688V10.6687H21.3125ZM21.3125 10.6687C20.2581 10.6687 19.2274 10.9814 18.3506 11.5672C17.4739 12.153 16.7906 12.9857 16.3871 13.9598C15.9836 14.934 15.878 16.0059 16.0837 17.0401C16.2894 18.0742 16.7972 19.0242 17.5428 19.7698C18.2884 20.5154 19.2383 21.0231 20.2725 21.2288C21.3066 21.4345 22.3785 21.3289 23.3527 20.9254C24.3269 20.5219 25.1595 19.8386 25.7453 18.9619C26.3311 18.0852 26.6438 17.0544 26.6438 16C26.6436 14.5861 26.0819 13.2302 25.0821 12.2304C24.0823 11.2307 22.7264 10.6689 21.3125 10.6687Z" fill="#3D3D3D"/>
</g>
<defs>
<clipPath id="clip0_317_297">
<rect width="32" height="32" fill="white"/>
</clipPath>
</defs>
</svg>
