<svg width="48" height="48" viewBox="0 0 48 48" fill="none" xmlns="http://www.w3.org/2000/svg">
<path d="M44.2313 18.797C43.5094 15.9001 42.1407 13.7157 39.2251 13.7157H35.4657V18.1595C35.4657 21.6095 32.5407 24.5157 29.2032 24.5157H19.1907C16.4532 24.5157 14.1844 26.8595 14.1844 29.6064V39.1501C14.1844 41.8689 16.5469 43.4626 19.1907 44.2407C22.3594 45.1689 25.4063 45.3376 29.2032 44.2407C31.7251 43.5095 34.2094 42.0376 34.2094 39.1501V35.3345H24.2063V34.0595H39.2251C42.1407 34.0595 43.2188 32.0251 44.2313 28.9782C45.2813 25.8376 45.2344 22.8189 44.2313 18.797ZM29.8313 37.8751C30.8719 37.8751 31.7157 38.7282 31.7157 39.7782C31.7157 40.8376 30.8719 41.6907 29.8313 41.6907C28.8001 41.6907 27.9469 40.8282 27.9469 39.7782C27.9563 38.7189 28.8001 37.8751 29.8313 37.8751ZM18.7313 23.2595H28.7438C31.5282 23.2595 33.7501 20.9626 33.7501 18.1689V8.61575C33.7501 5.897 31.4626 3.86262 28.7438 3.40325C25.3876 2.85012 21.7407 2.87825 18.7313 3.41262C14.4938 4.16262 13.7251 5.72825 13.7251 8.62512V12.4407H23.7469V13.7157H9.96569C7.05007 13.7157 4.50007 15.4689 3.7032 18.797C2.78445 22.6126 2.74695 24.9939 3.7032 28.9782C4.4157 31.9407 6.11257 34.0595 9.02819 34.0595H12.4688V29.4845C12.4688 26.1751 15.3282 23.2595 18.7313 23.2595ZM18.1032 9.89075C17.0626 9.89075 16.2188 9.03762 16.2188 7.98762C16.2282 6.92825 17.0626 6.07512 18.1032 6.07512C19.1344 6.07512 19.9876 6.93762 19.9876 7.98762C19.9876 9.03762 19.1438 9.89075 18.1032 9.89075Z" fill="white"/>
</svg>
