<svg width="48" height="48" viewBox="0 0 48 48" fill="none" xmlns="http://www.w3.org/2000/svg">
<path d="M16.3031 37.2562C16.3031 37.4437 16.0875 37.5938 15.8156 37.5938C15.5062 37.6219 15.2906 37.4719 15.2906 37.2562C15.2906 37.0687 15.5063 36.9187 15.7781 36.9187C16.0594 36.8906 16.3031 37.0406 16.3031 37.2562ZM13.3875 36.8344C13.3219 37.0219 13.5094 37.2375 13.7906 37.2937C14.0344 37.3875 14.3156 37.2937 14.3719 37.1062C14.4281 36.9187 14.25 36.7031 13.9688 36.6188C13.725 36.5531 13.4531 36.6469 13.3875 36.8344ZM17.5312 36.675C17.2594 36.7406 17.0719 36.9188 17.1 37.1344C17.1281 37.3219 17.3719 37.4438 17.6531 37.3781C17.925 37.3125 18.1125 37.1344 18.0844 36.9469C18.0562 36.7687 17.8031 36.6469 17.5312 36.675ZM23.7 0.75C10.6969 0.75 0.75 10.6219 0.75 23.625C0.75 34.0219 7.29375 42.9188 16.6406 46.05C17.8406 46.2656 18.2625 45.525 18.2625 44.9156C18.2625 44.3344 18.2344 41.1281 18.2344 39.1594C18.2344 39.1594 11.6719 40.5656 10.2938 36.3656C10.2938 36.3656 9.225 33.6375 7.6875 32.9344C7.6875 32.9344 5.54062 31.4625 7.8375 31.4906C7.8375 31.4906 10.1719 31.6781 11.4562 33.9094C13.5094 37.5281 16.95 36.4875 18.2906 35.8688C18.5063 34.3688 19.1156 33.3281 19.7906 32.7094C14.55 32.1281 9.2625 31.3687 9.2625 22.35C9.2625 19.7719 9.975 18.4781 11.475 16.8281C11.2312 16.2188 10.4344 13.7062 11.7188 10.4625C13.6781 9.85312 18.1875 12.9938 18.1875 12.9938C20.0625 12.4688 22.0781 12.1969 24.075 12.1969C26.0719 12.1969 28.0875 12.4688 29.9625 12.9938C29.9625 12.9938 34.4719 9.84375 36.4313 10.4625C37.7156 13.7156 36.9188 16.2188 36.675 16.8281C38.175 18.4875 39.0938 19.7812 39.0938 22.35C39.0938 31.3969 33.5719 32.1187 28.3313 32.7094C29.1938 33.45 29.925 34.8562 29.925 37.0594C29.925 40.2188 29.8969 44.1281 29.8969 44.8969C29.8969 45.5062 30.3281 46.2469 31.5188 46.0312C40.8938 42.9188 47.25 34.0219 47.25 23.625C47.25 10.6219 36.7031 0.75 23.7 0.75ZM9.8625 33.0844C9.74062 33.1781 9.76875 33.3937 9.92813 33.5719C10.0781 33.7219 10.2937 33.7875 10.4156 33.6656C10.5375 33.5719 10.5094 33.3563 10.35 33.1781C10.2 33.0281 9.98438 32.9625 9.8625 33.0844ZM8.85 32.325C8.78438 32.4469 8.87812 32.5969 9.06562 32.6906C9.21562 32.7844 9.40312 32.7562 9.46875 32.625C9.53438 32.5031 9.44062 32.3531 9.25312 32.2594C9.06562 32.2031 8.91563 32.2312 8.85 32.325ZM11.8875 35.6625C11.7375 35.7844 11.7937 36.0656 12.0094 36.2438C12.225 36.4594 12.4969 36.4875 12.6187 36.3375C12.7406 36.2156 12.6844 35.9344 12.4969 35.7562C12.2906 35.5406 12.0094 35.5125 11.8875 35.6625ZM10.8188 34.2844C10.6687 34.3781 10.6687 34.6219 10.8188 34.8375C10.9688 35.0531 11.2219 35.1469 11.3438 35.0531C11.4937 34.9312 11.4937 34.6875 11.3438 34.4719C11.2125 34.2563 10.9688 34.1625 10.8188 34.2844Z" fill="white"/>
</svg>
