<svg width="48" height="48" viewBox="0 0 48 48" fill="none" xmlns="http://www.w3.org/2000/svg">
<mask id="mask0_379_341" style="mask-type:luminance" maskUnits="userSpaceOnUse" x="0" y="13" width="48" height="22">
<path d="M0.0161362 13.593H47.9951V34.1208H0.0161362" fill="white"/>
</mask>
<g mask="url(#mask0_379_341)">
<path fill-rule="evenodd" clip-rule="evenodd" d="M45.9463 21.0791C45.9463 19.5424 46.1827 18.6362 46.1827 16.9815C46.1827 14.4204 45.237 13.593 43.1489 13.593H41.6122V15.4053H42.085C43.1489 15.4053 43.3852 15.76 43.3852 17.0603C43.3852 18.2816 43.267 19.5031 43.267 20.9216C43.267 22.734 43.858 23.4431 45.04 23.7189V23.8372C43.858 24.1129 43.267 24.8223 43.267 26.6347C43.267 28.053 43.3852 29.1958 43.3852 30.496C43.3852 31.8356 43.1095 32.1901 42.085 32.1901V32.2295H41.6122V34.1208H43.1489C45.237 34.1208 46.1827 33.2933 46.1827 30.7324C46.1827 29.0381 45.9463 28.1713 45.9463 26.6347C45.9463 25.8072 46.4585 24.9404 47.9951 24.8617V22.8127C46.4585 22.7733 45.9463 21.9065 45.9463 21.0791ZM28.4918 23.4825C27.2703 23.0097 26.1671 22.734 26.1671 21.9459C26.1671 21.355 26.6398 21.0003 27.5067 21.0003C28.3735 21.0003 29.1616 21.355 30.0284 21.9854L31.6044 19.8971C30.6193 19.1486 29.2797 18.3605 27.4673 18.3605C24.7881 18.3605 22.9755 19.8971 22.9755 22.0642C22.9755 23.9948 24.6698 24.9798 26.0883 25.5315C27.3096 26.0042 28.4918 26.3983 28.4918 27.1862C28.4918 27.7773 28.0188 28.1713 26.9552 28.1713C25.97 28.1713 24.9851 27.7773 23.9213 26.9498L22.3846 29.2351C23.5666 30.2201 25.379 30.8899 26.8762 30.8899C30.0284 30.8899 31.7225 29.2351 31.7225 27.0681C31.7225 24.901 30.0284 23.9948 28.4918 23.4825ZM38.0266 23.4825C36.8447 23.0097 35.7415 22.734 35.7415 21.9459C35.7415 21.355 36.2143 21.0003 37.0811 21.0003C37.9479 21.0003 38.736 21.355 39.6028 21.9854L41.1788 19.8971C40.1937 19.1486 38.8541 18.3605 37.0417 18.3605C34.3623 18.3605 32.55 19.8971 32.55 22.0642C32.55 23.9948 34.2442 24.9798 35.6626 25.5315C36.8841 26.0042 38.066 26.3983 38.066 27.1862C38.066 27.7773 37.5932 28.1713 36.5294 28.1713C35.5445 28.1713 34.5594 27.7773 33.4957 26.9498L31.9195 29.2351C33.1017 30.2201 34.914 30.8899 36.4113 30.8899C39.5633 30.8899 41.2576 29.2351 41.2576 27.0681C41.2576 24.901 39.5633 23.9948 38.0266 23.4825ZM14.6226 23.2855C14.859 21.7095 15.8045 20.961 16.9078 20.961C18.3263 20.961 18.878 21.9459 18.878 23.2855H14.6226ZM21.8723 23.9948C21.9117 20.8033 20.178 18.3211 16.8684 18.3211C13.9922 18.3211 11.2342 20.7246 11.313 24.507C11.313 28.4077 13.8741 30.6928 17.2624 30.6928C18.681 30.6928 20.257 30.1807 21.4783 29.3532L20.2963 27.2651C19.4295 27.7773 18.602 28.0136 17.7352 28.0136C16.1592 28.0136 14.9377 27.2651 14.6226 25.4525H21.7542C21.7936 25.1768 21.8723 24.6253 21.8723 23.9948Z" fill="white"/>
</g>
<mask id="mask1_379_341" style="mask-type:luminance" maskUnits="userSpaceOnUse" x="0" y="13" width="48" height="22">
<path d="M0.0161362 13.593H47.9951V34.1208H0.0161362" fill="white"/>
</mask>
<g mask="url(#mask1_379_341)">
<path fill-rule="evenodd" clip-rule="evenodd" d="M11.1159 27.9349C10.8402 27.9349 10.4855 27.6985 10.4855 26.9498V13.593H4.89052C2.76302 13.593 1.81727 14.4204 1.81727 16.9815C1.81727 18.6756 2.05366 19.6214 2.05366 21.0791C2.05366 21.9065 1.54151 22.7733 0.00489044 22.8521V24.901C1.54151 24.9404 2.05366 25.8072 2.05366 26.6347C2.05366 28.0926 1.81727 28.9592 1.81727 30.6535C1.81727 33.2146 2.76302 34.042 4.85115 34.042H6.38778V32.2295H5.915C4.93007 32.2295 4.61476 31.8356 4.61476 30.5354C4.61476 29.2351 4.73305 28.1319 4.73305 26.674C4.73305 24.8617 4.14199 24.1523 2.95985 23.8766V23.7584C4.14199 23.4825 4.73305 22.7733 4.73305 20.961C4.73305 19.5424 4.61476 18.3999 4.61476 17.0996C4.61476 15.7994 4.89052 15.4449 5.915 15.4449H6.97885V26.7528C6.97885 29.1562 7.8063 30.7324 10.2097 30.7324C10.9583 30.7324 11.5494 30.6141 11.9828 30.4565L11.5887 27.8955C11.3523 27.9349 11.2342 27.9349 11.1159 27.9349Z" fill="white"/>
</g>
</svg>
