<svg width="48" height="48" viewBox="0 0 48 48" fill="none" xmlns="http://www.w3.org/2000/svg">
<path fill-rule="evenodd" clip-rule="evenodd" d="M45.9111 19.3731L47.9192 19.3842C47.9192 19.3842 44.1857 24.4433 43.8808 24.8556C43.7818 24.9891 43.6314 25.1331 43.5551 25.3116C43.3623 25.7603 43.1643 26.7446 43.1643 26.7446L41.3269 26.7538C41.3269 26.7538 41.6128 25.7278 41.601 25.1813C41.5907 24.7039 41.3469 24.2271 41.2103 23.7483C41.0721 23.2636 40.8845 22.3153 40.8845 22.3153H42.7735L43.0341 23.3575L45.9111 19.3731Z" fill="white"/>
<path fill-rule="evenodd" clip-rule="evenodd" d="M42.1085 20.4401C42.4791 20.6635 42.7065 21.8959 42.7065 21.8959C42.7065 21.8959 40.7674 21.9245 39.7121 21.9245H38.8002L37.6928 26.7446H35.9993C35.9993 26.7446 37.0533 21.5064 37.3021 20.5567C37.3827 20.2492 37.8545 20.302 38.6511 20.302H39.9232C40.7446 20.302 41.7047 20.1971 42.1085 20.4401ZM34.2244 22.7876C34.2244 22.7876 34.2772 22.4782 34.0453 22.1199C33.8472 21.8144 33.6643 21.7434 33.1432 21.7271C31.6718 21.6808 31.7003 22.7712 31.7003 22.7712L34.2244 22.7876ZM35.8202 21.5388C36.0358 22.3167 35.6248 24.1443 35.6248 24.1443C35.6248 24.1443 33.4785 24.1085 32.3029 24.1443C31.9373 24.1555 31.4998 24.1046 31.391 24.2746C31.2379 24.5129 31.4469 24.8798 31.6241 25.0347C31.828 25.2132 32.2253 25.2335 32.368 25.2516C33.3222 25.3728 35.3193 25.2829 35.3193 25.2829L34.9733 26.8148C34.9733 26.8148 32.1512 26.9563 30.7396 26.6194C30.4609 26.553 30.1996 26.4189 30.0231 26.2287C29.9749 26.1766 29.9331 26.1057 29.8875 26.0443C29.8511 25.9954 29.745 25.8346 29.6974 25.7075C29.375 24.8484 29.7352 23.2025 30.0882 22.3205C30.1292 22.2183 30.1807 22.0887 30.2348 21.9785C30.3025 21.8412 30.3598 21.6861 30.4139 21.604C30.4503 21.5473 30.4954 21.5109 30.5332 21.4574C30.5768 21.3942 30.6275 21.333 30.6744 21.2784C30.8048 21.1272 30.9526 21.0204 31.1304 20.8876C31.7185 20.4472 32.7829 20.1053 34.0615 20.2362C34.5429 20.2857 35.27 20.4576 35.6248 20.9527C35.7199 21.0849 35.7668 21.3473 35.8202 21.5388ZM28.0527 20.296L29.6948 20.2863C29.6948 20.2863 28.7797 24.6276 28.3133 26.7446H26.4242C25.104 26.7446 23.9283 26.9081 23.428 25.9629C22.9428 25.0452 23.4059 23.536 23.6234 22.5106C23.7772 21.785 24.101 20.3019 24.101 20.3019L25.8023 20.2863C25.8023 20.2863 25.3216 22.5954 25.1215 23.7483C25.0499 24.1613 24.9022 24.5502 25.0565 24.8555C25.203 25.1461 25.4082 25.1669 26.0334 25.1813C26.2315 25.186 26.8803 25.1813 26.8803 25.1813L28.0527 20.296ZM20.3666 23.4225C20.5386 22.8117 20.7893 22.1492 20.7575 21.5987C20.723 21.01 20.2293 20.4739 19.9107 20.3612C18.9513 20.0225 18.0531 20.496 17.6961 20.8823C17.2343 21.3825 17.0779 21.9669 16.9144 22.7713C16.7927 23.3685 16.6929 23.999 16.9144 24.4647C17.3064 25.2882 18.5291 25.1083 19.8456 25.1162C20.0409 24.5925 20.2025 24.0043 20.3666 23.4225ZM22.6464 21.0126C22.8339 22.3765 22.1143 23.8819 21.6186 25.191C22.1241 25.2367 22.567 25.184 22.5989 25.2217C22.6321 25.2705 22.2601 26.7843 22.1304 26.7882C21.7293 26.7987 20.3999 26.8097 19.8456 26.8097C18.0367 26.8097 16.3445 26.9276 15.4815 26.0281C15.1311 25.6627 14.8887 25.036 14.83 24.5951C14.7323 23.859 14.8548 23.0487 15.0255 22.3805C15.1799 21.7772 15.3778 21.208 15.6769 20.6868C16.437 19.3601 17.7593 18.3752 19.9758 18.6026C20.4057 18.6468 21.0232 18.8351 21.4088 19.0585C21.4355 19.0741 21.5288 19.1484 21.5501 19.1614C22.0713 19.493 22.5461 20.2843 22.6464 21.0126ZM14.6431 20.3038C14.5337 20.8021 14.4243 21.367 14.309 21.8593H12.4852C12.6264 21.3135 12.7346 20.7709 12.876 20.2961C13.4596 20.2961 14.0022 20.3038 14.6432 20.3038M12.42 22.3153H14.1788C13.9488 23.5881 13.4934 25.6411 13.1365 27.0702C12.9131 27.9646 12.764 28.6172 12.1595 29.0894C12.1054 29.1318 12.0742 29.1117 12.0292 29.1546C11.9178 29.2608 11.4025 29.384 11.1173 29.4151C10.6536 29.4654 10.1292 29.4217 9.55922 29.41C9.70838 28.8648 9.87713 28.2102 10.0101 27.7215C11.3994 27.8897 11.4346 26.5765 11.7036 25.3116C11.8592 24.5807 12.3308 22.6084 12.42 22.3153Z" fill="white"/>
<path fill-rule="evenodd" clip-rule="evenodd" d="M8.31638 25.6373L8.27869 25.735C7.63651 26.9856 6.49847 27.7529 4.87529 27.7867C4.11647 27.8024 3.39347 27.6076 2.92116 27.3959C1.90191 26.938 1.04457 26.0887 0.57638 25.1813C-0.0952445 23.8805 -0.216369 22.071 1.18013 20.7195C1.20169 20.7195 1.01072 21.0126 1.03229 21.0126L0.993849 21.1377C-0.0124633 24.2882 3.08794 26.9882 6.10182 26.6794C6.82613 26.6052 7.74976 26.2085 8.31638 25.6373Z" fill="white"/>
<path fill-rule="evenodd" clip-rule="evenodd" d="M6.49257 24.3346C7.25082 24.3397 8.04282 23.9853 8.51185 23.4878C8.10151 24.5294 6.91341 25.1988 5.32022 24.9859C3.98616 24.8074 2.71538 23.465 2.58451 22.1199C2.48879 21.141 2.82994 20.5567 3.39216 19.848C3.19679 20.2186 3.12376 20.5045 3.10557 20.6868C2.89201 22.8045 4.79719 24.3234 6.49257 24.3346Z" fill="white"/>
<path fill-rule="evenodd" clip-rule="evenodd" d="M8.43564 21.7043C8.31779 21.9747 7.63914 22.4852 7.33942 22.5491C6.15264 22.8019 5.3926 22.2391 4.99445 21.5987C4.93529 21.5031 4.82589 21.2419 4.80629 21.1754C4.65189 20.6504 4.72285 19.8564 5.18345 19.4454C5.0447 19.8362 5.02445 20.2902 5.09748 20.5853C5.14173 20.7637 5.27654 21.0752 5.41145 21.2712C5.65689 21.6281 5.8126 21.7148 6.12789 21.9043C6.26992 21.9897 6.42226 22.0581 6.48807 22.0768C6.78704 22.1649 7.41817 22.3967 8.43564 21.7043Z" fill="white"/>
</svg>
