<svg width="32" height="32" viewBox="0 0 32 32" fill="none" xmlns="http://www.w3.org/2000/svg">
<mask id="mask0_323_1791" style="mask-type:luminance" maskUnits="userSpaceOnUse" x="0" y="9" width="32" height="14">
<path d="M0.0107422 9.06201H31.9967V22.7472H0.0107422" fill="white"/>
</mask>
<g mask="url(#mask0_323_1791)">
<path fill-rule="evenodd" clip-rule="evenodd" d="M30.6309 14.0527C30.6309 13.0283 30.7885 12.4242 30.7885 11.3211C30.7885 9.61365 30.158 9.06201 28.7659 9.06201H27.7415V10.2703H28.0567C28.7659 10.2703 28.9235 10.5067 28.9235 11.3735C28.9235 12.1878 28.8447 13.0021 28.8447 13.9478C28.8447 15.156 29.2387 15.6288 30.0267 15.8126V15.8915C29.2387 16.0753 28.8447 16.5482 28.8447 17.7565C28.8447 18.702 28.9235 19.4639 28.9235 20.3307C28.9235 21.2238 28.7397 21.4601 28.0567 21.4601V21.4864H27.7415V22.7472H28.7659C30.158 22.7472 30.7885 22.1956 30.7885 20.4883C30.7885 19.3588 30.6309 18.7809 30.6309 17.7565C30.6309 17.2049 30.9723 16.627 31.9968 16.5745V15.2085C30.9723 15.1823 30.6309 14.6044 30.6309 14.0527ZM18.9945 15.655C18.1802 15.3399 17.4447 15.156 17.4447 14.6306C17.4447 14.2367 17.7599 14.0003 18.3378 14.0003C18.9157 14.0003 19.4411 14.2367 20.019 14.657L21.0696 13.2648C20.4129 12.7658 19.5198 12.2404 18.3115 12.2404C16.5254 12.2404 15.317 13.2648 15.317 14.7095C15.317 15.9966 16.4466 16.6532 17.3922 17.021C18.2064 17.3362 18.9945 17.5989 18.9945 18.1242C18.9945 18.5182 18.6792 18.7809 17.9701 18.7809C17.3134 18.7809 16.6568 18.5182 15.9475 17.9666L14.9231 19.4901C15.7111 20.1468 16.9193 20.5933 17.9175 20.5933C20.019 20.5933 21.1483 19.4901 21.1483 18.0454C21.1483 16.6007 20.019 15.9966 18.9945 15.655ZM25.3511 15.655C24.5632 15.3399 23.8277 15.156 23.8277 14.6306C23.8277 14.2367 24.1429 14.0003 24.7207 14.0003C25.2986 14.0003 25.824 14.2367 26.4019 14.657L27.4526 13.2648C26.7958 12.7658 25.9028 12.2404 24.6945 12.2404C22.9082 12.2404 21.7 13.2648 21.7 14.7095C21.7 15.9966 22.8295 16.6532 23.7751 17.021C24.5894 17.3362 25.3774 17.5989 25.3774 18.1242C25.3774 18.5182 25.0622 18.7809 24.3529 18.7809C23.6963 18.7809 23.0396 18.5182 22.3305 17.9666L21.2797 19.4901C22.0678 20.1468 23.276 20.5933 24.2742 20.5933C26.3755 20.5933 27.5051 19.4901 27.5051 18.0454C27.5051 16.6007 26.3755 15.9966 25.3511 15.655ZM9.74842 15.5237C9.90601 14.473 10.5364 13.974 11.2719 13.974C12.2175 13.974 12.5853 14.6306 12.5853 15.5237H9.74842ZM14.5816 15.9966C14.6078 13.8689 13.452 12.2141 11.2456 12.2141C9.32813 12.2141 7.4895 13.8164 7.54199 16.338C7.54199 18.9385 9.24939 20.4619 11.5083 20.4619C12.454 20.4619 13.5047 20.1205 14.3189 19.5689L13.5309 18.1768C12.953 18.5182 12.4014 18.6758 11.8235 18.6758C10.7728 18.6758 9.9585 18.1768 9.74842 16.9684H14.5028C14.5291 16.7846 14.5816 16.4169 14.5816 15.9966Z" fill="#3D3D3D"/>
</g>
<mask id="mask1_323_1791" style="mask-type:luminance" maskUnits="userSpaceOnUse" x="0" y="9" width="32" height="14">
<path d="M0.0107422 9.06201H31.9967V22.7472H0.0107422" fill="white"/>
</mask>
<g mask="url(#mask1_323_1791)">
<path fill-rule="evenodd" clip-rule="evenodd" d="M7.41066 18.6233C7.22682 18.6233 6.99037 18.4657 6.99037 17.9666V9.06201H3.26038C1.84205 9.06201 1.21155 9.61365 1.21155 11.3211C1.21155 12.4504 1.36914 13.0809 1.36914 14.0527C1.36914 14.6044 1.02771 15.1823 0.0032959 15.2348V16.6007C1.02771 16.627 1.36914 17.2049 1.36914 17.7565C1.36914 18.7284 1.21155 19.3062 1.21155 20.4357C1.21155 22.1431 1.84205 22.6947 3.23414 22.6947H4.25855V21.4864H3.94337C3.28675 21.4864 3.07654 21.2238 3.07654 20.357C3.07654 19.4901 3.1554 18.7547 3.1554 17.7827C3.1554 16.5745 2.76136 16.1016 1.97327 15.9177V15.839C2.76136 15.655 3.1554 15.1823 3.1554 13.974C3.1554 13.0283 3.07654 12.2666 3.07654 11.3998C3.07654 10.533 3.26038 10.2966 3.94337 10.2966H4.6526V17.8352C4.6526 19.4375 5.20424 20.4883 6.80654 20.4883C7.30556 20.4883 7.6996 20.4095 7.98854 20.3043L7.72585 18.5971C7.56825 18.6233 7.48952 18.6233 7.41066 18.6233Z" fill="#3D3D3D"/>
</g>
</svg>
