<svg width="48" height="48" viewBox="0 0 48 48" fill="none" xmlns="http://www.w3.org/2000/svg">
<path d="M3.78329 17.0485H10.8727C12.9535 17.0659 14.4613 17.6654 15.3961 18.8458C16.3309 20.0263 16.6394 21.6386 16.322 23.6828C16.1987 24.6169 15.9252 25.533 15.5019 26.4317C15.0906 27.3386 14.5168 28.1627 13.8089 28.8634C12.927 29.7796 11.9837 30.3611 10.9785 30.6079C9.97326 30.8548 8.93262 30.978 7.85703 30.978H4.68269L3.67748 36H0.000534058L3.78329 17.0485ZM6.87828 20.0617L5.29111 27.9912C5.39692 28.0086 5.50273 28.0176 5.60854 28.0176H5.97888C7.67186 28.0351 9.08285 27.868 10.2113 27.5154C11.3398 27.1454 12.0985 25.8592 12.4863 23.6564C12.8037 21.8062 12.4863 20.7399 11.534 20.4581C10.5991 20.1764 9.42674 20.0442 8.01575 20.0617C7.80413 20.0791 7.60149 20.0881 7.40734 20.0881H6.85183L6.87828 20.0617ZM20.5105 12H24.161L23.1293 17.0485H26.4095C28.2083 17.0839 29.5484 17.4539 30.4303 18.1586C31.3297 18.8633 31.5942 20.2028 31.2239 22.1762L29.4516 30.978H25.7482L27.4411 22.5727C27.6173 21.6915 27.5644 21.0661 27.2824 20.696C27.0004 20.326 26.392 20.141 25.4572 20.141L22.5209 20.1145L20.3518 30.978H16.7013L20.5105 12ZM35.1439 17.0485H42.2333C44.3141 17.0659 45.8219 17.6654 46.7567 18.8458C47.6916 20.0263 48 21.6386 47.6826 23.6828C47.5593 24.6169 47.2858 25.533 46.8625 26.4317C46.4512 27.3386 45.8774 28.1627 45.1695 28.8634C44.2876 29.7796 43.3443 30.3611 42.3391 30.6079C41.3339 30.8548 40.2932 30.978 39.2177 30.978H36.0433L35.0381 36H31.3612L35.1439 17.0485ZM38.2389 20.0617L36.6517 27.9912C36.7575 28.0086 36.8633 28.0176 36.9692 28.0176H37.3395C39.0325 28.0351 40.4435 27.868 41.572 27.5154C42.7004 27.1454 43.4591 25.8592 43.8469 23.6564C44.1643 21.8062 43.8469 20.7399 42.8946 20.4581C41.9598 20.1764 40.7874 20.0442 39.3764 20.0617C39.1647 20.0791 38.9621 20.0881 38.768 20.0881H38.2124L38.2389 20.0617Z" fill="white"/>
</svg>
