<svg width="32" height="32" viewBox="0 0 32 32" fill="none" xmlns="http://www.w3.org/2000/svg">
<path d="M2.52221 11.3656H7.24845C8.63565 11.3773 9.64085 11.7769 10.2641 12.5639C10.8873 13.3508 11.0929 14.4257 10.8813 15.7885C10.7991 16.4113 10.6168 17.022 10.3346 17.6211C10.0604 18.2257 9.67788 18.7751 9.20596 19.2423C8.61801 19.853 7.98913 20.2407 7.31899 20.4053C6.64885 20.5699 5.95509 20.652 5.23803 20.652H3.1218L2.45166 24H0.000366211L2.52221 11.3656ZM4.58553 13.3744L3.52741 18.6608C3.59796 18.6724 3.6685 18.6784 3.73904 18.6784H3.98593C5.11459 18.6901 6.05524 18.5787 6.80757 18.3436C7.5599 18.0969 8.06566 17.2395 8.3242 15.7709C8.53582 14.5374 8.3242 13.8266 7.68933 13.6388C7.06611 13.4509 6.2845 13.3628 5.34384 13.3744C5.20276 13.3861 5.06767 13.3921 4.93823 13.3921H4.56789L4.58553 13.3744ZM13.6737 8H16.1073L15.4196 11.3656H17.6063C18.8055 11.3892 19.6989 11.6359 20.2869 12.1057C20.8865 12.5755 21.0628 13.4685 20.8159 14.7841L19.6344 20.652H17.1654L18.2941 15.0485C18.4116 14.461 18.3763 14.0441 18.1883 13.7974C18.0003 13.5507 17.5947 13.4273 16.9715 13.4273L15.0139 13.4097L13.5679 20.652H11.1342L13.6737 8ZM23.4293 11.3656H28.1555C29.5427 11.3773 30.5479 11.7769 31.1712 12.5639C31.7944 13.3508 32 14.4257 31.7884 15.7885C31.7062 16.4113 31.5239 17.022 31.2417 17.6211C30.9675 18.2257 30.585 18.7751 30.113 19.2423C29.5251 19.853 28.8962 20.2407 28.2261 20.4053C27.5559 20.5699 26.8622 20.652 26.1451 20.652H24.0289L23.3587 24H20.9074L23.4293 11.3656ZM25.4926 13.3744L24.4345 18.6608C24.505 18.6724 24.5756 18.6784 24.6461 18.6784H24.893C26.0217 18.6901 26.9623 18.5787 27.7146 18.3436C28.467 18.0969 28.9727 17.2395 29.2313 15.7709C29.4429 14.5374 29.2313 13.8266 28.5964 13.6388C27.9732 13.4509 27.1916 13.3628 26.2509 13.3744C26.1098 13.3861 25.9747 13.3921 25.8453 13.3921H25.475L25.4926 13.3744Z" fill="#3D3D3D"/>
</svg>
