<svg width="48" height="48" viewBox="0 0 48 48" fill="none" xmlns="http://www.w3.org/2000/svg">
<path d="M3.39793 23.25C3.39793 31.1452 8.11499 37.9679 14.9555 41.2012L5.17339 15.1327C4.00076 17.6868 3.39574 20.4529 3.39793 23.25ZM37.7486 22.2434C37.7486 19.7785 36.8382 18.0714 36.0575 16.7427C35.018 15.0997 34.0436 13.7084 34.0436 12.0654C34.0436 10.2318 35.4734 8.525 37.4873 8.525C37.5782 8.525 37.6643 8.53594 37.7529 8.54105C34.1045 5.28988 29.2437 3.30496 23.9049 3.30496C16.7407 3.30496 10.4377 6.88018 6.77093 12.2953C7.25201 12.3094 7.70534 12.319 8.09061 12.319C10.2354 12.319 13.5557 12.0661 13.5557 12.0661C14.6613 12.0027 14.7916 13.5818 13.6873 13.7091C13.6873 13.7091 12.5763 13.8362 11.3401 13.8991L18.8082 35.5041L23.296 22.413L20.1009 13.8986C18.9966 13.8357 17.9505 13.7086 17.9505 13.7086C16.8455 13.6455 16.975 12.0021 18.08 12.0656C18.08 12.0656 21.4667 12.3187 23.4816 12.3187C25.6264 12.3187 28.9469 12.0656 28.9469 12.0656C30.053 12.0021 30.1832 13.5813 29.0785 13.7086C29.0785 13.7086 27.9652 13.8357 26.7312 13.8986L34.1422 35.3398L36.1877 28.6916C37.0741 25.9328 37.7488 23.9513 37.7488 22.2436L37.7486 22.2434ZM24.2647 24.9948L18.1119 42.3845C19.993 42.9234 21.9439 43.197 23.9049 43.197C26.2929 43.197 28.583 42.7955 30.7149 42.0664C30.6579 41.9792 30.6091 41.8873 30.5688 41.7916L24.2647 24.9948ZM41.8989 13.6807C41.987 14.316 42.0371 14.998 42.0371 15.7316C42.0371 17.7557 41.6485 20.0309 40.4778 22.8758L34.2138 40.4911C40.3104 37.0331 44.411 30.6089 44.411 23.2505C44.4114 19.7827 43.5008 16.5217 41.8989 13.6807ZM23.9049 0C10.724 0 0 10.4299 0 23.25C0 36.0718 10.724 46.5013 23.9049 46.5013C37.0853 46.5013 47.8108 36.0718 47.8108 23.25C47.8106 10.4299 37.0853 0 23.9049 0ZM23.9049 45.4356C11.3286 45.4356 1.09602 35.4831 1.09602 23.25C1.09602 11.0178 11.3281 1.06604 23.9049 1.06604C36.4809 1.06604 46.7125 11.0178 46.7125 23.25C46.7125 35.4831 36.4809 45.4356 23.9049 45.4356Z" fill="white"/>
</svg>
