<svg width="48" height="48" viewBox="0 0 48 48" fill="none" xmlns="http://www.w3.org/2000/svg">
<path d="M22.1857 30.4526C22.1682 30.4877 22.1506 30.5159 22.1857 30.4526ZM36.7832 25.3549C35.6047 25.3545 34.4419 25.6252 33.3848 26.1459C33.0391 25.4487 32.6816 24.8393 32.623 24.3823C32.5527 23.8491 32.4766 23.5327 32.5586 22.8998C32.6406 22.267 33.0098 21.3706 33.0039 21.3061C32.998 21.2416 32.9219 20.9194 32.166 20.9135C31.4101 20.9077 30.7598 21.06 30.6842 21.2592C30.5507 21.6233 30.4468 21.9976 30.3736 22.3784C30.2389 23.0639 28.8625 25.5131 28.0832 26.7905C27.8254 26.2924 27.6086 25.853 27.5617 25.5014C27.4914 24.9682 27.4152 24.6518 27.4973 24.019C27.5793 23.3862 27.9484 22.4897 27.9426 22.4252C27.9367 22.3608 27.8605 22.0385 27.1053 22.0327C26.35 22.0268 25.699 22.1791 25.6228 22.3784C25.5467 22.5776 25.4646 23.0463 25.3123 23.4975C25.1599 23.9487 23.3265 28.0268 22.8467 29.0873C22.6006 29.6264 22.3896 30.06 22.2373 30.353C22.2139 30.3998 22.1963 30.4291 22.1846 30.4526C22.2021 30.4233 22.2139 30.394 22.2139 30.4057C22.0849 30.6577 22.0088 30.7983 22.0088 30.7983V30.8041C21.9092 30.9916 21.7978 31.1616 21.7451 31.1616C21.7099 31.1616 21.6338 30.6694 21.7627 29.9956C22.0381 28.5776 22.6885 26.3745 22.6826 26.2983C22.6767 26.2573 22.8057 25.8764 22.2549 25.6713C21.7217 25.478 21.5283 25.8002 21.4814 25.8002C21.4346 25.8002 21.3994 25.9174 21.3994 25.9174C21.3994 25.9174 21.9912 23.4331 20.2633 23.4331C19.1851 23.4331 17.6851 24.6166 16.948 25.6889C16.4851 25.9409 15.4832 26.4858 14.4285 27.0659C14.0242 27.2885 13.6082 27.517 13.2156 27.7338C13.1863 27.7045 13.1629 27.6752 13.1336 27.6459C11.0365 25.4077 7.16464 23.8256 7.3287 20.8198C7.38729 19.7241 7.76815 16.8471 14.7742 13.3549C20.5164 10.4956 25.1072 11.2807 25.8976 13.0268C27.0344 15.517 23.4432 20.1518 17.4801 20.8198C15.2072 21.0717 14.0125 20.1928 13.7137 19.8647C13.4031 19.519 13.3562 19.5014 13.239 19.5659C13.0457 19.6713 13.1687 19.976 13.239 20.1577C13.4148 20.6206 14.1473 21.4409 15.3947 21.851C16.4904 22.2084 19.1553 22.4077 22.3773 21.1596C25.9973 19.7651 28.815 15.8803 27.9889 12.6284C27.1474 9.32368 21.6678 8.23969 16.4863 10.0795C13.399 11.1752 10.0603 12.8979 7.65858 15.142C4.80565 17.8139 4.34921 20.1401 4.53671 21.1127C5.20409 24.5639 9.96073 26.8139 11.8644 28.478C11.7707 28.5307 11.6828 28.5776 11.6008 28.6245C10.6463 29.0991 7.01991 30.9975 6.11229 33.0014C5.0869 35.2748 6.28221 36.9038 7.06678 37.1264C9.51542 37.8061 12.0226 36.5815 13.3697 34.5717C14.7168 32.562 14.5533 29.937 13.9322 28.7416C13.9264 28.7241 13.9146 28.7123 13.9088 28.6948C14.1549 28.5483 14.4068 28.4018 14.6588 28.2553C15.1445 27.9682 15.6191 27.7045 16.0351 27.476C15.8008 28.1088 15.6308 28.8706 15.543 29.9721C15.4375 31.2612 15.9707 32.9311 16.6621 33.5873C16.9668 33.8745 17.3353 33.8803 17.5639 33.8803C18.3724 33.8803 18.7357 33.2123 19.1394 32.4155C19.6375 31.4428 20.0769 30.312 20.0769 30.312C20.0769 30.312 19.5262 33.3706 21.032 33.3706C21.5822 33.3706 22.133 32.6616 22.3797 32.2983V32.3041C22.3797 32.3041 22.3914 32.2807 22.4207 32.2338C22.4793 32.1459 22.5086 32.0932 22.5086 32.0932V32.0756C22.7312 31.6948 23.2176 30.8217 23.9494 29.3803C24.8986 27.517 25.8062 25.1909 25.8062 25.1909C25.8939 25.7022 26.0153 26.2072 26.1695 26.7026C26.3336 27.2592 26.6793 27.8686 26.9547 28.4604C26.732 28.7651 26.5973 28.9409 26.5973 28.9409C26.5977 28.9454 26.5998 28.9495 26.6031 28.9526C26.4273 29.187 26.2281 29.4389 26.023 29.685C25.2736 30.5756 24.3824 31.5952 24.2652 31.8881C24.1246 32.2338 24.1598 32.4916 24.4293 32.6909C24.6285 32.8432 24.9801 32.8666 25.3486 32.8373C26.0224 32.7905 26.4971 32.6264 26.7256 32.5209C27.1469 32.3699 27.545 32.1608 27.9086 31.8998C28.641 31.3608 29.0863 30.5873 29.0453 29.5678C29.0219 29.0053 28.8402 28.4428 28.6176 27.9155C28.682 27.8217 28.7523 27.7221 28.8168 27.6225C29.9764 25.9291 30.8728 24.0706 30.8728 24.0706C30.9605 24.5819 31.0819 25.0869 31.2361 25.5823C31.3767 26.0569 31.6516 26.5784 31.9035 27.0881C30.8142 27.9729 30.1404 28.9983 29.906 29.6721C29.4724 30.9202 29.8123 31.4827 30.451 31.6116C30.7381 31.6702 31.1482 31.5354 31.4529 31.4065C31.9054 31.2558 32.3321 31.0364 32.718 30.7561C33.4504 30.217 34.1588 29.4612 34.1119 28.4358C34.0943 27.9729 33.9654 27.51 33.7955 27.0647C34.7154 26.678 35.9101 26.467 37.4336 26.6428C40.6961 27.0237 41.3348 29.0627 41.2117 29.9123C41.0887 30.762 40.4031 31.2366 40.1746 31.3772C39.9461 31.5178 39.8758 31.5706 39.8933 31.676C39.9226 31.8284 40.0281 31.8225 40.2215 31.7873C40.491 31.7405 41.9318 31.0959 41.9963 29.5198C42.09 27.5276 40.1746 25.3362 36.7814 25.3538L36.7832 25.3549ZM11.6359 33.8334C10.5584 35.0112 9.04667 35.4565 8.39686 35.0815C7.6996 34.676 7.97499 32.9428 9.30448 31.6877C10.1131 30.926 11.1555 30.2229 11.8469 29.7893C12.0051 29.6956 12.2336 29.5549 12.5148 29.385C12.5617 29.3557 12.5851 29.344 12.5851 29.344C12.6379 29.3088 12.6965 29.2795 12.7551 29.2444C13.2408 31.0256 12.7726 32.5959 11.6359 33.8323V33.8334ZM19.5086 28.478C19.1336 29.3979 18.3432 31.7416 17.8627 31.6186C17.4525 31.5131 17.2006 29.726 17.7807 27.9682C18.0736 27.0834 18.6947 26.0288 19.0639 25.6186C19.6551 24.9565 20.3055 24.7456 20.4578 25.0092C20.6629 25.3549 19.743 27.9038 19.5086 28.478ZM26.0125 31.5834C25.8543 31.6655 25.7078 31.7182 25.6375 31.6772C25.5848 31.6479 25.7019 31.5366 25.7019 31.5366C25.7019 31.5366 26.5164 30.6635 26.8387 30.2651C27.0262 30.0307 27.243 29.7553 27.4767 29.4506C27.4767 29.4799 27.4826 29.5092 27.4826 29.5444C27.475 30.5932 26.4678 31.3022 26.0107 31.5834H26.0125ZM31.0269 30.4409C30.9098 30.3588 30.9273 30.0834 31.3199 29.228C31.4723 28.894 31.8232 28.3315 32.4332 27.7924C32.5022 27.9965 32.5398 28.2099 32.5445 28.4252C32.5387 29.7436 31.5953 30.2358 31.0275 30.4409H31.0269Z" fill="white"/>
</svg>
