<svg width="32" height="32" viewBox="0 0 32 32" fill="none" xmlns="http://www.w3.org/2000/svg">
<g clip-path="url(#clip0_334_875)">
<path d="M16.0574 31.9573C16.6961 31.952 17.3281 31.9187 17.9587 31.832C19.3987 31.648 20.816 31.2547 22.1534 30.6813C24.032 29.8787 25.7507 28.72 27.2107 27.2907C28.548 25.972 29.6667 24.4227 30.464 22.7213C31.1427 21.2587 31.6227 19.6894 31.824 18.0867C32.0227 16.54 32.004 14.9587 31.764 13.4214C31.5654 12.1413 31.2054 10.8933 30.7067 9.70402C30.3867 8.95602 30.0067 8.23602 29.5681 7.54802C28.0107 5.09868 25.7534 3.12935 23.1547 1.81335C22.2307 1.34002 21.2574 0.95335 20.2587 0.654683H20.2521C20.4107 0.738683 20.5721 0.830683 20.712 0.922683C20.872 1.02135 21.0307 1.11735 21.18 1.22268C21.9387 1.73602 22.6387 2.32535 23.2587 2.99602C24.6761 4.52268 25.6547 6.39335 26.2161 8.38402C26.5947 9.69335 26.7947 11.048 26.876 12.4067C26.9347 13.3974 26.9347 14.3947 26.8134 15.3787C26.6147 17.072 26.0747 18.7254 25.1761 20.1734C24.516 21.244 23.656 22.1987 22.6387 22.952C20.98 24.1894 18.8027 24.928 16.7241 24.4373C16.3854 24.356 16.0441 24.2427 15.7267 24.0933C15.3654 23.928 15.0067 23.724 14.688 23.4947C14.068 23.08 13.5081 22.5813 13.0294 22.02C12.4494 21.3267 11.9707 20.5387 11.6307 19.6907C11.212 18.616 10.9921 17.4613 10.9721 16.304C10.9321 14.6067 11.2721 12.9 12.1107 11.4107C12.6707 10.4187 13.4294 9.54935 14.3281 8.85335C14.6281 8.61602 14.9467 8.40935 15.2667 8.21468L15.288 8.20535C14.6667 8.06535 14.008 8.00402 13.3667 8.04535C12.8094 8.08402 12.2694 8.18535 11.7294 8.36402C11.2507 8.52402 10.7907 8.72535 10.3707 8.96402C10.0307 9.16268 9.69338 9.38402 9.39338 9.62402C9.11205 9.86402 8.83338 10.1027 8.57338 10.364C7.07605 11.9014 6.21605 13.94 5.87738 16.0387C5.67738 17.336 5.67738 18.6533 5.75605 19.9734C5.89605 21.832 6.27738 23.688 7.01605 25.388C7.47472 26.4467 8.07338 27.424 8.81338 28.2854C9.95205 29.6014 11.392 30.6227 12.9894 31.26C13.8894 31.6213 14.848 31.88 15.8067 31.98C15.9054 32 16.0054 32 16.0854 32L16.0574 31.9573ZM12.1454 31.4267C11.9267 31.3333 11.7267 31.228 11.5454 31.1227C11.3467 31.012 11.1454 30.8987 10.9467 30.7773C10.1667 30.2947 9.46938 29.728 8.82805 29.0774C7.36938 27.56 6.39205 25.6547 5.83205 23.636C5.45338 22.2573 5.25205 20.8334 5.17205 19.4067C5.11338 18.4694 5.13338 17.5494 5.23338 16.6307C5.41338 14.9547 5.89338 13.296 6.73205 11.8573C7.33072 10.7987 8.14938 9.86002 9.10938 9.12002C9.76805 8.62135 10.5081 8.20002 11.2867 7.92002C12.3854 7.52135 13.564 7.40135 14.7041 7.56002C15.144 7.62002 15.5814 7.72135 15.9827 7.86002C16.0214 7.86002 16.0214 7.86002 16.0427 7.90002C16.0627 7.92002 16.1027 7.92002 16.1227 7.94002C16.1827 7.96135 16.2614 8.00002 16.3427 8.03868C16.6614 8.19868 16.9814 8.40002 17.2814 8.59868C18.4801 9.43735 19.4587 10.596 20.0774 11.9347C20.6374 13.1534 20.8974 14.5134 20.9187 15.852C20.9374 17.2907 20.6787 18.728 20.0587 20.0467C19.3187 21.6254 18.0614 22.964 16.5414 23.8227C16.6614 23.8627 16.7814 23.8827 16.9027 23.9227C17.2027 23.9813 17.5014 24.0214 17.82 24.0214C19.7774 24.0814 21.6761 23.1427 23.0734 21.8253C23.3334 21.5853 23.5734 21.3254 23.7934 21.0454C24.0934 20.6854 24.3734 20.3267 24.612 19.948C24.9307 19.448 25.192 18.948 25.4307 18.4094C25.732 17.6907 25.9694 16.9507 26.1094 16.1907C26.3707 14.852 26.3907 13.4947 26.3081 12.156C26.128 9.46002 25.4107 6.76268 23.852 4.52402C23.612 4.18535 23.3734 3.86535 23.112 3.56535C22.6734 3.06535 22.1934 2.60668 21.6947 2.18668C21.1347 1.72668 20.5147 1.30802 19.8774 0.966683C19.22 0.66935 18.4401 0.370683 17.6214 0.16935L17.2214 0.0893496C16.9427 0.0493496 16.6614 0.0306829 16.376 0.0093496C15.9427 -0.0106504 15.484 -0.00398373 15.0227 0.0306829C14.0841 0.0906829 13.14 0.244016 12.2067 0.480016C7.73205 1.63468 3.81738 4.75335 1.73338 8.89068C1.06538 10.2094 0.593384 11.6187 0.317384 13.0667C-0.00128281 14.724 -0.0426162 16.4307 0.178717 18.1C0.338717 19.46 0.677384 20.7973 1.21605 22.0693C1.51872 22.8293 1.89738 23.568 2.31605 24.2667C3.77472 26.644 5.89338 28.5814 8.32938 29.92C9.24672 30.4414 10.2067 30.84 11.2054 31.18C11.5067 31.2787 11.8054 31.3787 12.1241 31.4587L12.1454 31.4267Z" fill="#3D3D3D"/>
</g>
<defs>
<clipPath id="clip0_334_875">
<rect width="32" height="32" fill="white"/>
</clipPath>
</defs>
</svg>
