<svg width="48" height="48" viewBox="0 0 48 48" fill="none" xmlns="http://www.w3.org/2000/svg">
<path d="M21.2351 47.6902C19.3553 47.1779 17.9811 45.883 16.4874 43.2168C15.7539 41.9064 15.245 41.1728 14.6013 40.4939L13.7197 39.5651L10.6124 39.5622C7.5146 39.5593 6.95697 39.5056 5.70792 39.0925C4.16786 38.5841 2.54466 36.8723 1.93113 35.1101C1.53405 33.9693 1.5092 32.2202 1.87522 31.1195C2.08308 30.4939 3.61453 27.6785 5.178 25.0472C5.38013 24.7077 5.54498 24.3721 5.54498 24.3014C5.54498 24.2307 4.7685 22.8148 3.82 21.1553C2.8715 19.4954 1.9899 17.7933 1.86041 17.3729C1.53118 16.3008 1.54265 14.5673 1.88573 13.5354C2.55279 11.5282 4.18268 9.90259 6.17667 9.25468C6.75915 9.06583 7.49167 9.02031 10.6654 8.97527L14.458 8.92201L15.7061 6.72308C17.9643 2.74457 18.5363 2.04194 20.1471 1.2657C22.6519 0.058009 25.6923 0.555323 27.5831 2.48211C28.2234 3.13486 28.6477 3.79682 30.6288 7.2354L31.6007 8.92201L35.4191 8.97043C38.9852 9.01643 39.2905 9.03822 40.0378 9.30698C41.0666 9.67694 41.7246 10.1026 42.5345 10.9234C43.7979 12.2037 44.3942 13.668 44.389 15.4786C44.3847 17.0519 44.1166 17.7381 42.232 21.0115C41.3203 22.595 40.5391 23.9818 40.4965 24.0942C40.4488 24.2201 40.7584 24.883 41.2993 25.8142C43.2966 29.2547 43.9991 30.5694 44.1959 31.2377C44.5046 32.2851 44.4721 33.9213 44.1223 34.975C43.5681 36.6437 42.1537 38.2543 40.6514 38.9279C39.5065 39.4412 38.5217 39.5608 35.4372 39.5632L32.522 39.5656L31.2653 40.8852C30.2638 41.9369 29.8433 42.5025 29.1934 43.672C27.8894 46.0186 26.4048 47.3115 24.5059 47.7551C23.7041 47.9425 22.0379 47.9091 21.2351 47.6902ZM17.9849 27.5216C18.5344 26.7115 19.0208 26.005 19.0662 25.9522C19.1116 25.8989 19.4179 26.0287 19.7471 26.2403L20.3458 26.6248H25.8887L26.5228 26.2457L27.1569 25.867L28.2353 27.495L29.3133 29.123L29.3172 34.7605L29.321 40.398L29.6325 39.8852C29.8638 39.5046 29.9441 39.1918 29.945 38.6683L29.9465 37.9638L30.6905 37.3536C31.175 36.9575 31.616 36.435 31.9543 35.8583C32.2401 35.3707 32.4737 34.9329 32.4737 34.885C32.4737 34.7867 31.8368 35.3305 30.8725 36.2505C30.5132 36.5943 30.1577 36.8747 30.0822 36.8747C29.9866 36.8747 29.9455 35.6176 29.9455 32.7151V28.5555L29.0462 27.2626C28.5517 26.5517 28.1675 25.9498 28.1928 25.9246C28.2181 25.8999 28.7677 26.0002 29.4146 26.1474L30.5911 26.4147L32.07 24.9363L33.5484 23.4574L34.9914 22.9272C35.7856 22.6352 36.4546 22.4163 36.4784 22.4405C36.5023 22.4647 36.4593 23.638 36.3829 25.0477C36.3064 26.4568 36.2634 27.7492 36.2873 27.9182C36.3208 28.1579 36.5821 27.7875 37.4676 26.2476C38.0935 25.1595 38.6029 24.2448 38.5991 24.2148C38.5809 24.0559 37.0743 21.503 36.9983 21.5016C36.9486 21.5006 34.3607 22.4512 31.2481 23.6138C25.7339 25.6738 25.5628 25.728 24.6062 25.728H23.6238V10.4817H22.6127V25.728H21.7736C21.0473 25.728 20.612 25.607 18.5181 24.8235C17.2708 24.3565 16.0228 23.8912 14.7743 23.4274C10.5694 21.8691 9.46416 21.4231 9.46416 21.2846C9.46416 21.1999 9.41734 21.1016 9.36047 21.0658C9.22716 20.9825 7.40805 24.131 7.46348 24.3489C7.52273 24.5852 10.0223 28.9206 10.0705 28.8717C10.093 28.8489 10.0237 27.4006 9.91763 25.653C9.81107 23.9053 9.74322 22.4555 9.76759 22.4313C9.79148 22.4071 10.2024 22.5378 10.6807 22.7219C11.1586 22.9059 11.806 23.1431 12.119 23.2497C12.5553 23.3983 13.0321 23.7896 14.1641 24.9266L15.6406 26.4098L16.6928 26.1798C17.2715 26.0539 17.8162 25.9232 17.9032 25.8893C18.2075 25.7726 18.0537 26.0776 17.1764 27.3294L16.2914 28.5923V32.7335C16.2914 35.2399 16.2441 36.8747 16.172 36.8747C16.1065 36.8747 15.3955 36.266 14.5918 35.5222C13.7881 34.7789 13.1306 34.1974 13.1306 34.2303C13.1306 34.2632 13.3499 34.684 13.618 35.1658C13.9759 35.8099 14.393 36.2965 15.191 37.0026L16.2771 37.9638L16.2838 38.8606C16.2886 39.5346 16.3612 39.8925 16.5753 40.3026L16.8601 40.8474L16.9231 34.9213L16.9867 28.9952L17.9849 27.5216ZM12.6255 37.2665C12.6255 36.5246 12.5844 36.4336 11.0305 33.7107C10.1532 32.1742 9.36573 30.8304 9.27972 30.7249C9.19371 30.6193 9.08524 30.4232 9.03794 30.2891C8.99111 30.1554 8.5926 29.4349 8.15299 28.6877C7.71338 27.941 7.17056 26.9977 6.94598 26.5929C6.7214 26.188 6.51928 25.8563 6.49634 25.8563C6.4519 25.8563 5.18708 28.0557 4.06513 30.0837C3.22797 31.598 3.10182 32.0594 3.16919 33.3649C3.21029 34.1698 3.30299 34.5702 3.57869 35.1421C4.26008 36.5527 5.67734 37.6422 7.16101 37.8955C7.48928 37.9517 8.85301 38.0044 10.1914 38.0127L12.6255 38.0277V37.2665ZM38.8007 37.8984C39.7784 37.7105 40.6934 37.2447 41.3418 36.604C42.3868 35.5716 42.8723 34.4075 42.8647 32.9529C42.8575 31.6047 42.8499 31.5873 40.1888 26.9202L39.517 25.7421L38.2598 27.9337C37.5679 29.1395 36.9701 30.2169 36.9314 30.3288C36.8927 30.4411 36.7881 30.6193 36.7002 30.7249C36.5568 30.8958 35.9175 31.9912 34.1581 35.0782C33.642 35.9827 33.6119 36.0902 33.6119 37.0316V38.0277H35.8706C37.113 38.0277 38.4314 37.9696 38.8007 37.8984ZM7.77932 20.5036L8.83342 18.6741L8.39047 16.8906C8.14678 15.9096 7.94704 15.0113 7.94704 14.8941C7.94704 14.7033 8.0923 14.6907 9.36955 14.7731C10.1518 14.8234 10.8375 14.8728 10.8938 14.883C10.9818 14.8995 11.7721 13.5925 13.154 11.1451L13.541 10.4585L10.3333 10.5161C6.784 10.5791 6.29709 10.6658 5.25828 11.4154C3.04209 13.0153 2.49879 15.9285 3.9667 18.3448C4.17407 18.6867 4.42924 19.1244 4.53341 19.3181C4.63805 19.5109 5.12018 20.3675 5.60566 21.2202C6.31954 22.4744 6.51116 22.7296 6.60624 22.5519C6.67123 22.4313 7.19923 21.5098 7.77932 20.5036ZM41.0174 20.0905C41.7676 18.7869 42.4881 17.4374 42.6181 17.0916C42.8666 16.4316 42.943 15.0941 42.7772 14.3159C42.5173 13.1005 41.3982 11.6807 40.2242 11.0778C39.2805 10.5931 38.1838 10.4696 35.185 10.5098L32.5225 10.5457L33.7056 12.5954C34.3559 13.7232 34.9284 14.7116 34.9766 14.7924C35.043 14.9019 35.5118 14.9062 36.8091 14.8084C37.7681 14.7363 38.5757 14.7004 38.6034 14.729C38.6316 14.7571 38.4294 15.6868 38.1542 16.7943C37.8795 17.9022 37.6444 18.9385 37.6319 19.0973C37.6061 19.4266 39.4381 22.6981 39.5672 22.5548C39.614 22.503 40.2667 21.3941 41.0174 20.0905ZM17.4937 15.2239C17.4574 15.1643 17.4827 15.0965 17.5496 15.0728C17.6169 15.0491 18.0976 14.021 18.6175 12.7877C19.4967 10.7026 19.5445 10.5428 19.3032 10.5026C19.1599 10.4793 18.995 10.5089 18.9362 10.5689C18.877 10.6285 18.4307 11.5994 17.9438 12.7257C17.162 14.5353 17.0254 14.7721 16.7702 14.76C16.6111 14.7527 15.72 14.6714 14.7901 14.5794L13.099 14.4118L12.8682 14.7208L12.6375 15.0297L15.0018 15.2273C17.3718 15.4258 17.616 15.4253 17.4937 15.2239ZM32.9454 15.1009C33.3343 15.0941 33.3467 15.0786 33.2096 14.7736C33.1303 14.5973 32.9669 14.4535 32.8464 14.4535C32.5263 14.4535 30.0755 14.698 29.6144 14.7765C29.2393 14.8394 29.2063 14.8099 28.9382 14.1678C28.7834 13.7964 28.5631 13.3484 28.4489 13.1722C28.3343 12.9959 28.233 12.7654 28.2234 12.6594C28.2138 12.5538 28.0036 12.0202 27.7551 11.4744C27.3676 10.6198 27.2606 10.4817 26.9858 10.4817H26.6676L27.1167 11.5384L28.1317 13.9353C28.4437 14.6728 28.7194 15.3096 28.7447 15.3508C28.7696 15.3919 29.6335 15.3542 30.6637 15.267C31.6939 15.1793 32.7208 15.1048 32.9454 15.1009ZM29.4963 8.33559C27.8612 5.46212 26.9796 4.05782 26.5199 3.5915C25.7215 2.78137 24.6277 2.28067 23.4623 2.19157C21.3421 2.02886 19.588 2.99056 18.5048 4.91009C18.0599 5.69053 17.6124 6.46935 17.1621 7.24654L16.1806 8.94428H29.8428L29.4963 8.33559Z" fill="white"/>
<path d="M21.2349 47.69C19.3551 47.1777 17.9809 45.8828 16.4872 43.2166C15.7537 41.9063 15.2448 41.1726 14.6012 40.4937L13.7196 39.565H10.65C6.69401 39.565 5.82387 39.3931 4.3015 38.3117C3.53457 37.767 2.50484 36.5467 2.22483 35.8494C2.11918 35.5917 2.01006 35.3356 1.89752 35.0809C1.77328 34.7991 1.68106 34.1323 1.65 33.2868C1.60891 32.1735 1.6457 31.806 1.86264 31.1552C2.08101 30.4995 3.59048 27.7181 5.17784 25.0465C5.37997 24.7075 5.54482 24.372 5.54482 24.3008C5.54482 24.2306 4.76834 22.8146 3.81984 21.1547C2.87134 19.4947 1.98974 17.7926 1.86025 17.3728C1.53102 16.3007 1.54249 14.5666 1.88557 13.5347C2.55263 11.528 4.18252 9.90241 6.17651 9.25401C6.75899 9.06516 7.49151 9.01964 10.6653 8.97509L14.4578 8.92134L15.7059 6.72289C17.9642 2.7439 18.5361 2.04127 20.1469 1.26503C22.6221 0.0718687 25.653 0.54836 27.5361 2.42721C28.0785 2.9681 29.1588 4.57142 29.7036 5.64401C29.8015 5.8377 30.2674 6.65365 30.7395 7.45845L31.5972 8.92134L35.417 8.97025C38.9855 9.01577 39.2903 9.03804 40.0377 9.30631C41.0664 9.67627 41.7244 10.1019 42.5343 10.9227C44.6402 13.0567 45 16.1694 43.4527 18.8676C42.8904 19.8531 42.3258 20.8373 41.7588 21.82C41.4023 22.4367 41.0525 23.0574 40.7095 23.6819L40.3984 24.263L41.2886 25.7961C43.2946 29.2497 43.9989 30.5678 44.1972 31.237C44.4982 32.2554 44.4605 34.0325 44.1169 35.0165C43.5526 36.631 42.1755 38.2043 40.7339 38.8822C39.5565 39.4357 38.5874 39.5601 35.4371 39.5625L32.5218 39.565L31.2651 40.885C30.2665 41.9339 29.8407 42.5053 29.1913 43.6713C27.884 46.0179 26.3979 47.3128 24.5052 47.7549C23.7039 47.9418 22.0377 47.9084 21.2349 47.69ZM17.9847 27.5215C18.5342 26.7113 19.0207 26.0048 19.0661 25.952C19.1115 25.8988 19.4177 26.0285 19.747 26.2402L20.3457 26.6246H25.8886L26.5226 26.2455L27.1567 25.8668L28.2352 27.4948L29.3132 29.1228L29.317 34.7603L29.3208 40.3979L29.6324 39.885C29.8636 39.5044 29.9439 39.1916 29.9449 38.6681L29.9463 37.9636L30.6903 37.3534C31.1748 36.9573 31.6159 36.4348 31.9542 35.8581C32.2399 35.3705 32.4736 34.9327 32.4736 34.8848C32.4736 34.7865 31.8366 35.3303 30.8724 36.2503C30.513 36.5942 30.1575 36.8745 30.082 36.8745C29.9865 36.8745 29.9454 35.6174 29.9454 32.7149V28.5553L29.0461 27.2624C28.5515 26.5515 28.1673 25.9496 28.1927 25.9244C28.218 25.8997 28.7675 26 29.4145 26.1472L30.5909 26.4145L32.0698 24.9361L33.5482 23.4572L34.9913 22.927C35.7854 22.635 36.4544 22.4161 36.4783 22.4403C36.5022 22.4645 36.4592 23.6379 36.3827 25.0475C36.3063 26.4566 36.2633 27.749 36.2872 27.918C36.3206 28.1577 36.582 27.7873 37.4674 26.2474C38.0934 25.1593 38.6027 24.2446 38.5989 24.2146C38.5808 24.0557 37.0741 21.5028 36.9982 21.5014C36.9485 21.5004 34.3605 22.451 31.2479 23.6136C25.7337 25.6736 25.5627 25.7278 24.6061 25.7278H23.6236V10.4816H22.6125V25.7278H21.7735C21.0472 25.7278 20.6118 25.6068 18.518 24.8233C17.2706 24.3563 16.0227 23.891 14.7742 23.4272C10.5692 21.8689 9.464 21.4229 9.464 21.2844C9.464 21.1997 9.41718 21.1014 9.36031 21.0656C9.227 20.9823 7.40789 24.1308 7.46332 24.3487C7.52257 24.585 10.0221 28.9204 10.0704 28.8715C10.0928 28.8487 10.0235 27.4004 9.91747 25.6528C9.81091 23.9052 9.74306 22.4553 9.76743 22.4311C9.79132 22.4069 10.2023 22.5377 10.6806 22.7217C11.1584 22.9057 11.8059 23.143 12.1188 23.2495C12.5551 23.3982 13.032 23.7894 14.164 24.9264L15.6405 26.4096L16.6927 26.1796C17.2713 26.0537 17.816 25.923 17.903 25.8891C18.2074 25.7724 18.0535 26.0774 17.1762 27.3292L16.2913 28.5921V32.7333C16.2913 35.2397 16.244 36.8745 16.1718 36.8745C16.1064 36.8745 15.3953 36.2658 14.5916 35.522C13.7879 34.7787 13.1304 34.1972 13.1304 34.2301C13.1304 34.263 13.3497 34.6838 13.6178 35.1656C13.9757 35.8097 14.3929 36.2963 15.1908 37.0024L16.2769 37.9636L16.2836 38.8604C16.2884 39.5345 16.361 39.8923 16.5751 40.3025L16.8599 40.8472L16.923 34.9211L16.9865 28.995L17.9847 27.5215ZM12.6253 37.2663C12.6253 36.5244 12.5843 36.4334 11.0303 33.7105C10.153 32.174 9.36557 30.8303 9.27956 30.7247C9.19355 30.6191 9.08508 30.423 9.03778 30.2889C8.99095 30.1552 8.59244 29.4347 8.15283 28.6875C7.71322 27.9408 7.17041 26.9975 6.94582 26.5927C6.72124 26.1879 6.51912 25.8562 6.49618 25.8562C6.45175 25.8562 5.18692 28.0556 4.06497 30.0836C3.22781 31.5978 3.10166 32.0593 3.16903 33.3648C3.21013 34.1696 3.30283 34.57 3.57854 35.1419C4.25993 36.5525 5.67718 37.642 7.16085 37.8953C7.48912 37.9515 8.85286 38.0043 10.1913 38.0125L12.6253 38.0275V37.2663ZM38.8006 37.8982C39.7782 37.7103 40.6933 37.2445 41.3417 36.6038C42.3867 35.5714 42.8722 34.4073 42.8645 32.9527C42.8574 31.6046 42.8497 31.5871 40.1887 26.92L39.5168 25.7419L38.2596 27.9335C37.5677 29.1393 36.97 30.2167 36.9313 30.3286C36.8926 30.4409 36.7879 30.6191 36.7 30.7247C36.5567 30.8956 35.9173 31.991 34.1579 35.078C33.6419 35.9826 33.6118 36.0901 33.6118 37.0314V38.0275H35.8705C37.1128 38.0275 38.4312 37.9694 38.8006 37.8982ZM7.77916 20.5034L8.83326 18.6739L8.39031 16.8905C8.14662 15.9094 7.94688 15.0111 7.94688 14.8939C7.94688 14.7032 8.09215 14.6906 9.36939 14.7729C10.1516 14.8232 10.8373 14.8726 10.8937 14.8828C10.9816 14.8993 11.7719 13.5923 13.1538 11.145L13.5409 10.4583L10.3332 10.5159C6.78384 10.5789 6.29693 10.6656 5.25812 11.4152C3.04097 13.0156 2.50054 15.9176 3.96654 18.3495C4.41602 19.0911 4.84355 19.8462 5.24856 20.6138C5.50875 21.0961 5.77975 21.5724 6.06136 22.0423C6.41543 22.6263 6.51386 22.7168 6.60847 22.5435C6.6725 22.4273 7.19908 21.5096 7.77916 20.5034ZM41.0172 20.0903C41.7674 18.7867 42.488 17.4372 42.618 17.0914C42.8664 16.4314 42.9429 15.0939 42.7771 14.3158C42.5171 13.1003 41.3981 11.6805 40.224 11.0777C39.2803 10.5929 38.1837 10.4695 35.1848 10.5096L32.5223 10.5455L33.7054 12.5953C34.3558 13.7231 34.9282 14.7114 34.9765 14.7923C35.0429 14.9017 35.5116 14.9061 36.8089 14.8082C37.768 14.7361 38.5755 14.7002 38.6032 14.7288C38.6314 14.7569 38.4293 15.6866 38.154 16.7941C37.8793 17.902 37.6442 18.9383 37.6318 19.0971C37.606 19.4264 39.438 22.6979 39.567 22.5546C39.6138 22.5028 40.2665 21.3939 41.0172 20.0903ZM17.4935 15.2237C17.4572 15.1642 17.4825 15.0964 17.5494 15.0726C17.6168 15.0489 18.0975 14.0209 18.6174 12.7875C19.4966 10.7024 19.5444 10.5426 19.3031 10.5024C19.1597 10.4791 18.9949 10.5087 18.9361 10.5687C18.8768 10.6283 18.4305 11.5992 17.9436 12.7255C17.1619 14.5351 17.0252 14.7719 16.7701 14.7598C16.611 14.7525 15.7198 14.6712 14.7899 14.5792L13.0989 14.4116L12.8681 14.7206L12.6373 15.0295L15.0016 15.2271C17.3717 15.4256 17.6158 15.4252 17.4935 15.2237ZM32.9452 15.1007C33.3341 15.0939 33.3466 15.0784 33.2094 14.7734C33.1301 14.5971 32.9667 14.4533 32.8463 14.4533C32.5261 14.4533 30.0753 14.6978 29.6142 14.7763C29.2391 14.8392 29.2062 14.8097 28.9381 14.1676C28.7833 13.7962 28.563 13.3483 28.4488 13.172C28.3341 12.9957 28.2328 12.7652 28.2232 12.6592C28.2137 12.5536 28.0034 12.02 27.755 11.4742C27.3674 10.6196 27.2604 10.4816 26.9857 10.4816H26.6674L27.1166 11.5382L28.1315 13.9352C28.4435 14.6726 28.7192 15.3094 28.7446 15.3506C28.7694 15.3917 29.6333 15.354 30.6635 15.2668C31.6937 15.1792 32.7206 15.1046 32.9452 15.1007ZM29.4962 8.33541C27.861 5.46193 26.9794 4.05764 26.5198 3.59132C25.7213 2.78119 24.6276 2.28048 23.4621 2.19138C21.342 2.02868 19.5879 2.99038 18.5046 4.9099C18.0598 5.69034 17.6122 6.46917 17.1619 7.24636L16.1804 8.9441H29.8426L29.4962 8.33541Z" fill="white"/>
<path d="M21.2348 47.69C19.3397 47.1738 17.9918 45.8945 16.4288 43.1285C15.6241 41.7048 15.1621 41.0424 14.5284 40.4056L13.6922 39.564L10.5983 39.5558C6.61075 39.5446 5.81612 39.3877 4.30139 38.3118C3.53447 37.767 2.50474 36.5467 2.22473 35.8494C2.11907 35.5917 2.00995 35.3356 1.89741 35.0809C1.77317 34.7991 1.68095 34.1323 1.64989 33.2868C1.6088 32.1735 1.64559 31.806 1.86253 31.1552C2.0809 30.4995 3.59037 27.7181 5.17773 25.0465C5.37986 24.7075 5.54089 24.3613 5.53611 24.278C5.52703 24.1114 5.46778 24.0035 3.47187 20.53C2.71307 19.2124 1.98772 17.7907 1.85966 17.3713C1.53091 16.3012 1.54286 14.5666 1.88546 13.5352C2.55252 11.5285 4.18241 9.9029 6.1764 9.2545C6.75888 9.06565 7.4914 9.02013 10.6652 8.97558L14.4577 8.92183L15.7058 6.72339C17.9641 2.74488 18.536 2.04176 20.1468 1.26553C22.4361 0.160492 25.1688 0.4675 27.1322 2.04806C27.6923 2.4984 28.6116 3.65089 28.8524 4.20341C28.9289 4.37967 29.0292 4.55254 29.0751 4.58789C29.121 4.62324 29.3207 4.95155 29.52 5.31764C29.7192 5.68421 30.2377 6.59022 30.6725 7.33207C31.1073 8.07296 31.4628 8.73879 31.4628 8.81191C31.4628 8.89907 32.6049 8.94411 34.8445 8.94411C39.695 8.94411 40.7815 9.21044 42.3985 10.7997C43.7388 12.1168 44.3801 13.5773 44.3959 15.3501C44.4073 16.6711 44.0891 17.7824 43.3437 19.0255C42.9977 19.6017 42.7144 20.1354 42.7144 20.2104C42.7144 20.2855 42.6642 20.347 42.603 20.347C42.5419 20.347 42.4578 20.4477 42.4167 20.5712C42.3756 20.6942 42.2413 20.9682 42.1176 21.1803C41.9938 21.3924 41.5552 22.1643 41.1423 22.8965C40.4208 24.1758 40.3988 24.2398 40.5832 24.5608C44.1832 30.8332 44.1574 30.7823 44.3591 32.0699C44.6969 34.2277 43.8382 36.4537 42.0784 37.981C40.5627 39.2962 39.4412 39.5596 35.4795 39.5306L32.6063 39.5103L31.4251 40.6589C30.7752 41.2903 30.1732 41.9513 30.0862 42.1276C29.9992 42.3038 29.5773 43.0529 29.1482 43.7934C27.8519 46.0281 26.3271 47.3293 24.5056 47.7544C23.7043 47.9418 22.0376 47.9089 21.2348 47.69ZM17.9846 27.5215C18.5341 26.7113 19.0206 26.0048 19.0659 25.952C19.1113 25.8988 19.4176 26.0285 19.7469 26.2402L20.3456 26.6246H25.8884L26.5225 26.2455L27.1566 25.8668L28.2351 27.4948L29.3131 29.1228L29.3169 34.7603L29.3207 40.3979L29.6323 39.8851C29.8635 39.5044 29.9438 39.1916 29.9448 38.6682L29.9462 37.9636L30.6902 37.3535C31.1747 36.9573 31.6158 36.4349 31.9541 35.8581C32.2398 35.3705 32.4735 34.9327 32.4735 34.8848C32.4735 34.7865 31.8365 35.3303 30.8722 36.2504C30.5129 36.5942 30.1574 36.8745 30.0819 36.8745C29.9863 36.8745 29.9452 35.6175 29.9452 32.7149V28.5553L29.046 27.2624C28.5514 26.5515 28.1672 25.9496 28.1926 25.9244C28.2179 25.8997 28.7674 26 29.4144 26.1472L30.5908 26.4145L32.0697 24.9361L33.5481 23.4572L34.9912 22.927C35.7853 22.635 36.4543 22.4161 36.4782 22.4403C36.5021 22.4645 36.4591 23.6379 36.3826 25.0475C36.3062 26.4566 36.2632 27.7491 36.287 27.9181C36.3205 28.1577 36.5819 27.7873 37.4673 26.2474C38.0933 25.1593 38.6026 24.2446 38.5988 24.2146C38.5806 24.0558 37.074 21.5028 36.9981 21.5014C36.9484 21.5004 34.3604 22.451 31.2478 23.6136C25.7336 25.6736 25.5626 25.7278 24.6059 25.7278H23.6235V10.4816H22.6124V25.7278H21.7733C21.047 25.7278 20.6117 25.6068 18.5179 24.8233C17.2705 24.3563 16.0226 23.891 14.7741 23.4272C10.5691 21.8689 9.46389 21.4229 9.46389 21.2845C9.46389 21.1997 9.41707 21.1014 9.36021 21.0656C9.22689 20.9823 7.40778 24.1308 7.46321 24.3487C7.52246 24.585 10.022 28.9204 10.0703 28.8715C10.0927 28.8488 10.0234 27.4004 9.91736 25.6528C9.8108 23.9052 9.74295 22.4553 9.76732 22.4311C9.79121 22.4069 10.2021 22.5377 10.6805 22.7217C11.1583 22.9057 11.8058 23.143 12.1187 23.2495C12.555 23.3982 13.0319 23.7894 14.1639 24.9264L15.6404 26.4096L16.6926 26.1796C17.2712 26.0537 17.8159 25.923 17.9029 25.8891C18.2073 25.7724 18.0534 26.0775 17.1761 27.3292L16.2912 28.5921V32.7333C16.2912 35.2397 16.2439 36.8745 16.1717 36.8745C16.1063 36.8745 15.3952 36.2659 14.5915 35.5221C13.7878 34.7788 13.1303 34.1972 13.1303 34.2301C13.1303 34.263 13.3496 34.6838 13.6177 35.1657C13.9756 35.8097 14.3927 36.2964 15.1907 37.0024L16.2768 37.9636L16.2835 38.8604C16.2883 39.5345 16.3609 39.8923 16.575 40.3025L16.8598 40.8472L16.9229 34.9211L16.9864 28.995L17.9846 27.5215ZM12.6252 37.2663C12.6252 36.5244 12.5841 36.4334 11.0302 33.7105C10.1529 32.174 9.36546 30.8303 9.27945 30.7247C9.19344 30.6191 9.08497 30.423 9.03767 30.2889C8.99084 30.1552 8.59233 29.4347 8.15272 28.6875C7.71311 27.9408 7.1703 26.9975 6.94572 26.5927C6.72113 26.1879 6.51901 25.8562 6.49607 25.8562C6.45164 25.8562 5.18681 28.0556 4.06486 30.0836C3.2277 31.5978 3.10155 32.0593 3.16892 33.3648C3.21002 34.1696 3.30272 34.57 3.57843 35.1419C4.25982 36.5525 5.67707 37.6421 7.16074 37.8953C7.48901 37.9515 8.85275 38.0043 10.1912 38.0125L12.6252 38.0275V37.2663ZM38.8004 37.8982C39.7781 37.7103 40.6931 37.2445 41.3416 36.6038C42.3866 35.5714 42.8721 34.4073 42.8644 32.9527C42.8572 31.6046 42.8496 31.5871 40.1885 26.92L39.5167 25.7419L38.2595 27.9335C37.5676 29.1393 36.9699 30.2167 36.9312 30.3286C36.8925 30.4409 36.7878 30.6191 36.6999 30.7247C36.5565 30.8956 35.9172 31.991 34.1578 35.078C33.6418 35.9826 33.6117 36.0901 33.6117 37.0314V38.0275H35.8704C37.1127 38.0275 38.4311 37.9694 38.8004 37.8982ZM7.77906 20.5034L8.83316 18.6739L8.3902 16.8905C8.14651 15.9094 7.94677 15.0131 7.94677 14.8983C7.94677 14.7124 8.1035 14.6993 9.36928 14.7777C10.1515 14.8262 10.8372 14.8746 10.8936 14.8843C10.9815 14.8988 11.7733 13.5894 13.1537 11.145L13.5408 10.4583L10.3331 10.5159C6.78373 10.5789 6.29682 10.6656 5.25801 11.4152C3.04086 13.0156 2.50044 15.9176 3.96643 18.3495C4.45081 19.1488 4.90851 19.9644 5.33876 20.7949C5.55952 21.2181 5.9093 21.8312 6.1162 22.158C6.4287 22.6519 6.5128 22.7168 6.60837 22.5425C6.67239 22.4273 7.19897 21.5096 7.77906 20.5034ZM41.0171 20.0903C41.7673 18.7868 42.4879 17.4372 42.6179 17.0914C42.8663 16.4314 42.9428 15.0939 42.777 14.3158C42.517 13.1003 41.3979 11.6805 40.2239 11.0777C39.2802 10.5929 38.1836 10.4695 35.1847 10.5097L32.5222 10.5455L33.7053 12.5953C34.3556 13.7231 34.9281 14.7114 34.9763 14.7923C35.0428 14.9017 35.5115 14.9061 36.8088 14.8082C37.7678 14.7361 38.5754 14.7003 38.6031 14.7288C38.6313 14.7569 38.4292 15.6867 38.1539 16.7941C37.8792 17.902 37.6441 18.9383 37.6317 19.0971C37.6059 19.4264 39.4379 22.698 39.5669 22.5546C39.6137 22.5028 40.2664 21.3939 41.0171 20.0903ZM29.4258 15.3496C29.6695 15.3496 30.6481 15.2838 31.6019 15.2029L33.3355 15.0557L33.2002 14.7545C33.1257 14.5889 32.9661 14.4533 32.8452 14.4533C32.5255 14.4533 30.0747 14.6978 29.6136 14.7763C29.2385 14.8392 29.2056 14.8097 28.9375 14.1676C28.7827 13.7962 28.5624 13.3483 28.4482 13.172C28.3335 12.9957 28.2322 12.7652 28.2227 12.6592C28.2131 12.5536 28.0029 12.02 27.7544 11.4743C27.3669 10.6196 27.2598 10.4816 26.9851 10.4816H26.6668L27.116 11.5382C27.3621 12.1193 27.8227 13.2006 28.1386 13.9405C28.4544 14.6804 28.7153 15.3598 28.7177 15.4503C28.721 15.5637 28.7631 15.5733 28.8529 15.4823C28.9246 15.4097 29.1826 15.3501 29.4263 15.3501L29.4258 15.3496ZM17.4929 15.2237C17.4566 15.1642 17.4819 15.0964 17.5488 15.0726C17.6162 15.0489 18.0969 14.0209 18.6168 12.7875C19.496 10.7024 19.5438 10.5426 19.3025 10.5024C19.1591 10.4791 18.9943 10.5087 18.9355 10.5687C18.8762 10.6283 18.43 11.5992 17.943 12.7255C17.1613 14.5351 17.0246 14.7719 16.7695 14.7598C16.6104 14.7526 15.7192 14.6712 14.7893 14.5792L13.0983 14.4117L12.8675 14.7206L12.6367 15.0295L15.001 15.2271C17.3711 15.4256 17.6152 15.4252 17.4929 15.2237ZM29.4961 8.33542C27.8605 5.46194 26.9789 4.05765 26.5192 3.59133C25.7207 2.78119 24.627 2.28049 23.4615 2.19139C21.3414 2.02869 19.5873 2.99039 18.504 4.90991C18.0592 5.69035 17.6116 6.46917 17.1613 7.24636L16.1798 8.94411H29.842L29.4961 8.33542Z" fill="white"/>
<path d="M21.936 47.8056C21.8882 47.7572 21.6383 47.701 21.3803 47.6807C20.0806 47.5771 18.1468 46.0503 17.1443 44.337C16.8146 43.7719 16.5442 43.2509 16.5442 43.1782C16.5442 43.1056 16.5002 43.0267 16.4467 43.0034C16.3932 42.9797 16.1132 42.557 15.8241 42.064C15.535 41.5701 14.9363 40.806 14.4938 40.3643L13.6891 39.5619L10.6597 39.5556C6.83173 39.5479 5.83354 39.3745 4.53383 38.4903C3.59537 37.8531 2.25791 36.2861 2.25791 35.8251C2.25791 35.7306 2.13272 35.4241 1.98029 35.1433C1.56458 34.3791 1.50007 32.2446 1.8594 31.1647C2.06439 30.5502 4.69773 25.7064 5.12921 25.1515C5.18416 25.0813 5.31127 24.8619 5.41209 24.6643C5.58029 24.3336 5.56977 24.2556 5.28546 23.7031C5.06474 23.2824 4.8321 22.8682 4.58783 22.461C3.27761 20.2994 2.06391 18.0356 1.86084 17.3746C1.53113 16.301 1.54212 14.5679 1.88568 13.5351C2.55274 11.5284 4.18263 9.90278 6.17662 9.25438C6.75862 9.06553 7.49353 9.02001 10.6654 8.97449L14.4579 8.91977L16.0381 6.14895C17.2829 3.96746 17.7932 3.198 18.4402 2.52927C19.3342 1.60582 20.3926 1.00827 21.5757 0.75792C22.302 0.604416 24.0366 0.565192 24.1689 0.699327C24.2139 0.744845 24.4165 0.795206 24.6181 0.811186C25.1318 0.852346 26.3359 1.43198 27.0445 1.97966C27.6614 2.45663 28.4255 3.3854 28.7948 4.10789C28.9114 4.33693 29.1489 4.75483 29.3219 5.03666C29.4949 5.31848 29.7018 5.66423 29.7816 5.80514C29.8609 5.94606 30.2718 6.65063 30.6942 7.37069C31.1166 8.09075 31.4626 8.73624 31.4626 8.80501C31.4626 8.88248 32.8755 8.95028 35.1605 8.98321C37.1942 9.01226 39.1519 9.09797 39.5107 9.17303C41.5425 9.59819 43.5799 11.5502 44.1538 13.6208C44.6694 15.4817 44.3751 17.5276 43.3984 18.8738C43.2445 19.0849 42.9215 19.6326 42.6797 20.0907C42.4379 20.5488 41.9472 21.4427 41.5893 22.0765C41.2314 22.7109 40.82 23.4644 40.6747 23.7506L40.411 24.2716L41.5783 26.3132C42.2205 27.4361 42.964 28.7295 43.2302 29.1876C43.9421 30.4132 44.2007 31.0732 44.3579 32.0722C44.6971 34.2193 43.8356 36.4594 42.0915 37.9678C40.5381 39.3116 39.892 39.4699 35.8539 39.4975L32.597 39.5198L31.4201 40.6636C30.7731 41.2931 30.1729 41.9517 30.0859 42.1279C29.999 42.3042 29.5771 43.0514 29.1484 43.7889C27.8468 46.027 26.3206 47.3311 24.5053 47.7548C23.8674 47.9039 22.0684 47.9393 21.936 47.8056ZM17.9848 27.5218C18.5343 26.7117 19.0208 26.0052 19.0662 25.9524C19.1116 25.8991 19.4179 26.0289 19.7471 26.2405L20.3458 26.625H25.8887L26.5227 26.2458L27.1568 25.8672L28.2353 27.4952L29.3133 29.1232L29.3171 34.7607L29.3209 40.3982L29.6325 39.8854C29.8638 39.5048 29.944 39.192 29.945 38.6685L29.9464 37.964L30.6904 37.3538C31.1749 36.9577 31.616 36.4352 31.9543 35.8585C32.24 35.3709 32.4737 34.9331 32.4737 34.8852C32.4737 34.7869 31.8367 35.3307 30.8725 36.2507C30.5131 36.5945 30.1576 36.8749 30.0821 36.8749C29.9866 36.8749 29.9455 35.6178 29.9455 32.7153V28.5557L29.0462 27.2628C28.5516 26.5519 28.1674 25.95 28.1928 25.9248C28.2181 25.9001 28.7676 26.0003 29.4146 26.1475L30.591 26.4148L32.0699 24.9365L33.5483 23.4576L34.9914 22.9274C35.7855 22.6354 36.4545 22.4165 36.4784 22.4407C36.5023 22.4649 36.4593 23.6382 36.3828 25.0478C36.3064 26.457 36.2634 27.7494 36.2873 27.9184C36.3207 28.1581 36.5821 27.7877 37.4675 26.2478C38.0935 25.1597 38.6028 24.245 38.599 24.2149C38.5809 24.0561 37.0742 21.5032 36.9983 21.5018C36.9486 21.5008 34.3606 22.4513 31.248 23.614C25.7338 25.674 25.5628 25.7282 24.6062 25.7282H23.6237V10.4819H22.6126V25.7282H21.7736C21.0473 25.7282 20.612 25.6071 18.5181 24.8236C17.2707 24.3567 16.0228 23.8914 14.7743 23.4276C10.5693 21.8693 9.46411 21.4233 9.46411 21.2848C9.46411 21.2001 9.41729 21.1018 9.36042 21.0659C9.22711 20.9827 7.408 24.1312 7.46343 24.3491C7.52268 24.5854 10.0222 28.9208 10.0705 28.8719C10.0929 28.8491 10.0237 27.4008 9.91758 25.6531C9.81102 23.9055 9.74317 22.4557 9.76754 22.4315C9.79143 22.4073 10.2024 22.538 10.6807 22.722C11.1585 22.906 11.806 23.1433 12.119 23.2499C12.5552 23.3985 13.0321 23.7898 14.1641 24.9268L15.6406 26.41L16.6928 26.18C17.2714 26.0541 17.8162 25.9233 17.9031 25.8894C18.2075 25.7727 18.0536 26.0778 17.1763 27.3296L16.2914 28.5925V32.7337C16.2914 35.2401 16.2441 36.8749 16.1719 36.8749C16.1065 36.8749 15.3955 36.2662 14.5917 35.5224C13.788 34.7791 13.1305 34.1975 13.1305 34.2305C13.1305 34.2634 13.3499 34.6842 13.6179 35.166C13.9758 35.8101 14.393 36.2967 15.1909 37.0027L16.2771 37.964L16.2837 38.8608C16.2885 39.5348 16.3612 39.8927 16.5752 40.3028L16.86 40.8476L16.9231 34.9215L16.9866 28.9954L17.9848 27.5218ZM12.6255 37.2666C12.6255 36.5248 12.5844 36.4338 11.0304 33.7109C10.1531 32.1744 9.36568 30.8306 9.27967 30.7251C9.19366 30.6195 9.08519 30.4234 9.03789 30.2892C8.99106 30.1556 8.59255 29.435 8.15294 28.6879C7.71333 27.9412 7.17052 26.9979 6.94593 26.593C6.72135 26.1882 6.51923 25.8565 6.49629 25.8565C6.45185 25.8565 5.18703 28.0559 4.06508 30.0839C3.22792 31.5981 3.10177 32.0596 3.16914 33.3651C3.21024 34.1699 3.30294 34.5704 3.57864 35.1423C4.26003 36.5529 5.67729 37.6424 7.16096 37.8957C7.48923 37.9518 8.85296 38.0046 10.1914 38.0129L12.6255 38.0279V37.2666ZM38.8007 37.8986C39.7783 37.7107 40.6934 37.2449 41.3418 36.6042C42.3868 35.5718 42.8723 34.4077 42.8646 32.953C42.8575 31.6049 42.8498 31.5875 40.1888 26.9204L39.5169 25.7422L38.2598 27.9339C37.5679 29.1397 36.9701 30.2171 36.9314 30.329C36.8927 30.4413 36.788 30.6195 36.7001 30.7251C36.5568 30.896 35.9174 31.9913 34.158 35.0784C33.642 35.9829 33.6119 36.0904 33.6119 37.0318V38.0279H35.8706C37.113 38.0279 38.4313 37.9698 38.8007 37.8986ZM7.77927 20.5037L8.83337 18.6743L8.39042 16.8908C8.14673 15.9098 7.94699 15.0134 7.94699 14.8987C7.94699 14.7127 8.10372 14.6996 9.3695 14.7781C10.1517 14.8265 10.8364 14.8749 10.8914 14.8846C10.9765 14.8992 12.7645 11.9327 13.3393 10.8228L13.5281 10.4587L10.3266 10.5163C6.78443 10.5793 6.29656 10.6664 5.25823 11.4155C3.04108 13.016 2.50065 15.918 3.96665 18.3498C4.5195 19.2665 4.87835 19.9101 5.43837 20.9875C5.71312 21.5163 6.0629 22.1288 6.21533 22.3492C6.45281 22.6915 6.50967 22.7196 6.60858 22.5414C6.67261 22.4267 7.19918 21.51 7.77927 20.5037ZM41.0173 20.0907C41.7675 18.7871 42.4881 17.4375 42.6181 17.0918C42.8665 16.4318 42.943 15.0943 42.7772 14.3161C42.5172 13.1007 41.3982 11.6809 40.2241 11.078C39.2804 10.5933 38.1838 10.4698 35.1849 10.51L32.5224 10.5458L33.7055 12.5956C34.3559 13.7234 34.9283 14.7118 34.9766 14.7926C35.043 14.9021 35.5117 14.9064 36.8091 14.8086C37.7681 14.7365 38.5756 14.7006 38.6033 14.7292C38.6315 14.7573 38.4294 15.687 38.1542 16.7945C37.8794 17.9024 37.6443 18.9387 37.6319 19.0975C37.6061 19.4268 39.4381 22.6983 39.5671 22.555C39.6139 22.5032 40.2667 21.3943 41.0173 20.0907ZM29.4261 15.35C29.6698 15.35 30.6484 15.2841 31.6021 15.2033L33.3357 15.0561L33.2005 14.7549C33.1259 14.5892 32.9663 14.4537 32.8454 14.4537C32.5258 14.4537 30.075 14.6982 29.6138 14.7766C29.2388 14.8396 29.2058 14.8101 28.9377 14.168C28.7829 13.7965 28.5626 13.3486 28.4484 13.1724C28.3337 12.9961 28.2324 12.7656 28.2229 12.6596C28.2133 12.554 28.0031 12.0204 27.7546 11.4746C27.3671 10.6199 27.26 10.4819 26.9853 10.4819H26.6671L27.1162 11.5385C27.3623 12.1196 27.8229 13.2009 28.1388 13.9408C28.4546 14.6808 28.7155 15.3602 28.7179 15.4507C28.7213 15.564 28.7633 15.5737 28.8531 15.4827C28.9248 15.41 29.1828 15.3505 29.4265 15.3505L29.4261 15.35ZM17.4931 15.2241C17.4568 15.1645 17.4822 15.0967 17.549 15.073C17.6164 15.0493 18.0971 14.0212 18.617 12.7879C19.4962 10.7027 19.544 10.5429 19.3027 10.5027C19.1593 10.4795 18.9945 10.509 18.9357 10.5691C18.8765 10.6287 18.4302 11.5996 17.9433 12.7259C17.1615 14.5355 17.0249 14.7723 16.7697 14.7602C16.6106 14.7529 15.7194 14.6716 14.7896 14.5796L13.0985 14.412L12.8677 14.721L12.6369 15.0299L15.0012 15.2275C17.3713 15.426 17.6155 15.4255 17.4931 15.2241ZM29.4963 8.33578C27.8607 5.4623 26.9791 4.05801 26.5194 3.59169C25.7209 2.78155 24.6272 2.28085 23.4618 2.19175C21.3416 2.02905 19.5875 2.99075 18.5042 4.91027C18.0594 5.69071 17.6118 6.46953 17.1615 7.24672L16.1801 8.94447H29.8423L29.4963 8.33578Z" fill="white"/>
<path d="M21.9363 47.8055C21.8885 47.7571 21.6505 47.7019 21.4068 47.6825C20.7465 47.6297 19.4821 46.9586 18.6746 46.2312C17.9545 45.5828 17.3237 44.7253 16.7867 43.6648C16.6261 43.3481 16.4622 43.0595 16.423 43.0246C16.3834 42.9893 16.0718 42.4992 15.7311 41.9351C15.3904 41.3719 14.7879 40.6068 14.3922 40.2354L13.6731 39.5604L10.6522 39.5517C6.80616 39.5405 5.82852 39.3705 4.53359 38.4907C3.59226 37.851 2.25815 36.2855 2.25815 35.8216C2.25815 35.7262 2.13582 35.4196 1.98626 35.1402C1.76885 34.7335 1.70339 34.347 1.65656 33.1912C1.61642 32.1869 1.64127 31.7496 1.73874 31.7496C1.81568 31.7496 1.87875 31.6004 1.87875 31.4184C1.87875 31.2358 2.0436 30.7312 2.24477 30.2969C2.617 29.4945 4.92111 25.4075 5.16098 25.1252C5.23314 25.04 5.29239 24.9291 5.29239 24.8787C5.29239 24.8284 5.38557 24.6831 5.49929 24.5552C5.66796 24.3664 5.67704 24.2875 5.54707 24.1291C5.45963 24.0221 5.43383 23.9345 5.49069 23.9345C5.54755 23.9345 5.49403 23.8608 5.37266 23.7708C5.25129 23.6807 5.13853 23.5224 5.12228 23.4183C5.10651 23.3146 4.89244 22.9127 4.64684 22.5248C3.83165 21.2377 2.23856 18.3972 2.19077 18.1463C2.16497 18.0108 2.04647 17.7154 1.92797 17.4897C1.77936 17.2059 1.69574 16.6655 1.65704 15.7343C1.60973 14.6041 1.64366 14.2613 1.86728 13.5892C2.55058 11.5379 4.17521 9.90411 6.17733 9.25523C6.76268 9.0654 7.45267 9.02424 10.539 8.99567C12.5554 8.97679 14.0917 8.99228 13.9526 9.02957C13.8136 9.06686 13.6483 9.14676 13.5852 9.2068C13.4404 9.34626 14.0124 9.18065 14.2718 9.00826C14.4983 8.85766 14.8108 8.37972 15.3188 7.40688C15.5214 7.01949 15.7913 6.58658 15.9184 6.44567C16.0455 6.30524 16.1478 6.14302 16.1454 6.08636C16.1359 5.85296 17.4757 3.66517 17.9707 3.10539C18.2636 2.7732 18.5785 2.39356 18.6703 2.26184C18.7615 2.13013 19.0745 1.89963 19.3655 1.75049C19.6565 1.60086 19.9265 1.42798 19.9662 1.36648C20.0053 1.3045 20.3752 1.13114 20.788 0.981514C21.5917 0.689518 24.13 0.476937 24.13 0.702108C24.13 0.76748 24.3163 0.821231 24.5438 0.821231C25.0599 0.821231 26.4188 1.46333 27.1337 2.04539C27.6746 2.48508 28.8037 3.89906 28.8061 4.14021C28.807 4.21091 29.0053 4.55036 29.2466 4.89465C29.4884 5.23846 29.6609 5.56145 29.6303 5.61132C29.5997 5.6612 29.6733 5.8118 29.7928 5.94545C30.025 6.205 31.3935 8.5124 31.4776 8.78648C31.5159 8.91142 32.3588 8.95839 35.1297 8.99083C37.1108 9.01407 39.0503 9.093 39.4393 9.16661C41.5069 9.55884 43.5463 11.491 44.1694 13.6468C44.275 14.0138 44.3495 14.3596 44.3342 14.4158C44.3194 14.4714 44.349 14.7325 44.4011 14.9954C44.5244 15.6215 44.2004 17.3503 43.8459 17.9589C43.6968 18.2156 43.6184 18.4253 43.6724 18.4253C43.7259 18.4253 43.6552 18.555 43.5147 18.7134C43.2748 18.9846 41.7033 21.7045 41.7033 21.8488C41.7033 21.8852 41.4084 22.4328 41.0486 23.0648L40.394 24.2143L40.7008 24.7673C40.8694 25.0714 41.4486 26.099 41.9876 27.05C42.5266 28.0016 42.9671 28.8427 42.9671 28.9192C42.9671 28.9967 43.0216 29.0596 43.088 29.0596C43.1544 29.0596 43.4392 29.5381 43.7211 30.1235C44.1154 30.9404 44.2678 31.4503 44.3782 32.3147C44.4881 33.1752 44.4862 33.4633 44.3724 33.535C44.2902 33.5858 44.2601 33.7262 44.3055 33.8463C44.4068 34.1136 44.1201 35.209 43.9491 35.209C43.8807 35.209 43.8564 35.2913 43.8951 35.393C43.9333 35.4937 43.7326 35.9397 43.4497 36.3838C42.5591 37.7793 41.3721 38.7313 39.9329 39.203C39.1913 39.4466 38.7966 39.4742 35.8694 39.4868L32.6273 39.5013L31.3811 40.7148C30.5879 41.4872 30.0193 42.1622 29.8167 42.5723C28.3579 45.5252 26.5598 47.2743 24.485 47.7595C23.8634 47.9048 22.0662 47.9372 21.9363 47.8055ZM17.9851 27.5217C18.5346 26.7116 19.021 26.0051 19.0664 25.9523C19.1118 25.899 19.4181 26.0288 19.7473 26.2404L20.346 26.6249H25.8889L26.523 26.2457L27.1571 25.8671L28.2355 27.4951L29.3135 29.1231L29.3173 34.7606L29.3212 40.3981L29.6327 39.8853C29.864 39.5047 29.9443 39.1919 29.9452 38.6684L29.9467 37.9638L30.6906 37.3537C31.1752 36.9576 31.6162 36.4351 31.9545 35.8584C32.2403 35.3707 32.4739 34.933 32.4739 34.885C32.4739 34.7867 31.837 35.3305 30.8727 36.2506C30.5134 36.5944 30.1579 36.8748 30.0824 36.8748C29.9868 36.8748 29.9457 35.6177 29.9457 32.7152V28.5555L29.0464 27.2626C28.5519 26.5518 28.1677 25.9499 28.193 25.9247C28.2183 25.9 28.7678 26.0002 29.4148 26.1474L30.5913 26.4147L32.0701 24.9363L33.5486 23.4575L34.9916 22.9272C35.7858 22.6352 36.4547 22.4164 36.4786 22.4406C36.5025 22.4648 36.4595 23.6381 36.3831 25.0477C36.3066 26.4569 36.2636 27.7493 36.2875 27.9183C36.3209 28.158 36.5823 27.7875 37.4677 26.2477C38.0937 25.1596 38.6031 24.2448 38.5993 24.2148C38.5811 24.056 37.0745 21.5031 36.9985 21.5016C36.9488 21.5007 34.3609 22.4512 31.2483 23.6139C25.7341 25.6738 25.563 25.7281 24.6064 25.7281H23.624V10.4818H22.6129V25.7281H21.7738C21.0475 25.7281 20.6122 25.607 18.5183 24.8235C17.271 24.3566 16.023 23.8912 14.7745 23.4275C10.5696 21.8692 9.46435 21.4232 9.46435 21.2847C9.46435 21.2 9.41752 21.1017 9.36066 21.0658C9.22734 20.9825 7.40823 24.1311 7.46366 24.349C7.52291 24.5853 10.0225 28.9207 10.0707 28.8718C10.0932 28.849 10.0239 27.4006 9.91781 25.653C9.81125 23.9054 9.7434 22.4556 9.76777 22.4314C9.79166 22.4072 10.2026 22.5379 10.6809 22.7219C11.1587 22.9059 11.8062 23.1432 12.1192 23.2497C12.5554 23.3984 13.0323 23.7897 14.1643 24.9267L15.6408 26.4099L16.693 26.1799C17.2717 26.054 17.8164 25.9232 17.9034 25.8893C18.2077 25.7726 18.0539 26.0777 17.1766 27.3295L16.2916 28.5923V32.7336C16.2916 35.24 16.2443 36.8748 16.1722 36.8748C16.1067 36.8748 15.3957 36.2661 14.592 35.5223C13.7883 34.779 13.1308 34.1974 13.1308 34.2303C13.1308 34.2633 13.3501 34.6841 13.6181 35.1659C13.976 35.8099 14.3932 36.2966 15.1912 37.0026L16.2773 37.9638L16.284 38.8606C16.2888 39.5347 16.3614 39.8926 16.5755 40.3027L16.8602 40.8475L16.9233 34.9214L16.9869 28.9952L17.9851 27.5217ZM12.6257 37.2665C12.6257 36.5247 12.5846 36.4336 11.0307 33.7108C10.1534 32.1743 9.36591 30.8305 9.2799 30.7249C9.19389 30.6194 9.08543 30.4233 9.03812 30.2891C8.99129 30.1555 8.59278 29.4349 8.15317 28.6877C7.71357 27.941 7.17075 26.9977 6.94617 26.5929C6.72159 26.1881 6.51946 25.8564 6.49653 25.8564C6.45209 25.8564 5.18727 28.0558 4.06531 30.0838C3.22815 31.598 3.102 32.0595 3.16938 33.365C3.21047 34.1698 3.30317 34.5703 3.57888 35.1422C4.26027 36.5528 5.67752 37.6423 7.16119 37.8955C7.48946 37.9517 8.8532 38.0045 10.1916 38.0127L12.6257 38.0277V37.2665ZM38.8009 37.8985C39.7785 37.7106 40.6936 37.2447 41.342 36.6041C42.387 35.5717 42.8725 34.4076 42.8649 32.9529C42.8577 31.6048 42.8501 31.5874 40.189 26.9203L39.5172 25.7421L38.26 27.9338C37.5681 29.1395 36.9703 30.217 36.9316 30.3288C36.8929 30.4412 36.7883 30.6194 36.7003 30.7249C36.557 30.8959 35.9177 31.9912 34.1583 35.0782C33.6422 35.9828 33.6121 36.0903 33.6121 37.0317V38.0277H35.8708C37.1132 38.0277 38.4315 37.9696 38.8009 37.8985ZM7.77951 20.5036L8.83361 18.6742L8.39066 16.8907C8.14696 15.9096 7.94723 15.0119 7.94723 14.8952C7.94723 14.7092 8.06908 14.6923 8.92678 14.7596C9.46578 14.8017 10.1548 14.8492 10.4587 14.8651L11.0101 14.8942L11.8999 13.3606C12.328 12.625 12.7499 11.8857 13.1656 11.1428L13.5412 10.4586L10.3335 10.5162C6.78418 10.5791 6.29727 10.6658 5.25846 11.4154C3.9277 12.3761 3.1431 13.8996 3.1431 15.5218C3.1431 16.5338 3.39157 17.3929 3.94729 18.2969C4.18525 18.6843 4.7037 19.6334 5.09982 20.4058C5.49595 21.1777 5.95705 21.9747 6.12477 22.1771C6.29297 22.3791 6.43202 22.6125 6.43393 22.6953C6.43584 22.7776 6.50226 22.7301 6.5811 22.5888C6.65995 22.4483 7.1999 21.5099 7.77951 20.5036ZM41.0176 20.0906C41.7678 18.787 42.4883 17.4374 42.6183 17.0917C42.8668 16.4316 42.9432 15.0942 42.7774 14.316C42.5175 13.1006 41.3984 11.6808 40.2244 11.0779C39.2806 10.5932 38.184 10.4697 35.1851 10.5099L32.5227 10.5457L33.7058 12.5955C34.3561 13.7233 34.9285 14.7116 34.9768 14.7925C35.0432 14.9019 35.512 14.9063 36.8093 14.8085C37.7683 14.7363 38.5758 14.7005 38.6036 14.7291C38.6317 14.7572 38.4296 15.6869 38.1544 16.7943C37.8796 17.9023 37.6445 18.9386 37.6321 19.0974C37.6063 19.4267 39.4383 22.6982 39.5673 22.5549C39.6142 22.503 40.2669 21.3941 41.0176 20.0906ZM29.4263 15.3499C29.67 15.3499 30.6486 15.284 31.6023 15.2031L33.3359 15.0559L33.2007 14.7547C33.1262 14.5891 32.9666 14.4535 32.8457 14.4535C32.526 14.4535 30.0752 14.6981 29.6141 14.7765C29.239 14.8395 29.206 14.8099 28.938 14.1678C28.7831 13.7964 28.5629 13.3485 28.4486 13.1722C28.334 12.996 28.2327 12.7655 28.2231 12.6594C28.2136 12.5539 28.0033 12.0202 27.7548 11.4745C27.3673 10.6198 27.2603 10.4818 26.9855 10.4818H26.6673L27.1165 11.5384C28.4592 14.7034 28.6775 15.2365 28.6646 15.3213C28.6274 15.5692 28.6952 15.6428 28.8323 15.5038C28.916 15.4196 29.1831 15.3499 29.4263 15.3499ZM17.4934 15.224C17.4571 15.1644 17.4824 15.0966 17.5493 15.0729C17.6167 15.0491 18.0974 14.0211 18.6172 12.7877C19.4964 10.7026 19.5442 10.5428 19.3029 10.5026C19.1596 10.4794 18.9947 10.5089 18.936 10.569C18.8767 10.6285 18.4304 11.5994 17.9435 12.7258C17.1618 14.5354 17.0251 14.7722 16.7699 14.7601C16.6108 14.7528 15.7197 14.6714 14.7898 14.5794L13.0987 14.4119L12.868 14.7208L12.6372 15.0298L15.0015 15.2273C17.3715 15.4259 17.6157 15.4254 17.4934 15.224ZM13.1609 9.37144C13.0739 9.33561 13.0342 9.25377 13.0739 9.18937C13.1131 9.12496 13.0882 9.07218 13.0189 9.07218C12.9793 9.07524 12.9409 9.08738 12.9065 9.10767C12.8722 9.12797 12.8428 9.15591 12.8206 9.18937C12.7504 9.30559 12.9482 9.43633 13.1934 9.43633C13.2631 9.43633 13.2483 9.40728 13.1609 9.37144ZM14.86 8.79181C14.8199 8.69012 14.7898 8.72014 14.7836 8.86929C14.7783 9.00487 14.808 9.07993 14.8505 9.0378C14.8921 8.99519 14.8968 8.8843 14.86 8.79181ZM29.4961 8.33565C27.8609 5.46218 26.9793 4.05789 26.5196 3.59156C25.7212 2.78143 24.6274 2.28073 23.462 2.19163C21.3418 2.02892 19.5877 2.99062 18.5045 4.91015C18.0597 5.69059 17.6121 6.46941 17.1618 7.2466L16.1803 8.94434H29.8425L29.4961 8.33565Z" fill="white"/>
<path d="M21.9802 47.7742C21.8756 47.701 21.5994 47.64 21.3662 47.6386C20.6447 47.6357 19.4152 46.9384 18.4748 45.9999C17.6735 45.1999 16.6701 43.7167 16.6701 43.3317C16.6701 43.2402 16.5951 43.1192 16.5033 43.063C16.3418 42.9637 15.5763 41.6819 15.5238 41.4229C15.5094 41.3527 15.1644 40.9808 14.7568 40.5972C14.3488 40.2132 14.0152 39.8297 14.0152 39.7455C14.0152 39.5755 11.929 39.484 8.98986 39.5247C7.9004 39.5392 7.31458 39.5009 7.31458 39.4147C7.31458 39.3363 7.18365 39.3145 6.99873 39.3615C6.80664 39.4104 6.68241 39.3876 6.68241 39.3029C6.68241 39.223 6.57728 39.1978 6.43393 39.2433C6.07126 39.36 4.43229 38.5199 3.7552 37.8695C2.99736 37.1417 2.34703 36.1723 2.14299 35.4653C2.05173 35.1481 1.9122 34.8479 1.83384 34.798C1.63649 34.6731 1.54523 31.7497 1.73827 31.7497C1.8152 31.7497 1.87828 31.6456 1.87828 31.5178C1.87828 31.1139 2.49755 29.6607 2.962 28.9755C3.39683 28.3334 3.55308 28.0555 4.57994 26.0885C4.84896 25.5732 5.10604 25.1229 5.15191 25.0875C5.29478 24.9771 5.67131 24.3336 5.67131 24.2004C5.67131 24.1302 5.55568 23.9636 5.41472 23.8305C5.27376 23.6973 5.13184 23.4503 5.09935 23.2813C5.06781 23.1123 4.98419 22.955 4.91395 22.9312C4.8776 22.917 4.84614 22.8923 4.8234 22.8602C4.80066 22.8282 4.78762 22.7901 4.78589 22.7506C4.78589 22.6751 4.64111 22.4204 4.46383 22.185C4.28608 21.9492 4.18669 21.7555 4.24211 21.754C4.29802 21.7536 4.28177 21.7105 4.2058 21.6582C3.97023 21.4974 2.23426 18.4152 2.19986 18.0971C2.1817 17.931 2.06129 17.6341 1.93227 17.4375C1.54714 16.8511 1.51656 14.6977 1.87636 13.5631C2.03023 13.0779 2.2572 12.5705 2.38096 12.4363C2.50471 12.3017 2.64281 12.0741 2.68772 11.9308C2.83442 11.4625 4.26218 10.1449 5.07307 9.72942C6.2428 9.12993 7.45745 8.94447 10.2055 8.94447C12.4436 8.94447 12.5803 8.95851 12.7939 9.2108C12.9372 9.38077 13.0973 9.44759 13.233 9.39481C13.4141 9.33084 13.5993 9.27939 13.7873 9.24082C13.9746 9.20257 14.2159 9.07715 14.3239 8.9619C14.7033 8.55514 15.1745 7.91933 15.0956 7.91933C14.9857 7.91933 15.6427 6.76781 15.9548 6.41384C16.0943 6.25549 16.1712 6.12571 16.1258 6.12571C16.0451 6.12571 17.2669 3.94761 17.4193 3.81928C17.4614 3.78393 17.749 3.43819 18.0596 3.05079C18.7993 2.1259 19.171 1.7695 19.3947 1.7695C19.4955 1.7695 19.6986 1.64747 19.8458 1.49832C20.304 1.03345 21.4226 0.714824 22.8336 0.646062C23.5934 0.608776 24.1295 0.63202 24.1295 0.702234C24.1295 0.767607 24.323 0.821357 24.5596 0.821357C25.2285 0.821357 26.7863 1.67071 27.5651 2.46002C27.9393 2.83967 28.4061 3.4716 28.602 3.86432C28.798 4.25703 29.0952 4.73837 29.2619 4.93545C29.4287 5.13254 29.5725 5.33592 29.5816 5.3887C29.5902 5.44197 29.6045 5.54075 29.6131 5.60903C29.6217 5.67682 29.7144 5.83565 29.8186 5.96107C30.0432 6.23224 31.405 8.55175 31.4772 8.78709C31.5154 8.91299 32.3416 8.96045 35.0662 8.99435C39.0016 9.04374 39.8368 9.13768 40.8279 9.64226C41.656 10.0635 42.8195 11.0499 42.9738 11.4615C43.0359 11.6272 43.1348 11.7627 43.1936 11.7627C43.4531 11.7627 44.4398 14.0871 44.2869 14.3379C44.2496 14.3985 44.284 14.6658 44.3624 14.9321C44.4756 15.3146 44.4632 15.6415 44.3032 16.4962C44.1923 17.0903 44.0231 17.6666 43.9281 17.7765C43.833 17.8869 43.7135 18.1208 43.6624 18.2971C43.6113 18.4733 43.497 18.7038 43.4091 18.8094C43.2094 19.0491 41.7028 21.7439 41.7023 21.862C41.7023 21.9095 41.418 22.4276 41.0701 23.0136C40.7227 23.599 40.4384 24.1321 40.4384 24.199C40.4384 24.3379 40.7481 24.9253 41.2101 25.6643C41.3865 25.9461 41.8643 26.81 42.2719 27.5843C42.6795 28.3586 43.109 29.0961 43.2261 29.2239C43.3437 29.3518 43.5386 29.6985 43.6595 29.9943C43.7804 30.2907 43.9596 30.6878 44.0575 30.8771C44.3108 31.3652 44.4995 33.0189 44.3371 33.3259C44.2664 33.4605 44.2415 33.7535 44.2836 33.9772C44.3342 34.2532 44.2788 34.5438 44.1091 34.8798C43.9725 35.1525 43.887 35.4193 43.9199 35.473C44.0337 35.6599 42.7196 37.4768 42.2126 37.8327C41.9321 38.0298 41.7028 38.2313 41.7028 38.2811C41.7028 38.331 41.418 38.5281 41.0706 38.7203C40.7227 38.9121 40.4384 39.0293 40.4384 38.9809C40.4384 38.9324 40.3672 38.9523 40.2808 39.0244C39.8488 39.3828 38.9027 39.482 35.813 39.4917L32.6407 39.5014L31.3878 40.6999C30.5325 41.5183 30.0341 42.1081 29.8181 42.5579C29.3991 43.4305 28.592 44.7617 28.2556 45.136C27.0395 46.487 26.7046 46.7679 25.7073 47.2686C24.7187 47.765 24.5519 47.8076 23.4056 47.8555C22.6688 47.8865 22.093 47.8536 21.9802 47.7742ZM17.9846 27.5218C18.5341 26.7117 19.0205 26.0052 19.0659 25.9524C19.1113 25.8991 19.4176 26.0289 19.7468 26.2405L20.3456 26.625H25.8884L26.5225 26.2459L27.1566 25.8672L28.2351 27.4952L29.3131 29.1232L29.3169 34.7607L29.3207 40.3982L29.6322 39.8854C29.8635 39.5048 29.9438 39.192 29.9447 38.6685L29.9462 37.964L30.6902 37.3538C31.1747 36.9577 31.6157 36.4352 31.954 35.8585C32.2398 35.3709 32.4734 34.9331 32.4734 34.8852C32.4734 34.7869 31.8365 35.3307 30.8722 36.2507C30.5129 36.5945 30.1574 36.8749 30.0819 36.8749C29.9863 36.8749 29.9452 35.6178 29.9452 32.7153V28.5557L29.0459 27.2628C28.5514 26.5519 28.1672 25.95 28.1925 25.9248C28.2179 25.9001 28.7674 26.0003 29.4144 26.1475L30.5908 26.4149L32.0697 24.9365L33.5481 23.4576L34.9911 22.9274C35.7853 22.6354 36.4543 22.4165 36.4782 22.4407C36.502 22.4649 36.459 23.6382 36.3826 25.0478C36.3061 26.457 36.2631 27.7494 36.287 27.9184C36.3205 28.1581 36.5818 27.7877 37.4673 26.2478C38.0932 25.1597 38.6026 24.245 38.5988 24.215C38.5806 24.0561 37.074 21.5032 36.998 21.5018C36.9483 21.5008 34.3604 22.4514 31.2478 23.614C25.7336 25.674 25.5625 25.7282 24.6059 25.7282H23.6235V10.4819H22.6124V25.7282H21.7733C21.047 25.7282 20.6117 25.6071 18.5179 24.8236C17.2705 24.3567 16.0225 23.8914 14.774 23.4276C10.5691 21.8693 9.46387 21.4233 9.46387 21.2848C9.46387 21.2001 9.41705 21.1018 9.36018 21.0659C9.22687 20.9827 7.40776 24.1312 7.46319 24.3491C7.52244 24.5854 10.022 28.9208 10.0702 28.8719C10.0927 28.8491 10.0234 27.4008 9.91734 25.6531C9.81078 23.9055 9.74293 22.4557 9.7673 22.4315C9.79119 22.4073 10.2021 22.538 10.6804 22.722C11.1583 22.9061 11.8057 23.1433 12.1187 23.2499C12.555 23.3985 13.0319 23.7898 14.1638 24.9268L15.6403 26.41L16.6925 26.18C17.2712 26.0541 17.8159 25.9233 17.9029 25.8895C18.2073 25.7727 18.0534 26.0778 17.1761 27.3296L16.2912 28.5925V32.7337C16.2912 35.2401 16.2438 36.8749 16.1717 36.8749C16.1062 36.8749 15.3952 36.2662 14.5915 35.5224C13.7878 34.7791 13.1303 34.1975 13.1303 34.2305C13.1303 34.2634 13.3496 34.6842 13.6177 35.166C13.9756 35.8101 14.3927 36.2967 15.1907 37.0027L16.2768 37.964L16.2835 38.8608C16.2883 39.5348 16.3609 39.8927 16.575 40.3028L16.8598 40.8476L16.9228 34.9215L16.9864 28.9954L17.9846 27.5218ZM12.6252 37.2666C12.6252 36.5248 12.5841 36.4338 11.0302 33.7109C10.1529 32.1744 9.36544 30.8306 9.27943 30.7251C9.19342 30.6195 9.08495 30.4234 9.03765 30.2892C8.99082 30.1556 8.59231 29.435 8.1527 28.6879C7.71309 27.9412 7.17028 26.9979 6.94569 26.5931C6.72111 26.1882 6.51899 25.8565 6.49605 25.8565C6.45161 25.8565 5.18679 28.0559 4.06484 30.0839C3.22768 31.5981 3.10153 32.0596 3.1689 33.3651C3.21 34.1699 3.3027 34.5704 3.5784 35.1423C4.25979 36.5529 5.67705 37.6424 7.16072 37.8957C7.48899 37.9518 8.85272 38.0046 10.1911 38.0129L12.6252 38.0279V37.2666ZM38.8004 37.8986C39.7781 37.7107 40.6931 37.2449 41.3415 36.6042C42.3866 35.5718 42.872 34.4077 42.8644 32.953C42.8572 31.6049 42.8496 31.5875 40.1885 26.9204L39.5167 25.7422L38.2595 27.9339C37.5676 29.1397 36.9698 30.2171 36.9311 30.329C36.8924 30.4413 36.7878 30.6195 36.6999 30.7251C36.5565 30.896 35.9172 31.9913 34.1578 35.0784C33.6417 35.9829 33.6116 36.0904 33.6116 37.0318V38.0279H35.8704C37.1127 38.0279 38.4311 37.9698 38.8004 37.8986ZM7.77712 20.5066L8.82979 18.6806L8.36151 16.7649C8.10348 15.7112 7.92573 14.8164 7.96539 14.7762C8.00505 14.736 8.70507 14.749 9.52026 14.8057L11.003 14.9088L11.5147 14.0082C11.7967 13.5133 12.2324 12.7733 12.4838 12.3632C12.7535 11.9215 13.0121 11.473 13.2593 11.018L13.578 10.4175L10.4148 10.4873C7.90996 10.542 7.10338 10.603 6.54097 10.7797C4.55175 11.4044 3.14262 13.3709 3.14262 15.5219C3.14262 16.5369 3.39205 17.3959 3.94968 18.2971C4.18908 18.6845 4.62343 19.4917 4.9149 20.0907C5.20638 20.6897 5.67896 21.5386 5.96566 21.9773C6.40383 22.6484 6.50561 22.74 6.60548 22.5535C6.67094 22.4325 7.19799 21.511 7.77712 20.5066ZM41.0166 20.0907C41.7673 18.7871 42.4883 17.4375 42.6183 17.0918C42.8668 16.4318 42.9432 15.0943 42.777 14.3161C42.517 13.1007 41.3979 11.6809 40.2239 11.078C39.2802 10.5933 38.1835 10.4698 35.1847 10.51L32.5222 10.5458L33.7053 12.5956C34.3556 13.7234 34.9281 14.7118 34.9763 14.7926C35.0427 14.9021 35.5115 14.9064 36.8088 14.8086C37.7678 14.7365 38.5754 14.7006 38.6031 14.7292C38.6313 14.7573 38.4292 15.687 38.1539 16.7945C37.8792 17.9024 37.6441 18.9387 37.6316 19.0975C37.6058 19.4268 39.4379 22.6983 39.5669 22.555C39.6137 22.5032 40.2659 21.3943 41.0166 20.0907ZM29.4263 15.35C29.67 15.35 30.6486 15.2841 31.6024 15.2033L33.3359 15.0561L33.2007 14.7549C33.1262 14.5892 32.9666 14.4537 32.8457 14.4537C32.526 14.4537 30.0752 14.6982 29.6141 14.7766C29.239 14.8396 29.206 14.8101 28.938 14.168C28.7831 13.7965 28.5629 13.3486 28.4487 13.1724C28.334 12.9961 28.2327 12.7656 28.2231 12.6596C28.2136 12.554 28.0033 12.0204 27.7548 11.4746C27.3673 10.6199 27.2603 10.4819 26.9855 10.4819H26.6673L27.1165 11.5385C28.4592 14.7035 28.6775 15.2367 28.6646 15.3214C28.6274 15.5693 28.6952 15.6429 28.8324 15.504C28.916 15.4197 29.1831 15.35 29.4263 15.35ZM17.4934 15.2241C17.4571 15.1645 17.4824 15.0967 17.5493 15.073C17.6167 15.0493 18.0974 14.0212 18.6172 12.7879C19.4965 10.7027 19.5442 10.5429 19.3029 10.5028C19.1596 10.4795 18.9947 10.509 18.936 10.5691C18.8767 10.6287 18.4304 11.5996 17.9435 12.7259C17.1618 14.5355 17.0251 14.7723 16.7699 14.7602C16.6108 14.7529 15.7197 14.6716 14.7898 14.5796L13.0987 14.412L12.868 14.721L12.6372 15.0299L15.0015 15.2275C17.3715 15.426 17.6157 15.4255 17.4934 15.2241ZM15.0268 8.88055C15.1549 8.72366 15.1487 8.68782 14.9924 8.68782C14.8873 8.68782 14.7678 8.7745 14.7282 8.88006C14.688 8.98611 14.7033 9.07231 14.7621 9.07231C14.8213 9.07231 14.9403 8.9866 15.0268 8.88055ZM29.4961 8.33578C27.8609 5.46231 26.9793 4.05801 26.5196 3.59169C25.7212 2.78156 24.6274 2.28085 23.462 2.19175C21.3418 2.02905 19.5877 2.99075 18.5045 4.91027C18.0597 5.69071 17.6121 6.46954 17.1618 7.24673L16.1803 8.94447H29.8425L29.4961 8.33578ZM13.1637 8.9803C13.3558 8.95125 13.6401 8.95173 13.7959 8.98224C13.9512 9.01275 13.794 9.03647 13.4461 9.03551C13.0987 9.03454 12.9716 9.00984 13.1637 8.9803Z" fill="white"/>
<path d="M22.0434 47.7739C21.9043 47.7086 21.6047 47.6509 21.3778 47.6456C21.1508 47.6408 20.8665 47.586 20.7456 47.5245C20.5272 47.4169 20.3065 47.3139 20.0838 47.2156C19.0675 46.7653 17.6526 45.2898 16.9946 43.9935C16.7242 43.4608 16.4609 43.0245 16.4093 43.0245C16.3577 43.0245 16.254 42.8657 16.179 42.672C16.1035 42.4783 15.8937 42.0972 15.7131 41.8246C15.5324 41.5529 15.4603 41.3776 15.5535 41.4357C15.6462 41.4938 15.5797 41.3636 15.4058 41.1466C15.2324 40.9292 15.0537 40.7723 15.0092 40.798C14.9643 40.8232 14.8372 40.704 14.7273 40.5331C14.6164 40.3622 14.3794 40.0736 14.2002 39.892L13.8744 39.5617L10.6079 39.5317C8.81125 39.5147 7.40642 39.4591 7.48622 39.4068C7.61475 39.3235 6.93193 39.2436 6.42973 39.2838C6.32556 39.292 6.06848 39.2184 5.85872 39.1201C5.61491 39.007 5.36792 38.9011 5.11808 38.8024C4.58099 38.5957 3.66307 37.8921 3.57898 37.6233C3.53836 37.4935 3.4232 37.387 3.32381 37.387C3.22442 37.387 3.14224 37.3008 3.14224 37.1948C3.14224 37.0887 3.09445 37.0025 3.03568 37.0025C2.90905 37.0025 2.00499 35.2588 2.00499 35.0142C2.00271 34.9657 1.98654 34.9189 1.95846 34.8795C1.93037 34.8401 1.89159 34.8099 1.84683 34.7924C1.64757 34.7251 1.55392 31.8778 1.75126 31.8778C1.82103 31.8778 1.87837 31.7752 1.87837 31.6493C1.87837 31.2226 2.54447 29.4711 2.7657 29.3152C2.94394 29.1903 3.90103 27.5138 3.90103 27.3274C3.90103 27.2228 3.94404 27.1371 3.9966 27.1371C4.04869 27.1371 4.23074 26.8635 4.40133 26.5289C4.57143 26.1938 4.87008 25.6791 5.06456 25.3846C5.25904 25.0902 5.41815 24.7876 5.41815 24.7116C5.41815 24.6365 5.47549 24.575 5.54478 24.575C5.76745 24.575 5.68001 24.0714 5.40955 23.7968C5.26525 23.6516 5.12811 23.4351 5.1047 23.3165C5.03541 22.9707 4.39655 21.8846 4.26228 21.8846C4.19442 21.8846 4.17436 21.8265 4.21736 21.7562C4.26037 21.6855 4.23504 21.6279 4.16145 21.6279C4.08787 21.6279 4.02766 21.5732 4.02766 21.5069C4.02766 21.4405 3.85707 21.1282 3.64826 20.8154C3.43993 20.5021 3.26886 20.2096 3.26886 20.165C3.26886 20.1205 3.04141 19.7195 2.76331 19.2731C2.48522 18.8266 2.25777 18.3695 2.25777 18.2571C2.25777 17.9956 1.98445 17.3627 1.82103 17.247C1.75222 17.1976 1.6729 16.5473 1.64614 15.8011C1.60457 14.6602 1.64136 14.3048 1.87646 13.5629C2.03032 13.0777 2.26446 12.563 2.39682 12.4191C2.5287 12.2753 2.63717 12.0923 2.63717 12.0119C2.63717 11.9315 3.00988 11.4744 3.46621 10.995C5.0421 9.34132 6.46891 8.9118 10.2051 8.96797C12.2058 8.99799 12.5613 9.03383 12.782 9.22752C13.053 9.46577 13.4066 9.43962 14.0406 9.13455C14.2929 9.01301 14.3976 9.00865 14.4416 9.11712C14.4745 9.19798 14.5056 9.14327 14.5108 8.9946C14.5166 8.84643 14.6633 8.56993 14.8372 8.37962C15.0111 8.18931 15.153 7.95349 15.153 7.85567C15.153 7.66876 15.5898 6.83877 15.8607 6.50949C15.9482 6.40392 16.2272 5.90758 16.4819 5.40688C17.116 4.1556 18.495 2.43607 19.2638 1.93585C19.6107 1.71068 19.9935 1.43708 20.1153 1.32765C20.2372 1.21821 20.4106 1.12862 20.501 1.12862C20.5913 1.12862 20.7193 1.07729 20.7853 1.01434C21.1164 0.698134 24.1296 0.443908 24.1296 0.731547C24.1296 0.794498 24.3279 0.846795 24.5707 0.846795C25.2411 0.846795 26.7467 1.65693 27.5251 2.43607C27.8978 2.80893 28.3613 3.43166 28.5553 3.81906C28.7498 4.20645 29.0566 4.69698 29.2372 4.90859C29.4178 5.11972 29.5654 5.38266 29.5654 5.49259C29.5654 5.60251 29.6658 5.80444 29.7886 5.94099C30.0251 6.20539 31.3922 8.50988 31.4782 8.78977C31.5183 8.92052 32.2748 8.95587 35.0323 8.95683C37.0975 8.95732 38.5659 9.00768 38.6094 9.07886C38.65 9.14569 38.9568 9.19992 39.2913 9.19992C39.7318 9.19992 40.1394 9.32243 40.7735 9.64397C41.6049 10.0653 42.9037 11.1199 42.9037 11.3737C42.9037 11.4386 43.0312 11.6119 43.187 11.7591C43.6586 12.2046 44.2258 13.5377 44.2297 14.2099C44.2306 14.3934 44.2961 14.7314 44.3749 14.9614C44.4906 15.2975 44.4734 15.5836 44.287 16.4219C44.0208 17.6189 43.7972 18.108 42.5095 20.3132C41.9963 21.1916 41.5758 21.9766 41.5753 22.0574C41.5753 22.1383 41.3192 22.6066 41.0067 23.0976C40.6942 23.5886 40.4381 24.0646 40.4381 24.1552C40.4381 24.3348 40.7109 24.867 41.2107 25.6641C41.3875 25.9459 41.8864 26.8524 42.3193 27.6785C42.7527 28.5046 43.1617 29.215 43.2286 29.2571C43.3753 29.3491 43.8866 30.3404 43.7867 30.3404C43.7485 30.3404 43.7877 30.4701 43.8756 30.6285C44.184 31.1848 44.3464 31.8121 44.3472 32.4502C44.3472 33.5446 44.2822 34.3813 44.1838 34.5426C44.1322 34.6273 44.136 34.6975 44.1924 34.6985C44.2483 34.6995 44.222 34.7469 44.1331 34.8041C44.0447 34.8612 43.9482 35.0985 43.9191 35.3309C43.8593 35.8113 43.1775 36.9153 42.6351 37.4112C42.4354 37.5938 42.0488 37.9487 41.7769 38.2005C41.5051 38.4523 41.2346 38.6276 41.1763 38.5913C41.118 38.555 41.0707 38.5894 41.0707 38.6683C41.0707 38.7472 41.0134 38.7758 40.9441 38.7322C40.8748 38.6886 40.8179 38.7128 40.8179 38.785C40.8179 38.8576 40.7233 38.8794 40.6077 38.8349C40.4548 38.7753 40.4251 38.7995 40.5006 38.9225C40.5723 39.0407 40.5556 39.062 40.4438 38.9918C40.3549 38.9361 40.2441 38.9569 40.1944 39.0383C39.9941 39.3666 38.4961 39.5177 35.8241 39.4779C34.3638 39.4566 33.0269 39.4692 32.8529 39.506C32.4334 39.5951 29.8187 42.1597 29.8187 42.4826C29.8187 42.6182 29.6624 42.9557 29.4708 43.2323C29.2792 43.5088 29.015 43.9354 28.8821 44.1804C28.6547 44.6002 27.3239 46.2462 27.1438 46.3304C27.0979 46.3517 26.9302 46.4834 26.7711 46.6234C26.612 46.7638 26.0519 47.0824 25.5268 47.3323C24.7068 47.7226 24.4111 47.7943 23.4339 47.8398C22.8079 47.8688 22.1824 47.8398 22.0434 47.7739ZM17.9847 27.5216C18.5342 26.7115 19.0206 26.005 19.066 25.9522C19.1114 25.8989 19.4177 26.0287 19.7469 26.2403L20.3457 26.6248H25.8885L26.5226 26.2456L27.1567 25.867L28.2352 27.495L29.3131 29.123L29.317 34.7605L29.3208 40.398L29.6323 39.8852C29.8636 39.5046 29.9439 39.1918 29.9448 38.6683L29.9463 37.9637L30.6903 37.3536C31.1748 36.9575 31.6158 36.435 31.9541 35.8583C32.2399 35.3706 32.4735 34.9329 32.4735 34.8849C32.4735 34.7866 31.8366 35.3304 30.8723 36.2505C30.513 36.5943 30.1575 36.8747 30.082 36.8747C29.9864 36.8747 29.9453 35.6176 29.9453 32.7151V28.5554L29.046 27.2625C28.5515 26.5517 28.1673 25.9498 28.1926 25.9246C28.218 25.8999 28.7675 26.0001 29.4144 26.1473L30.5909 26.4146L32.0698 24.9362L33.5482 23.4574L34.9912 22.9271C35.7854 22.6351 36.4544 22.4163 36.4782 22.4405C36.5021 22.4647 36.4591 23.638 36.3827 25.0476C36.3062 26.4568 36.2632 27.7492 36.2871 27.9182C36.3206 28.1579 36.5819 27.7874 37.4674 26.2476C38.0933 25.1595 38.6027 24.2447 38.5989 24.2147C38.5807 24.0559 37.0741 21.503 36.9981 21.5015C36.9484 21.5006 34.3605 22.4511 31.2479 23.6138C25.7337 25.6737 25.5626 25.728 24.606 25.728H23.6236V10.4817H22.6125V25.728H21.7734C21.0471 25.728 20.6118 25.6069 18.5179 24.8234C17.2706 24.3565 16.0226 23.8911 14.7741 23.4274C10.5692 21.8691 9.46397 21.4231 9.46397 21.2846C9.46397 21.1999 9.41714 21.1016 9.36028 21.0657C9.22696 20.9824 7.40785 24.131 7.46328 24.3489C7.52253 24.5852 10.0221 28.9206 10.0703 28.8717C10.0928 28.8489 10.0235 27.4005 9.91743 25.6529C9.81087 23.9053 9.74302 22.4555 9.76739 22.4313C9.79128 22.4071 10.2022 22.5378 10.6805 22.7218C11.1584 22.9058 11.8058 23.1431 12.1188 23.2496C12.5551 23.3983 13.0319 23.7896 14.1639 24.9266L15.6404 26.4098L16.6926 26.1798C17.2713 26.0539 17.816 25.9231 17.903 25.8892C18.2074 25.7725 18.0535 26.0776 17.1762 27.3294L16.2912 28.5922V32.7335C16.2912 35.2399 16.2439 36.8747 16.1718 36.8747C16.1063 36.8747 15.3953 36.266 14.5916 35.5222C13.7879 34.7789 13.1304 34.1973 13.1304 34.2302C13.1304 34.2632 13.3497 34.684 13.6178 35.1658C13.9757 35.8098 14.3928 36.2965 15.1908 37.0025L16.2769 37.9637L16.2836 38.8605C16.2884 39.5346 16.361 39.8925 16.5751 40.3026L16.8599 40.8474L16.9229 34.9213L16.9865 28.9951L17.9847 27.5216ZM12.6253 37.2664C12.6253 36.5246 12.5842 36.4335 11.0303 33.7107C10.153 32.1742 9.36553 30.8304 9.27952 30.7248C9.19351 30.6193 9.08504 30.4232 9.03774 30.289C8.99091 30.1554 8.5924 29.4348 8.15279 28.6876C7.71319 27.9409 7.17037 26.9977 6.94579 26.5928C6.7212 26.188 6.51908 25.8563 6.49615 25.8563C6.45171 25.8563 5.18688 28.0557 4.06493 30.0837C3.22777 31.5979 3.10162 32.0594 3.16899 33.3649C3.21009 34.1697 3.30279 34.5702 3.5785 35.1421C4.25989 36.5527 5.67714 37.6422 7.16081 37.8954C7.48908 37.9516 8.85282 38.0044 10.1912 38.0126L12.6253 38.0276V37.2664ZM38.8005 37.8984C39.7782 37.7105 40.6932 37.2446 41.3416 36.604C42.3867 35.5716 42.8721 34.4075 42.8645 32.9528C42.8573 31.6047 42.8497 31.5873 40.1886 26.9202L39.5168 25.742L38.2596 27.9337C37.5677 29.1394 36.9699 30.2169 36.9312 30.3287C36.8925 30.4411 36.7879 30.6193 36.7 30.7248C36.5566 30.8958 35.9173 31.9911 34.1579 35.0781C33.6418 35.9827 33.6117 36.0902 33.6117 37.0316V38.0276H35.8704C37.1128 38.0276 38.4312 37.9695 38.8005 37.8984ZM8.19341 19.8343C8.23164 19.7989 8.39075 19.5171 8.54653 19.2082L8.83036 18.6455L8.38836 16.8664C8.14563 15.8882 7.94685 15.0035 7.94685 14.9014C7.94685 14.7561 8.09163 14.727 8.61103 14.7667C8.97562 14.7953 9.66609 14.8326 10.1449 14.85L11.016 14.8815L11.4393 14.1871C11.672 13.8046 11.9315 13.3484 12.0146 13.1721C12.0987 12.9959 12.405 12.4768 12.6965 12.0192C12.988 11.5611 13.2651 11.0565 13.3129 10.8977C13.3607 10.7393 13.4534 10.6095 13.5184 10.6095C13.5829 10.6095 13.6359 10.566 13.6359 10.5137C13.6359 10.4057 8.89582 10.4313 7.82548 10.5451C5.63509 10.7776 4.02193 12.0003 3.40887 13.8927C2.91192 15.4258 3.10019 16.9066 3.97558 18.3608C4.23026 18.784 4.76735 19.7767 5.1692 20.5679C5.57058 21.3587 6.03265 22.1688 6.19559 22.3683L6.49185 22.7305L7.30798 21.3146C7.75667 20.5355 8.15518 19.8696 8.19341 19.8343ZM41.0167 20.0909C41.7674 18.7869 42.4884 17.4373 42.6184 17.0916C42.8669 16.4315 42.9433 15.0941 42.777 14.3159C42.5171 13.1005 41.398 11.6807 40.224 11.0778C39.2803 10.5931 38.1836 10.4696 35.1848 10.5098L32.5223 10.5456L33.7054 12.5954C34.3557 13.7232 34.9282 14.7115 34.9764 14.7924C35.0428 14.9018 35.5116 14.9062 36.8089 14.8084C37.7679 14.7362 38.5755 14.7004 38.6032 14.729C38.6314 14.7571 38.4292 15.6868 38.154 16.7942C37.8793 17.9022 37.6442 18.9385 37.6317 19.0973C37.6059 19.4266 39.4379 22.6981 39.567 22.5548C39.6138 22.5029 40.266 21.3945 41.0167 20.0909ZM29.4264 15.3502C29.6701 15.3502 30.6487 15.2839 31.6024 15.203L33.336 15.0558L33.2008 14.7546C33.1263 14.589 32.9667 14.4534 32.8458 14.4534C32.5261 14.4534 30.0753 14.698 29.6142 14.7764C29.2391 14.8394 29.2061 14.8098 28.938 14.1677C28.7832 13.7963 28.5629 13.3484 28.4487 13.1721C28.3341 12.9959 28.2328 12.7654 28.2232 12.6593C28.2137 12.5538 28.0034 12.0201 27.7549 11.4744C27.3674 10.6197 27.2604 10.4817 26.9856 10.4817H26.6674L27.1165 11.5383C28.4593 14.7033 28.6776 15.2364 28.6647 15.3212C28.6275 15.5691 28.6953 15.6427 28.8324 15.5037C28.9161 15.4195 29.1832 15.3502 29.4264 15.3502ZM17.4935 15.2243C17.4572 15.1643 17.4825 15.0965 17.5494 15.0728C17.6168 15.049 18.0975 14.021 18.6173 12.7877C19.4965 10.7025 19.5443 10.5427 19.303 10.5025C19.1597 10.4793 18.9948 10.5088 18.9361 10.5689C18.8768 10.6284 18.4305 11.5993 17.9436 12.7257C17.1619 14.5353 17.0252 14.7721 16.77 14.76C16.6109 14.7527 15.7198 14.6713 14.7899 14.5793L13.0988 14.4118L12.868 14.7207L12.6373 15.0297L15.0016 15.2272C17.3716 15.4258 17.6158 15.4258 17.4935 15.2243ZM15.2558 8.82512C15.2892 8.72198 15.2037 8.6813 15.0106 8.7089C14.8472 8.73263 14.6943 8.85224 14.6714 8.97523C14.637 9.15828 14.6809 9.17958 14.916 9.09145C15.0737 9.03189 15.2271 8.91228 15.2558 8.82512ZM29.4962 8.33555C27.861 5.46208 26.9794 4.05779 26.5197 3.59146C25.7213 2.78133 24.6275 2.28063 23.4621 2.19153C21.3419 2.02882 19.5878 2.99052 18.5046 4.91005C18.0598 5.69049 17.6122 6.46931 17.1619 7.2465L16.1804 8.94424H29.8426L29.4962 8.33555ZM13.4782 8.98734C13.5647 8.95199 13.7076 8.95199 13.7941 8.98734C13.8806 9.02269 13.8099 9.05174 13.6364 9.05174C13.462 9.05174 13.3913 9.02269 13.4782 8.98734Z" fill="white"/>
</svg>
