<svg width="32" height="32" viewBox="0 0 32 32" fill="none" xmlns="http://www.w3.org/2000/svg">
<path d="M29.4875 12.5313C29.0063 10.6 28.0938 9.14377 26.15 9.14377H23.6438V12.1063C23.6438 14.4063 21.6938 16.3438 19.4688 16.3438H12.7938C10.9688 16.3438 9.4563 17.9063 9.4563 19.7375V26.1C9.4563 27.9125 11.0313 28.975 12.7938 29.4938C14.9063 30.1125 16.9375 30.225 19.4688 29.4938C21.15 29.0063 22.8063 28.025 22.8063 26.1V23.5563H16.1375V22.7063H26.15C28.0938 22.7063 28.8125 21.35 29.4875 19.3188C30.1875 17.225 30.1563 15.2125 29.4875 12.5313ZM19.8875 25.25C20.5813 25.25 21.1438 25.8188 21.1438 26.5188C21.1438 27.225 20.5813 27.7938 19.8875 27.7938C19.2 27.7938 18.6313 27.2188 18.6313 26.5188C18.6375 25.8125 19.2 25.25 19.8875 25.25ZM12.4875 15.5063H19.1625C21.0188 15.5063 22.5 13.975 22.5 12.1125V5.74377C22.5 3.93127 20.975 2.57502 19.1625 2.26877C16.925 1.90002 14.4938 1.91877 12.4875 2.27502C9.66255 2.77502 9.15005 3.81877 9.15005 5.75002V8.29377H15.8313V9.14377H6.6438C4.70005 9.14377 3.00005 10.3125 2.4688 12.5313C1.8563 15.075 1.8313 16.6625 2.4688 19.3188C2.9438 21.2938 4.07505 22.7063 6.0188 22.7063H8.31255V19.6563C8.31255 17.45 10.2188 15.5063 12.4875 15.5063ZM12.0688 6.59377C11.375 6.59377 10.8125 6.02502 10.8125 5.32502C10.8188 4.61877 11.375 4.05002 12.0688 4.05002C12.7563 4.05002 13.325 4.62502 13.325 5.32502C13.325 6.02502 12.7625 6.59377 12.0688 6.59377Z" fill="#3D3D3D"/>
</svg>
