<svg width="32" height="32" viewBox="0 0 32 32" fill="none" xmlns="http://www.w3.org/2000/svg">
<path fill-rule="evenodd" clip-rule="evenodd" d="M6.6465 3.00299C4.82063 3.00299 3.46956 4.56993 3.53006 6.26923C3.58812 7.9018 3.51269 10.0162 2.96981 11.7405C2.425 13.4697 1.50425 14.5654 0 14.7061V16.2939C1.50425 16.4349 2.425 17.5301 2.96975 19.2595C3.51269 20.9838 3.58806 23.0982 3.53 24.7308C3.4695 26.4298 4.82056 27.997 6.64675 27.997H25.3559C27.1818 27.997 28.5326 26.4301 28.4721 24.7308C28.4141 23.0982 28.4895 20.9838 29.0324 19.2595C29.5772 17.5301 30.4957 16.4345 32 16.2939V14.7061C30.4958 14.5651 29.5772 13.4699 29.0324 11.7405C28.4894 10.0165 28.4141 7.9018 28.4721 6.26923C28.5326 4.57017 27.1818 3.00299 25.3559 3.00299H6.64625H6.6465ZM21.6949 18.3884C21.6949 20.7283 19.9149 22.1474 16.9608 22.1474H11.9322C11.7883 22.1474 11.6504 22.0914 11.5487 21.9916C11.447 21.8919 11.3898 21.7566 11.3898 21.6156V9.38447C11.3898 9.24343 11.447 9.10817 11.5487 9.00844C11.6504 8.90871 11.7883 8.85268 11.9322 8.85268H16.9322C19.3954 8.85268 21.0119 10.1609 21.0119 12.1694C21.0119 13.5792 19.9244 14.8412 18.539 15.0623V15.1359C20.425 15.3387 21.6949 16.6195 21.6949 18.3884ZM16.4125 10.5384H13.5452V14.5094H15.9602C17.8271 14.5094 18.8564 13.7723 18.8564 12.4549C18.8563 11.2202 17.9713 10.5384 16.4125 10.5384ZM13.5452 16.085V20.4611H16.518C18.4618 20.4611 19.4913 19.6964 19.4913 18.2592C19.4913 16.8221 18.4329 16.0847 16.393 16.0847H13.5452V16.085Z" fill="#3D3D3D"/>
</svg>
