<svg width="48" height="48" viewBox="0 0 48 48" fill="none" xmlns="http://www.w3.org/2000/svg">
<g clip-path="url(#clip0_399_1747)">
<path d="M24.0858 47.9358C25.0438 47.9278 25.9918 47.8778 26.9378 47.7478C29.0978 47.4718 31.2238 46.8818 33.2298 46.0218C36.0478 44.8178 38.6258 43.0798 40.8158 40.9358C42.8218 38.9578 44.4998 36.6338 45.6958 34.0818C46.7138 31.8878 47.4338 29.5338 47.7358 27.1298C48.0338 24.8098 48.0058 22.4378 47.6458 20.1318C47.3478 18.2118 46.8078 16.3398 46.0598 14.5558C45.5798 13.4338 45.0098 12.3538 44.3518 11.3218C42.0158 7.64784 38.6298 4.69384 34.7318 2.71984C33.3458 2.00984 31.8858 1.42984 30.3878 0.981841H30.3778C30.6158 1.10784 30.8578 1.24584 31.0678 1.38384C31.3078 1.53184 31.5458 1.67584 31.7698 1.83384C32.9078 2.60384 33.9578 3.48784 34.8878 4.49384C37.0138 6.78384 38.4818 9.58984 39.3238 12.5758C39.8918 14.5398 40.1918 16.5718 40.3138 18.6098C40.4018 20.0958 40.4018 21.5918 40.2198 23.0678C39.9218 25.6078 39.1118 28.0878 37.7638 30.2598C36.7738 31.8658 35.4838 33.2978 33.9578 34.4278C31.4698 36.2838 28.2038 37.3918 25.0858 36.6558C24.5778 36.5338 24.0658 36.3638 23.5898 36.1398C23.0478 35.8918 22.5098 35.5858 22.0318 35.2418C21.1018 34.6198 20.2618 33.8718 19.5438 33.0298C18.6738 31.9898 17.9558 30.8078 17.4458 29.5358C16.8178 27.9238 16.4878 26.1918 16.4578 24.4558C16.3978 21.9098 16.9078 19.3498 18.1658 17.1158C19.0058 15.6278 20.1438 14.3238 21.4918 13.2798C21.9418 12.9238 22.4198 12.6138 22.8998 12.3218L22.9318 12.3078C21.9998 12.0978 21.0118 12.0058 20.0498 12.0678C19.2138 12.1258 18.4038 12.2778 17.5938 12.5458C16.8758 12.7858 16.1858 13.0878 15.5558 13.4458C15.0458 13.7438 14.5398 14.0758 14.0898 14.4358C13.6678 14.7958 13.2498 15.1538 12.8598 15.5458C10.6138 17.8518 9.32377 20.9098 8.81577 24.0578C8.51577 26.0038 8.51577 27.9798 8.63377 29.9598C8.84377 32.7478 9.41577 35.5318 10.5238 38.0818C11.2118 39.6698 12.1098 41.1358 13.2198 42.4278C14.9278 44.4018 17.0878 45.9338 19.4838 46.8898C20.8338 47.4318 22.2718 47.8198 23.7098 47.9698C23.8578 47.9998 24.0078 47.9998 24.1278 47.9998L24.0858 47.9358ZM18.2178 47.1398C17.8898 46.9998 17.5898 46.8418 17.3178 46.6838C17.0198 46.5178 16.7178 46.3478 16.4198 46.1658C15.2498 45.4418 14.2038 44.5918 13.2418 43.6158C11.0538 41.3398 9.58777 38.4818 8.74777 35.4538C8.17977 33.3858 7.87777 31.2498 7.75777 29.1098C7.66977 27.7038 7.69977 26.3238 7.84977 24.9458C8.11977 22.4318 8.83977 19.9438 10.0978 17.7858C10.9958 16.1978 12.2238 14.7898 13.6638 13.6798C14.6518 12.9318 15.7618 12.2998 16.9298 11.8798C18.5778 11.2818 20.3458 11.1018 22.0558 11.3398C22.7158 11.4298 23.3718 11.5818 23.9738 11.7898C24.0318 11.7898 24.0318 11.7898 24.0638 11.8498C24.0938 11.8798 24.1538 11.8798 24.1838 11.9098C24.2738 11.9418 24.3918 11.9998 24.5138 12.0578C24.9918 12.2978 25.4718 12.5998 25.9218 12.8978C27.7198 14.1558 29.1878 15.8938 30.1158 17.9018C30.9558 19.7298 31.3458 21.7698 31.3778 23.7778C31.4058 25.9358 31.0178 28.0918 30.0878 30.0698C28.9778 32.4378 27.0918 34.4458 24.8118 35.7338C24.9918 35.7938 25.1718 35.8238 25.3538 35.8838C25.8038 35.9718 26.2518 36.0318 26.7298 36.0318C29.6658 36.1218 32.5138 34.7138 34.6098 32.7378C34.9998 32.3778 35.3598 31.9878 35.6898 31.5678C36.1398 31.0278 36.5598 30.4898 36.9178 29.9218C37.3958 29.1718 37.7878 28.4218 38.1458 27.6138C38.5978 26.5358 38.9538 25.4258 39.1638 24.2858C39.5558 22.2778 39.5858 20.2418 39.4618 18.2338C39.1918 14.1898 38.1158 10.1438 35.7778 6.78584C35.4178 6.27784 35.0598 5.79784 34.6678 5.34784C34.0098 4.59784 33.2898 3.90984 32.5418 3.27984C31.7018 2.58984 30.7718 1.96184 29.8158 1.44984C28.8298 1.00384 27.6598 0.555841 26.4318 0.253841L25.8318 0.133841C25.4138 0.0738413 24.9918 0.0458413 24.5638 0.0138413C23.9138 -0.0161587 23.2258 -0.0061587 22.5338 0.0458413C21.1258 0.135841 19.7098 0.365841 18.3098 0.719841C11.5978 2.45184 5.72577 7.12984 2.59977 13.3358C1.59777 15.3138 0.889771 17.4278 0.475771 19.5998C-0.00222939 22.0858 -0.0642294 24.6458 0.267771 27.1498C0.507771 29.1898 1.01577 31.1958 1.82377 33.1038C2.27777 34.2438 2.84577 35.3518 3.47377 36.3998C5.66177 39.9658 8.83977 42.8718 12.4938 44.8798C13.8698 45.6618 15.3098 46.2598 16.8078 46.7698C17.2598 46.9178 17.7078 47.0678 18.1858 47.1878L18.2178 47.1398Z" fill="white"/>
</g>
<defs>
<clipPath id="clip0_399_1747">
<rect width="48" height="48" fill="white"/>
</clipPath>
</defs>
</svg>
