<svg width="48" height="48" viewBox="0 0 48 48" fill="none" xmlns="http://www.w3.org/2000/svg">
<path d="M39.2063 16.6123C38.7 16.4436 38.1937 16.2842 37.6875 16.1342C37.7719 15.7873 37.8469 15.4404 37.9219 15.0936C39.075 9.50605 38.3156 5.01543 35.7562 3.53418C33.2906 2.11855 29.2687 3.59043 25.2 7.13418C24.7969 7.48105 24.4031 7.84668 24.0281 8.2123C23.775 7.96855 23.5125 7.7248 23.25 7.49043C18.9844 3.70293 14.7094 2.10918 12.15 3.5998C9.69375 5.0248 8.9625 9.25293 9.99375 14.5404C10.0969 15.0654 10.2094 15.5811 10.3406 16.1061C9.74063 16.2748 9.15 16.4623 8.59687 16.6592C3.59062 18.3936 0 21.1311 0 23.9623C0 26.8873 3.825 29.8217 9.02813 31.6029C9.45 31.7436 9.87187 31.8842 10.3031 32.0061C10.1625 32.5686 10.0406 33.1217 9.92813 33.6936C8.94375 38.8967 9.7125 43.0217 12.1688 44.4373C14.7 45.8998 18.9562 44.3998 23.1 40.7717C23.4281 40.4811 23.7562 40.1811 24.0844 39.8623C24.4969 40.2654 24.9281 40.6498 25.3594 41.0248C29.3719 44.4748 33.3375 45.8717 35.7844 44.4561C38.3156 42.9936 39.1406 38.5592 38.0719 33.1592C37.9875 32.7467 37.8937 32.3248 37.7906 31.8936C38.0906 31.8092 38.3812 31.7154 38.6719 31.6217C44.0812 29.8311 48 26.9342 48 23.9623C48 21.1217 44.3063 18.3654 39.2063 16.6123ZM26.5219 8.65293C30.0094 5.61543 33.2625 4.4248 34.7438 5.27793C36.3281 6.1873 36.9375 9.8623 35.9437 14.6904C35.8781 15.0092 35.8125 15.3186 35.7281 15.6279C33.6469 15.1592 31.5375 14.8217 29.4187 14.6342C28.2 12.8904 26.8688 11.2217 25.425 9.65605C25.7906 9.30918 26.1469 8.98105 26.5219 8.65293ZM15.675 28.8279C16.1531 29.6436 16.6406 30.4592 17.1562 31.2561C15.6938 31.0967 14.2406 30.8623 12.8063 30.5529C13.2188 29.2029 13.7344 27.8061 14.3344 26.3811C14.7656 27.2061 15.2062 28.0217 15.675 28.8279ZM12.8344 17.5498C14.1844 17.2498 15.6187 17.0061 17.1094 16.8186C16.6125 17.5967 16.125 18.3936 15.6656 19.1998C15.2063 19.9967 14.7562 20.8123 14.3344 21.6373C13.7437 20.2404 13.2469 18.8717 12.8344 17.5498ZM15.4031 24.0092C16.0219 22.7154 16.6969 21.4498 17.4094 20.2029C18.1219 18.9561 18.8906 17.7467 19.6969 16.5561C21.1031 16.4529 22.5375 16.3967 24 16.3967C25.4625 16.3967 26.9062 16.4529 28.3031 16.5561C29.1 17.7373 29.8594 18.9467 30.5813 20.1842C31.3031 21.4217 31.9781 22.6873 32.6156 23.9717C31.9875 25.2654 31.3125 26.5404 30.5906 27.7967C29.8781 29.0436 29.1188 30.2529 28.3219 31.4529C26.925 31.5561 25.4719 31.6029 24 31.6029C22.5281 31.6029 21.1031 31.5561 19.725 31.4717C18.9094 30.2811 18.1406 29.0623 17.4188 27.8154C16.6969 26.5686 16.0312 25.3029 15.4031 24.0092ZM32.3344 28.8092C32.8125 27.9842 33.2625 27.1498 33.7031 26.3061C34.3031 27.6654 34.8281 29.0436 35.2875 30.4592C33.8344 30.7873 32.3625 31.0404 30.8812 31.2092C31.3875 30.4217 31.8656 29.6154 32.3344 28.8092ZM33.6844 21.6373C33.2437 20.8123 32.7937 19.9873 32.325 19.1811C31.8656 18.3842 31.3875 17.5967 30.8906 16.8186C32.4 17.0061 33.8438 17.2592 35.1937 17.5686C34.7625 18.9561 34.2562 20.3061 33.6844 21.6373ZM24.0188 11.0904C25.0031 12.1592 25.9312 13.2842 26.7937 14.4467C24.9375 14.3623 23.0719 14.3623 21.2156 14.4467C22.1344 13.2373 23.0813 12.1123 24.0188 11.0904ZM13.1437 5.34355C14.7188 4.4248 18.2156 5.7373 21.9 8.9998C22.1344 9.20605 22.3687 9.43105 22.6125 9.65605C21.1594 11.2217 19.8188 12.8904 18.5906 14.6342C16.4719 14.8217 14.3719 15.1498 12.2906 15.6092C12.1688 15.1311 12.0656 14.6436 11.9625 14.1561C11.0813 9.61855 11.6625 6.19668 13.1437 5.34355ZM10.8469 30.0561C10.4531 29.9436 10.0688 29.8217 9.68438 29.6904C7.6875 29.0623 5.41875 28.0686 3.77812 26.7654C2.83125 26.1092 2.19375 25.0967 2.01562 23.9623C2.01562 22.2467 4.97812 20.0529 9.25312 18.5623C9.7875 18.3748 10.3313 18.2061 10.875 18.0467C11.5125 20.0811 12.2812 22.0779 13.1719 24.0092C12.2719 25.9686 11.4937 27.9936 10.8469 30.0561ZM21.7781 39.2436C20.2313 40.6592 18.4406 41.7842 16.4906 42.5529C15.45 43.0498 14.25 43.0967 13.1813 42.6748C11.6906 41.8123 11.0719 38.5029 11.9156 34.0498C12.0188 33.5248 12.1313 32.9998 12.2625 32.4842C14.3625 32.9342 16.4812 33.2436 18.6281 33.4029C19.8656 35.1561 21.225 36.8342 22.6781 38.4092C22.3781 38.6998 22.0781 38.9811 21.7781 39.2436ZM24.075 36.9654C23.1187 35.9342 22.1625 34.7904 21.2344 33.5623C22.1344 33.5998 23.0625 33.6186 24 33.6186C24.9656 33.6186 25.9125 33.5998 26.85 33.5529C25.9875 34.7436 25.0594 35.8779 24.075 36.9654ZM36.3281 39.7779C36.2438 40.9217 35.6813 41.9904 34.7812 42.7123C33.2906 43.5748 30.1125 42.4498 26.6813 39.5061C26.2875 39.1686 25.8937 38.8029 25.4906 38.4279C26.925 36.8436 28.2469 35.1654 29.4469 33.4029C31.5938 33.2248 33.7312 32.8967 35.8406 32.4186C35.9344 32.8029 36.0187 33.1873 36.0938 33.5623C36.5531 35.5873 36.6281 37.6967 36.3281 39.7779ZM38.0344 29.6998C37.7719 29.7842 37.5094 29.8686 37.2375 29.9436C36.5813 27.8998 35.775 25.9029 34.8469 23.9623C35.7469 22.0498 36.5063 20.0811 37.1438 18.0654C37.6313 18.2061 38.1 18.3561 38.55 18.5061C42.9188 20.0061 45.9844 22.2373 45.9844 23.9436C45.9844 25.7811 42.7125 28.1529 38.0344 29.6998ZM24 28.2936C26.3719 28.2936 28.2937 26.3717 28.2937 23.9998C28.2937 21.6279 26.3719 19.7061 24 19.7061C21.6281 19.7061 19.7062 21.6279 19.7062 23.9998C19.7062 26.3717 21.6281 28.2936 24 28.2936Z" fill="white"/>
</svg>
