<svg width="48" height="48" viewBox="0 0 48 48" fill="none" xmlns="http://www.w3.org/2000/svg">
<path d="M7.49993 18.9242C7.50941 9.81126 14.9087 2.43364 24.0229 2.44514C33.1372 2.45665 40.5121 9.8539 40.4999 18.9668C40.4877 28.0797 33.1047 35.4451 23.9999 35.4451C14.8823 35.4404 7.4952 28.0445 7.49993 18.9269V18.9242ZM23.6656 24.5739C22.3855 24.6114 21.1056 24.4966 19.8526 24.2322C19.397 24.1393 18.9701 23.9388 18.6078 23.6474C18.2454 23.3561 17.9579 22.9822 17.7695 22.5571C17.3963 21.6967 17.2158 20.3698 17.228 18.5763C17.2349 17.6391 17.2936 16.703 17.404 15.7724C17.5114 14.8659 17.6188 14.119 17.7261 13.5315L17.8392 12.9475C17.8405 12.9304 17.8405 12.9132 17.8392 12.896C17.8389 12.8172 17.8111 12.7409 17.7606 12.6803C17.71 12.6198 17.6399 12.5788 17.5624 12.5644L15.4339 12.2328H15.3879C15.3126 12.2335 15.2397 12.2594 15.1807 12.3062C15.1217 12.353 15.0801 12.4182 15.0623 12.4913C15.0258 12.6267 15.0048 12.7289 14.9412 13.0537C14.8194 13.6804 14.707 14.2916 14.5818 15.1829C14.4505 16.151 14.3706 17.1253 14.3422 18.1019C14.2955 18.7821 14.2955 19.4648 14.3422 20.1451C14.3923 21.9498 14.7023 23.3923 15.2721 24.4724C15.842 25.5526 16.8071 26.3291 18.1674 26.8019C19.5277 27.2761 21.4227 27.5083 23.8524 27.4983H24.1583C26.5907 27.5083 28.4856 27.2761 29.8433 26.8019C31.2009 26.3277 32.166 25.5512 32.7386 24.4724C33.3084 23.3923 33.6186 21.9498 33.6691 20.1451C33.7152 19.4648 33.7152 18.7822 33.6691 18.1019C33.6406 17.1253 33.5604 16.151 33.4289 15.1829C33.3043 14.3031 33.1913 13.694 33.0702 13.0537C33.0025 12.7289 32.9849 12.628 32.9484 12.4913C32.9312 12.4178 32.8898 12.3523 32.8307 12.3053C32.7716 12.2584 32.6983 12.2328 32.6228 12.2328H32.568L30.4395 12.5644C30.3611 12.5774 30.2899 12.618 30.2387 12.6788C30.1875 12.7395 30.1596 12.8166 30.16 12.896C30.1587 12.9132 30.1587 12.9304 30.16 12.9475L30.2724 13.5315C30.3797 14.1208 30.4883 14.8677 30.5979 15.7724C30.7067 16.7032 30.7646 17.6392 30.7711 18.5763C30.7892 20.3666 30.6087 21.6924 30.2297 22.5537C30.0427 22.9782 29.7572 23.3519 29.3968 23.6438C29.0363 23.9358 28.6115 24.1375 28.1574 24.2322C26.9054 24.4973 25.6263 24.6127 24.3471 24.576L23.6656 24.5739Z" fill="white"/>
<path d="M37.8686 43.1105C37.8686 41.6786 38.2762 40.674 39.9343 40.674C41.5924 40.674 41.9999 41.6786 41.9999 43.1105C41.9999 44.5424 41.5924 45.5463 39.9363 45.5463C38.2803 45.5463 37.8686 44.543 37.8686 43.1105ZM40.9464 43.1105C40.9464 42.1147 40.8173 41.5482 39.9343 41.5482C39.0512 41.5482 38.9195 42.116 38.9195 43.1105C38.9195 44.1049 39.0506 44.6728 39.9343 44.6728C40.818 44.6728 40.9464 44.1029 40.9464 43.1105Z" fill="white"/>
<path d="M9.25932 45.3635C9.2714 45.3844 9.28885 45.4018 9.30986 45.4137C9.33088 45.4257 9.3547 45.4318 9.37887 45.4314H9.76537C9.8014 45.4314 9.83596 45.4171 9.86143 45.3916C9.88691 45.3662 9.90122 45.3316 9.90122 45.2956V40.9231C9.90122 40.8871 9.88691 40.8526 9.86143 40.8271C9.83596 40.8016 9.8014 40.7873 9.76537 40.7873H8.99576C8.95973 40.7873 8.92518 40.8016 8.8997 40.8271C8.87422 40.8526 8.85991 40.8871 8.85991 40.9231V44.3935C8.5316 44.5789 8.15955 44.6727 7.78259 44.6652C7.29012 44.6652 7.04898 44.4513 7.04898 43.9771V40.9231C7.04898 40.8871 7.03467 40.8526 7.00919 40.8271C6.98372 40.8016 6.94916 40.7873 6.91313 40.7873H6.13809C6.10206 40.7873 6.0675 40.8016 6.04203 40.8271C6.01655 40.8526 6.00224 40.8871 6.00224 40.9231V44.0675C6.00224 44.96 6.42066 45.5449 7.60123 45.5449C8.14063 45.5394 8.6658 45.3711 9.10784 45.0619L9.24369 45.3696L9.25932 45.3635Z" fill="white"/>
<path d="M17.9363 42.1513C17.9363 41.2683 17.4995 40.6725 16.397 40.6725C15.866 40.674 15.3476 40.8347 14.9088 41.1338C14.7138 40.8464 14.3409 40.6725 13.718 40.6725C13.2116 40.6825 12.7211 40.8515 12.316 41.1555L12.1802 40.8478C12.168 40.8268 12.1505 40.8094 12.1293 40.7974C12.1082 40.7855 12.0842 40.7794 12.0599 40.7799H11.6707C11.6347 40.7799 11.6001 40.7942 11.5746 40.8197C11.5492 40.8451 11.5349 40.8797 11.5349 40.9157V45.2902C11.5349 45.3262 11.5492 45.3608 11.5746 45.3863C11.6001 45.4117 11.6347 45.426 11.6707 45.426H12.4403C12.4763 45.426 12.5109 45.4117 12.5364 45.3863C12.5619 45.3608 12.5762 45.3262 12.5762 45.2902V41.8259C12.8703 41.6477 13.2077 41.5537 13.5516 41.5542C13.9707 41.5542 14.2118 41.7084 14.2118 42.1499V45.297C14.2118 45.333 14.2262 45.3676 14.2516 45.3931C14.2771 45.4185 14.3117 45.4328 14.3477 45.4328H15.1173C15.1533 45.4328 15.1879 45.4185 15.2134 45.3931C15.2388 45.3676 15.2532 45.333 15.2532 45.297V41.8259C15.5465 41.6442 15.8856 41.5499 16.2306 41.5542C16.6382 41.5542 16.8909 41.7084 16.8909 42.1499V45.2943C16.8909 45.3303 16.9052 45.3649 16.9307 45.3903C16.9561 45.4158 16.9907 45.4301 17.0267 45.4301H17.7963C17.8324 45.4301 17.8669 45.4158 17.8924 45.3903C17.9179 45.3649 17.9322 45.3303 17.9322 45.2943L17.9363 42.1513Z" fill="white"/>
<path d="M20.3157 45.0633C20.7519 45.3866 21.2828 45.5564 21.8257 45.5463C23.1842 45.5463 23.6848 44.6354 23.6848 43.1104C23.6848 41.5855 23.1795 40.6712 21.8257 40.6712C21.3844 40.6731 20.9525 40.799 20.5792 41.0346V39.6305C20.5798 39.6123 20.5767 39.5942 20.5701 39.5773C20.5635 39.5603 20.5536 39.5449 20.5409 39.5318C20.5283 39.5188 20.5131 39.5084 20.4963 39.5013C20.4796 39.4942 20.4616 39.4906 20.4434 39.4906H19.6677C19.6316 39.4906 19.5971 39.5049 19.5716 39.5304C19.5461 39.5559 19.5318 39.5904 19.5318 39.6265V45.297C19.5318 45.333 19.5461 45.3676 19.5716 45.393C19.5971 45.4185 19.6316 45.4328 19.6677 45.4328H20.0542C20.0783 45.4332 20.1022 45.427 20.1232 45.4151C20.1442 45.4032 20.1616 45.3858 20.1737 45.3649L20.3157 45.0633ZM21.5791 44.6632C21.2265 44.6633 20.8802 44.5696 20.5758 44.3915V41.8259C20.8802 41.6479 21.2265 41.5541 21.5791 41.5542C22.49 41.5542 22.6306 42.2518 22.6306 43.1077C22.6306 43.9636 22.4948 44.6605 21.5805 44.6605L21.5791 44.6632Z" fill="white"/>
<path d="M27.5316 41.5882C27.4118 41.572 27.2911 41.5643 27.1702 41.5651C26.7551 41.5475 26.3431 41.6438 25.9788 41.8436V45.2956C25.9788 45.3316 25.9645 45.3662 25.939 45.3917C25.9135 45.4172 25.879 45.4315 25.843 45.4315H25.0727C25.0366 45.4315 25.0021 45.4172 24.9766 45.3917C24.9511 45.3662 24.9368 45.3316 24.9368 45.2956V40.9232C24.9368 40.8872 24.9511 40.8526 24.9766 40.8271C25.0021 40.8016 25.0366 40.7873 25.0727 40.7873H25.4592C25.4835 40.7869 25.5074 40.7929 25.5286 40.8049C25.5497 40.8168 25.5673 40.8342 25.5794 40.8553L25.7153 41.163C26.1371 40.8414 26.6549 40.6713 27.1852 40.68C27.3074 40.68 27.4294 40.6902 27.55 40.7106C27.6179 40.7106 27.6763 40.826 27.6763 40.9001V41.4571C27.6763 41.4931 27.662 41.5277 27.6365 41.5531C27.611 41.5786 27.5765 41.5929 27.5404 41.5929H27.5296" fill="white"/>
<path d="M30.1997 43.2871C29.7378 43.3428 29.4641 43.5181 29.4641 44.0031C29.4641 44.357 29.6176 44.6911 30.1794 44.6911C30.5353 44.6944 30.8834 44.5866 31.1752 44.3828V43.1798L30.1997 43.2871ZM31.4306 45.0634C31.0306 45.378 30.5361 45.5482 30.0272 45.5463C28.8269 45.5463 28.4282 44.8032 28.4282 44.0581C28.4282 43.0534 29.0789 42.6255 30.1305 42.5426L31.1724 42.4591V42.2268C31.1724 41.7513 30.949 41.5665 30.2609 41.5665C29.8288 41.5666 29.3998 41.6384 28.9913 41.7791C28.9771 41.7812 28.9627 41.7812 28.9485 41.7791C28.9125 41.7791 28.8779 41.7648 28.8525 41.7393C28.827 41.7139 28.8127 41.6793 28.8127 41.6433V41.0279C28.8119 40.9995 28.8201 40.9715 28.8361 40.948C28.852 40.9245 28.875 40.9066 28.9017 40.8968C29.3643 40.741 29.8495 40.6625 30.3376 40.6645C31.8626 40.6645 32.2151 41.3335 32.2151 42.3205V45.2875C32.2151 45.3236 32.2008 45.3581 32.1753 45.3836C32.1498 45.4091 32.1153 45.4234 32.0793 45.4234H31.6934C31.6692 45.4239 31.6452 45.4178 31.6241 45.4059C31.6029 45.3939 31.5854 45.3765 31.5732 45.3555L31.4306 45.0634Z" fill="white"/>
<path d="M36.7294 44.475C36.7431 44.473 36.7571 44.473 36.7708 44.475C36.8068 44.475 36.8414 44.4893 36.8669 44.5148C36.8923 44.5403 36.9067 44.5748 36.9067 44.6109V45.2276C36.9071 45.2549 36.8992 45.2817 36.8842 45.3045C36.8692 45.3272 36.8477 45.345 36.8224 45.3553C36.4385 45.493 36.0327 45.5593 35.6249 45.551C33.9783 45.551 33.4702 44.5647 33.4702 43.1144C33.4702 41.6642 33.9736 40.6786 35.6249 40.6786C36.0295 40.6679 36.4326 40.7314 36.8143 40.8661C36.8401 40.8762 36.8622 40.894 36.8777 40.9171C36.8931 40.9401 36.9011 40.9674 36.9005 40.9951V41.6112C36.9005 41.6473 36.8862 41.6818 36.8608 41.7073C36.8353 41.7328 36.8007 41.7471 36.7647 41.7471C36.75 41.7484 36.7352 41.7484 36.7205 41.7471C36.385 41.6413 36.0343 41.5917 35.6826 41.6004C34.7806 41.6004 34.519 42.2158 34.519 43.1165C34.519 44.0172 34.7806 44.6319 35.6826 44.6319C36.0345 44.6385 36.385 44.5866 36.7199 44.4784" fill="white"/>
</svg>
