<svg width="48" height="48" viewBox="0 0 48 48" fill="none" xmlns="http://www.w3.org/2000/svg">
<path fill-rule="evenodd" clip-rule="evenodd" d="M9.96975 4.50446C7.23094 4.50446 5.20434 6.85486 5.29509 9.40381C5.38219 11.8527 5.26903 15.0243 4.45472 17.6107C3.6375 20.2045 2.25638 21.8481 0 22.0591V24.4409C2.25638 24.6523 3.6375 26.2951 4.45462 28.8892C5.26903 31.4757 5.38209 34.6473 5.295 37.0961C5.20425 39.6447 7.23084 41.9955 9.97012 41.9955H38.0339C40.7727 41.9955 42.7989 39.6451 42.7082 37.0961C42.6211 34.6473 42.7343 31.4757 43.5486 28.8892C44.3658 26.2951 45.7435 24.6517 48 24.4409V22.0591C45.7436 21.8476 44.3659 20.2048 43.5486 17.6107C42.7342 15.0247 42.6211 11.8527 42.7082 9.40381C42.7989 6.85523 40.7727 4.50446 38.0339 4.50446H9.96937H9.96975ZM32.5424 27.5826C32.5424 31.0924 29.8723 33.221 25.4412 33.221H17.8983C17.6825 33.221 17.4756 33.137 17.323 32.9874C17.1704 32.8378 17.0847 32.6349 17.0847 32.4234V14.0767C17.0847 13.8651 17.1704 13.6622 17.323 13.5126C17.4756 13.363 17.6825 13.279 17.8983 13.279H25.3983C29.0931 13.279 31.5179 15.2413 31.5179 18.2541C31.5179 20.3687 29.8867 22.2618 27.8085 22.5935V22.7038C30.6375 23.008 32.5424 24.9292 32.5424 27.5826ZM24.6188 15.8076H20.3179V21.7641H23.9403C26.7406 21.7641 28.2847 20.6585 28.2847 18.6823C28.2844 16.8302 26.9569 15.8076 24.6188 15.8076ZM20.3179 24.1274V30.6916H24.777C27.6926 30.6916 29.237 29.5445 29.237 27.3888C29.237 25.2331 27.6493 24.1271 24.5895 24.1271H20.3179V24.1274Z" fill="white"/>
</svg>
