<svg width="48" height="48" viewBox="0 0 48 48" fill="none" xmlns="http://www.w3.org/2000/svg">
<path d="M39.705 22.3107C39.705 20.185 37.0773 18.1704 33.0485 16.9211C33.9783 12.7612 33.5651 9.4515 31.7443 8.39187C31.3246 8.14332 30.834 8.02558 30.2981 8.02558V9.4842C30.5951 9.4842 30.834 9.54307 31.0341 9.65426C31.9122 10.1644 32.2932 12.1071 31.9961 14.6057C31.9252 15.2205 31.809 15.8681 31.6669 16.5287C30.4014 16.2147 29.0198 15.9727 27.5671 15.8157C26.6955 14.6057 25.7916 13.5068 24.8812 12.5453C26.986 10.5634 28.9617 9.47765 30.3046 9.47765V8.01904C28.529 8.01904 26.2048 9.30105 23.8548 11.5249C21.5046 9.31413 19.1804 8.04521 17.4049 8.04521V9.50381C18.7413 9.50381 20.7234 10.5831 22.8282 12.5519C21.9243 13.5134 21.0204 14.6057 20.1617 15.8157C18.7025 15.9727 17.3209 16.2147 16.0555 16.5352C15.9069 15.8812 15.7972 15.2467 15.7197 14.6384C15.4164 12.1398 15.7907 10.1971 16.6624 9.68042C16.856 9.56268 17.1078 9.51037 17.4049 9.51037V8.05175C16.8625 8.05175 16.3718 8.16949 15.9458 8.41804C14.1315 9.47765 13.7248 12.7808 14.6609 16.9277C10.6451 18.1835 8.03027 20.1916 8.03027 22.3107C8.03027 24.4366 10.658 26.4512 14.6867 27.7004C13.757 31.8605 14.1702 35.1701 15.991 36.2297C16.4106 36.4782 16.9012 36.5959 17.4436 36.5959C19.2191 36.5959 21.5434 35.314 23.8935 33.0901C26.2435 35.301 28.5679 36.5699 30.3433 36.5699C30.8856 36.5699 31.3763 36.4522 31.8025 36.2035C33.6166 35.1439 34.0235 31.8407 33.0872 27.694C37.0902 26.4446 39.705 24.43 39.705 22.3107ZM31.2989 17.9481C31.06 18.7919 30.763 19.6617 30.4272 20.5316C30.1626 20.0085 29.885 19.4852 29.5815 18.9618C29.2845 18.4386 28.9681 17.9284 28.6518 17.4313C29.5685 17.5687 30.4531 17.7388 31.2989 17.9481ZM28.3418 24.914C27.8382 25.7971 27.3218 26.6343 26.7859 27.4127C25.8238 27.4977 24.8491 27.5435 23.8676 27.5435C22.8927 27.5435 21.9178 27.4977 20.9623 27.4192C20.4264 26.6408 19.9034 25.8102 19.3998 24.9336C18.9091 24.0768 18.4637 23.2069 18.0569 22.3305C18.4572 21.454 18.9091 20.5774 19.3935 19.7206C19.897 18.8377 20.4134 18.0004 20.9493 17.222C21.9114 17.137 22.8862 17.0912 23.8676 17.0912C24.8426 17.0912 25.8175 17.137 26.7729 17.2155C27.3088 17.9938 27.8319 18.8245 28.3354 19.701C28.8262 20.5578 29.2715 21.4278 29.6784 22.3043C29.2715 23.1807 28.8261 24.0572 28.3418 24.914ZM30.4272 24.0638C30.7661 24.9162 31.0635 25.785 31.3183 26.667C30.4724 26.8762 29.5815 27.0529 28.6582 27.1903C28.9746 26.6867 29.2909 26.17 29.588 25.6401C29.885 25.1169 30.1626 24.587 30.4272 24.0638ZM23.8805 31.0429C23.28 30.4149 22.6796 29.715 22.0857 28.9498C22.6668 28.976 23.2607 28.9956 23.8611 28.9956C24.4681 28.9956 25.0685 28.9825 25.6561 28.9498C25.1019 29.6794 24.5091 30.3781 23.8805 31.0429ZM19.077 27.1903C18.1603 27.0529 17.2757 26.8828 16.43 26.6735C16.6688 25.8298 16.9659 24.9598 17.3015 24.0898C17.5663 24.6132 17.8439 25.1365 18.1473 25.6597C18.4507 26.183 18.7607 26.6931 19.077 27.1903ZM23.8483 13.5788C24.4487 14.2067 25.0492 14.9066 25.6431 15.6718C25.062 15.6457 24.4681 15.6261 23.8676 15.6261C23.2607 15.6261 22.6603 15.6391 22.0728 15.6718C22.627 14.9422 23.2197 14.2435 23.8483 13.5788ZM19.0705 17.4313C18.7542 17.935 18.4379 18.4517 18.1409 18.9814C17.8439 19.5048 17.5663 20.0281 17.3015 20.5512C16.9626 19.6988 16.6653 18.8301 16.4106 17.9481C17.2564 17.7453 18.1473 17.5687 19.0705 17.4313ZM13.2276 25.6205C10.9421 24.6328 9.46358 23.3378 9.46358 22.3107C9.46358 21.2839 10.9421 19.9823 13.2276 19.0012C13.7828 18.7591 14.3898 18.5433 15.016 18.3405C15.384 19.6225 15.8682 20.9568 16.4687 22.3239C15.8747 23.6844 15.3969 25.0122 15.0354 26.2877C14.3963 26.0848 13.7893 25.8625 13.2276 25.6205ZM16.7011 34.9673C15.8231 34.4572 15.4421 32.5146 15.7392 30.0159C15.8102 29.4011 15.9263 28.7535 16.0683 28.0928C17.3339 28.4069 18.7155 28.6489 20.1682 28.8059C21.0397 30.0159 21.9436 31.1147 22.854 32.0762C20.7492 34.0582 18.7735 35.1439 17.4306 35.1439C17.1401 35.1374 16.8949 35.0785 16.7011 34.9673ZM32.0156 29.9832C32.3189 32.4818 31.9445 34.4244 31.0728 34.9412C30.8792 35.0589 30.6274 35.1113 30.3303 35.1113C28.9939 35.1113 27.0119 34.032 24.9071 32.0632C25.811 31.1017 26.7149 30.0094 27.5736 28.7993C29.0327 28.6423 30.4144 28.4003 31.6798 28.0798C31.8283 28.7405 31.9445 29.375 32.0156 29.9832ZM34.5012 25.6205C33.9459 25.8625 33.339 26.0784 32.7127 26.2811C32.3447 24.9991 31.8605 23.6648 31.2601 22.2977C31.8542 20.9372 32.3319 19.6095 32.6934 18.334C33.3327 18.5367 33.9394 18.7591 34.5077 19.0012C36.7932 19.9887 38.2717 21.2839 38.2717 22.3107C38.2652 23.3378 36.7867 24.6393 34.5012 25.6205Z" fill="white"/>
<path d="M23.861 25.3001C25.4907 25.3001 26.8117 23.9619 26.8117 22.3109C26.8117 20.6601 25.4907 19.3218 23.861 19.3218C22.2315 19.3218 20.9106 20.6601 20.9106 22.3109C20.9106 23.9619 22.2315 25.3001 23.861 25.3001ZM9.46846 41.7428H8.49447V43.4422H7.94482V39.2413H9.31752C9.78457 39.2413 10.1434 39.3491 10.394 39.5646C10.6465 39.7799 10.7728 40.0935 10.7728 40.505C10.7728 40.7667 10.7026 40.9946 10.5621 41.1889C10.4235 41.3832 10.2298 41.5284 9.98109 41.6245L10.9551 43.4076V43.4422H10.3684L9.46846 41.7428ZM8.49447 41.2899H9.33461C9.60612 41.2899 9.8216 41.2186 9.98109 41.0763C10.1425 40.934 10.2232 40.7436 10.2232 40.505C10.2232 40.2454 10.1463 40.0464 9.99248 39.9079C9.84059 39.7693 9.62035 39.6991 9.33175 39.6972H8.49447V41.2899ZM12.7379 43.5C12.3202 43.5 11.9803 43.3615 11.7183 43.0845C11.4563 42.8055 11.3253 42.4333 11.3253 41.9679V41.8698C11.3253 41.5601 11.3832 41.2842 11.499 41.0418C11.6167 40.7974 11.78 40.607 11.9889 40.4705C12.1996 40.332 12.4274 40.2627 12.6724 40.2627C13.073 40.2627 13.3844 40.3964 13.6065 40.6637C13.8286 40.9311 13.9397 41.3138 13.9397 41.812V42.0342H11.8522C11.8598 42.3421 11.9481 42.5911 12.117 42.7816C12.2879 42.9699 12.5043 43.0643 12.7664 43.0643C12.9525 43.0643 13.11 43.0258 13.239 42.9489C13.3682 42.872 13.4811 42.77 13.578 42.6431L13.8998 42.897C13.6415 43.2989 13.2543 43.5 12.7379 43.5ZM12.6724 40.7013C12.4597 40.7013 12.2813 40.7801 12.137 40.9378C11.9927 41.0937 11.9034 41.313 11.8693 41.5957H13.4129V41.5553C13.3977 41.2842 13.3255 41.0744 13.1964 40.9263C13.0672 40.7763 12.8925 40.7013 12.6724 40.7013ZM16.4544 43.4422C16.424 43.3806 16.3993 43.2711 16.3804 43.1133C16.1354 43.371 15.843 43.5 15.5032 43.5C15.1994 43.5 14.9498 43.4134 14.7542 43.2402C14.5606 43.0652 14.4637 42.844 14.4637 42.5767C14.4637 42.2517 14.5853 41.9997 14.8283 41.8208C15.0731 41.6399 15.4169 41.5495 15.8592 41.5495H16.3719V41.3043C16.3719 41.1177 16.3167 40.9695 16.2067 40.86C16.0965 40.7484 15.9341 40.6927 15.7196 40.6927C15.5316 40.6927 15.3741 40.7407 15.2469 40.8369C15.1197 40.933 15.0561 41.0494 15.0561 41.186H14.5264C14.5264 41.0302 14.5805 40.8802 14.6886 40.7358C14.7988 40.5897 14.9469 40.4743 15.133 40.3896C15.321 40.3051 15.5269 40.2627 15.7509 40.2627C16.1061 40.2627 16.3841 40.3531 16.5854 40.534C16.7866 40.7129 16.891 40.96 16.8987 41.2754V42.7122C16.8987 42.9989 16.9348 43.2268 17.0069 43.396V43.4422H16.4544ZM15.5801 43.0355C15.7453 43.0355 15.9019 42.9922 16.0501 42.9056C16.198 42.819 16.3053 42.7065 16.3719 42.568V41.9275H15.9588C15.3133 41.9275 14.9905 42.1189 14.9905 42.5016C14.9905 42.6689 15.0457 42.7998 15.1557 42.894C15.2658 42.9882 15.4073 43.0355 15.5801 43.0355ZM18.9605 43.0643C19.1485 43.0643 19.3128 43.0065 19.4533 42.8911C19.5938 42.7757 19.6716 42.6315 19.6867 42.4583H20.1852C20.1757 42.6372 20.1149 42.8074 20.0029 42.9691C19.8909 43.1307 19.7409 43.2595 19.5529 43.3556C19.3668 43.4519 19.1695 43.5 18.9605 43.5C18.541 43.5 18.2068 43.3586 17.958 43.0758C17.7113 42.7911 17.5879 42.4026 17.5879 41.9101V41.8208C17.5879 41.5169 17.6429 41.2466 17.753 41.0101C17.8632 40.7734 18.0207 40.5897 18.2259 40.459C18.4327 40.3281 18.6767 40.2627 18.9577 40.2627C19.3033 40.2627 19.59 40.3675 19.8178 40.5773C20.0475 40.7869 20.1699 41.0591 20.1852 41.3937H19.6867C19.6716 41.1917 19.5956 41.0263 19.4589 40.8974C19.3242 40.7667 19.157 40.7013 18.9577 40.7013C18.69 40.7013 18.4821 40.7993 18.334 40.9956C18.1879 41.1898 18.1147 41.4717 18.1147 41.841V41.9419C18.1147 42.3015 18.1879 42.5786 18.334 42.7728C18.4802 42.9672 18.6891 43.0643 18.9605 43.0643ZM21.4924 39.5646V40.3204H22.0677V40.733H21.4924V42.6689C21.4924 42.794 21.5181 42.8882 21.5693 42.9517C21.6206 43.0132 21.7079 43.0441 21.8313 43.0441C21.892 43.0441 21.9756 43.0325 22.0818 43.0094V43.4422C21.9432 43.4807 21.8085 43.5 21.6774 43.5C21.4421 43.5 21.2645 43.4277 21.1449 43.2835C21.0253 43.1393 20.9656 42.9344 20.9656 42.6689V40.733H20.4044V40.3204H20.9656V39.5646H21.4924ZM27.4018 43.4422H26.8521L24.7646 40.205V43.4422H24.215V39.2413H24.7646L26.8579 42.493V39.2413H27.4018V43.4422ZM30.1928 43.4422C30.1623 43.3806 30.1377 43.2711 30.1187 43.1133C29.8737 43.371 29.5814 43.5 29.2415 43.5C28.9378 43.5 28.688 43.4134 28.4926 43.2402C28.299 43.0652 28.2021 42.844 28.2021 42.5767C28.2021 42.2517 28.3235 41.9997 28.5666 41.8208C28.8115 41.6399 29.1552 41.5495 29.5976 41.5495H30.1102V41.3043C30.1102 41.1177 30.0551 40.9695 29.9449 40.86C29.8349 40.7484 29.6725 40.6927 29.458 40.6927C29.27 40.6927 29.1125 40.7407 28.9853 40.8369C28.8581 40.933 28.7944 41.0494 28.7944 41.186H28.2647C28.2647 41.0302 28.3189 40.8802 28.427 40.7358C28.5372 40.5897 28.6853 40.4743 28.8714 40.3896C29.0594 40.3051 29.2652 40.2627 29.4893 40.2627C29.8443 40.2627 30.1225 40.3531 30.3237 40.534C30.525 40.7129 30.6294 40.96 30.637 41.2754V42.7122C30.637 42.9989 30.6731 43.2268 30.7453 43.396V43.4422H30.1928ZM29.3185 43.0355C29.4837 43.0355 29.6403 42.9922 29.7884 42.9056C29.9364 42.819 30.0437 42.7065 30.1102 42.568V41.9275H29.6972C29.0517 41.9275 28.7289 42.1189 28.7289 42.5016C28.7289 42.6689 28.784 42.7998 28.894 42.894C29.0042 42.9882 29.1457 43.0355 29.3185 43.0355ZM32.1777 39.5646V40.3204H32.7531V40.733H32.1777V42.6689C32.1777 42.794 32.2034 42.8882 32.2547 42.9517C32.3059 43.0132 32.3933 43.0441 32.5167 43.0441C32.5774 43.0441 32.6609 43.0325 32.7673 43.0094V43.4422C32.6286 43.4807 32.4939 43.5 32.3628 43.5C32.1275 43.5 31.9499 43.4277 31.8302 43.2835C31.7107 43.1393 31.6509 42.9344 31.6509 42.6689V40.733H31.0899V40.3204H31.6509V39.5646H32.1777ZM33.9435 43.4422H33.4166V40.3204H33.9435V43.4422ZM33.3738 39.4923C33.3738 39.4059 33.3995 39.3328 33.4508 39.2731C33.5039 39.2134 33.5817 39.1837 33.6842 39.1837C33.7869 39.1837 33.8647 39.2134 33.9178 39.2731C33.971 39.3328 33.9975 39.4059 33.9975 39.4923C33.9975 39.5789 33.971 39.651 33.9178 39.7088C33.8647 39.7664 33.7869 39.7954 33.6842 39.7954C33.5817 39.7954 33.5039 39.7664 33.4508 39.7088C33.3995 39.651 33.3738 39.5789 33.3738 39.4923ZM35.806 42.7181L36.5692 40.3204H37.1075L36.0025 43.4422H35.6009L34.4846 40.3204H35.0228L35.806 42.7181ZM38.8532 43.5C38.4356 43.5 38.0957 43.3615 37.8337 43.0845C37.5717 42.8055 37.4407 42.4333 37.4407 41.9679V41.8698C37.4407 41.5601 37.4986 41.2842 37.6144 41.0418C37.7321 40.7974 37.8954 40.607 38.1043 40.4705C38.315 40.332 38.5429 40.2627 38.7877 40.2627C39.1883 40.2627 39.4997 40.3964 39.7219 40.6637C39.944 40.9311 40.0551 41.3138 40.0551 41.812V42.0342H37.9675C37.9752 42.3421 38.0634 42.5911 38.2325 42.7816C38.4032 42.9699 38.6198 43.0643 38.8817 43.0643C39.0678 43.0643 39.2254 43.0258 39.3545 42.9489C39.4836 42.872 39.5966 42.77 39.6935 42.6431L40.0153 42.897C39.757 43.2989 39.3697 43.5 38.8532 43.5ZM38.7877 40.7013C38.5752 40.7013 38.3966 40.7801 38.2524 40.9378C38.108 41.0937 38.0188 41.313 37.9847 41.5957H39.5282V41.5553C39.513 41.2842 39.4408 41.0744 39.3118 40.9263C39.1827 40.7763 39.008 40.7013 38.7877 40.7013Z" fill="white"/>
</svg>
