<svg width="48" height="48" viewBox="0 0 48 48" fill="none" xmlns="http://www.w3.org/2000/svg">
<g clip-path="url(#clip0_399_1735)">
<path d="M24 28V26H27V27H31V25H26C24.9 25 24 24.1 24 23V20C24 18.9 24.9 18 26 18H32C33.1 18 34 18.9 34 20V22H31V21H27V23H32C33.1 23 34 23.9 34 25V28C34 29.1 33.1 30 32 30H26C24.9 30 24 29.1 24 28ZM18 18V27H15V25H12V27C12 28.66 13.34 30 15 30H18C19.66 30 21 28.66 21 27V18C21 18 19.66 18 18 18Z" fill="white"/>
</g>
<rect x="0.5" y="0.5" width="47" height="47" rx="2.5" stroke="white"/>
<defs>
<clipPath id="clip0_399_1735">
<rect width="48" height="48" rx="3" fill="white"/>
</clipPath>
</defs>
</svg>
