<svg width="301" height="350" viewBox="0 0 301 350" fill="none" xmlns="http://www.w3.org/2000/svg">
<path d="M130.115 8.84684C122.609 13.5375 114.501 18.6437 112.2 20.1281L107.927 22.8V43.5218V64.2437L116.583 58.5437C121.294 55.3968 129.676 49.875 135.21 46.2531L145.181 39.7218V19.95C145.181 4.45309 145.016 0.11871 144.523 0.178085C144.14 0.178085 137.675 4.09684 130.115 8.84684Z" fill="white"/>
<path d="M155.042 19.8906V39.8406L158.22 41.7406C172.08 50.2313 257.49 103.847 261.49 106.519L264.064 108.3L264.01 168.981V229.603L236.014 247.712C220.62 257.687 206.595 266.831 204.842 268.019L201.609 270.216L201.829 293.194C201.993 305.781 202.157 316.172 202.267 316.291C202.376 316.409 206.65 313.797 211.745 310.531C216.894 307.206 223.907 302.753 227.358 300.556C230.81 298.359 239.685 292.778 247.081 288.147C254.477 283.456 267.297 275.381 275.569 270.156C283.842 264.931 292.772 259.291 295.402 257.569L300.168 254.541L300.223 172.603V90.6656L297.045 88.8844C294.306 87.2812 283.13 80.3344 267.078 70.1813C260.887 66.2625 234.371 49.7563 227.084 45.2438C224.071 43.3438 210.375 34.7938 196.679 26.2438C182.982 17.6344 168.793 8.72813 165.177 6.47188C161.561 4.21563 157.781 1.84063 156.85 1.18751L155.042 8.55505e-06V19.8906Z" fill="white"/>
<path d="M89.2998 34.4375C84.917 37.1687 78.288 41.3843 74.5078 43.7593C70.7276 46.075 63.2221 50.825 57.7983 54.2687C52.3746 57.7125 45.4717 62.0468 42.4585 63.9468C25.8038 74.4562 19.887 78.1375 13.6963 82.0562C9.91611 84.4312 5.31416 87.3406 3.45146 88.5281L0 90.6656V172.603V254.541L5.64287 258.103C8.71084 260.003 17.5312 265.584 25.2012 270.394L39.1714 279.181L39.4453 193.978L39.7192 108.716L59.4419 95.7718C87.218 77.5437 96.641 71.3687 97.1341 70.8343C97.3532 70.5968 97.4628 61.1562 97.408 49.875L97.2436 29.3312L89.2998 34.4375Z" fill="white"/>
<path d="M142.989 53.5562C141.072 55.0406 110.063 75.3468 108.913 75.8218C107.982 76.2375 107.927 82.1156 107.817 170.466C107.653 274.906 107.982 266.297 104.037 271.166C100.695 275.262 95.4905 276.687 90.5051 274.787C89.2998 274.312 79.822 268.612 69.5224 262.022C59.168 255.491 50.238 249.969 49.7449 249.791C48.8136 249.375 48.7588 250.444 48.7588 267.247V285.119L50.8406 286.544C52.8129 287.909 81.3012 305.841 94.3948 313.916L100.914 317.953L105.626 317.537C124.308 315.994 138.552 303.347 143.647 283.634L144.907 278.884L145.071 165.597C145.126 103.312 145.016 52.3687 144.797 52.4281C144.523 52.4281 143.756 52.9031 142.989 53.5562Z" fill="white"/>
<path d="M154.878 165.597L154.713 278.884L153.289 285.178C150.824 295.984 146.66 304.119 139.812 311.6C133.895 317.953 127.266 322.347 118.61 325.494L114.282 327.097L116.692 328.581C122.445 332.084 140.907 343.781 145.345 346.631L150.221 349.778L157.398 345.147C161.397 342.594 169.56 337.369 175.586 333.509C181.613 329.65 187.804 325.672 189.392 324.662L192.241 322.822L192.296 279.419V235.956L200.404 230.791C204.842 227.941 217.223 219.984 227.906 213.156C242.753 203.716 247.958 200.034 249.93 197.837C254.367 192.731 254.258 194.334 254.094 151.525L253.929 113.881L240.507 105.509C233.111 100.878 222.044 93.9312 215.854 90.0719C209.663 86.2125 196.624 78.0187 186.817 71.9625C177.011 65.8469 165.999 58.9594 162.274 56.6437C158.548 54.2687 155.425 52.3687 155.316 52.3687C155.152 52.3687 154.987 103.312 154.878 165.597ZM210.375 125.044C214.21 127.537 215.251 128.547 216.292 130.744C217.552 133.416 217.552 133.475 217.387 155.978C217.168 184.834 218.483 181.509 203.801 191.128C198.815 194.394 194.213 197.362 193.556 197.778L192.296 198.491V156.037V113.584L199.034 117.8C202.705 120.116 207.8 123.381 210.375 125.044Z" fill="white"/>
</svg>
