<svg width="149" height="149" viewBox="0 0 149 149" fill="none" xmlns="http://www.w3.org/2000/svg">
<path fill-rule="evenodd" clip-rule="evenodd" d="M117.445 25.4107C119.249 26.9918 119.241 29.7584 117.544 31.4564C115.846 33.1544 113.101 33.1387 111.281 31.5761C89.0945 12.5294 55.6119 13.5321 34.5719 34.5719C13.7415 55.4024 12.5513 88.4296 31.0133 110.615L52.3763 89.2524L52.3865 69.2873C52.387 67.9044 52.9374 66.5774 53.9156 65.5991L64.2264 55.2883L61.5067 45.1198C61.3461 44.5199 61.5179 43.8798 61.9575 43.4404L72.9564 32.4417C73.3955 32.0024 74.0358 31.8305 74.6355 31.9909L89.6505 36.007C90.2502 36.1674 90.7186 36.6357 90.8788 37.2355L94.8948 52.2501C95.0555 52.8503 94.8837 53.4901 94.4441 53.9296L83.4456 64.9281C83.006 65.3677 82.3658 65.5395 81.7661 65.3793L71.5978 62.6596L62.8151 71.4422L62.8049 91.4073C62.8044 92.7902 62.2541 94.1172 61.2758 95.0955L32.2129 124.158C30.9007 123.039 29.6225 121.859 28.3818 120.618C2.93759 95.1738 2.95877 53.8993 28.4292 28.4292C52.8661 3.99211 91.8511 2.9812 117.445 25.4107ZM75.6445 40.8104C75.8643 40.5907 76.1842 40.5048 76.484 40.585L83.7445 42.5269C84.0444 42.6072 84.2786 42.8413 84.3591 43.1412L86.3008 50.4016C86.3809 50.7014 86.2952 51.0218 86.0754 51.2411L80.7571 56.5599C80.5373 56.7792 80.2174 56.8654 79.9175 56.7853L72.6571 54.8432C72.3572 54.7631 72.123 54.5289 72.0429 54.229L70.1008 46.9685C70.0207 46.6687 70.1064 46.3485 70.3261 46.1288L75.6445 40.8104Z" fill="white" fill-opacity="0.72"/>
<path fill-rule="evenodd" clip-rule="evenodd" d="M126.355 34.931L79.6768 81.6087L79.6652 103.734L48.9027 134.497C72.6501 144.599 101.187 139.955 120.571 120.571C143.956 97.1853 145.888 60.4772 126.355 34.931ZM65.4114 130.273C82.7169 133.062 101.077 127.779 114.428 114.428C132.211 96.6446 135.68 69.9718 124.827 48.7444L88.3663 85.2047L88.3551 107.33L65.4114 130.273Z" fill="white" fill-opacity="0.72"/>
</svg>
