<svg width="134" height="134" viewBox="0 0 134 134" fill="none" xmlns="http://www.w3.org/2000/svg">
<path d="M105.448 33.6167C112.006 33.6167 121.251 34.4106 125.792 41.2808C130.41 48.2659 126.944 56.4039 125.083 60.7759C120.514 71.5045 113.364 81.4321 92.156 81.4321H80.1443L72.1892 100.113H5.91187L17.2937 73.3843H29.9949L35.5515 60.3354H22.8728L34.2517 33.6167H105.448ZM33.4314 53.356H46.1091L34.6091 80.3638H21.9089L16.4705 93.1333H67.575L73.0125 80.3638H60.1326L62.6511 74.4517H92.156C110.18 74.4516 114.978 66.6893 118.662 58.0415C120.613 53.4589 122.321 48.6873 119.969 45.1294C117.925 42.0361 113.311 40.5962 105.448 40.5962H38.865L33.4314 53.356ZM93.4607 53.356C95.0341 53.356 96.1809 53.7282 96.6101 54.3765C97.1058 55.1252 96.7081 56.3466 96.4265 57.0063C95.1953 59.896 92.2682 61.6919 88.7869 61.6919H68.0847L71.6345 53.356H93.4607Z" fill="white"/>
<path fill-rule="evenodd" clip-rule="evenodd" d="M81.028 96.6125L82.0937 99.3119L83.0823 96.6125H84.1334V100.385H83.4396V97.2723L82.2828 100.385H81.8907L80.6714 97.2723V100.385H79.9977V96.6125H81.028ZM79.1489 96.6125V97.1736H77.9435V100.385H77.1871V97.1736H75.9817V96.6125H79.1489Z" fill="white"/>
</svg>
