<svg width="1237" height="1494" viewBox="0 0 1237 1494" fill="none" xmlns="http://www.w3.org/2000/svg">
<g opacity="0.3" style="mix-blend-mode:overlay">
<path d="M1460.01 257.708L6.0967e-05 -915.884L0.626038 -916.663L1.25299 -917.442L1461.26 256.149L1460.01 257.708ZM1460.01 285.783L5.97398e-05 -887.809L0.626036 -888.588L1.25299 -889.367L1461.26 284.225L1460.01 285.783ZM1460.63 313.115L1460.01 313.895L5.85126e-05 -859.733L0.626035 -860.513L1.25299 -861.292L1461.26 312.335L1460.63 313.115ZM1460.01 341.969L5.72839e-05 -831.623L0.626034 -832.402L1.25299 -833.182L1461.26 340.41L1460.01 341.969ZM1460.01 370.044L5.60567e-05 -803.548L0.626033 -804.327L1.25299 -805.107L1461.26 368.485L1460.01 370.044ZM1460.63 397.376L1460.01 398.155L5.48295e-05 -775.473L0.626031 -776.252L1.25298 -777.031L1461.26 396.596L1460.63 397.376ZM1460.01 426.229L5.36007e-05 -747.362L0.62603 -748.142L1.25298 -748.921L1461.26 424.671L1460.01 426.229ZM1460.01 454.305L5.23735e-05 -719.287L0.626029 -720.066L1.25298 -720.846L1461.26 452.746L1460.01 454.305ZM1460.01 482.416L5.11447e-05 -691.176L0.626028 -691.955L1.25298 -692.734L1461.26 480.857L1460.01 482.416ZM1460.01 510.491L4.99175e-05 -663.101L0.626027 -663.88L1.25298 -664.659L1461.26 508.933L1460.01 510.491ZM1460.63 537.823L1460.01 538.603L4.86903e-05 -635.025L0.626025 -635.805L1.25298 -636.584L1461.26 537.043L1460.63 537.823ZM1460.01 566.677L4.74616e-05 -606.915L0.626024 -607.694L1.25298 -608.474L1461.26 565.118L1460.01 566.677ZM1460.01 594.752L4.62344e-05 -578.84L0.626023 -579.619L1.25298 -580.399L1461.26 593.193L1460.01 594.752ZM1460.63 622.084L1460.01 622.863L4.50072e-05 -550.765L0.626022 -551.544L1.25297 -552.323L1461.26 621.304L1460.63 622.084ZM1460.01 650.937L4.37784e-05 -522.654L0.62602 -523.434L1.25297 -524.213L1461.26 649.379L1460.01 650.937ZM1460.01 679.013L4.25512e-05 -494.579L0.626019 -495.358L1.25297 -496.138L1461.26 677.454L1460.01 679.013ZM1460.01 707.123L4.1324e-05 -466.504L0.626018 -467.283L1.25297 -468.063L1461.26 705.564L1460.01 707.123ZM1460.01 735.199L4.00952e-05 -438.393L0.626017 -439.172L1.25297 -439.951L1461.26 733.641L1460.01 735.199ZM1460.01 763.273L3.88681e-05 -410.318L0.626015 -411.098L1.25297 -411.877L1461.26 761.715L1460.01 763.273ZM1460.01 791.384L3.76393e-05 -382.208L0.626014 -382.987L1.25297 -383.767L1461.26 789.825L1460.01 791.384ZM1460.63 818.681L1460.01 819.461L3.64121e-05 -354.132L0.626013 -354.911L1.25297 -355.69L1461.26 817.901L1460.63 818.681ZM1460.01 847.569L3.51849e-05 -326.058L0.626012 -326.837L1.25296 -327.616L1461.26 846.012L1460.01 847.569ZM1460.01 875.646L3.39561e-05 -297.946L0.626011 -298.726L1.25296 -299.505L1461.26 874.087L1460.01 875.646ZM1460.01 903.721L3.27289e-05 -269.871L0.626009 -270.65L1.25296 -271.43L1461.26 902.162L1460.01 903.721ZM1460.63 931.053L1460.01 931.832L3.15017e-05 -241.796L0.626008 -242.575L1.25296 -243.355L1461.26 930.272L1460.63 931.053ZM1460.63 959.127L1460.01 959.907L3.0273e-05 -213.686L0.626007 -214.465L1.25296 -215.244L1461.26 958.348L1460.63 959.127ZM1460.01 987.981L2.90458e-05 -185.61L0.626006 -186.39L1.25296 -187.169L1461.26 986.423L1460.01 987.981ZM1460.63 1015.31L1460.01 1016.09L2.78186e-05 -157.535L0.626004 -158.315L1.25296 -159.094L1461.26 1014.53L1460.63 1015.31ZM1460.01 1044.17L2.65898e-05 -129.425L0.626003 -130.204L1.25296 -130.983L1461.26 1042.61L1460.01 1044.17ZM1460.01 1072.24L2.53626e-05 -101.35L0.626002 -102.129L1.25296 -102.908L1461.26 1070.68L1460.01 1072.24ZM1460.01 1100.35L2.41339e-05 -73.2393L0.626001 -74.0186L1.25295 -74.7979L1461.26 1098.79L1460.01 1100.35ZM1460.01 1128.43L2.29066e-05 -45.1631L0.626 -45.9424L1.25295 -46.7217L1461.26 1126.87L1460.01 1128.43ZM1460.63 1155.76L1460.01 1156.54L2.16794e-05 -17.088L0.625998 -17.8673L1.25295 -18.6465L1461.26 1154.98L1460.63 1155.76ZM1460.63 1183.83L1460.01 1184.62L2.04507e-05 11.0224L0.625997 10.2431L1.25295 9.4638L1461.26 1183.06L1460.63 1183.83ZM1460.01 1212.69L1.92235e-05 39.0976L0.625996 38.3183L1.25295 37.539L1461.26 1211.13L1460.01 1212.69ZM1460.63 1240.02L1460.01 1240.8L1.79963e-05 67.1728L0.625995 66.3935L1.25295 65.6142L1461.26 1239.24L1460.63 1240.02ZM1460.01 1268.87L1.67675e-05 95.2831L0.625993 94.5038L1.25295 93.7245L1461.26 1267.32L1460.01 1268.87ZM1460.01 1296.95L1.55403e-05 123.358L0.625992 122.579L1.25295 121.8L1461.26 1295.39L1460.01 1296.95ZM1460.01 1325.06L1.43131e-05 151.434L0.625991 150.654L1.25294 149.875L1461.26 1323.5L1460.01 1325.06ZM1460.01 1353.14L1.30844e-05 179.544L0.62599 178.765L1.25294 177.985L1461.26 1351.58L1460.01 1353.14ZM1460.01 1381.21L1.18572e-05 207.619L0.625988 206.84L1.25294 206.06L1461.26 1379.65L1460.01 1381.21ZM1460.01 1409.32L1.06284e-05 235.729L0.625987 234.95L1.25294 234.171L1461.26 1407.76L1460.01 1409.32ZM1460.01 1437.4L9.40116e-06 263.806L0.625986 263.026L1.25294 262.247L1461.26 1435.84L1460.01 1437.4ZM1460.01 1465.51L8.174e-06 291.88L0.625985 291.101L1.25294 290.321L1461.26 1463.95L1460.01 1465.51ZM1460.01 1493.58L6.94526e-06 319.99L0.625984 319.211L1.25294 318.432L1461.26 1492.02L1460.01 1493.58Z" fill="white"/>
</g>
</svg>
