<svg width="1000" height="1000" viewBox="0 0 1000 1000" fill="none" xmlns="http://www.w3.org/2000/svg">
<rect width="1000" height="1000" fill="white"/>
<g filter="url(#filter0_n_736_3414)">
<path d="M950 844.513L935.047 850.887L918.56 856.494L916.214 856.303L910.75 863.635L902.937 883.668L894.358 889.515L889.853 890.041L864.214 871.303L860.235 870.248L854.675 873.939L850.65 877.773L838.718 863.54L829.995 850.983L817.821 835.982L805.982 829.225L793.284 820.742L780.823 801.044L768.122 779.334L749.287 761.553L714.062 735.914L681.713 703.42L656.98 669.44L641.024 651.708L634.217 647.204L601.244 636.085L578.241 620.509L560.508 607.664L549.627 604.214L539.085 603.783L516.608 606.323L497.916 598.272H490.056L477.548 595.923L467.722 593.047L456.174 596.498L432.497 602.25L422.768 601.004L417.497 592.999L414.382 586.865L406.139 580.491H399.332L395.547 586.194L370.817 600.621L329.456 608.624L319.633 608.049L312.3 602.25L291.402 577.473L285.411 573.446L280.667 573.063L270.987 570.139L261.928 565.395L253.972 555.234L245.968 549.435L237.392 569.325L222.342 604.023L214.289 622.618L203.89 646.532L200.631 647.252L195.31 645.526L174.656 615.716L161.668 604.502L151.986 605.557L144.942 611.068L140.484 621.037L135.643 627.171L130.419 629.566L119.157 628.369L101.857 623.624L83.9787 624.63L65.5765 631.436L63.1311 631.627L58.8194 591.946L55.9439 565.395L52.8754 537.262L50 510.664L62.7976 494.321L68.7386 478.793L83.9787 428.28L90.066 418.216L102.047 391.138L103.726 383.278L115.562 349.059L114.462 326.294L112.063 303.29L118.534 289.631L124.285 278.705L123.901 269.502L126.49 247.985L128.359 242.617L135.403 242.281L149.927 245.061L160.612 242.904H172.93L182.419 242.232L188.027 235.667L195.743 210.555L200.728 205.522L204.61 203.989L215.488 199.34L224.787 192.008L232.358 186.783L235.186 185.729L243.19 185.058L251.193 181.991L254.884 178.444L264.997 175.617L274.916 177.198L281.579 174.082L286.034 172.07L291.069 171.927L295.717 169.003L297.586 164.545L300.605 161.67L308.321 155.152L311.867 150.408L313.449 145.615L315.032 141.828L318.434 135.408L331.948 119.303L343.596 109.959L384.235 191.048L400.721 238.879L415.292 288.673L426.074 363.292L436.332 401.25L452.912 419.941L464.271 455.262L474 456.604L481.046 466.285L493.124 499.401L501.798 511.718L506.352 501.126L505.823 495.041L502.421 484.832L505.536 471.701L512.293 463.841L527.726 474.576L536.159 482.675L538.412 498.922L541.96 507.932L558.063 527.007L571.674 532.566L589.31 533.955L604.073 538.125L615.908 545.122L638.098 564.483L688.853 581.449L729.639 633.401L753.648 669.345L832.581 723.741L846.241 749.765L853.335 775.26L869.918 774.063L898.385 801.907L906.675 823.043L929.968 830.711L933.947 818.201L945.209 828.458L950 844.513ZM541.097 378.917L545.602 392.336L532.471 387.208L530.315 384.428L536.066 379.109L537.312 375.85L541.097 378.917ZM549.77 432.593L555.331 439.973L559.213 439.255L562.281 436.81L564.437 431.587L585.668 441.891L584.471 448.744L571.77 449.079L557.153 446.156L543.589 447.162L527.44 444.191L523.701 432.545L534.004 438.152L539.324 436.763L540.281 435.277L532.997 427.417L522.742 425.836L523.461 419.654L528.063 417.208L530.888 414.19L524.994 405.707L536.546 407.624L543.829 412.752L548.621 418.743L549.77 432.593Z" fill="#5E6346" fill-opacity="0.1" stroke="#5E6346" stroke-width="1.5"/>
</g>
<defs>
<filter id="filter0_n_736_3414" x="49.2217" y="108.793" width="901.688" height="782.027" filterUnits="userSpaceOnUse" color-interpolation-filters="sRGB">
<feFlood flood-opacity="0" result="BackgroundImageFix"/>
<feBlend mode="normal" in="SourceGraphic" in2="BackgroundImageFix" result="shape"/>
<feTurbulence type="fractalNoise" baseFrequency="0.5 0.5" stitchTiles="stitch" numOctaves="3" result="noise" seed="7105" />
<feColorMatrix in="noise" type="luminanceToAlpha" result="alphaNoise" />
<feComponentTransfer in="alphaNoise" result="coloredNoise1">
<feFuncA type="discrete" tableValues="1 1 1 1 1 1 1 1 1 1 1 1 1 1 1 1 1 1 1 1 1 1 1 1 1 1 1 1 1 1 1 1 1 1 1 1 1 1 1 1 1 1 1 1 1 1 1 1 1 1 1 0 0 0 0 0 0 0 0 0 0 0 0 0 0 0 0 0 0 0 0 0 0 0 0 0 0 0 0 0 0 0 0 0 0 0 0 0 0 0 0 0 0 0 0 0 0 0 0 0 "/>
</feComponentTransfer>
<feComposite operator="in" in2="shape" in="coloredNoise1" result="noise1Clipped" />
<feFlood flood-color="rgba(145, 177, 157, 0.6)" result="color1Flood" />
<feComposite operator="in" in2="noise1Clipped" in="color1Flood" result="color1" />
<feMerge result="effect1_noise_736_3414">
<feMergeNode in="shape" />
<feMergeNode in="color1" />
</feMerge>
</filter>
</defs>
</svg>
