<svg width="1000" height="1000" viewBox="0 0 1000 1000" fill="none" xmlns="http://www.w3.org/2000/svg">
<rect width="1000" height="1000" fill="white"/>
<g filter="url(#filter0_n_736_3414)">
<path d="M844.056 340.106L838.838 350.515L837.166 357.926L836.647 364.154L836.963 367.759L837.541 370.066L837.799 370.614L838.03 370.988L838.261 371.248L838.521 371.334L853.573 371.392H853.659L853.573 374.708L854.178 391.203L854.697 405.621L855.563 429.179L855.591 435.322L855.014 442.963L853.228 445.991L848.96 450.316L843.567 454.266L829.957 455.275L818.594 455.131L810.549 454.266L799.535 453.92L789.183 454.756L785.376 458.101L779.782 469.895L771.708 486.995L767.44 494.233L766.345 498.443L767.612 500.952L772.948 504.584L784.712 509.717L798.18 512.716L808.214 514.014L815.048 515.427L820.324 516.984L839.443 530.075L845.556 536.16L848.988 541.552L849.796 547.291L852.534 553.086L863.578 564.534L869.951 571.138L886.532 579.616L892.905 589.217L899.048 593.86L904.872 598.878L907.987 606.346L915.166 628.001L920.011 639.363L924.971 648.648L926.932 663.729L930.853 670.477L934.89 678.695L941.58 686.135L948.703 691.786L950 693.315L935.121 707.877L918.425 724.197L899.134 743.114L878.112 763.645L861.648 779.908L845.413 795.941L826.439 814.887L812.424 828.871L810.088 830.833L806.022 833.428L792.671 833.485L778.888 831.841L766.201 823.335L753.31 829.939L745.149 832.015L740.276 832.765L728.77 833.831L712.652 837.378L705.355 841.79L701.406 845.279L698.146 851.71L696.504 852.373L693.533 851.623L689.41 849.028L680.787 845.308L676.433 837.119L672.454 832.188L669.138 829.592L655.47 837.753L648.838 839.657L643.417 839.425L633.498 834.84L622.54 830.919L616.887 830.948L608.439 835.85L598.836 843.174L593.904 850.412L591.511 854.708L589.753 851.277L588.137 848.077L584.907 843.982L580.266 842.367L576.056 843.174L571.125 843.982L568.903 841.646L568.442 836.023L567.087 830.833L564.78 826.94L557.687 823.047L539.406 815.146L525.363 799.373L518.296 792.049L513.136 787.32L505.811 774.92L497.477 766.385L487.385 762.405L480.724 764.366L473.861 773.507L460.913 782.1L454.973 782.388L447.361 777.746L437.786 774.43L420.63 772.988L413.535 777.054L404.251 783.628L396.379 787.55L391.505 788.011L386.948 786.426L381.788 785.59L377.318 785.445L368.148 779.447L363.391 775.035L360.217 770.797L355.027 767.913L348.973 765.49L344.647 761.714L342.484 756.984L339.052 750.928L334.611 745.478L320.598 735.674L316.416 729.879L313.475 724.227L307.766 717.998L301.623 709.664L299.663 697.468L299.402 687.634L298.105 683.078L295.511 678.522L292.482 674.658L287.608 670.333L276.189 664.018L264.367 656.694L258.716 652.426L247.959 650.868L241.529 646.687L236.137 637.489L233.974 630.135L228.525 624.397L226.189 620.245L224.89 615.458L229.216 600.896L222.958 595.735L213.644 589.045L206.954 581.721L202.888 575.002L190.922 566.12L164.855 552.827L149.801 544.349L141.584 536.737L134.403 529.268L133.683 526.211L138.324 518.772L139.018 512.63L135.211 505.882L119.582 493.136L107.125 479.123L97.6945 474.739L74.9728 470.847L68.4555 469.289L61.6495 466.608L54.9315 460.293L52.6541 452.825L55.94 440.858L53.8351 437.196L50 436.187L51.0384 433.707L55.3346 427.881L62.3429 424.104L81.1152 418.192L82.1518 415.915L82.5267 408.446L84.0562 404.784L90.5154 394.403L91.4377 390.28L91.7263 381.456L92.5905 377.275L94.4649 374.305L99.5988 369.172L101.387 366.029L102.165 359.253L101.618 345.872L104.242 340.567L116.064 328.398L119.235 322.948L120.302 318.075L120.187 313.115L120.909 308.213L124.426 303.484L127.425 302.013L136.133 300.514L142.073 301.466L183.597 293.132L188.47 294.257L190.634 299.188L190.431 307.088L191.153 310.923L193.374 313.635L199.976 317.383L204.532 323.669L206.984 325.976L213.644 330.273L244.529 366.144L253.237 369.547L261.685 368.307L278.469 360.868L286.859 358.993L345.569 361.098L352.144 359.973L352.547 360.146L361.486 378.14L365.726 382.235L430.116 382.436L428.905 377.303L429.713 371.594L437.239 364.241L441.046 360.579V360.608L442.66 359.281L452.609 354.004L462.326 350.486L481.012 346.363L487.818 339.846L491.595 333.906L491.709 322.17L494.189 320.238L498.632 317.527L520.229 307.031L523.891 304.811L562.069 329.177L583.466 348.468L584.765 349.42L585.889 349.766L587.012 349.102L587.964 348.208L589.522 347.632L590.56 347.372L599.73 347.112L617.061 346.161L622.77 343.855L657.574 309.396L666.427 298.409L668.648 296.16L673.694 288.345L678.999 274.85L680.067 273.322L718.217 240.968L719.543 238.402L719.918 236.354L714.152 225.454L712.911 219.918L712.68 211.382L713.805 198.118L713.402 189.727L713.258 188.746L712.883 187.449L712.622 186.959L691.342 163.083L745.121 162.852L745.237 160.863L745.179 159.824L745.035 158.873L744.024 156.018L743.419 152.183L743.391 151.145L743.477 150.078L743.766 148.117L743.794 147.05L743.738 146.531L743.65 146.07L743.679 145.637L743.91 145.291L782.549 145.781L782.03 152.558L777.359 168.446L777.445 177.962L776.321 188.862L776.062 189.727L774.995 192.092L774.073 193.418L773.005 194.715L772.716 195.205L772.371 196.013L772.341 197.195L780.358 257.981L780.041 259.509L779.753 260.49L777.619 264.297L777.07 265.537L776.956 266.488L777.82 267.151L795.612 273.726L796.478 274.13L797.17 274.648L803.571 282.462L838.607 311.212L839.818 312.654L843.451 321.68L843.856 323.064L843.97 325.198L843.884 326.87L842.99 332.291L843.278 334.713L843.884 336.328L844.375 338.202V338.751L844.317 339.241L844.056 340.106Z" fill="#5E6346" fill-opacity="0.1" stroke="#5E6346" stroke-width="1.5"/>
</g>
<defs>
<filter id="filter0_n_736_3414" x="48.9756" y="144.535" width="902.048" height="711.764" filterUnits="userSpaceOnUse" color-interpolation-filters="sRGB">
<feFlood flood-opacity="0" result="BackgroundImageFix"/>
<feBlend mode="normal" in="SourceGraphic" in2="BackgroundImageFix" result="shape"/>
<feTurbulence type="fractalNoise" baseFrequency="0.5 0.5" stitchTiles="stitch" numOctaves="3" result="noise" seed="7105" />
<feColorMatrix in="noise" type="luminanceToAlpha" result="alphaNoise" />
<feComponentTransfer in="alphaNoise" result="coloredNoise1">
<feFuncA type="discrete" tableValues="1 1 1 1 1 1 1 1 1 1 1 1 1 1 1 1 1 1 1 1 1 1 1 1 1 1 1 1 1 1 1 1 1 1 1 1 1 1 1 1 1 1 1 1 1 1 1 1 1 1 1 0 0 0 0 0 0 0 0 0 0 0 0 0 0 0 0 0 0 0 0 0 0 0 0 0 0 0 0 0 0 0 0 0 0 0 0 0 0 0 0 0 0 0 0 0 0 0 0 0 "/>
</feComponentTransfer>
<feComposite operator="in" in2="shape" in="coloredNoise1" result="noise1Clipped" />
<feFlood flood-color="rgba(145, 177, 157, 0.6)" result="color1Flood" />
<feComposite operator="in" in2="noise1Clipped" in="color1Flood" result="color1" />
<feMerge result="effect1_noise_736_3414">
<feMergeNode in="shape" />
<feMergeNode in="color1" />
</feMerge>
</filter>
</defs>
</svg>
